G04 #@! TF.FileFunction,Copper,L4,Bot,Signal*
%FSLAX46Y46*%
G04 Gerber Fmt 4.6, Leading zero omitted, Abs format (unit mm)*
G04 Created by KiCad (PCBNEW 4.0.5) date 02/16/17 10:34:01*
%MOMM*%
%LPD*%
G01*
G04 APERTURE LIST*
%ADD10C,0.100000*%
%ADD11C,0.400000*%
%ADD12R,1.700000X1.700000*%
%ADD13O,1.700000X1.700000*%
%ADD14C,0.800000*%
%ADD15C,0.300000*%
%ADD16C,0.200000*%
%ADD17C,0.254000*%
G04 APERTURE END LIST*
D10*
D11*
X87500000Y-85000000D03*
X87500000Y-86000000D03*
X87500000Y-99000000D03*
X87500000Y-100000000D03*
X151500000Y-98000000D03*
X152500000Y-99000000D03*
X152500000Y-98000000D03*
X152500000Y-97000000D03*
X149500000Y-102000000D03*
X151500000Y-102000000D03*
X151500000Y-104000000D03*
X150500000Y-102000000D03*
X87500000Y-98000000D03*
X89500000Y-97000000D03*
X88500000Y-87000000D03*
X87500000Y-87000000D03*
X88500000Y-88000000D03*
X89500000Y-88000000D03*
X88500000Y-96000000D03*
X89500000Y-96000000D03*
X144000000Y-103000000D03*
X145000000Y-106000000D03*
X144000000Y-106000000D03*
X147000000Y-102000000D03*
X152500000Y-102000000D03*
X146000000Y-102000000D03*
X145000000Y-104000000D03*
X151500000Y-105000000D03*
X88500000Y-97000000D03*
X87500000Y-97000000D03*
X87500000Y-88000000D03*
X89500000Y-87000000D03*
X152500000Y-105000000D03*
X145000000Y-103000000D03*
X145000000Y-105000000D03*
X151500000Y-106000000D03*
X144000000Y-105000000D03*
X144000000Y-104000000D03*
X152500000Y-103000000D03*
X152500000Y-104000000D03*
X144000000Y-102000000D03*
X152500000Y-106000000D03*
X151500000Y-97000000D03*
X151500000Y-96000000D03*
X145000000Y-102000000D03*
X151500000Y-103000000D03*
X151500000Y-99000000D03*
X88500000Y-90000000D03*
X89500000Y-90000000D03*
X88500000Y-94000000D03*
X89500000Y-94000000D03*
X87500000Y-103000000D03*
X87500000Y-104000000D03*
X87500000Y-102000000D03*
X87500000Y-101000000D03*
X87500000Y-94000000D03*
X89500000Y-93000000D03*
X88500000Y-93000000D03*
X87500000Y-93000000D03*
X89500000Y-89000000D03*
X87500000Y-90000000D03*
X87500000Y-95000000D03*
X88500000Y-95000000D03*
X87500000Y-105000000D03*
X87500000Y-106000000D03*
X87500000Y-96000000D03*
X89500000Y-95000000D03*
X88500000Y-89000000D03*
X87500000Y-89000000D03*
X152500000Y-89000000D03*
X151500000Y-89000000D03*
X152500000Y-86000000D03*
X151500000Y-86000000D03*
X151500000Y-82000000D03*
X152500000Y-82000000D03*
X152500000Y-84000000D03*
X151500000Y-85000000D03*
X152500000Y-85000000D03*
X151500000Y-87000000D03*
X152500000Y-83000000D03*
X151500000Y-83000000D03*
X151500000Y-88000000D03*
X152500000Y-88000000D03*
X152500000Y-90000000D03*
X152500000Y-87000000D03*
X151500000Y-84000000D03*
X152500000Y-93000000D03*
X151500000Y-94000000D03*
X152500000Y-94000000D03*
X152500000Y-92000000D03*
X152500000Y-91000000D03*
X152500000Y-95000000D03*
X151500000Y-95000000D03*
X87500000Y-84000000D03*
X152500000Y-96000000D03*
X87500000Y-83000000D03*
D12*
X101092000Y-82550000D03*
D13*
X103632000Y-82550000D03*
X106172000Y-82550000D03*
X108712000Y-82550000D03*
X111252000Y-82550000D03*
X113792000Y-82550000D03*
X116332000Y-82550000D03*
X118872000Y-82550000D03*
X121412000Y-82550000D03*
X123952000Y-82550000D03*
X126492000Y-82550000D03*
X129032000Y-82550000D03*
X131572000Y-82550000D03*
X134112000Y-82550000D03*
X136652000Y-82550000D03*
X139192000Y-82550000D03*
D12*
X101092000Y-105410000D03*
D13*
X103632000Y-105410000D03*
X106172000Y-105410000D03*
X108712000Y-105410000D03*
X111252000Y-105410000D03*
X113792000Y-105410000D03*
X116332000Y-105410000D03*
X118872000Y-105410000D03*
X121412000Y-105410000D03*
X123952000Y-105410000D03*
X126492000Y-105410000D03*
X129032000Y-105410000D03*
X131572000Y-105410000D03*
X134112000Y-105410000D03*
X136652000Y-105410000D03*
X139192000Y-105410000D03*
D11*
X87500000Y-82000000D03*
X115714750Y-94886750D03*
X114602250Y-94886750D03*
X113489750Y-94886750D03*
X112377250Y-94886750D03*
X115714750Y-93774250D03*
X114602250Y-93774250D03*
X113489750Y-93774250D03*
X112377250Y-93774250D03*
X115714750Y-92661750D03*
X114602250Y-92661750D03*
X113489750Y-92661750D03*
X112377250Y-92661750D03*
X115714750Y-91549250D03*
X114602250Y-91549250D03*
X113489750Y-91549250D03*
X112377250Y-91549250D03*
X111633000Y-98806000D03*
X119380000Y-86614000D03*
X97663000Y-95250000D03*
X95885000Y-95250000D03*
X94107000Y-95250000D03*
X92329000Y-95250000D03*
X99441000Y-86614000D03*
X101600000Y-88900000D03*
X112268000Y-88900000D03*
X113792000Y-88900000D03*
X94260000Y-99500000D03*
X88860000Y-99500000D03*
X91313000Y-102870000D03*
X98171000Y-102235000D03*
X116967000Y-97155000D03*
X96100000Y-99500000D03*
D14*
X118999000Y-97536000D03*
X102235000Y-101092000D03*
D11*
X115824000Y-88646000D03*
X115189000Y-88646000D03*
X109855000Y-94869000D03*
X109855000Y-95504000D03*
X103886000Y-96393000D03*
X108204000Y-96393000D03*
X110490000Y-97282000D03*
X144780000Y-99060000D03*
X110744000Y-97917000D03*
X143764000Y-99060000D03*
X112268000Y-98298000D03*
X142748000Y-99060000D03*
X113030000Y-98298000D03*
X141732000Y-99060000D03*
X114554000Y-98298000D03*
X140589000Y-99060000D03*
X115316000Y-98044000D03*
X139573000Y-99060000D03*
X116205000Y-98044000D03*
X119253000Y-93726000D03*
X123698000Y-93218000D03*
X121412000Y-86614000D03*
X116459000Y-88646000D03*
X114554000Y-88646000D03*
X129421705Y-88585405D03*
X117094000Y-88646000D03*
X117856000Y-90297000D03*
X117983000Y-91059000D03*
X118491000Y-91440000D03*
X136525000Y-99060000D03*
X121666000Y-94361000D03*
X126111000Y-87249000D03*
X137541000Y-99060000D03*
X118491000Y-95631000D03*
X117729000Y-96393000D03*
X130683000Y-89281000D03*
X138557000Y-99060000D03*
D15*
X112268000Y-88900000D02*
X101600000Y-88900000D01*
X112268000Y-88900000D02*
X113665000Y-88900000D01*
X111252000Y-105410000D02*
X111252000Y-104521000D01*
X109601000Y-102870000D02*
X91313000Y-102870000D01*
X111252000Y-104521000D02*
X109601000Y-102870000D01*
X98453842Y-102235000D02*
X98171000Y-102235000D01*
X110724044Y-102342044D02*
X98560886Y-102342044D01*
X98560886Y-102342044D02*
X98453842Y-102235000D01*
X113792000Y-105410000D02*
X110724044Y-102342044D01*
D16*
X96100000Y-99500000D02*
X96774000Y-98826000D01*
X110744000Y-95123000D02*
X111633000Y-96012000D01*
X96774000Y-98826000D02*
X96774000Y-95123000D01*
X96774000Y-95123000D02*
X97790000Y-94107000D01*
X97790000Y-94107000D02*
X110363000Y-94107000D01*
X115824000Y-96012000D02*
X116967000Y-97155000D01*
X110363000Y-94107000D02*
X110744000Y-94488000D01*
X110744000Y-94488000D02*
X110744000Y-95123000D01*
X111633000Y-96012000D02*
X115824000Y-96012000D01*
X114300000Y-90424000D02*
X115824000Y-88900000D01*
X94742000Y-90424000D02*
X114300000Y-90424000D01*
X91486011Y-93679989D02*
X94742000Y-90424000D01*
X91486011Y-100454268D02*
X91486011Y-93679989D01*
X88900000Y-104902000D02*
X88692011Y-104694011D01*
X88692011Y-103248267D02*
X91486011Y-100454268D01*
X88692011Y-104694011D02*
X88692011Y-103248267D01*
X98171000Y-104902000D02*
X88900000Y-104902000D01*
X106934000Y-103632000D02*
X99441000Y-103632000D01*
X108712000Y-105410000D02*
X106934000Y-103632000D01*
X99441000Y-103632000D02*
X98171000Y-104902000D01*
X115824000Y-88646000D02*
X115824000Y-88900000D01*
X106172000Y-105410000D02*
X104694011Y-103932011D01*
X104694011Y-103932011D02*
X99565268Y-103932011D01*
X99565268Y-103932011D02*
X98295268Y-105202011D01*
X91186000Y-100330000D02*
X91186000Y-93472000D01*
X98295268Y-105202011D02*
X88692011Y-105202011D01*
X88692011Y-105202011D02*
X88392000Y-104902000D01*
X88392000Y-104902000D02*
X88392000Y-103124000D01*
X88392000Y-103124000D02*
X91186000Y-100330000D01*
X115189000Y-89027000D02*
X115189000Y-88646000D01*
X91186000Y-93472000D02*
X94615000Y-90043000D01*
X94615000Y-90043000D02*
X114173000Y-90043000D01*
X114173000Y-90043000D02*
X115189000Y-89027000D01*
X133262001Y-104560001D02*
X134112000Y-105410000D01*
X131316119Y-102614119D02*
X133262001Y-104560001D01*
X112687562Y-102614119D02*
X131316119Y-102614119D01*
X109347000Y-99273557D02*
X112687562Y-102614119D01*
X109347000Y-95377000D02*
X109347000Y-99273557D01*
X109855000Y-94869000D02*
X109347000Y-95377000D01*
X112811830Y-102314108D02*
X133556108Y-102314108D01*
X133556108Y-102314108D02*
X135802001Y-104560001D01*
X135802001Y-104560001D02*
X136652000Y-105410000D01*
X109855000Y-99357278D02*
X112811830Y-102314108D01*
X109855000Y-95504000D02*
X109855000Y-99357278D01*
X105617885Y-96393000D02*
X112439026Y-103214141D01*
X128182001Y-104560001D02*
X129032000Y-105410000D01*
X112439026Y-103214141D02*
X126836141Y-103214141D01*
X103886000Y-96393000D02*
X105617885Y-96393000D01*
X126836141Y-103214141D02*
X128182001Y-104560001D01*
X129076130Y-102914130D02*
X130722001Y-104560001D01*
X108204000Y-96393000D02*
X108204000Y-98554836D01*
X130722001Y-104560001D02*
X131572000Y-105410000D01*
X112563294Y-102914130D02*
X129076130Y-102914130D01*
X108204000Y-98554836D02*
X112563294Y-102914130D01*
X110290001Y-99284280D02*
X113019818Y-102014097D01*
X113019818Y-102014097D02*
X135796097Y-102014097D01*
X110290001Y-97481999D02*
X110290001Y-99284280D01*
X110490000Y-97282000D02*
X110290001Y-97481999D01*
X135796097Y-102014097D02*
X138342001Y-104560001D01*
X138342001Y-104560001D02*
X139192000Y-105410000D01*
X144580001Y-99259999D02*
X144780000Y-99060000D01*
X110744000Y-99230279D02*
X113227807Y-101714086D01*
X113227807Y-101714086D02*
X142125914Y-101714086D01*
X142125914Y-101714086D02*
X144580001Y-99259999D01*
X110744000Y-97917000D02*
X110744000Y-99230279D01*
X143564001Y-99259999D02*
X143764000Y-99060000D01*
X112268000Y-98298000D02*
X115384075Y-101414075D01*
X115384075Y-101414075D02*
X141409925Y-101414075D01*
X141409925Y-101414075D02*
X143564001Y-99259999D01*
X142548001Y-99259999D02*
X142748000Y-99060000D01*
X140693936Y-101114064D02*
X142548001Y-99259999D01*
X115846064Y-101114064D02*
X140693936Y-101114064D01*
X113030000Y-98298000D02*
X115846064Y-101114064D01*
X141532001Y-99259999D02*
X141732000Y-99060000D01*
X114554000Y-98298000D02*
X117070053Y-100814053D01*
X117070053Y-100814053D02*
X139977947Y-100814053D01*
X139977947Y-100814053D02*
X141532001Y-99259999D01*
X139134958Y-100514042D02*
X140389001Y-99259999D01*
X115316000Y-98044000D02*
X117786042Y-100514042D01*
X140389001Y-99259999D02*
X140589000Y-99060000D01*
X117786042Y-100514042D02*
X139134958Y-100514042D01*
X138418969Y-100214031D02*
X139373001Y-99259999D01*
X139373001Y-99259999D02*
X139573000Y-99060000D01*
X118375031Y-100214031D02*
X138418969Y-100214031D01*
X116205000Y-98044000D02*
X118375031Y-100214031D01*
X123190000Y-93726000D02*
X119253000Y-93726000D01*
X123698000Y-93218000D02*
X123190000Y-93726000D01*
X116459000Y-88646000D02*
X116459000Y-88265000D01*
X121412000Y-87503000D02*
X121412000Y-86614000D01*
X121031000Y-87884000D02*
X121412000Y-87503000D01*
X116840000Y-87884000D02*
X121031000Y-87884000D01*
X116459000Y-88265000D02*
X116840000Y-87884000D01*
X117094000Y-88646000D02*
X129361110Y-88646000D01*
X129361110Y-88646000D02*
X129421705Y-88585405D01*
X122428000Y-99314000D02*
X136271000Y-99314000D01*
X136271000Y-99314000D02*
X136525000Y-99060000D01*
X121666000Y-98552000D02*
X122428000Y-99314000D01*
X121666000Y-94361000D02*
X121666000Y-98552000D01*
X118491000Y-95913842D02*
X122191167Y-99614009D01*
X137341001Y-99259999D02*
X137541000Y-99060000D01*
X136986991Y-99614009D02*
X137341001Y-99259999D01*
X122191167Y-99614009D02*
X136986991Y-99614009D01*
X118491000Y-95631000D02*
X118491000Y-95913842D01*
X138557000Y-99060000D02*
X137702980Y-99914020D01*
X137702980Y-99914020D02*
X120234020Y-99914020D01*
X120234020Y-99914020D02*
X117729000Y-97409000D01*
X117729000Y-97409000D02*
X117729000Y-96393000D01*
D17*
G36*
X99607000Y-81573691D02*
X99607000Y-82264250D01*
X99765750Y-82423000D01*
X100965000Y-82423000D01*
X100965000Y-82403000D01*
X101219000Y-82403000D01*
X101219000Y-82423000D01*
X101239000Y-82423000D01*
X101239000Y-82677000D01*
X101219000Y-82677000D01*
X101219000Y-83876250D01*
X101377750Y-84035000D01*
X102068310Y-84035000D01*
X102301699Y-83938327D01*
X102480327Y-83759698D01*
X102577000Y-83526309D01*
X102577000Y-83168364D01*
X102761552Y-83444565D01*
X103160917Y-83711413D01*
X103632000Y-83805117D01*
X104103083Y-83711413D01*
X104502448Y-83444565D01*
X104769296Y-83045200D01*
X104863000Y-82574117D01*
X104863000Y-82525883D01*
X104769296Y-82054800D01*
X104502448Y-81655435D01*
X104203973Y-81456000D01*
X105600027Y-81456000D01*
X105301552Y-81655435D01*
X105034704Y-82054800D01*
X104941000Y-82525883D01*
X104941000Y-82574117D01*
X105034704Y-83045200D01*
X105301552Y-83444565D01*
X105700917Y-83711413D01*
X106172000Y-83805117D01*
X106643083Y-83711413D01*
X107042448Y-83444565D01*
X107309296Y-83045200D01*
X107403000Y-82574117D01*
X107403000Y-82525883D01*
X107309296Y-82054800D01*
X107042448Y-81655435D01*
X106743973Y-81456000D01*
X108140027Y-81456000D01*
X107841552Y-81655435D01*
X107574704Y-82054800D01*
X107481000Y-82525883D01*
X107481000Y-82574117D01*
X107574704Y-83045200D01*
X107841552Y-83444565D01*
X108240917Y-83711413D01*
X108712000Y-83805117D01*
X109183083Y-83711413D01*
X109582448Y-83444565D01*
X109849296Y-83045200D01*
X109943000Y-82574117D01*
X109943000Y-82525883D01*
X109849296Y-82054800D01*
X109582448Y-81655435D01*
X109283973Y-81456000D01*
X110680027Y-81456000D01*
X110381552Y-81655435D01*
X110114704Y-82054800D01*
X110021000Y-82525883D01*
X110021000Y-82574117D01*
X110114704Y-83045200D01*
X110381552Y-83444565D01*
X110780917Y-83711413D01*
X111252000Y-83805117D01*
X111723083Y-83711413D01*
X112122448Y-83444565D01*
X112389296Y-83045200D01*
X112483000Y-82574117D01*
X112483000Y-82525883D01*
X112389296Y-82054800D01*
X112122448Y-81655435D01*
X111823973Y-81456000D01*
X113220027Y-81456000D01*
X112921552Y-81655435D01*
X112654704Y-82054800D01*
X112561000Y-82525883D01*
X112561000Y-82574117D01*
X112654704Y-83045200D01*
X112921552Y-83444565D01*
X113320917Y-83711413D01*
X113792000Y-83805117D01*
X114263083Y-83711413D01*
X114662448Y-83444565D01*
X114929296Y-83045200D01*
X115023000Y-82574117D01*
X115023000Y-82525883D01*
X114929296Y-82054800D01*
X114662448Y-81655435D01*
X114363973Y-81456000D01*
X115760027Y-81456000D01*
X115461552Y-81655435D01*
X115194704Y-82054800D01*
X115101000Y-82525883D01*
X115101000Y-82574117D01*
X115194704Y-83045200D01*
X115461552Y-83444565D01*
X115860917Y-83711413D01*
X116332000Y-83805117D01*
X116803083Y-83711413D01*
X117202448Y-83444565D01*
X117469296Y-83045200D01*
X117563000Y-82574117D01*
X117563000Y-82525883D01*
X117469296Y-82054800D01*
X117202448Y-81655435D01*
X116903973Y-81456000D01*
X118300027Y-81456000D01*
X118001552Y-81655435D01*
X117734704Y-82054800D01*
X117641000Y-82525883D01*
X117641000Y-82574117D01*
X117734704Y-83045200D01*
X118001552Y-83444565D01*
X118400917Y-83711413D01*
X118872000Y-83805117D01*
X119343083Y-83711413D01*
X119742448Y-83444565D01*
X120009296Y-83045200D01*
X120103000Y-82574117D01*
X120103000Y-82525883D01*
X120009296Y-82054800D01*
X119742448Y-81655435D01*
X119443973Y-81456000D01*
X120840027Y-81456000D01*
X120541552Y-81655435D01*
X120274704Y-82054800D01*
X120181000Y-82525883D01*
X120181000Y-82574117D01*
X120274704Y-83045200D01*
X120541552Y-83444565D01*
X120940917Y-83711413D01*
X121412000Y-83805117D01*
X121883083Y-83711413D01*
X122282448Y-83444565D01*
X122549296Y-83045200D01*
X122643000Y-82574117D01*
X122643000Y-82525883D01*
X122549296Y-82054800D01*
X122282448Y-81655435D01*
X121983973Y-81456000D01*
X123380027Y-81456000D01*
X123081552Y-81655435D01*
X122814704Y-82054800D01*
X122721000Y-82525883D01*
X122721000Y-82574117D01*
X122814704Y-83045200D01*
X123081552Y-83444565D01*
X123480917Y-83711413D01*
X123952000Y-83805117D01*
X124423083Y-83711413D01*
X124822448Y-83444565D01*
X125089296Y-83045200D01*
X125183000Y-82574117D01*
X125183000Y-82525883D01*
X125089296Y-82054800D01*
X124822448Y-81655435D01*
X124523973Y-81456000D01*
X125920027Y-81456000D01*
X125621552Y-81655435D01*
X125354704Y-82054800D01*
X125261000Y-82525883D01*
X125261000Y-82574117D01*
X125354704Y-83045200D01*
X125621552Y-83444565D01*
X126020917Y-83711413D01*
X126492000Y-83805117D01*
X126963083Y-83711413D01*
X127362448Y-83444565D01*
X127629296Y-83045200D01*
X127723000Y-82574117D01*
X127723000Y-82525883D01*
X127629296Y-82054800D01*
X127362448Y-81655435D01*
X127063973Y-81456000D01*
X128460027Y-81456000D01*
X128161552Y-81655435D01*
X127894704Y-82054800D01*
X127801000Y-82525883D01*
X127801000Y-82574117D01*
X127894704Y-83045200D01*
X128161552Y-83444565D01*
X128560917Y-83711413D01*
X129032000Y-83805117D01*
X129503083Y-83711413D01*
X129902448Y-83444565D01*
X130169296Y-83045200D01*
X130263000Y-82574117D01*
X130263000Y-82525883D01*
X130169296Y-82054800D01*
X129902448Y-81655435D01*
X129603973Y-81456000D01*
X131000027Y-81456000D01*
X130701552Y-81655435D01*
X130434704Y-82054800D01*
X130341000Y-82525883D01*
X130341000Y-82574117D01*
X130434704Y-83045200D01*
X130701552Y-83444565D01*
X131100917Y-83711413D01*
X131572000Y-83805117D01*
X132043083Y-83711413D01*
X132442448Y-83444565D01*
X132709296Y-83045200D01*
X132803000Y-82574117D01*
X132803000Y-82525883D01*
X132709296Y-82054800D01*
X132442448Y-81655435D01*
X132143973Y-81456000D01*
X133540027Y-81456000D01*
X133241552Y-81655435D01*
X132974704Y-82054800D01*
X132881000Y-82525883D01*
X132881000Y-82574117D01*
X132974704Y-83045200D01*
X133241552Y-83444565D01*
X133640917Y-83711413D01*
X134112000Y-83805117D01*
X134583083Y-83711413D01*
X134982448Y-83444565D01*
X135249296Y-83045200D01*
X135343000Y-82574117D01*
X135343000Y-82525883D01*
X135249296Y-82054800D01*
X134982448Y-81655435D01*
X134683973Y-81456000D01*
X136080027Y-81456000D01*
X135781552Y-81655435D01*
X135514704Y-82054800D01*
X135421000Y-82525883D01*
X135421000Y-82574117D01*
X135514704Y-83045200D01*
X135781552Y-83444565D01*
X136180917Y-83711413D01*
X136652000Y-83805117D01*
X137123083Y-83711413D01*
X137522448Y-83444565D01*
X137789296Y-83045200D01*
X137883000Y-82574117D01*
X137883000Y-82525883D01*
X137789296Y-82054800D01*
X137522448Y-81655435D01*
X137223973Y-81456000D01*
X138620027Y-81456000D01*
X138321552Y-81655435D01*
X138054704Y-82054800D01*
X137961000Y-82525883D01*
X137961000Y-82574117D01*
X138054704Y-83045200D01*
X138321552Y-83444565D01*
X138720917Y-83711413D01*
X139192000Y-83805117D01*
X139663083Y-83711413D01*
X140062448Y-83444565D01*
X140329296Y-83045200D01*
X140423000Y-82574117D01*
X140423000Y-82525883D01*
X140329296Y-82054800D01*
X140062448Y-81655435D01*
X139763973Y-81456000D01*
X152873000Y-81456000D01*
X152873000Y-106544000D01*
X139704109Y-106544000D01*
X140062448Y-106304565D01*
X140329296Y-105905200D01*
X140423000Y-105434117D01*
X140423000Y-105385883D01*
X140329296Y-104914800D01*
X140062448Y-104515435D01*
X139663083Y-104248587D01*
X139192000Y-104154883D01*
X138720917Y-104248587D01*
X138714866Y-104252630D01*
X136657322Y-102195086D01*
X142125914Y-102195086D01*
X142309985Y-102158472D01*
X142466032Y-102054204D01*
X144879150Y-99641086D01*
X144895061Y-99641100D01*
X145108680Y-99552835D01*
X145272260Y-99389540D01*
X145360898Y-99176075D01*
X145361100Y-98944939D01*
X145272835Y-98731320D01*
X145109540Y-98567740D01*
X144896075Y-98479102D01*
X144664939Y-98478900D01*
X144451320Y-98567165D01*
X144287740Y-98730460D01*
X144272071Y-98768195D01*
X144256835Y-98731320D01*
X144093540Y-98567740D01*
X143880075Y-98479102D01*
X143648939Y-98478900D01*
X143435320Y-98567165D01*
X143271740Y-98730460D01*
X143256071Y-98768195D01*
X143240835Y-98731320D01*
X143077540Y-98567740D01*
X142864075Y-98479102D01*
X142632939Y-98478900D01*
X142419320Y-98567165D01*
X142255740Y-98730460D01*
X142240071Y-98768195D01*
X142224835Y-98731320D01*
X142061540Y-98567740D01*
X141848075Y-98479102D01*
X141616939Y-98478900D01*
X141403320Y-98567165D01*
X141239740Y-98730460D01*
X141160414Y-98921498D01*
X141081835Y-98731320D01*
X140918540Y-98567740D01*
X140705075Y-98479102D01*
X140473939Y-98478900D01*
X140260320Y-98567165D01*
X140096740Y-98730460D01*
X140081071Y-98768195D01*
X140065835Y-98731320D01*
X139902540Y-98567740D01*
X139689075Y-98479102D01*
X139457939Y-98478900D01*
X139244320Y-98567165D01*
X139080740Y-98730460D01*
X139065071Y-98768195D01*
X139049835Y-98731320D01*
X138886540Y-98567740D01*
X138673075Y-98479102D01*
X138441939Y-98478900D01*
X138228320Y-98567165D01*
X138064740Y-98730460D01*
X138049071Y-98768195D01*
X138033835Y-98731320D01*
X137870540Y-98567740D01*
X137657075Y-98479102D01*
X137425939Y-98478900D01*
X137212320Y-98567165D01*
X137048740Y-98730460D01*
X137033071Y-98768195D01*
X137017835Y-98731320D01*
X136854540Y-98567740D01*
X136641075Y-98479102D01*
X136409939Y-98478900D01*
X136196320Y-98567165D01*
X136032740Y-98730460D01*
X135990162Y-98833000D01*
X122627237Y-98833000D01*
X122147000Y-98352764D01*
X122147000Y-94701780D01*
X122158260Y-94690540D01*
X122246898Y-94477075D01*
X122247100Y-94245939D01*
X122231011Y-94207000D01*
X123190000Y-94207000D01*
X123374071Y-94170386D01*
X123530118Y-94066118D01*
X123797150Y-93799086D01*
X123813061Y-93799100D01*
X124026680Y-93710835D01*
X124190260Y-93547540D01*
X124278898Y-93334075D01*
X124279100Y-93102939D01*
X124190835Y-92889320D01*
X124027540Y-92725740D01*
X123814075Y-92637102D01*
X123582939Y-92636900D01*
X123369320Y-92725165D01*
X123205740Y-92888460D01*
X123117102Y-93101925D01*
X123117087Y-93118676D01*
X122990764Y-93245000D01*
X119593780Y-93245000D01*
X119582540Y-93233740D01*
X119369075Y-93145102D01*
X119137939Y-93144900D01*
X118924320Y-93233165D01*
X118760740Y-93396460D01*
X118672102Y-93609925D01*
X118671900Y-93841061D01*
X118760165Y-94054680D01*
X118923460Y-94218260D01*
X119136925Y-94306898D01*
X119368061Y-94307100D01*
X119581680Y-94218835D01*
X119593536Y-94207000D01*
X121100850Y-94207000D01*
X121085102Y-94244925D01*
X121084900Y-94476061D01*
X121173165Y-94689680D01*
X121185000Y-94701536D01*
X121185000Y-97927605D01*
X119052114Y-95794720D01*
X119071898Y-95747075D01*
X119072100Y-95515939D01*
X118983835Y-95302320D01*
X118820540Y-95138740D01*
X118607075Y-95050102D01*
X118375939Y-95049900D01*
X118162320Y-95138165D01*
X117998740Y-95301460D01*
X117910102Y-95514925D01*
X117909900Y-95746061D01*
X117956264Y-95858272D01*
X117845075Y-95812102D01*
X117613939Y-95811900D01*
X117400320Y-95900165D01*
X117236740Y-96063460D01*
X117148102Y-96276925D01*
X117147900Y-96508061D01*
X117194264Y-96620272D01*
X117083075Y-96574102D01*
X117066323Y-96574087D01*
X116164118Y-95671882D01*
X116008071Y-95567614D01*
X116006925Y-95567386D01*
X115824000Y-95531000D01*
X111832236Y-95531000D01*
X111225000Y-94923764D01*
X111225000Y-94488000D01*
X111188386Y-94303929D01*
X111084118Y-94147881D01*
X110703118Y-93766882D01*
X110547071Y-93662614D01*
X110363000Y-93626000D01*
X97790000Y-93626000D01*
X97605929Y-93662614D01*
X97533762Y-93710835D01*
X97449882Y-93766882D01*
X96433882Y-94782882D01*
X96355997Y-94899444D01*
X96214540Y-94757740D01*
X96001075Y-94669102D01*
X95769939Y-94668900D01*
X95556320Y-94757165D01*
X95392740Y-94920460D01*
X95304102Y-95133925D01*
X95303900Y-95365061D01*
X95392165Y-95578680D01*
X95555460Y-95742260D01*
X95768925Y-95830898D01*
X96000061Y-95831100D01*
X96213680Y-95742835D01*
X96293000Y-95663653D01*
X96293000Y-98626764D01*
X96000850Y-98918914D01*
X95984939Y-98918900D01*
X95771320Y-99007165D01*
X95607740Y-99170460D01*
X95519102Y-99383925D01*
X95518900Y-99615061D01*
X95607165Y-99828680D01*
X95770460Y-99992260D01*
X95983925Y-100080898D01*
X96215061Y-100081100D01*
X96428680Y-99992835D01*
X96592260Y-99829540D01*
X96680898Y-99616075D01*
X96680913Y-99599323D01*
X97114118Y-99166118D01*
X97165322Y-99089486D01*
X97218386Y-99010071D01*
X97255000Y-98826000D01*
X97255000Y-95663663D01*
X97333460Y-95742260D01*
X97546925Y-95830898D01*
X97778061Y-95831100D01*
X97991680Y-95742835D01*
X98155260Y-95579540D01*
X98243898Y-95366075D01*
X98244100Y-95134939D01*
X98155835Y-94921320D01*
X97992540Y-94757740D01*
X97870268Y-94706968D01*
X97989236Y-94588000D01*
X109342585Y-94588000D01*
X109274102Y-94752925D01*
X109274087Y-94769676D01*
X109006882Y-95036882D01*
X108902614Y-95192929D01*
X108866000Y-95377000D01*
X108866000Y-98536600D01*
X108685000Y-98355600D01*
X108685000Y-96733780D01*
X108696260Y-96722540D01*
X108784898Y-96509075D01*
X108785100Y-96277939D01*
X108696835Y-96064320D01*
X108533540Y-95900740D01*
X108320075Y-95812102D01*
X108088939Y-95811900D01*
X107875320Y-95900165D01*
X107711740Y-96063460D01*
X107623102Y-96276925D01*
X107622900Y-96508061D01*
X107711165Y-96721680D01*
X107723000Y-96733536D01*
X107723000Y-97817879D01*
X105958003Y-96052882D01*
X105801956Y-95948614D01*
X105617885Y-95912000D01*
X104226780Y-95912000D01*
X104215540Y-95900740D01*
X104002075Y-95812102D01*
X103770939Y-95811900D01*
X103557320Y-95900165D01*
X103393740Y-96063460D01*
X103305102Y-96276925D01*
X103304900Y-96508061D01*
X103393165Y-96721680D01*
X103556460Y-96885260D01*
X103769925Y-96973898D01*
X104001061Y-96974100D01*
X104214680Y-96885835D01*
X104226536Y-96874000D01*
X105418649Y-96874000D01*
X110355693Y-101811044D01*
X102539943Y-101811044D01*
X102676823Y-101754486D01*
X102896714Y-101534979D01*
X103015864Y-101248032D01*
X103016136Y-100937331D01*
X102897486Y-100650177D01*
X102677979Y-100430286D01*
X102391032Y-100311136D01*
X102080331Y-100310864D01*
X101793177Y-100429514D01*
X101573286Y-100649021D01*
X101454136Y-100935968D01*
X101453864Y-101246669D01*
X101572514Y-101533823D01*
X101792021Y-101753714D01*
X101930088Y-101811044D01*
X98756757Y-101811044D01*
X98657047Y-101744420D01*
X98453842Y-101704000D01*
X98407243Y-101704000D01*
X98287075Y-101654102D01*
X98055939Y-101653900D01*
X97842320Y-101742165D01*
X97678740Y-101905460D01*
X97590102Y-102118925D01*
X97589910Y-102339000D01*
X91549243Y-102339000D01*
X91429075Y-102289102D01*
X91197939Y-102288900D01*
X90984320Y-102377165D01*
X90820740Y-102540460D01*
X90732102Y-102753925D01*
X90731900Y-102985061D01*
X90820165Y-103198680D01*
X90935827Y-103314544D01*
X90898786Y-103351521D01*
X90779636Y-103638468D01*
X90779364Y-103949169D01*
X90898014Y-104236323D01*
X91082368Y-104421000D01*
X90238372Y-104421000D01*
X90422214Y-104237479D01*
X90541364Y-103950532D01*
X90541636Y-103639831D01*
X90422986Y-103352677D01*
X90203479Y-103132786D01*
X89916532Y-103013636D01*
X89607149Y-103013365D01*
X91826129Y-100794386D01*
X91930397Y-100638339D01*
X91955115Y-100514071D01*
X91967011Y-100454268D01*
X91967011Y-99615061D01*
X93678900Y-99615061D01*
X93767165Y-99828680D01*
X93930460Y-99992260D01*
X94143925Y-100080898D01*
X94375061Y-100081100D01*
X94588680Y-99992835D01*
X94752260Y-99829540D01*
X94840898Y-99616075D01*
X94841100Y-99384939D01*
X94752835Y-99171320D01*
X94589540Y-99007740D01*
X94376075Y-98919102D01*
X94144939Y-98918900D01*
X93931320Y-99007165D01*
X93767740Y-99170460D01*
X93679102Y-99383925D01*
X93678900Y-99615061D01*
X91967011Y-99615061D01*
X91967011Y-95709754D01*
X91999460Y-95742260D01*
X92212925Y-95830898D01*
X92444061Y-95831100D01*
X92657680Y-95742835D01*
X92821260Y-95579540D01*
X92909898Y-95366075D01*
X92909898Y-95365061D01*
X93525900Y-95365061D01*
X93614165Y-95578680D01*
X93777460Y-95742260D01*
X93990925Y-95830898D01*
X94222061Y-95831100D01*
X94435680Y-95742835D01*
X94599260Y-95579540D01*
X94687898Y-95366075D01*
X94688100Y-95134939D01*
X94599835Y-94921320D01*
X94436540Y-94757740D01*
X94223075Y-94669102D01*
X93991939Y-94668900D01*
X93778320Y-94757165D01*
X93614740Y-94920460D01*
X93526102Y-95133925D01*
X93525900Y-95365061D01*
X92909898Y-95365061D01*
X92910100Y-95134939D01*
X92821835Y-94921320D01*
X92658540Y-94757740D01*
X92445075Y-94669102D01*
X92213939Y-94668900D01*
X92000320Y-94757165D01*
X91967011Y-94790416D01*
X91967011Y-93879225D01*
X94941237Y-90905000D01*
X114300000Y-90905000D01*
X114484071Y-90868386D01*
X114640118Y-90764118D01*
X114992175Y-90412061D01*
X117274900Y-90412061D01*
X117363165Y-90625680D01*
X117483697Y-90746422D01*
X117402102Y-90942925D01*
X117401900Y-91174061D01*
X117490165Y-91387680D01*
X117653460Y-91551260D01*
X117866925Y-91639898D01*
X117944982Y-91639966D01*
X117998165Y-91768680D01*
X118161460Y-91932260D01*
X118374925Y-92020898D01*
X118606061Y-92021100D01*
X118819680Y-91932835D01*
X118983260Y-91769540D01*
X119071898Y-91556075D01*
X119072100Y-91324939D01*
X118983835Y-91111320D01*
X118820540Y-90947740D01*
X118607075Y-90859102D01*
X118529018Y-90859034D01*
X118475835Y-90730320D01*
X118355303Y-90609578D01*
X118436898Y-90413075D01*
X118437100Y-90181939D01*
X118348835Y-89968320D01*
X118185540Y-89804740D01*
X117972075Y-89716102D01*
X117740939Y-89715900D01*
X117527320Y-89804165D01*
X117363740Y-89967460D01*
X117275102Y-90180925D01*
X117274900Y-90412061D01*
X114992175Y-90412061D01*
X116008175Y-89396061D01*
X130101900Y-89396061D01*
X130190165Y-89609680D01*
X130353460Y-89773260D01*
X130566925Y-89861898D01*
X130798061Y-89862100D01*
X131011680Y-89773835D01*
X131175260Y-89610540D01*
X131263898Y-89397075D01*
X131264100Y-89165939D01*
X131175835Y-88952320D01*
X131012540Y-88788740D01*
X130799075Y-88700102D01*
X130567939Y-88699900D01*
X130354320Y-88788165D01*
X130190740Y-88951460D01*
X130102102Y-89164925D01*
X130101900Y-89396061D01*
X116008175Y-89396061D01*
X116164118Y-89240119D01*
X116209869Y-89171648D01*
X116342925Y-89226898D01*
X116574061Y-89227100D01*
X116776735Y-89143357D01*
X116977925Y-89226898D01*
X117209061Y-89227100D01*
X117422680Y-89138835D01*
X117434536Y-89127000D01*
X129210977Y-89127000D01*
X129305630Y-89166303D01*
X129536766Y-89166505D01*
X129750385Y-89078240D01*
X129913965Y-88914945D01*
X130002603Y-88701480D01*
X130002805Y-88470344D01*
X129914540Y-88256725D01*
X129751245Y-88093145D01*
X129537780Y-88004507D01*
X129306644Y-88004305D01*
X129093025Y-88092570D01*
X129020469Y-88165000D01*
X121430236Y-88165000D01*
X121752118Y-87843119D01*
X121856386Y-87687071D01*
X121878145Y-87577680D01*
X121893000Y-87503000D01*
X121893000Y-87364061D01*
X125529900Y-87364061D01*
X125618165Y-87577680D01*
X125781460Y-87741260D01*
X125994925Y-87829898D01*
X126226061Y-87830100D01*
X126439680Y-87741835D01*
X126603260Y-87578540D01*
X126691898Y-87365075D01*
X126692100Y-87133939D01*
X126603835Y-86920320D01*
X126440540Y-86756740D01*
X126227075Y-86668102D01*
X125995939Y-86667900D01*
X125782320Y-86756165D01*
X125618740Y-86919460D01*
X125530102Y-87132925D01*
X125529900Y-87364061D01*
X121893000Y-87364061D01*
X121893000Y-86954780D01*
X121904260Y-86943540D01*
X121992898Y-86730075D01*
X121993100Y-86498939D01*
X121904835Y-86285320D01*
X121741540Y-86121740D01*
X121528075Y-86033102D01*
X121296939Y-86032900D01*
X121083320Y-86121165D01*
X120919740Y-86284460D01*
X120831102Y-86497925D01*
X120830900Y-86729061D01*
X120919165Y-86942680D01*
X120931000Y-86954536D01*
X120931000Y-87303763D01*
X120831764Y-87403000D01*
X116840000Y-87403000D01*
X116655929Y-87439614D01*
X116499881Y-87543882D01*
X116118882Y-87924882D01*
X116014614Y-88080929D01*
X116011835Y-88094899D01*
X115940075Y-88065102D01*
X115708939Y-88064900D01*
X115506265Y-88148643D01*
X115305075Y-88065102D01*
X115073939Y-88064900D01*
X114871265Y-88148643D01*
X114670075Y-88065102D01*
X114438939Y-88064900D01*
X114225320Y-88153165D01*
X114061740Y-88316460D01*
X114038206Y-88373137D01*
X113908075Y-88319102D01*
X113676939Y-88318900D01*
X113555687Y-88369000D01*
X112504243Y-88369000D01*
X112384075Y-88319102D01*
X112152939Y-88318900D01*
X112031687Y-88369000D01*
X101836243Y-88369000D01*
X101716075Y-88319102D01*
X101484939Y-88318900D01*
X101271320Y-88407165D01*
X101107740Y-88570460D01*
X101019102Y-88783925D01*
X101018900Y-89015061D01*
X101107165Y-89228680D01*
X101270460Y-89392260D01*
X101483925Y-89480898D01*
X101715061Y-89481100D01*
X101836313Y-89431000D01*
X112031757Y-89431000D01*
X112151925Y-89480898D01*
X112383061Y-89481100D01*
X112504313Y-89431000D01*
X113555757Y-89431000D01*
X113675925Y-89480898D01*
X113907061Y-89481100D01*
X114120680Y-89392835D01*
X114284260Y-89229540D01*
X114307794Y-89172863D01*
X114346732Y-89189032D01*
X113973764Y-89562000D01*
X94615000Y-89562000D01*
X94430929Y-89598614D01*
X94274881Y-89702882D01*
X90845882Y-93131882D01*
X90741614Y-93287929D01*
X90705000Y-93472000D01*
X90705000Y-100130763D01*
X88051882Y-102783882D01*
X87947614Y-102939929D01*
X87911000Y-103124000D01*
X87911000Y-104902000D01*
X87931366Y-105004387D01*
X87947614Y-105086071D01*
X88051882Y-105242118D01*
X88351893Y-105542130D01*
X88429629Y-105594071D01*
X88507940Y-105646397D01*
X88692011Y-105683011D01*
X98295268Y-105683011D01*
X98479339Y-105646397D01*
X98635386Y-105542129D01*
X99607000Y-104570516D01*
X99607000Y-105124250D01*
X99765750Y-105283000D01*
X100965000Y-105283000D01*
X100965000Y-105263000D01*
X101219000Y-105263000D01*
X101219000Y-105283000D01*
X101239000Y-105283000D01*
X101239000Y-105537000D01*
X101219000Y-105537000D01*
X101219000Y-105557000D01*
X100965000Y-105557000D01*
X100965000Y-105537000D01*
X99765750Y-105537000D01*
X99607000Y-105695750D01*
X99607000Y-106386309D01*
X99672318Y-106544000D01*
X87127000Y-106544000D01*
X87127000Y-99615061D01*
X88278900Y-99615061D01*
X88367165Y-99828680D01*
X88530460Y-99992260D01*
X88743925Y-100080898D01*
X88975061Y-100081100D01*
X89188680Y-99992835D01*
X89352260Y-99829540D01*
X89440898Y-99616075D01*
X89441100Y-99384939D01*
X89352835Y-99171320D01*
X89189540Y-99007740D01*
X88976075Y-98919102D01*
X88744939Y-98918900D01*
X88531320Y-99007165D01*
X88367740Y-99170460D01*
X88279102Y-99383925D01*
X88278900Y-99615061D01*
X87127000Y-99615061D01*
X87127000Y-86729061D01*
X98859900Y-86729061D01*
X98948165Y-86942680D01*
X99111460Y-87106260D01*
X99324925Y-87194898D01*
X99556061Y-87195100D01*
X99769680Y-87106835D01*
X99933260Y-86943540D01*
X100021898Y-86730075D01*
X100021898Y-86729061D01*
X118798900Y-86729061D01*
X118887165Y-86942680D01*
X119050460Y-87106260D01*
X119263925Y-87194898D01*
X119495061Y-87195100D01*
X119708680Y-87106835D01*
X119872260Y-86943540D01*
X119960898Y-86730075D01*
X119961100Y-86498939D01*
X119872835Y-86285320D01*
X119709540Y-86121740D01*
X119496075Y-86033102D01*
X119264939Y-86032900D01*
X119051320Y-86121165D01*
X118887740Y-86284460D01*
X118799102Y-86497925D01*
X118798900Y-86729061D01*
X100021898Y-86729061D01*
X100022100Y-86498939D01*
X99933835Y-86285320D01*
X99770540Y-86121740D01*
X99557075Y-86033102D01*
X99325939Y-86032900D01*
X99112320Y-86121165D01*
X98948740Y-86284460D01*
X98860102Y-86497925D01*
X98859900Y-86729061D01*
X87127000Y-86729061D01*
X87127000Y-82835750D01*
X99607000Y-82835750D01*
X99607000Y-83526309D01*
X99703673Y-83759698D01*
X99882301Y-83938327D01*
X100115690Y-84035000D01*
X100806250Y-84035000D01*
X100965000Y-83876250D01*
X100965000Y-82677000D01*
X99765750Y-82677000D01*
X99607000Y-82835750D01*
X87127000Y-82835750D01*
X87127000Y-81456000D01*
X99655749Y-81456000D01*
X99607000Y-81573691D01*
X99607000Y-81573691D01*
G37*
X99607000Y-81573691D02*
X99607000Y-82264250D01*
X99765750Y-82423000D01*
X100965000Y-82423000D01*
X100965000Y-82403000D01*
X101219000Y-82403000D01*
X101219000Y-82423000D01*
X101239000Y-82423000D01*
X101239000Y-82677000D01*
X101219000Y-82677000D01*
X101219000Y-83876250D01*
X101377750Y-84035000D01*
X102068310Y-84035000D01*
X102301699Y-83938327D01*
X102480327Y-83759698D01*
X102577000Y-83526309D01*
X102577000Y-83168364D01*
X102761552Y-83444565D01*
X103160917Y-83711413D01*
X103632000Y-83805117D01*
X104103083Y-83711413D01*
X104502448Y-83444565D01*
X104769296Y-83045200D01*
X104863000Y-82574117D01*
X104863000Y-82525883D01*
X104769296Y-82054800D01*
X104502448Y-81655435D01*
X104203973Y-81456000D01*
X105600027Y-81456000D01*
X105301552Y-81655435D01*
X105034704Y-82054800D01*
X104941000Y-82525883D01*
X104941000Y-82574117D01*
X105034704Y-83045200D01*
X105301552Y-83444565D01*
X105700917Y-83711413D01*
X106172000Y-83805117D01*
X106643083Y-83711413D01*
X107042448Y-83444565D01*
X107309296Y-83045200D01*
X107403000Y-82574117D01*
X107403000Y-82525883D01*
X107309296Y-82054800D01*
X107042448Y-81655435D01*
X106743973Y-81456000D01*
X108140027Y-81456000D01*
X107841552Y-81655435D01*
X107574704Y-82054800D01*
X107481000Y-82525883D01*
X107481000Y-82574117D01*
X107574704Y-83045200D01*
X107841552Y-83444565D01*
X108240917Y-83711413D01*
X108712000Y-83805117D01*
X109183083Y-83711413D01*
X109582448Y-83444565D01*
X109849296Y-83045200D01*
X109943000Y-82574117D01*
X109943000Y-82525883D01*
X109849296Y-82054800D01*
X109582448Y-81655435D01*
X109283973Y-81456000D01*
X110680027Y-81456000D01*
X110381552Y-81655435D01*
X110114704Y-82054800D01*
X110021000Y-82525883D01*
X110021000Y-82574117D01*
X110114704Y-83045200D01*
X110381552Y-83444565D01*
X110780917Y-83711413D01*
X111252000Y-83805117D01*
X111723083Y-83711413D01*
X112122448Y-83444565D01*
X112389296Y-83045200D01*
X112483000Y-82574117D01*
X112483000Y-82525883D01*
X112389296Y-82054800D01*
X112122448Y-81655435D01*
X111823973Y-81456000D01*
X113220027Y-81456000D01*
X112921552Y-81655435D01*
X112654704Y-82054800D01*
X112561000Y-82525883D01*
X112561000Y-82574117D01*
X112654704Y-83045200D01*
X112921552Y-83444565D01*
X113320917Y-83711413D01*
X113792000Y-83805117D01*
X114263083Y-83711413D01*
X114662448Y-83444565D01*
X114929296Y-83045200D01*
X115023000Y-82574117D01*
X115023000Y-82525883D01*
X114929296Y-82054800D01*
X114662448Y-81655435D01*
X114363973Y-81456000D01*
X115760027Y-81456000D01*
X115461552Y-81655435D01*
X115194704Y-82054800D01*
X115101000Y-82525883D01*
X115101000Y-82574117D01*
X115194704Y-83045200D01*
X115461552Y-83444565D01*
X115860917Y-83711413D01*
X116332000Y-83805117D01*
X116803083Y-83711413D01*
X117202448Y-83444565D01*
X117469296Y-83045200D01*
X117563000Y-82574117D01*
X117563000Y-82525883D01*
X117469296Y-82054800D01*
X117202448Y-81655435D01*
X116903973Y-81456000D01*
X118300027Y-81456000D01*
X118001552Y-81655435D01*
X117734704Y-82054800D01*
X117641000Y-82525883D01*
X117641000Y-82574117D01*
X117734704Y-83045200D01*
X118001552Y-83444565D01*
X118400917Y-83711413D01*
X118872000Y-83805117D01*
X119343083Y-83711413D01*
X119742448Y-83444565D01*
X120009296Y-83045200D01*
X120103000Y-82574117D01*
X120103000Y-82525883D01*
X120009296Y-82054800D01*
X119742448Y-81655435D01*
X119443973Y-81456000D01*
X120840027Y-81456000D01*
X120541552Y-81655435D01*
X120274704Y-82054800D01*
X120181000Y-82525883D01*
X120181000Y-82574117D01*
X120274704Y-83045200D01*
X120541552Y-83444565D01*
X120940917Y-83711413D01*
X121412000Y-83805117D01*
X121883083Y-83711413D01*
X122282448Y-83444565D01*
X122549296Y-83045200D01*
X122643000Y-82574117D01*
X122643000Y-82525883D01*
X122549296Y-82054800D01*
X122282448Y-81655435D01*
X121983973Y-81456000D01*
X123380027Y-81456000D01*
X123081552Y-81655435D01*
X122814704Y-82054800D01*
X122721000Y-82525883D01*
X122721000Y-82574117D01*
X122814704Y-83045200D01*
X123081552Y-83444565D01*
X123480917Y-83711413D01*
X123952000Y-83805117D01*
X124423083Y-83711413D01*
X124822448Y-83444565D01*
X125089296Y-83045200D01*
X125183000Y-82574117D01*
X125183000Y-82525883D01*
X125089296Y-82054800D01*
X124822448Y-81655435D01*
X124523973Y-81456000D01*
X125920027Y-81456000D01*
X125621552Y-81655435D01*
X125354704Y-82054800D01*
X125261000Y-82525883D01*
X125261000Y-82574117D01*
X125354704Y-83045200D01*
X125621552Y-83444565D01*
X126020917Y-83711413D01*
X126492000Y-83805117D01*
X126963083Y-83711413D01*
X127362448Y-83444565D01*
X127629296Y-83045200D01*
X127723000Y-82574117D01*
X127723000Y-82525883D01*
X127629296Y-82054800D01*
X127362448Y-81655435D01*
X127063973Y-81456000D01*
X128460027Y-81456000D01*
X128161552Y-81655435D01*
X127894704Y-82054800D01*
X127801000Y-82525883D01*
X127801000Y-82574117D01*
X127894704Y-83045200D01*
X128161552Y-83444565D01*
X128560917Y-83711413D01*
X129032000Y-83805117D01*
X129503083Y-83711413D01*
X129902448Y-83444565D01*
X130169296Y-83045200D01*
X130263000Y-82574117D01*
X130263000Y-82525883D01*
X130169296Y-82054800D01*
X129902448Y-81655435D01*
X129603973Y-81456000D01*
X131000027Y-81456000D01*
X130701552Y-81655435D01*
X130434704Y-82054800D01*
X130341000Y-82525883D01*
X130341000Y-82574117D01*
X130434704Y-83045200D01*
X130701552Y-83444565D01*
X131100917Y-83711413D01*
X131572000Y-83805117D01*
X132043083Y-83711413D01*
X132442448Y-83444565D01*
X132709296Y-83045200D01*
X132803000Y-82574117D01*
X132803000Y-82525883D01*
X132709296Y-82054800D01*
X132442448Y-81655435D01*
X132143973Y-81456000D01*
X133540027Y-81456000D01*
X133241552Y-81655435D01*
X132974704Y-82054800D01*
X132881000Y-82525883D01*
X132881000Y-82574117D01*
X132974704Y-83045200D01*
X133241552Y-83444565D01*
X133640917Y-83711413D01*
X134112000Y-83805117D01*
X134583083Y-83711413D01*
X134982448Y-83444565D01*
X135249296Y-83045200D01*
X135343000Y-82574117D01*
X135343000Y-82525883D01*
X135249296Y-82054800D01*
X134982448Y-81655435D01*
X134683973Y-81456000D01*
X136080027Y-81456000D01*
X135781552Y-81655435D01*
X135514704Y-82054800D01*
X135421000Y-82525883D01*
X135421000Y-82574117D01*
X135514704Y-83045200D01*
X135781552Y-83444565D01*
X136180917Y-83711413D01*
X136652000Y-83805117D01*
X137123083Y-83711413D01*
X137522448Y-83444565D01*
X137789296Y-83045200D01*
X137883000Y-82574117D01*
X137883000Y-82525883D01*
X137789296Y-82054800D01*
X137522448Y-81655435D01*
X137223973Y-81456000D01*
X138620027Y-81456000D01*
X138321552Y-81655435D01*
X138054704Y-82054800D01*
X137961000Y-82525883D01*
X137961000Y-82574117D01*
X138054704Y-83045200D01*
X138321552Y-83444565D01*
X138720917Y-83711413D01*
X139192000Y-83805117D01*
X139663083Y-83711413D01*
X140062448Y-83444565D01*
X140329296Y-83045200D01*
X140423000Y-82574117D01*
X140423000Y-82525883D01*
X140329296Y-82054800D01*
X140062448Y-81655435D01*
X139763973Y-81456000D01*
X152873000Y-81456000D01*
X152873000Y-106544000D01*
X139704109Y-106544000D01*
X140062448Y-106304565D01*
X140329296Y-105905200D01*
X140423000Y-105434117D01*
X140423000Y-105385883D01*
X140329296Y-104914800D01*
X140062448Y-104515435D01*
X139663083Y-104248587D01*
X139192000Y-104154883D01*
X138720917Y-104248587D01*
X138714866Y-104252630D01*
X136657322Y-102195086D01*
X142125914Y-102195086D01*
X142309985Y-102158472D01*
X142466032Y-102054204D01*
X144879150Y-99641086D01*
X144895061Y-99641100D01*
X145108680Y-99552835D01*
X145272260Y-99389540D01*
X145360898Y-99176075D01*
X145361100Y-98944939D01*
X145272835Y-98731320D01*
X145109540Y-98567740D01*
X144896075Y-98479102D01*
X144664939Y-98478900D01*
X144451320Y-98567165D01*
X144287740Y-98730460D01*
X144272071Y-98768195D01*
X144256835Y-98731320D01*
X144093540Y-98567740D01*
X143880075Y-98479102D01*
X143648939Y-98478900D01*
X143435320Y-98567165D01*
X143271740Y-98730460D01*
X143256071Y-98768195D01*
X143240835Y-98731320D01*
X143077540Y-98567740D01*
X142864075Y-98479102D01*
X142632939Y-98478900D01*
X142419320Y-98567165D01*
X142255740Y-98730460D01*
X142240071Y-98768195D01*
X142224835Y-98731320D01*
X142061540Y-98567740D01*
X141848075Y-98479102D01*
X141616939Y-98478900D01*
X141403320Y-98567165D01*
X141239740Y-98730460D01*
X141160414Y-98921498D01*
X141081835Y-98731320D01*
X140918540Y-98567740D01*
X140705075Y-98479102D01*
X140473939Y-98478900D01*
X140260320Y-98567165D01*
X140096740Y-98730460D01*
X140081071Y-98768195D01*
X140065835Y-98731320D01*
X139902540Y-98567740D01*
X139689075Y-98479102D01*
X139457939Y-98478900D01*
X139244320Y-98567165D01*
X139080740Y-98730460D01*
X139065071Y-98768195D01*
X139049835Y-98731320D01*
X138886540Y-98567740D01*
X138673075Y-98479102D01*
X138441939Y-98478900D01*
X138228320Y-98567165D01*
X138064740Y-98730460D01*
X138049071Y-98768195D01*
X138033835Y-98731320D01*
X137870540Y-98567740D01*
X137657075Y-98479102D01*
X137425939Y-98478900D01*
X137212320Y-98567165D01*
X137048740Y-98730460D01*
X137033071Y-98768195D01*
X137017835Y-98731320D01*
X136854540Y-98567740D01*
X136641075Y-98479102D01*
X136409939Y-98478900D01*
X136196320Y-98567165D01*
X136032740Y-98730460D01*
X135990162Y-98833000D01*
X122627237Y-98833000D01*
X122147000Y-98352764D01*
X122147000Y-94701780D01*
X122158260Y-94690540D01*
X122246898Y-94477075D01*
X122247100Y-94245939D01*
X122231011Y-94207000D01*
X123190000Y-94207000D01*
X123374071Y-94170386D01*
X123530118Y-94066118D01*
X123797150Y-93799086D01*
X123813061Y-93799100D01*
X124026680Y-93710835D01*
X124190260Y-93547540D01*
X124278898Y-93334075D01*
X124279100Y-93102939D01*
X124190835Y-92889320D01*
X124027540Y-92725740D01*
X123814075Y-92637102D01*
X123582939Y-92636900D01*
X123369320Y-92725165D01*
X123205740Y-92888460D01*
X123117102Y-93101925D01*
X123117087Y-93118676D01*
X122990764Y-93245000D01*
X119593780Y-93245000D01*
X119582540Y-93233740D01*
X119369075Y-93145102D01*
X119137939Y-93144900D01*
X118924320Y-93233165D01*
X118760740Y-93396460D01*
X118672102Y-93609925D01*
X118671900Y-93841061D01*
X118760165Y-94054680D01*
X118923460Y-94218260D01*
X119136925Y-94306898D01*
X119368061Y-94307100D01*
X119581680Y-94218835D01*
X119593536Y-94207000D01*
X121100850Y-94207000D01*
X121085102Y-94244925D01*
X121084900Y-94476061D01*
X121173165Y-94689680D01*
X121185000Y-94701536D01*
X121185000Y-97927605D01*
X119052114Y-95794720D01*
X119071898Y-95747075D01*
X119072100Y-95515939D01*
X118983835Y-95302320D01*
X118820540Y-95138740D01*
X118607075Y-95050102D01*
X118375939Y-95049900D01*
X118162320Y-95138165D01*
X117998740Y-95301460D01*
X117910102Y-95514925D01*
X117909900Y-95746061D01*
X117956264Y-95858272D01*
X117845075Y-95812102D01*
X117613939Y-95811900D01*
X117400320Y-95900165D01*
X117236740Y-96063460D01*
X117148102Y-96276925D01*
X117147900Y-96508061D01*
X117194264Y-96620272D01*
X117083075Y-96574102D01*
X117066323Y-96574087D01*
X116164118Y-95671882D01*
X116008071Y-95567614D01*
X116006925Y-95567386D01*
X115824000Y-95531000D01*
X111832236Y-95531000D01*
X111225000Y-94923764D01*
X111225000Y-94488000D01*
X111188386Y-94303929D01*
X111084118Y-94147881D01*
X110703118Y-93766882D01*
X110547071Y-93662614D01*
X110363000Y-93626000D01*
X97790000Y-93626000D01*
X97605929Y-93662614D01*
X97533762Y-93710835D01*
X97449882Y-93766882D01*
X96433882Y-94782882D01*
X96355997Y-94899444D01*
X96214540Y-94757740D01*
X96001075Y-94669102D01*
X95769939Y-94668900D01*
X95556320Y-94757165D01*
X95392740Y-94920460D01*
X95304102Y-95133925D01*
X95303900Y-95365061D01*
X95392165Y-95578680D01*
X95555460Y-95742260D01*
X95768925Y-95830898D01*
X96000061Y-95831100D01*
X96213680Y-95742835D01*
X96293000Y-95663653D01*
X96293000Y-98626764D01*
X96000850Y-98918914D01*
X95984939Y-98918900D01*
X95771320Y-99007165D01*
X95607740Y-99170460D01*
X95519102Y-99383925D01*
X95518900Y-99615061D01*
X95607165Y-99828680D01*
X95770460Y-99992260D01*
X95983925Y-100080898D01*
X96215061Y-100081100D01*
X96428680Y-99992835D01*
X96592260Y-99829540D01*
X96680898Y-99616075D01*
X96680913Y-99599323D01*
X97114118Y-99166118D01*
X97165322Y-99089486D01*
X97218386Y-99010071D01*
X97255000Y-98826000D01*
X97255000Y-95663663D01*
X97333460Y-95742260D01*
X97546925Y-95830898D01*
X97778061Y-95831100D01*
X97991680Y-95742835D01*
X98155260Y-95579540D01*
X98243898Y-95366075D01*
X98244100Y-95134939D01*
X98155835Y-94921320D01*
X97992540Y-94757740D01*
X97870268Y-94706968D01*
X97989236Y-94588000D01*
X109342585Y-94588000D01*
X109274102Y-94752925D01*
X109274087Y-94769676D01*
X109006882Y-95036882D01*
X108902614Y-95192929D01*
X108866000Y-95377000D01*
X108866000Y-98536600D01*
X108685000Y-98355600D01*
X108685000Y-96733780D01*
X108696260Y-96722540D01*
X108784898Y-96509075D01*
X108785100Y-96277939D01*
X108696835Y-96064320D01*
X108533540Y-95900740D01*
X108320075Y-95812102D01*
X108088939Y-95811900D01*
X107875320Y-95900165D01*
X107711740Y-96063460D01*
X107623102Y-96276925D01*
X107622900Y-96508061D01*
X107711165Y-96721680D01*
X107723000Y-96733536D01*
X107723000Y-97817879D01*
X105958003Y-96052882D01*
X105801956Y-95948614D01*
X105617885Y-95912000D01*
X104226780Y-95912000D01*
X104215540Y-95900740D01*
X104002075Y-95812102D01*
X103770939Y-95811900D01*
X103557320Y-95900165D01*
X103393740Y-96063460D01*
X103305102Y-96276925D01*
X103304900Y-96508061D01*
X103393165Y-96721680D01*
X103556460Y-96885260D01*
X103769925Y-96973898D01*
X104001061Y-96974100D01*
X104214680Y-96885835D01*
X104226536Y-96874000D01*
X105418649Y-96874000D01*
X110355693Y-101811044D01*
X102539943Y-101811044D01*
X102676823Y-101754486D01*
X102896714Y-101534979D01*
X103015864Y-101248032D01*
X103016136Y-100937331D01*
X102897486Y-100650177D01*
X102677979Y-100430286D01*
X102391032Y-100311136D01*
X102080331Y-100310864D01*
X101793177Y-100429514D01*
X101573286Y-100649021D01*
X101454136Y-100935968D01*
X101453864Y-101246669D01*
X101572514Y-101533823D01*
X101792021Y-101753714D01*
X101930088Y-101811044D01*
X98756757Y-101811044D01*
X98657047Y-101744420D01*
X98453842Y-101704000D01*
X98407243Y-101704000D01*
X98287075Y-101654102D01*
X98055939Y-101653900D01*
X97842320Y-101742165D01*
X97678740Y-101905460D01*
X97590102Y-102118925D01*
X97589910Y-102339000D01*
X91549243Y-102339000D01*
X91429075Y-102289102D01*
X91197939Y-102288900D01*
X90984320Y-102377165D01*
X90820740Y-102540460D01*
X90732102Y-102753925D01*
X90731900Y-102985061D01*
X90820165Y-103198680D01*
X90935827Y-103314544D01*
X90898786Y-103351521D01*
X90779636Y-103638468D01*
X90779364Y-103949169D01*
X90898014Y-104236323D01*
X91082368Y-104421000D01*
X90238372Y-104421000D01*
X90422214Y-104237479D01*
X90541364Y-103950532D01*
X90541636Y-103639831D01*
X90422986Y-103352677D01*
X90203479Y-103132786D01*
X89916532Y-103013636D01*
X89607149Y-103013365D01*
X91826129Y-100794386D01*
X91930397Y-100638339D01*
X91955115Y-100514071D01*
X91967011Y-100454268D01*
X91967011Y-99615061D01*
X93678900Y-99615061D01*
X93767165Y-99828680D01*
X93930460Y-99992260D01*
X94143925Y-100080898D01*
X94375061Y-100081100D01*
X94588680Y-99992835D01*
X94752260Y-99829540D01*
X94840898Y-99616075D01*
X94841100Y-99384939D01*
X94752835Y-99171320D01*
X94589540Y-99007740D01*
X94376075Y-98919102D01*
X94144939Y-98918900D01*
X93931320Y-99007165D01*
X93767740Y-99170460D01*
X93679102Y-99383925D01*
X93678900Y-99615061D01*
X91967011Y-99615061D01*
X91967011Y-95709754D01*
X91999460Y-95742260D01*
X92212925Y-95830898D01*
X92444061Y-95831100D01*
X92657680Y-95742835D01*
X92821260Y-95579540D01*
X92909898Y-95366075D01*
X92909898Y-95365061D01*
X93525900Y-95365061D01*
X93614165Y-95578680D01*
X93777460Y-95742260D01*
X93990925Y-95830898D01*
X94222061Y-95831100D01*
X94435680Y-95742835D01*
X94599260Y-95579540D01*
X94687898Y-95366075D01*
X94688100Y-95134939D01*
X94599835Y-94921320D01*
X94436540Y-94757740D01*
X94223075Y-94669102D01*
X93991939Y-94668900D01*
X93778320Y-94757165D01*
X93614740Y-94920460D01*
X93526102Y-95133925D01*
X93525900Y-95365061D01*
X92909898Y-95365061D01*
X92910100Y-95134939D01*
X92821835Y-94921320D01*
X92658540Y-94757740D01*
X92445075Y-94669102D01*
X92213939Y-94668900D01*
X92000320Y-94757165D01*
X91967011Y-94790416D01*
X91967011Y-93879225D01*
X94941237Y-90905000D01*
X114300000Y-90905000D01*
X114484071Y-90868386D01*
X114640118Y-90764118D01*
X114992175Y-90412061D01*
X117274900Y-90412061D01*
X117363165Y-90625680D01*
X117483697Y-90746422D01*
X117402102Y-90942925D01*
X117401900Y-91174061D01*
X117490165Y-91387680D01*
X117653460Y-91551260D01*
X117866925Y-91639898D01*
X117944982Y-91639966D01*
X117998165Y-91768680D01*
X118161460Y-91932260D01*
X118374925Y-92020898D01*
X118606061Y-92021100D01*
X118819680Y-91932835D01*
X118983260Y-91769540D01*
X119071898Y-91556075D01*
X119072100Y-91324939D01*
X118983835Y-91111320D01*
X118820540Y-90947740D01*
X118607075Y-90859102D01*
X118529018Y-90859034D01*
X118475835Y-90730320D01*
X118355303Y-90609578D01*
X118436898Y-90413075D01*
X118437100Y-90181939D01*
X118348835Y-89968320D01*
X118185540Y-89804740D01*
X117972075Y-89716102D01*
X117740939Y-89715900D01*
X117527320Y-89804165D01*
X117363740Y-89967460D01*
X117275102Y-90180925D01*
X117274900Y-90412061D01*
X114992175Y-90412061D01*
X116008175Y-89396061D01*
X130101900Y-89396061D01*
X130190165Y-89609680D01*
X130353460Y-89773260D01*
X130566925Y-89861898D01*
X130798061Y-89862100D01*
X131011680Y-89773835D01*
X131175260Y-89610540D01*
X131263898Y-89397075D01*
X131264100Y-89165939D01*
X131175835Y-88952320D01*
X131012540Y-88788740D01*
X130799075Y-88700102D01*
X130567939Y-88699900D01*
X130354320Y-88788165D01*
X130190740Y-88951460D01*
X130102102Y-89164925D01*
X130101900Y-89396061D01*
X116008175Y-89396061D01*
X116164118Y-89240119D01*
X116209869Y-89171648D01*
X116342925Y-89226898D01*
X116574061Y-89227100D01*
X116776735Y-89143357D01*
X116977925Y-89226898D01*
X117209061Y-89227100D01*
X117422680Y-89138835D01*
X117434536Y-89127000D01*
X129210977Y-89127000D01*
X129305630Y-89166303D01*
X129536766Y-89166505D01*
X129750385Y-89078240D01*
X129913965Y-88914945D01*
X130002603Y-88701480D01*
X130002805Y-88470344D01*
X129914540Y-88256725D01*
X129751245Y-88093145D01*
X129537780Y-88004507D01*
X129306644Y-88004305D01*
X129093025Y-88092570D01*
X129020469Y-88165000D01*
X121430236Y-88165000D01*
X121752118Y-87843119D01*
X121856386Y-87687071D01*
X121878145Y-87577680D01*
X121893000Y-87503000D01*
X121893000Y-87364061D01*
X125529900Y-87364061D01*
X125618165Y-87577680D01*
X125781460Y-87741260D01*
X125994925Y-87829898D01*
X126226061Y-87830100D01*
X126439680Y-87741835D01*
X126603260Y-87578540D01*
X126691898Y-87365075D01*
X126692100Y-87133939D01*
X126603835Y-86920320D01*
X126440540Y-86756740D01*
X126227075Y-86668102D01*
X125995939Y-86667900D01*
X125782320Y-86756165D01*
X125618740Y-86919460D01*
X125530102Y-87132925D01*
X125529900Y-87364061D01*
X121893000Y-87364061D01*
X121893000Y-86954780D01*
X121904260Y-86943540D01*
X121992898Y-86730075D01*
X121993100Y-86498939D01*
X121904835Y-86285320D01*
X121741540Y-86121740D01*
X121528075Y-86033102D01*
X121296939Y-86032900D01*
X121083320Y-86121165D01*
X120919740Y-86284460D01*
X120831102Y-86497925D01*
X120830900Y-86729061D01*
X120919165Y-86942680D01*
X120931000Y-86954536D01*
X120931000Y-87303763D01*
X120831764Y-87403000D01*
X116840000Y-87403000D01*
X116655929Y-87439614D01*
X116499881Y-87543882D01*
X116118882Y-87924882D01*
X116014614Y-88080929D01*
X116011835Y-88094899D01*
X115940075Y-88065102D01*
X115708939Y-88064900D01*
X115506265Y-88148643D01*
X115305075Y-88065102D01*
X115073939Y-88064900D01*
X114871265Y-88148643D01*
X114670075Y-88065102D01*
X114438939Y-88064900D01*
X114225320Y-88153165D01*
X114061740Y-88316460D01*
X114038206Y-88373137D01*
X113908075Y-88319102D01*
X113676939Y-88318900D01*
X113555687Y-88369000D01*
X112504243Y-88369000D01*
X112384075Y-88319102D01*
X112152939Y-88318900D01*
X112031687Y-88369000D01*
X101836243Y-88369000D01*
X101716075Y-88319102D01*
X101484939Y-88318900D01*
X101271320Y-88407165D01*
X101107740Y-88570460D01*
X101019102Y-88783925D01*
X101018900Y-89015061D01*
X101107165Y-89228680D01*
X101270460Y-89392260D01*
X101483925Y-89480898D01*
X101715061Y-89481100D01*
X101836313Y-89431000D01*
X112031757Y-89431000D01*
X112151925Y-89480898D01*
X112383061Y-89481100D01*
X112504313Y-89431000D01*
X113555757Y-89431000D01*
X113675925Y-89480898D01*
X113907061Y-89481100D01*
X114120680Y-89392835D01*
X114284260Y-89229540D01*
X114307794Y-89172863D01*
X114346732Y-89189032D01*
X113973764Y-89562000D01*
X94615000Y-89562000D01*
X94430929Y-89598614D01*
X94274881Y-89702882D01*
X90845882Y-93131882D01*
X90741614Y-93287929D01*
X90705000Y-93472000D01*
X90705000Y-100130763D01*
X88051882Y-102783882D01*
X87947614Y-102939929D01*
X87911000Y-103124000D01*
X87911000Y-104902000D01*
X87931366Y-105004387D01*
X87947614Y-105086071D01*
X88051882Y-105242118D01*
X88351893Y-105542130D01*
X88429629Y-105594071D01*
X88507940Y-105646397D01*
X88692011Y-105683011D01*
X98295268Y-105683011D01*
X98479339Y-105646397D01*
X98635386Y-105542129D01*
X99607000Y-104570516D01*
X99607000Y-105124250D01*
X99765750Y-105283000D01*
X100965000Y-105283000D01*
X100965000Y-105263000D01*
X101219000Y-105263000D01*
X101219000Y-105283000D01*
X101239000Y-105283000D01*
X101239000Y-105537000D01*
X101219000Y-105537000D01*
X101219000Y-105557000D01*
X100965000Y-105557000D01*
X100965000Y-105537000D01*
X99765750Y-105537000D01*
X99607000Y-105695750D01*
X99607000Y-106386309D01*
X99672318Y-106544000D01*
X87127000Y-106544000D01*
X87127000Y-99615061D01*
X88278900Y-99615061D01*
X88367165Y-99828680D01*
X88530460Y-99992260D01*
X88743925Y-100080898D01*
X88975061Y-100081100D01*
X89188680Y-99992835D01*
X89352260Y-99829540D01*
X89440898Y-99616075D01*
X89441100Y-99384939D01*
X89352835Y-99171320D01*
X89189540Y-99007740D01*
X88976075Y-98919102D01*
X88744939Y-98918900D01*
X88531320Y-99007165D01*
X88367740Y-99170460D01*
X88279102Y-99383925D01*
X88278900Y-99615061D01*
X87127000Y-99615061D01*
X87127000Y-86729061D01*
X98859900Y-86729061D01*
X98948165Y-86942680D01*
X99111460Y-87106260D01*
X99324925Y-87194898D01*
X99556061Y-87195100D01*
X99769680Y-87106835D01*
X99933260Y-86943540D01*
X100021898Y-86730075D01*
X100021898Y-86729061D01*
X118798900Y-86729061D01*
X118887165Y-86942680D01*
X119050460Y-87106260D01*
X119263925Y-87194898D01*
X119495061Y-87195100D01*
X119708680Y-87106835D01*
X119872260Y-86943540D01*
X119960898Y-86730075D01*
X119961100Y-86498939D01*
X119872835Y-86285320D01*
X119709540Y-86121740D01*
X119496075Y-86033102D01*
X119264939Y-86032900D01*
X119051320Y-86121165D01*
X118887740Y-86284460D01*
X118799102Y-86497925D01*
X118798900Y-86729061D01*
X100021898Y-86729061D01*
X100022100Y-86498939D01*
X99933835Y-86285320D01*
X99770540Y-86121740D01*
X99557075Y-86033102D01*
X99325939Y-86032900D01*
X99112320Y-86121165D01*
X98948740Y-86284460D01*
X98860102Y-86497925D01*
X98859900Y-86729061D01*
X87127000Y-86729061D01*
X87127000Y-82835750D01*
X99607000Y-82835750D01*
X99607000Y-83526309D01*
X99703673Y-83759698D01*
X99882301Y-83938327D01*
X100115690Y-84035000D01*
X100806250Y-84035000D01*
X100965000Y-83876250D01*
X100965000Y-82677000D01*
X99765750Y-82677000D01*
X99607000Y-82835750D01*
X87127000Y-82835750D01*
X87127000Y-81456000D01*
X99655749Y-81456000D01*
X99607000Y-81573691D01*
G36*
X126953698Y-104011934D02*
X126848890Y-103968524D01*
X126619000Y-104089845D01*
X126619000Y-105283000D01*
X126639000Y-105283000D01*
X126639000Y-105537000D01*
X126619000Y-105537000D01*
X126619000Y-105557000D01*
X126365000Y-105557000D01*
X126365000Y-105537000D01*
X126345000Y-105537000D01*
X126345000Y-105283000D01*
X126365000Y-105283000D01*
X126365000Y-104089845D01*
X126135110Y-103968524D01*
X125725076Y-104138355D01*
X125296817Y-104528642D01*
X125097083Y-104953947D01*
X125089296Y-104914800D01*
X124822448Y-104515435D01*
X124423083Y-104248587D01*
X123952000Y-104154883D01*
X123480917Y-104248587D01*
X123081552Y-104515435D01*
X122814704Y-104914800D01*
X122721000Y-105385883D01*
X122721000Y-105434117D01*
X122814704Y-105905200D01*
X123081552Y-106304565D01*
X123439891Y-106544000D01*
X121924109Y-106544000D01*
X122282448Y-106304565D01*
X122549296Y-105905200D01*
X122643000Y-105434117D01*
X122643000Y-105385883D01*
X122549296Y-104914800D01*
X122282448Y-104515435D01*
X121883083Y-104248587D01*
X121412000Y-104154883D01*
X120940917Y-104248587D01*
X120541552Y-104515435D01*
X120274704Y-104914800D01*
X120266917Y-104953947D01*
X120067183Y-104528642D01*
X119638924Y-104138355D01*
X119228890Y-103968524D01*
X118999000Y-104089845D01*
X118999000Y-105283000D01*
X119019000Y-105283000D01*
X119019000Y-105537000D01*
X118999000Y-105537000D01*
X118999000Y-105557000D01*
X118745000Y-105557000D01*
X118745000Y-105537000D01*
X118725000Y-105537000D01*
X118725000Y-105283000D01*
X118745000Y-105283000D01*
X118745000Y-104089845D01*
X118515110Y-103968524D01*
X118105076Y-104138355D01*
X117676817Y-104528642D01*
X117477083Y-104953947D01*
X117469296Y-104914800D01*
X117202448Y-104515435D01*
X116803083Y-104248587D01*
X116332000Y-104154883D01*
X115860917Y-104248587D01*
X115461552Y-104515435D01*
X115194704Y-104914800D01*
X115101000Y-105385883D01*
X115101000Y-105434117D01*
X115194704Y-105905200D01*
X115461552Y-106304565D01*
X115819891Y-106544000D01*
X114304109Y-106544000D01*
X114662448Y-106304565D01*
X114929296Y-105905200D01*
X115023000Y-105434117D01*
X115023000Y-105385883D01*
X114929296Y-104914800D01*
X114662448Y-104515435D01*
X114263083Y-104248587D01*
X113792000Y-104154883D01*
X113371478Y-104238530D01*
X112828089Y-103695141D01*
X126636905Y-103695141D01*
X126953698Y-104011934D01*
X126953698Y-104011934D01*
G37*
X126953698Y-104011934D02*
X126848890Y-103968524D01*
X126619000Y-104089845D01*
X126619000Y-105283000D01*
X126639000Y-105283000D01*
X126639000Y-105537000D01*
X126619000Y-105537000D01*
X126619000Y-105557000D01*
X126365000Y-105557000D01*
X126365000Y-105537000D01*
X126345000Y-105537000D01*
X126345000Y-105283000D01*
X126365000Y-105283000D01*
X126365000Y-104089845D01*
X126135110Y-103968524D01*
X125725076Y-104138355D01*
X125296817Y-104528642D01*
X125097083Y-104953947D01*
X125089296Y-104914800D01*
X124822448Y-104515435D01*
X124423083Y-104248587D01*
X123952000Y-104154883D01*
X123480917Y-104248587D01*
X123081552Y-104515435D01*
X122814704Y-104914800D01*
X122721000Y-105385883D01*
X122721000Y-105434117D01*
X122814704Y-105905200D01*
X123081552Y-106304565D01*
X123439891Y-106544000D01*
X121924109Y-106544000D01*
X122282448Y-106304565D01*
X122549296Y-105905200D01*
X122643000Y-105434117D01*
X122643000Y-105385883D01*
X122549296Y-104914800D01*
X122282448Y-104515435D01*
X121883083Y-104248587D01*
X121412000Y-104154883D01*
X120940917Y-104248587D01*
X120541552Y-104515435D01*
X120274704Y-104914800D01*
X120266917Y-104953947D01*
X120067183Y-104528642D01*
X119638924Y-104138355D01*
X119228890Y-103968524D01*
X118999000Y-104089845D01*
X118999000Y-105283000D01*
X119019000Y-105283000D01*
X119019000Y-105537000D01*
X118999000Y-105537000D01*
X118999000Y-105557000D01*
X118745000Y-105557000D01*
X118745000Y-105537000D01*
X118725000Y-105537000D01*
X118725000Y-105283000D01*
X118745000Y-105283000D01*
X118745000Y-104089845D01*
X118515110Y-103968524D01*
X118105076Y-104138355D01*
X117676817Y-104528642D01*
X117477083Y-104953947D01*
X117469296Y-104914800D01*
X117202448Y-104515435D01*
X116803083Y-104248587D01*
X116332000Y-104154883D01*
X115860917Y-104248587D01*
X115461552Y-104515435D01*
X115194704Y-104914800D01*
X115101000Y-105385883D01*
X115101000Y-105434117D01*
X115194704Y-105905200D01*
X115461552Y-106304565D01*
X115819891Y-106544000D01*
X114304109Y-106544000D01*
X114662448Y-106304565D01*
X114929296Y-105905200D01*
X115023000Y-105434117D01*
X115023000Y-105385883D01*
X114929296Y-104914800D01*
X114662448Y-104515435D01*
X114263083Y-104248587D01*
X113792000Y-104154883D01*
X113371478Y-104238530D01*
X112828089Y-103695141D01*
X126636905Y-103695141D01*
X126953698Y-104011934D01*
M02*
