G04 #@! TF.FileFunction,Legend,Top*
%FSLAX46Y46*%
G04 Gerber Fmt 4.6, Leading zero omitted, Abs format (unit mm)*
G04 Created by KiCad (PCBNEW 4.0.5) date 02/16/17 10:34:01*
%MOMM*%
%LPD*%
G01*
G04 APERTURE LIST*
%ADD10C,0.100000*%
%ADD11C,0.150000*%
%ADD12C,0.187500*%
%ADD13C,0.200000*%
%ADD14C,0.120000*%
G04 APERTURE END LIST*
D10*
D11*
X140839286Y-82089286D02*
X141017857Y-82839286D01*
X141160714Y-82303571D01*
X141303572Y-82839286D01*
X141482143Y-82089286D01*
X141767857Y-82839286D02*
X141767857Y-82089286D01*
X141767857Y-82446429D02*
X142196429Y-82446429D01*
X142196429Y-82839286D02*
X142196429Y-82089286D01*
X142553571Y-82839286D02*
X142553571Y-82089286D01*
X142803572Y-82089286D02*
X143232143Y-82089286D01*
X143017857Y-82839286D02*
X143017857Y-82089286D01*
X143482143Y-82446429D02*
X143732143Y-82446429D01*
X143839286Y-82839286D02*
X143482143Y-82839286D01*
X143482143Y-82089286D01*
X143839286Y-82089286D01*
X144589286Y-82767857D02*
X144553572Y-82803571D01*
X144446429Y-82839286D01*
X144375000Y-82839286D01*
X144267857Y-82803571D01*
X144196429Y-82732143D01*
X144160714Y-82660714D01*
X144125000Y-82517857D01*
X144125000Y-82410714D01*
X144160714Y-82267857D01*
X144196429Y-82196429D01*
X144267857Y-82125000D01*
X144375000Y-82089286D01*
X144446429Y-82089286D01*
X144553572Y-82125000D01*
X144589286Y-82160714D01*
X144875000Y-82625000D02*
X145232143Y-82625000D01*
X144803572Y-82839286D02*
X145053572Y-82089286D01*
X145303572Y-82839286D01*
X145446429Y-82089286D02*
X145875000Y-82089286D01*
X145660714Y-82839286D02*
X145660714Y-82089286D01*
X146375000Y-82446429D02*
X146482143Y-82482143D01*
X146517858Y-82517857D01*
X146553572Y-82589286D01*
X146553572Y-82696429D01*
X146517858Y-82767857D01*
X146482143Y-82803571D01*
X146410715Y-82839286D01*
X146125000Y-82839286D01*
X146125000Y-82089286D01*
X146375000Y-82089286D01*
X146446429Y-82125000D01*
X146482143Y-82160714D01*
X146517858Y-82232143D01*
X146517858Y-82303571D01*
X146482143Y-82375000D01*
X146446429Y-82410714D01*
X146375000Y-82446429D01*
X146125000Y-82446429D01*
X147017858Y-82089286D02*
X147160715Y-82089286D01*
X147232143Y-82125000D01*
X147303572Y-82196429D01*
X147339286Y-82339286D01*
X147339286Y-82589286D01*
X147303572Y-82732143D01*
X147232143Y-82803571D01*
X147160715Y-82839286D01*
X147017858Y-82839286D01*
X146946429Y-82803571D01*
X146875000Y-82732143D01*
X146839286Y-82589286D01*
X146839286Y-82339286D01*
X146875000Y-82196429D01*
X146946429Y-82125000D01*
X147017858Y-82089286D01*
X147625000Y-82625000D02*
X147982143Y-82625000D01*
X147553572Y-82839286D02*
X147803572Y-82089286D01*
X148053572Y-82839286D01*
X148732143Y-82839286D02*
X148482143Y-82482143D01*
X148303571Y-82839286D02*
X148303571Y-82089286D01*
X148589286Y-82089286D01*
X148660714Y-82125000D01*
X148696429Y-82160714D01*
X148732143Y-82232143D01*
X148732143Y-82339286D01*
X148696429Y-82410714D01*
X148660714Y-82446429D01*
X148589286Y-82482143D01*
X148303571Y-82482143D01*
X149053571Y-82839286D02*
X149053571Y-82089286D01*
X149232143Y-82089286D01*
X149339286Y-82125000D01*
X149410714Y-82196429D01*
X149446429Y-82267857D01*
X149482143Y-82410714D01*
X149482143Y-82517857D01*
X149446429Y-82660714D01*
X149410714Y-82732143D01*
X149339286Y-82803571D01*
X149232143Y-82839286D01*
X149053571Y-82839286D01*
X149803571Y-82767857D02*
X149839286Y-82803571D01*
X149803571Y-82839286D01*
X149767857Y-82803571D01*
X149803571Y-82767857D01*
X149803571Y-82839286D01*
X150303572Y-82089286D02*
X150446429Y-82089286D01*
X150517857Y-82125000D01*
X150589286Y-82196429D01*
X150625000Y-82339286D01*
X150625000Y-82589286D01*
X150589286Y-82732143D01*
X150517857Y-82803571D01*
X150446429Y-82839286D01*
X150303572Y-82839286D01*
X150232143Y-82803571D01*
X150160714Y-82732143D01*
X150125000Y-82589286D01*
X150125000Y-82339286D01*
X150160714Y-82196429D01*
X150232143Y-82125000D01*
X150303572Y-82089286D01*
X151375000Y-82839286D02*
X151125000Y-82482143D01*
X150946428Y-82839286D02*
X150946428Y-82089286D01*
X151232143Y-82089286D01*
X151303571Y-82125000D01*
X151339286Y-82160714D01*
X151375000Y-82232143D01*
X151375000Y-82339286D01*
X151339286Y-82410714D01*
X151303571Y-82446429D01*
X151232143Y-82482143D01*
X150946428Y-82482143D01*
X152089286Y-82125000D02*
X152017857Y-82089286D01*
X151910714Y-82089286D01*
X151803571Y-82125000D01*
X151732143Y-82196429D01*
X151696428Y-82267857D01*
X151660714Y-82410714D01*
X151660714Y-82517857D01*
X151696428Y-82660714D01*
X151732143Y-82732143D01*
X151803571Y-82803571D01*
X151910714Y-82839286D01*
X151982143Y-82839286D01*
X152089286Y-82803571D01*
X152125000Y-82767857D01*
X152125000Y-82517857D01*
X151982143Y-82517857D01*
D12*
X89837000Y-83835143D02*
X90051286Y-84735143D01*
X90222715Y-84092286D01*
X90394143Y-84735143D01*
X90608429Y-83835143D01*
X90951286Y-84735143D02*
X90951286Y-83835143D01*
X90951286Y-84263714D02*
X91465571Y-84263714D01*
X91465571Y-84735143D02*
X91465571Y-83835143D01*
X91894143Y-84735143D02*
X91894143Y-83835143D01*
X92194142Y-83835143D02*
X92708428Y-83835143D01*
X92451285Y-84735143D02*
X92451285Y-83835143D01*
X93008428Y-84263714D02*
X93308428Y-84263714D01*
X93436999Y-84735143D02*
X93008428Y-84735143D01*
X93008428Y-83835143D01*
X93436999Y-83835143D01*
X94336999Y-84649429D02*
X94294142Y-84692286D01*
X94165571Y-84735143D01*
X94079857Y-84735143D01*
X93951285Y-84692286D01*
X93865571Y-84606571D01*
X93822714Y-84520857D01*
X93779857Y-84349429D01*
X93779857Y-84220857D01*
X93822714Y-84049429D01*
X93865571Y-83963714D01*
X93951285Y-83878000D01*
X94079857Y-83835143D01*
X94165571Y-83835143D01*
X94294142Y-83878000D01*
X94336999Y-83920857D01*
X94679857Y-84478000D02*
X95108428Y-84478000D01*
X94594142Y-84735143D02*
X94894142Y-83835143D01*
X95194142Y-84735143D01*
X95365571Y-83835143D02*
X95879857Y-83835143D01*
X95622714Y-84735143D02*
X95622714Y-83835143D01*
D13*
X91500000Y-81865000D02*
X89900000Y-83465000D01*
X92200000Y-82565000D02*
X91500000Y-81865000D01*
X93500000Y-82565000D02*
X92200000Y-82565000D01*
X94200000Y-81865000D02*
X93500000Y-82565000D01*
X95800000Y-83465000D02*
X94200000Y-81865000D01*
X90000000Y-83465000D02*
X95800000Y-83465000D01*
D11*
X107082715Y-83988714D02*
X107082715Y-84738714D01*
X106797000Y-84738714D01*
X106725572Y-84703000D01*
X106689857Y-84667286D01*
X106654143Y-84595857D01*
X106654143Y-84488714D01*
X106689857Y-84417286D01*
X106725572Y-84381571D01*
X106797000Y-84345857D01*
X107082715Y-84345857D01*
X105939857Y-83988714D02*
X106368429Y-83988714D01*
X106154143Y-83988714D02*
X106154143Y-84738714D01*
X106225572Y-84631571D01*
X106297000Y-84560143D01*
X106368429Y-84524429D01*
X105654143Y-84667286D02*
X105618429Y-84703000D01*
X105547000Y-84738714D01*
X105368429Y-84738714D01*
X105297000Y-84703000D01*
X105261286Y-84667286D01*
X105225571Y-84595857D01*
X105225571Y-84524429D01*
X105261286Y-84417286D01*
X105689857Y-83988714D01*
X105225571Y-83988714D01*
X117260572Y-83988714D02*
X117260572Y-84738714D01*
X116832000Y-83988714D01*
X116832000Y-84738714D01*
X116510572Y-84024429D02*
X116403429Y-83988714D01*
X116224858Y-83988714D01*
X116153429Y-84024429D01*
X116117715Y-84060143D01*
X116082000Y-84131571D01*
X116082000Y-84203000D01*
X116117715Y-84274429D01*
X116153429Y-84310143D01*
X116224858Y-84345857D01*
X116367715Y-84381571D01*
X116439143Y-84417286D01*
X116474858Y-84453000D01*
X116510572Y-84524429D01*
X116510572Y-84595857D01*
X116474858Y-84667286D01*
X116439143Y-84703000D01*
X116367715Y-84738714D01*
X116189143Y-84738714D01*
X116082000Y-84703000D01*
X115796286Y-84024429D02*
X115689143Y-83988714D01*
X115510572Y-83988714D01*
X115439143Y-84024429D01*
X115403429Y-84060143D01*
X115367714Y-84131571D01*
X115367714Y-84203000D01*
X115403429Y-84274429D01*
X115439143Y-84310143D01*
X115510572Y-84345857D01*
X115653429Y-84381571D01*
X115724857Y-84417286D01*
X115760572Y-84453000D01*
X115796286Y-84524429D01*
X115796286Y-84595857D01*
X115760572Y-84667286D01*
X115724857Y-84703000D01*
X115653429Y-84738714D01*
X115474857Y-84738714D01*
X115367714Y-84703000D01*
X114756286Y-84024429D02*
X114649143Y-83988714D01*
X114470572Y-83988714D01*
X114399143Y-84024429D01*
X114363429Y-84060143D01*
X114327714Y-84131571D01*
X114327714Y-84203000D01*
X114363429Y-84274429D01*
X114399143Y-84310143D01*
X114470572Y-84345857D01*
X114613429Y-84381571D01*
X114684857Y-84417286D01*
X114720572Y-84453000D01*
X114756286Y-84524429D01*
X114756286Y-84595857D01*
X114720572Y-84667286D01*
X114684857Y-84703000D01*
X114613429Y-84738714D01*
X114434857Y-84738714D01*
X114327714Y-84703000D01*
X113577714Y-84060143D02*
X113613428Y-84024429D01*
X113720571Y-83988714D01*
X113792000Y-83988714D01*
X113899143Y-84024429D01*
X113970571Y-84095857D01*
X114006286Y-84167286D01*
X114042000Y-84310143D01*
X114042000Y-84417286D01*
X114006286Y-84560143D01*
X113970571Y-84631571D01*
X113899143Y-84703000D01*
X113792000Y-84738714D01*
X113720571Y-84738714D01*
X113613428Y-84703000D01*
X113577714Y-84667286D01*
X113256286Y-83988714D02*
X113256286Y-84738714D01*
X112827714Y-83988714D02*
X113149143Y-84417286D01*
X112827714Y-84738714D02*
X113256286Y-84310143D01*
X112234143Y-84024429D02*
X112127000Y-83988714D01*
X111948429Y-83988714D01*
X111877000Y-84024429D01*
X111841286Y-84060143D01*
X111805571Y-84131571D01*
X111805571Y-84203000D01*
X111841286Y-84274429D01*
X111877000Y-84310143D01*
X111948429Y-84345857D01*
X112091286Y-84381571D01*
X112162714Y-84417286D01*
X112198429Y-84453000D01*
X112234143Y-84524429D01*
X112234143Y-84595857D01*
X112198429Y-84667286D01*
X112162714Y-84703000D01*
X112091286Y-84738714D01*
X111912714Y-84738714D01*
X111805571Y-84703000D01*
X111484143Y-83988714D02*
X111484143Y-84738714D01*
X111305571Y-84738714D01*
X111198428Y-84703000D01*
X111127000Y-84631571D01*
X111091285Y-84560143D01*
X111055571Y-84417286D01*
X111055571Y-84310143D01*
X111091285Y-84167286D01*
X111127000Y-84095857D01*
X111198428Y-84024429D01*
X111305571Y-83988714D01*
X111484143Y-83988714D01*
X110591285Y-84738714D02*
X110448428Y-84738714D01*
X110377000Y-84703000D01*
X110305571Y-84631571D01*
X110269857Y-84488714D01*
X110269857Y-84238714D01*
X110305571Y-84095857D01*
X110377000Y-84024429D01*
X110448428Y-83988714D01*
X110591285Y-83988714D01*
X110662714Y-84024429D01*
X110734143Y-84095857D01*
X110769857Y-84238714D01*
X110769857Y-84488714D01*
X110734143Y-84631571D01*
X110662714Y-84703000D01*
X110591285Y-84738714D01*
X104542715Y-83988714D02*
X104542715Y-84738714D01*
X104257000Y-84738714D01*
X104185572Y-84703000D01*
X104149857Y-84667286D01*
X104114143Y-84595857D01*
X104114143Y-84488714D01*
X104149857Y-84417286D01*
X104185572Y-84381571D01*
X104257000Y-84345857D01*
X104542715Y-84345857D01*
X103399857Y-83988714D02*
X103828429Y-83988714D01*
X103614143Y-83988714D02*
X103614143Y-84738714D01*
X103685572Y-84631571D01*
X103757000Y-84560143D01*
X103828429Y-84524429D01*
X103149857Y-84738714D02*
X102685571Y-84738714D01*
X102935571Y-84453000D01*
X102828429Y-84453000D01*
X102757000Y-84417286D01*
X102721286Y-84381571D01*
X102685571Y-84310143D01*
X102685571Y-84131571D01*
X102721286Y-84060143D01*
X102757000Y-84024429D01*
X102828429Y-83988714D01*
X103042714Y-83988714D01*
X103114143Y-84024429D01*
X103149857Y-84060143D01*
X128121285Y-103971286D02*
X128121285Y-103221286D01*
X128407000Y-103221286D01*
X128478428Y-103257000D01*
X128514143Y-103292714D01*
X128549857Y-103364143D01*
X128549857Y-103471286D01*
X128514143Y-103542714D01*
X128478428Y-103578429D01*
X128407000Y-103614143D01*
X128121285Y-103614143D01*
X129014143Y-103221286D02*
X129085571Y-103221286D01*
X129157000Y-103257000D01*
X129192714Y-103292714D01*
X129228428Y-103364143D01*
X129264143Y-103507000D01*
X129264143Y-103685571D01*
X129228428Y-103828429D01*
X129192714Y-103899857D01*
X129157000Y-103935571D01*
X129085571Y-103971286D01*
X129014143Y-103971286D01*
X128942714Y-103935571D01*
X128907000Y-103899857D01*
X128871285Y-103828429D01*
X128835571Y-103685571D01*
X128835571Y-103507000D01*
X128871285Y-103364143D01*
X128907000Y-103292714D01*
X128942714Y-103257000D01*
X129014143Y-103221286D01*
X129978429Y-103971286D02*
X129549857Y-103971286D01*
X129764143Y-103971286D02*
X129764143Y-103221286D01*
X129692714Y-103328429D01*
X129621286Y-103399857D01*
X129549857Y-103435571D01*
X125920572Y-103257000D02*
X125849143Y-103221286D01*
X125742000Y-103221286D01*
X125634857Y-103257000D01*
X125563429Y-103328429D01*
X125527714Y-103399857D01*
X125492000Y-103542714D01*
X125492000Y-103649857D01*
X125527714Y-103792714D01*
X125563429Y-103864143D01*
X125634857Y-103935571D01*
X125742000Y-103971286D01*
X125813429Y-103971286D01*
X125920572Y-103935571D01*
X125956286Y-103899857D01*
X125956286Y-103649857D01*
X125813429Y-103649857D01*
X126277714Y-103971286D02*
X126277714Y-103221286D01*
X126706286Y-103971286D01*
X126706286Y-103221286D01*
X127063428Y-103971286D02*
X127063428Y-103221286D01*
X127242000Y-103221286D01*
X127349143Y-103257000D01*
X127420571Y-103328429D01*
X127456286Y-103399857D01*
X127492000Y-103542714D01*
X127492000Y-103649857D01*
X127456286Y-103792714D01*
X127420571Y-103864143D01*
X127349143Y-103935571D01*
X127242000Y-103971286D01*
X127063428Y-103971286D01*
X120912001Y-103971286D02*
X120662001Y-103614143D01*
X120483429Y-103971286D02*
X120483429Y-103221286D01*
X120769144Y-103221286D01*
X120840572Y-103257000D01*
X120876287Y-103292714D01*
X120912001Y-103364143D01*
X120912001Y-103471286D01*
X120876287Y-103542714D01*
X120840572Y-103578429D01*
X120769144Y-103614143D01*
X120483429Y-103614143D01*
X121233429Y-103578429D02*
X121483429Y-103578429D01*
X121590572Y-103971286D02*
X121233429Y-103971286D01*
X121233429Y-103221286D01*
X121590572Y-103221286D01*
X121912000Y-103971286D02*
X121912000Y-103221286D01*
X122340572Y-103971286D01*
X122340572Y-103221286D01*
X115403429Y-103221286D02*
X115867715Y-103221286D01*
X115617715Y-103507000D01*
X115724857Y-103507000D01*
X115796286Y-103542714D01*
X115832000Y-103578429D01*
X115867715Y-103649857D01*
X115867715Y-103828429D01*
X115832000Y-103899857D01*
X115796286Y-103935571D01*
X115724857Y-103971286D01*
X115510572Y-103971286D01*
X115439143Y-103935571D01*
X115403429Y-103899857D01*
X116082001Y-103221286D02*
X116332001Y-103971286D01*
X116582001Y-103221286D01*
X116760572Y-103221286D02*
X117224858Y-103221286D01*
X116974858Y-103507000D01*
X117082000Y-103507000D01*
X117153429Y-103542714D01*
X117189143Y-103578429D01*
X117224858Y-103649857D01*
X117224858Y-103828429D01*
X117189143Y-103899857D01*
X117153429Y-103935571D01*
X117082000Y-103971286D01*
X116867715Y-103971286D01*
X116796286Y-103935571D01*
X116760572Y-103899857D01*
X112845571Y-103971286D02*
X112845571Y-103221286D01*
X113131286Y-103221286D01*
X113202714Y-103257000D01*
X113238429Y-103292714D01*
X113274143Y-103364143D01*
X113274143Y-103471286D01*
X113238429Y-103542714D01*
X113202714Y-103578429D01*
X113131286Y-103614143D01*
X112845571Y-103614143D01*
X114024143Y-103971286D02*
X113774143Y-103614143D01*
X113595571Y-103971286D02*
X113595571Y-103221286D01*
X113881286Y-103221286D01*
X113952714Y-103257000D01*
X113988429Y-103292714D01*
X114024143Y-103364143D01*
X114024143Y-103471286D01*
X113988429Y-103542714D01*
X113952714Y-103578429D01*
X113881286Y-103614143D01*
X113595571Y-103614143D01*
X114738429Y-103257000D02*
X114667000Y-103221286D01*
X114559857Y-103221286D01*
X114452714Y-103257000D01*
X114381286Y-103328429D01*
X114345571Y-103399857D01*
X114309857Y-103542714D01*
X114309857Y-103649857D01*
X114345571Y-103792714D01*
X114381286Y-103864143D01*
X114452714Y-103935571D01*
X114559857Y-103971286D01*
X114631286Y-103971286D01*
X114738429Y-103935571D01*
X114774143Y-103899857D01*
X114774143Y-103649857D01*
X114631286Y-103649857D01*
X118300572Y-103257000D02*
X118229143Y-103221286D01*
X118122000Y-103221286D01*
X118014857Y-103257000D01*
X117943429Y-103328429D01*
X117907714Y-103399857D01*
X117872000Y-103542714D01*
X117872000Y-103649857D01*
X117907714Y-103792714D01*
X117943429Y-103864143D01*
X118014857Y-103935571D01*
X118122000Y-103971286D01*
X118193429Y-103971286D01*
X118300572Y-103935571D01*
X118336286Y-103899857D01*
X118336286Y-103649857D01*
X118193429Y-103649857D01*
X118657714Y-103971286D02*
X118657714Y-103221286D01*
X119086286Y-103971286D01*
X119086286Y-103221286D01*
X119443428Y-103971286D02*
X119443428Y-103221286D01*
X119622000Y-103221286D01*
X119729143Y-103257000D01*
X119800571Y-103328429D01*
X119836286Y-103399857D01*
X119872000Y-103542714D01*
X119872000Y-103649857D01*
X119836286Y-103792714D01*
X119800571Y-103864143D01*
X119729143Y-103935571D01*
X119622000Y-103971286D01*
X119443428Y-103971286D01*
X123202001Y-103221286D02*
X123344858Y-103221286D01*
X123416286Y-103257000D01*
X123487715Y-103328429D01*
X123523429Y-103471286D01*
X123523429Y-103721286D01*
X123487715Y-103864143D01*
X123416286Y-103935571D01*
X123344858Y-103971286D01*
X123202001Y-103971286D01*
X123130572Y-103935571D01*
X123059143Y-103864143D01*
X123023429Y-103721286D01*
X123023429Y-103471286D01*
X123059143Y-103328429D01*
X123130572Y-103257000D01*
X123202001Y-103221286D01*
X123844857Y-103221286D02*
X123844857Y-103828429D01*
X123880572Y-103899857D01*
X123916286Y-103935571D01*
X123987715Y-103971286D01*
X124130572Y-103971286D01*
X124202000Y-103935571D01*
X124237715Y-103899857D01*
X124273429Y-103828429D01*
X124273429Y-103221286D01*
X124523429Y-103221286D02*
X124952000Y-103221286D01*
X124737714Y-103971286D02*
X124737714Y-103221286D01*
X130661285Y-103971286D02*
X130661285Y-103221286D01*
X130947000Y-103221286D01*
X131018428Y-103257000D01*
X131054143Y-103292714D01*
X131089857Y-103364143D01*
X131089857Y-103471286D01*
X131054143Y-103542714D01*
X131018428Y-103578429D01*
X130947000Y-103614143D01*
X130661285Y-103614143D01*
X131554143Y-103221286D02*
X131625571Y-103221286D01*
X131697000Y-103257000D01*
X131732714Y-103292714D01*
X131768428Y-103364143D01*
X131804143Y-103507000D01*
X131804143Y-103685571D01*
X131768428Y-103828429D01*
X131732714Y-103899857D01*
X131697000Y-103935571D01*
X131625571Y-103971286D01*
X131554143Y-103971286D01*
X131482714Y-103935571D01*
X131447000Y-103899857D01*
X131411285Y-103828429D01*
X131375571Y-103685571D01*
X131375571Y-103507000D01*
X131411285Y-103364143D01*
X131447000Y-103292714D01*
X131482714Y-103257000D01*
X131554143Y-103221286D01*
X132089857Y-103292714D02*
X132125571Y-103257000D01*
X132197000Y-103221286D01*
X132375571Y-103221286D01*
X132447000Y-103257000D01*
X132482714Y-103292714D01*
X132518429Y-103364143D01*
X132518429Y-103435571D01*
X132482714Y-103542714D01*
X132054143Y-103971286D01*
X132518429Y-103971286D01*
X137562715Y-83988714D02*
X137562715Y-84738714D01*
X137277000Y-84738714D01*
X137205572Y-84703000D01*
X137169857Y-84667286D01*
X137134143Y-84595857D01*
X137134143Y-84488714D01*
X137169857Y-84417286D01*
X137205572Y-84381571D01*
X137277000Y-84345857D01*
X137562715Y-84345857D01*
X136669857Y-84738714D02*
X136598429Y-84738714D01*
X136527000Y-84703000D01*
X136491286Y-84667286D01*
X136455572Y-84595857D01*
X136419857Y-84453000D01*
X136419857Y-84274429D01*
X136455572Y-84131571D01*
X136491286Y-84060143D01*
X136527000Y-84024429D01*
X136598429Y-83988714D01*
X136669857Y-83988714D01*
X136741286Y-84024429D01*
X136777000Y-84060143D01*
X136812715Y-84131571D01*
X136848429Y-84274429D01*
X136848429Y-84453000D01*
X136812715Y-84595857D01*
X136777000Y-84667286D01*
X136741286Y-84703000D01*
X136669857Y-84738714D01*
X136169857Y-84738714D02*
X135669857Y-84738714D01*
X135991286Y-83988714D01*
X135741285Y-103971286D02*
X135741285Y-103221286D01*
X136027000Y-103221286D01*
X136098428Y-103257000D01*
X136134143Y-103292714D01*
X136169857Y-103364143D01*
X136169857Y-103471286D01*
X136134143Y-103542714D01*
X136098428Y-103578429D01*
X136027000Y-103614143D01*
X135741285Y-103614143D01*
X136634143Y-103221286D02*
X136705571Y-103221286D01*
X136777000Y-103257000D01*
X136812714Y-103292714D01*
X136848428Y-103364143D01*
X136884143Y-103507000D01*
X136884143Y-103685571D01*
X136848428Y-103828429D01*
X136812714Y-103899857D01*
X136777000Y-103935571D01*
X136705571Y-103971286D01*
X136634143Y-103971286D01*
X136562714Y-103935571D01*
X136527000Y-103899857D01*
X136491285Y-103828429D01*
X136455571Y-103685571D01*
X136455571Y-103507000D01*
X136491285Y-103364143D01*
X136527000Y-103292714D01*
X136562714Y-103257000D01*
X136634143Y-103221286D01*
X137527000Y-103471286D02*
X137527000Y-103971286D01*
X137348429Y-103185571D02*
X137169857Y-103721286D01*
X137634143Y-103721286D01*
X135022715Y-83988714D02*
X135022715Y-84738714D01*
X134737000Y-84738714D01*
X134665572Y-84703000D01*
X134629857Y-84667286D01*
X134594143Y-84595857D01*
X134594143Y-84488714D01*
X134629857Y-84417286D01*
X134665572Y-84381571D01*
X134737000Y-84345857D01*
X135022715Y-84345857D01*
X134129857Y-84738714D02*
X134058429Y-84738714D01*
X133987000Y-84703000D01*
X133951286Y-84667286D01*
X133915572Y-84595857D01*
X133879857Y-84453000D01*
X133879857Y-84274429D01*
X133915572Y-84131571D01*
X133951286Y-84060143D01*
X133987000Y-84024429D01*
X134058429Y-83988714D01*
X134129857Y-83988714D01*
X134201286Y-84024429D01*
X134237000Y-84060143D01*
X134272715Y-84131571D01*
X134308429Y-84274429D01*
X134308429Y-84453000D01*
X134272715Y-84595857D01*
X134237000Y-84667286D01*
X134201286Y-84703000D01*
X134129857Y-84738714D01*
X133451286Y-84417286D02*
X133522714Y-84453000D01*
X133558429Y-84488714D01*
X133594143Y-84560143D01*
X133594143Y-84595857D01*
X133558429Y-84667286D01*
X133522714Y-84703000D01*
X133451286Y-84738714D01*
X133308429Y-84738714D01*
X133237000Y-84703000D01*
X133201286Y-84667286D01*
X133165571Y-84595857D01*
X133165571Y-84560143D01*
X133201286Y-84488714D01*
X133237000Y-84453000D01*
X133308429Y-84417286D01*
X133451286Y-84417286D01*
X133522714Y-84381571D01*
X133558429Y-84345857D01*
X133594143Y-84274429D01*
X133594143Y-84131571D01*
X133558429Y-84060143D01*
X133522714Y-84024429D01*
X133451286Y-83988714D01*
X133308429Y-83988714D01*
X133237000Y-84024429D01*
X133201286Y-84060143D01*
X133165571Y-84131571D01*
X133165571Y-84274429D01*
X133201286Y-84345857D01*
X133237000Y-84381571D01*
X133308429Y-84417286D01*
X127402715Y-83988714D02*
X127402715Y-84738714D01*
X127117000Y-84738714D01*
X127045572Y-84703000D01*
X127009857Y-84667286D01*
X126974143Y-84595857D01*
X126974143Y-84488714D01*
X127009857Y-84417286D01*
X127045572Y-84381571D01*
X127117000Y-84345857D01*
X127402715Y-84345857D01*
X126259857Y-83988714D02*
X126688429Y-83988714D01*
X126474143Y-83988714D02*
X126474143Y-84738714D01*
X126545572Y-84631571D01*
X126617000Y-84560143D01*
X126688429Y-84524429D01*
X125545571Y-83988714D02*
X125974143Y-83988714D01*
X125759857Y-83988714D02*
X125759857Y-84738714D01*
X125831286Y-84631571D01*
X125902714Y-84560143D01*
X125974143Y-84524429D01*
X129942715Y-83988714D02*
X129942715Y-84738714D01*
X129657000Y-84738714D01*
X129585572Y-84703000D01*
X129549857Y-84667286D01*
X129514143Y-84595857D01*
X129514143Y-84488714D01*
X129549857Y-84417286D01*
X129585572Y-84381571D01*
X129657000Y-84345857D01*
X129942715Y-84345857D01*
X128799857Y-83988714D02*
X129228429Y-83988714D01*
X129014143Y-83988714D02*
X129014143Y-84738714D01*
X129085572Y-84631571D01*
X129157000Y-84560143D01*
X129228429Y-84524429D01*
X128335571Y-84738714D02*
X128264143Y-84738714D01*
X128192714Y-84703000D01*
X128157000Y-84667286D01*
X128121286Y-84595857D01*
X128085571Y-84453000D01*
X128085571Y-84274429D01*
X128121286Y-84131571D01*
X128157000Y-84060143D01*
X128192714Y-84024429D01*
X128264143Y-83988714D01*
X128335571Y-83988714D01*
X128407000Y-84024429D01*
X128442714Y-84060143D01*
X128478429Y-84131571D01*
X128514143Y-84274429D01*
X128514143Y-84453000D01*
X128478429Y-84595857D01*
X128442714Y-84667286D01*
X128407000Y-84703000D01*
X128335571Y-84738714D01*
X138281285Y-103971286D02*
X138281285Y-103221286D01*
X138567000Y-103221286D01*
X138638428Y-103257000D01*
X138674143Y-103292714D01*
X138709857Y-103364143D01*
X138709857Y-103471286D01*
X138674143Y-103542714D01*
X138638428Y-103578429D01*
X138567000Y-103614143D01*
X138281285Y-103614143D01*
X139174143Y-103221286D02*
X139245571Y-103221286D01*
X139317000Y-103257000D01*
X139352714Y-103292714D01*
X139388428Y-103364143D01*
X139424143Y-103507000D01*
X139424143Y-103685571D01*
X139388428Y-103828429D01*
X139352714Y-103899857D01*
X139317000Y-103935571D01*
X139245571Y-103971286D01*
X139174143Y-103971286D01*
X139102714Y-103935571D01*
X139067000Y-103899857D01*
X139031285Y-103828429D01*
X138995571Y-103685571D01*
X138995571Y-103507000D01*
X139031285Y-103364143D01*
X139067000Y-103292714D01*
X139102714Y-103257000D01*
X139174143Y-103221286D01*
X140102714Y-103221286D02*
X139745571Y-103221286D01*
X139709857Y-103578429D01*
X139745571Y-103542714D01*
X139817000Y-103507000D01*
X139995571Y-103507000D01*
X140067000Y-103542714D01*
X140102714Y-103578429D01*
X140138429Y-103649857D01*
X140138429Y-103828429D01*
X140102714Y-103899857D01*
X140067000Y-103935571D01*
X139995571Y-103971286D01*
X139817000Y-103971286D01*
X139745571Y-103935571D01*
X139709857Y-103899857D01*
X133201285Y-103971286D02*
X133201285Y-103221286D01*
X133487000Y-103221286D01*
X133558428Y-103257000D01*
X133594143Y-103292714D01*
X133629857Y-103364143D01*
X133629857Y-103471286D01*
X133594143Y-103542714D01*
X133558428Y-103578429D01*
X133487000Y-103614143D01*
X133201285Y-103614143D01*
X134094143Y-103221286D02*
X134165571Y-103221286D01*
X134237000Y-103257000D01*
X134272714Y-103292714D01*
X134308428Y-103364143D01*
X134344143Y-103507000D01*
X134344143Y-103685571D01*
X134308428Y-103828429D01*
X134272714Y-103899857D01*
X134237000Y-103935571D01*
X134165571Y-103971286D01*
X134094143Y-103971286D01*
X134022714Y-103935571D01*
X133987000Y-103899857D01*
X133951285Y-103828429D01*
X133915571Y-103685571D01*
X133915571Y-103507000D01*
X133951285Y-103364143D01*
X133987000Y-103292714D01*
X134022714Y-103257000D01*
X134094143Y-103221286D01*
X134594143Y-103221286D02*
X135058429Y-103221286D01*
X134808429Y-103507000D01*
X134915571Y-103507000D01*
X134987000Y-103542714D01*
X135022714Y-103578429D01*
X135058429Y-103649857D01*
X135058429Y-103828429D01*
X135022714Y-103899857D01*
X134987000Y-103935571D01*
X134915571Y-103971286D01*
X134701286Y-103971286D01*
X134629857Y-103935571D01*
X134594143Y-103899857D01*
X140102715Y-83988714D02*
X140102715Y-84738714D01*
X139817000Y-84738714D01*
X139745572Y-84703000D01*
X139709857Y-84667286D01*
X139674143Y-84595857D01*
X139674143Y-84488714D01*
X139709857Y-84417286D01*
X139745572Y-84381571D01*
X139817000Y-84345857D01*
X140102715Y-84345857D01*
X139209857Y-84738714D02*
X139138429Y-84738714D01*
X139067000Y-84703000D01*
X139031286Y-84667286D01*
X138995572Y-84595857D01*
X138959857Y-84453000D01*
X138959857Y-84274429D01*
X138995572Y-84131571D01*
X139031286Y-84060143D01*
X139067000Y-84024429D01*
X139138429Y-83988714D01*
X139209857Y-83988714D01*
X139281286Y-84024429D01*
X139317000Y-84060143D01*
X139352715Y-84131571D01*
X139388429Y-84274429D01*
X139388429Y-84453000D01*
X139352715Y-84595857D01*
X139317000Y-84667286D01*
X139281286Y-84703000D01*
X139209857Y-84738714D01*
X138317000Y-84738714D02*
X138459857Y-84738714D01*
X138531286Y-84703000D01*
X138567000Y-84667286D01*
X138638429Y-84560143D01*
X138674143Y-84417286D01*
X138674143Y-84131571D01*
X138638429Y-84060143D01*
X138602714Y-84024429D01*
X138531286Y-83988714D01*
X138388429Y-83988714D01*
X138317000Y-84024429D01*
X138281286Y-84060143D01*
X138245571Y-84131571D01*
X138245571Y-84310143D01*
X138281286Y-84381571D01*
X138317000Y-84417286D01*
X138388429Y-84453000D01*
X138531286Y-84453000D01*
X138602714Y-84417286D01*
X138638429Y-84381571D01*
X138674143Y-84310143D01*
X109479857Y-84024429D02*
X109372714Y-83988714D01*
X109194143Y-83988714D01*
X109122714Y-84024429D01*
X109087000Y-84060143D01*
X109051285Y-84131571D01*
X109051285Y-84203000D01*
X109087000Y-84274429D01*
X109122714Y-84310143D01*
X109194143Y-84345857D01*
X109337000Y-84381571D01*
X109408428Y-84417286D01*
X109444143Y-84453000D01*
X109479857Y-84524429D01*
X109479857Y-84595857D01*
X109444143Y-84667286D01*
X109408428Y-84703000D01*
X109337000Y-84738714D01*
X109158428Y-84738714D01*
X109051285Y-84703000D01*
X108729857Y-83988714D02*
X108729857Y-84738714D01*
X108551285Y-84738714D01*
X108444142Y-84703000D01*
X108372714Y-84631571D01*
X108336999Y-84560143D01*
X108301285Y-84417286D01*
X108301285Y-84310143D01*
X108336999Y-84167286D01*
X108372714Y-84095857D01*
X108444142Y-84024429D01*
X108551285Y-83988714D01*
X108729857Y-83988714D01*
X107979857Y-83988714D02*
X107979857Y-84738714D01*
X124684143Y-83988714D02*
X124684143Y-84738714D01*
X124505571Y-84738714D01*
X124398428Y-84703000D01*
X124327000Y-84631571D01*
X124291285Y-84560143D01*
X124255571Y-84417286D01*
X124255571Y-84310143D01*
X124291285Y-84167286D01*
X124327000Y-84095857D01*
X124398428Y-84024429D01*
X124505571Y-83988714D01*
X124684143Y-83988714D01*
X123934143Y-83988714D02*
X123934143Y-84738714D01*
X123434142Y-84738714D02*
X123362714Y-84738714D01*
X123291285Y-84703000D01*
X123255571Y-84667286D01*
X123219857Y-84595857D01*
X123184142Y-84453000D01*
X123184142Y-84274429D01*
X123219857Y-84131571D01*
X123255571Y-84060143D01*
X123291285Y-84024429D01*
X123362714Y-83988714D01*
X123434142Y-83988714D01*
X123505571Y-84024429D01*
X123541285Y-84060143D01*
X123577000Y-84131571D01*
X123612714Y-84274429D01*
X123612714Y-84453000D01*
X123577000Y-84595857D01*
X123541285Y-84667286D01*
X123505571Y-84703000D01*
X123434142Y-84738714D01*
X119604143Y-83988714D02*
X119604143Y-84738714D01*
X119425571Y-84738714D01*
X119318428Y-84703000D01*
X119247000Y-84631571D01*
X119211285Y-84560143D01*
X119175571Y-84417286D01*
X119175571Y-84310143D01*
X119211285Y-84167286D01*
X119247000Y-84095857D01*
X119318428Y-84024429D01*
X119425571Y-83988714D01*
X119604143Y-83988714D01*
X118854143Y-83988714D02*
X118854143Y-84738714D01*
X118532714Y-84667286D02*
X118497000Y-84703000D01*
X118425571Y-84738714D01*
X118247000Y-84738714D01*
X118175571Y-84703000D01*
X118139857Y-84667286D01*
X118104142Y-84595857D01*
X118104142Y-84524429D01*
X118139857Y-84417286D01*
X118568428Y-83988714D01*
X118104142Y-83988714D01*
X87908428Y-85417429D02*
X88158428Y-85417429D01*
X88265571Y-85810286D02*
X87908428Y-85810286D01*
X87908428Y-85060286D01*
X88265571Y-85060286D01*
X88551285Y-85774571D02*
X88658428Y-85810286D01*
X88836999Y-85810286D01*
X88908428Y-85774571D01*
X88944142Y-85738857D01*
X88979857Y-85667429D01*
X88979857Y-85596000D01*
X88944142Y-85524571D01*
X88908428Y-85488857D01*
X88836999Y-85453143D01*
X88694142Y-85417429D01*
X88622714Y-85381714D01*
X88586999Y-85346000D01*
X88551285Y-85274571D01*
X88551285Y-85203143D01*
X88586999Y-85131714D01*
X88622714Y-85096000D01*
X88694142Y-85060286D01*
X88872714Y-85060286D01*
X88979857Y-85096000D01*
X89301285Y-85810286D02*
X89301285Y-85060286D01*
X89587000Y-85060286D01*
X89658428Y-85096000D01*
X89694143Y-85131714D01*
X89729857Y-85203143D01*
X89729857Y-85310286D01*
X89694143Y-85381714D01*
X89658428Y-85417429D01*
X89587000Y-85453143D01*
X89301285Y-85453143D01*
X89979857Y-85060286D02*
X90444143Y-85060286D01*
X90194143Y-85346000D01*
X90301285Y-85346000D01*
X90372714Y-85381714D01*
X90408428Y-85417429D01*
X90444143Y-85488857D01*
X90444143Y-85667429D01*
X90408428Y-85738857D01*
X90372714Y-85774571D01*
X90301285Y-85810286D01*
X90087000Y-85810286D01*
X90015571Y-85774571D01*
X89979857Y-85738857D01*
X90729857Y-85131714D02*
X90765571Y-85096000D01*
X90837000Y-85060286D01*
X91015571Y-85060286D01*
X91087000Y-85096000D01*
X91122714Y-85131714D01*
X91158429Y-85203143D01*
X91158429Y-85274571D01*
X91122714Y-85381714D01*
X90694143Y-85810286D01*
X91158429Y-85810286D01*
X92051286Y-85810286D02*
X92051286Y-85060286D01*
X92479858Y-85810286D01*
X92479858Y-85060286D01*
X93229858Y-85810286D02*
X92801286Y-85810286D01*
X93015572Y-85810286D02*
X93015572Y-85060286D01*
X92944143Y-85167429D01*
X92872715Y-85238857D01*
X92801286Y-85274571D01*
X94551287Y-85810286D02*
X94301287Y-85453143D01*
X94122715Y-85810286D02*
X94122715Y-85060286D01*
X94408430Y-85060286D01*
X94479858Y-85096000D01*
X94515573Y-85131714D01*
X94551287Y-85203143D01*
X94551287Y-85310286D01*
X94515573Y-85381714D01*
X94479858Y-85417429D01*
X94408430Y-85453143D01*
X94122715Y-85453143D01*
X94872715Y-85417429D02*
X95122715Y-85417429D01*
X95229858Y-85810286D02*
X94872715Y-85810286D01*
X94872715Y-85060286D01*
X95229858Y-85060286D01*
X95444144Y-85060286D02*
X95694144Y-85810286D01*
X95944144Y-85060286D01*
X97158430Y-85810286D02*
X96729858Y-85810286D01*
X96944144Y-85810286D02*
X96944144Y-85060286D01*
X96872715Y-85167429D01*
X96801287Y-85238857D01*
X96729858Y-85274571D01*
X97444144Y-85596000D02*
X97801287Y-85596000D01*
X97372716Y-85810286D02*
X97622716Y-85060286D01*
X97872716Y-85810286D01*
X101663428Y-84703000D02*
X101734857Y-84738714D01*
X101842000Y-84738714D01*
X101949143Y-84703000D01*
X102020571Y-84631571D01*
X102056286Y-84560143D01*
X102092000Y-84417286D01*
X102092000Y-84310143D01*
X102056286Y-84167286D01*
X102020571Y-84095857D01*
X101949143Y-84024429D01*
X101842000Y-83988714D01*
X101770571Y-83988714D01*
X101663428Y-84024429D01*
X101627714Y-84060143D01*
X101627714Y-84310143D01*
X101770571Y-84310143D01*
X101306286Y-83988714D02*
X101306286Y-84738714D01*
X100877714Y-83988714D01*
X100877714Y-84738714D01*
X100520572Y-83988714D02*
X100520572Y-84738714D01*
X100342000Y-84738714D01*
X100234857Y-84703000D01*
X100163429Y-84631571D01*
X100127714Y-84560143D01*
X100092000Y-84417286D01*
X100092000Y-84310143D01*
X100127714Y-84167286D01*
X100163429Y-84095857D01*
X100234857Y-84024429D01*
X100342000Y-83988714D01*
X100520572Y-83988714D01*
X122144143Y-83988714D02*
X122144143Y-84738714D01*
X121965571Y-84738714D01*
X121858428Y-84703000D01*
X121787000Y-84631571D01*
X121751285Y-84560143D01*
X121715571Y-84417286D01*
X121715571Y-84310143D01*
X121751285Y-84167286D01*
X121787000Y-84095857D01*
X121858428Y-84024429D01*
X121965571Y-83988714D01*
X122144143Y-83988714D01*
X121394143Y-83988714D02*
X121394143Y-84738714D01*
X120644142Y-83988714D02*
X121072714Y-83988714D01*
X120858428Y-83988714D02*
X120858428Y-84738714D01*
X120929857Y-84631571D01*
X121001285Y-84560143D01*
X121072714Y-84524429D01*
X88731286Y-104169714D02*
X88374143Y-104419714D01*
X88731286Y-104598286D02*
X87981286Y-104598286D01*
X87981286Y-104312571D01*
X88017000Y-104241143D01*
X88052714Y-104205428D01*
X88124143Y-104169714D01*
X88231286Y-104169714D01*
X88302714Y-104205428D01*
X88338429Y-104241143D01*
X88374143Y-104312571D01*
X88374143Y-104598286D01*
X88695571Y-103884000D02*
X88731286Y-103776857D01*
X88731286Y-103598286D01*
X88695571Y-103526857D01*
X88659857Y-103491143D01*
X88588429Y-103455428D01*
X88517000Y-103455428D01*
X88445571Y-103491143D01*
X88409857Y-103526857D01*
X88374143Y-103598286D01*
X88338429Y-103741143D01*
X88302714Y-103812571D01*
X88267000Y-103848286D01*
X88195571Y-103884000D01*
X88124143Y-103884000D01*
X88052714Y-103848286D01*
X88017000Y-103812571D01*
X87981286Y-103741143D01*
X87981286Y-103562571D01*
X88017000Y-103455428D01*
X87981286Y-103241142D02*
X87981286Y-102812571D01*
X88731286Y-103026857D02*
X87981286Y-103026857D01*
X108140572Y-103221286D02*
X108569143Y-103221286D01*
X108354857Y-103971286D02*
X108354857Y-103221286D01*
X108747715Y-103221286D02*
X109247715Y-103971286D01*
X109247715Y-103221286D02*
X108747715Y-103971286D01*
X106047000Y-103971286D02*
X105797000Y-103614143D01*
X105618428Y-103971286D02*
X105618428Y-103221286D01*
X105904143Y-103221286D01*
X105975571Y-103257000D01*
X106011286Y-103292714D01*
X106047000Y-103364143D01*
X106047000Y-103471286D01*
X106011286Y-103542714D01*
X105975571Y-103578429D01*
X105904143Y-103614143D01*
X105618428Y-103614143D01*
X106297000Y-103221286D02*
X106797000Y-103971286D01*
X106797000Y-103221286D02*
X106297000Y-103971286D01*
X100520572Y-103257000D02*
X100449143Y-103221286D01*
X100342000Y-103221286D01*
X100234857Y-103257000D01*
X100163429Y-103328429D01*
X100127714Y-103399857D01*
X100092000Y-103542714D01*
X100092000Y-103649857D01*
X100127714Y-103792714D01*
X100163429Y-103864143D01*
X100234857Y-103935571D01*
X100342000Y-103971286D01*
X100413429Y-103971286D01*
X100520572Y-103935571D01*
X100556286Y-103899857D01*
X100556286Y-103649857D01*
X100413429Y-103649857D01*
X100877714Y-103971286D02*
X100877714Y-103221286D01*
X101306286Y-103971286D01*
X101306286Y-103221286D01*
X101663428Y-103971286D02*
X101663428Y-103221286D01*
X101842000Y-103221286D01*
X101949143Y-103257000D01*
X102020571Y-103328429D01*
X102056286Y-103399857D01*
X102092000Y-103542714D01*
X102092000Y-103649857D01*
X102056286Y-103792714D01*
X102020571Y-103864143D01*
X101949143Y-103935571D01*
X101842000Y-103971286D01*
X101663428Y-103971286D01*
X103078428Y-103578429D02*
X103185571Y-103614143D01*
X103221286Y-103649857D01*
X103257000Y-103721286D01*
X103257000Y-103828429D01*
X103221286Y-103899857D01*
X103185571Y-103935571D01*
X103114143Y-103971286D01*
X102828428Y-103971286D01*
X102828428Y-103221286D01*
X103078428Y-103221286D01*
X103149857Y-103257000D01*
X103185571Y-103292714D01*
X103221286Y-103364143D01*
X103221286Y-103435571D01*
X103185571Y-103507000D01*
X103149857Y-103542714D01*
X103078428Y-103578429D01*
X102828428Y-103578429D01*
X103542714Y-103757000D02*
X103899857Y-103757000D01*
X103471286Y-103971286D02*
X103721286Y-103221286D01*
X103971286Y-103971286D01*
X104114143Y-103221286D02*
X104542714Y-103221286D01*
X104328428Y-103971286D02*
X104328428Y-103221286D01*
X110841286Y-103971286D02*
X110591286Y-103614143D01*
X110412714Y-103971286D02*
X110412714Y-103221286D01*
X110698429Y-103221286D01*
X110769857Y-103257000D01*
X110805572Y-103292714D01*
X110841286Y-103364143D01*
X110841286Y-103471286D01*
X110805572Y-103542714D01*
X110769857Y-103578429D01*
X110698429Y-103614143D01*
X110412714Y-103614143D01*
X111127000Y-103935571D02*
X111234143Y-103971286D01*
X111412714Y-103971286D01*
X111484143Y-103935571D01*
X111519857Y-103899857D01*
X111555572Y-103828429D01*
X111555572Y-103757000D01*
X111519857Y-103685571D01*
X111484143Y-103649857D01*
X111412714Y-103614143D01*
X111269857Y-103578429D01*
X111198429Y-103542714D01*
X111162714Y-103507000D01*
X111127000Y-103435571D01*
X111127000Y-103364143D01*
X111162714Y-103292714D01*
X111198429Y-103257000D01*
X111269857Y-103221286D01*
X111448429Y-103221286D01*
X111555572Y-103257000D01*
X111769858Y-103221286D02*
X112198429Y-103221286D01*
X111984143Y-103971286D02*
X111984143Y-103221286D01*
X132482715Y-83988714D02*
X132482715Y-84738714D01*
X132197000Y-84738714D01*
X132125572Y-84703000D01*
X132089857Y-84667286D01*
X132054143Y-84595857D01*
X132054143Y-84488714D01*
X132089857Y-84417286D01*
X132125572Y-84381571D01*
X132197000Y-84345857D01*
X132482715Y-84345857D01*
X131589857Y-84738714D02*
X131518429Y-84738714D01*
X131447000Y-84703000D01*
X131411286Y-84667286D01*
X131375572Y-84595857D01*
X131339857Y-84453000D01*
X131339857Y-84274429D01*
X131375572Y-84131571D01*
X131411286Y-84060143D01*
X131447000Y-84024429D01*
X131518429Y-83988714D01*
X131589857Y-83988714D01*
X131661286Y-84024429D01*
X131697000Y-84060143D01*
X131732715Y-84131571D01*
X131768429Y-84274429D01*
X131768429Y-84453000D01*
X131732715Y-84595857D01*
X131697000Y-84667286D01*
X131661286Y-84703000D01*
X131589857Y-84738714D01*
X130982714Y-83988714D02*
X130839857Y-83988714D01*
X130768429Y-84024429D01*
X130732714Y-84060143D01*
X130661286Y-84167286D01*
X130625571Y-84310143D01*
X130625571Y-84595857D01*
X130661286Y-84667286D01*
X130697000Y-84703000D01*
X130768429Y-84738714D01*
X130911286Y-84738714D01*
X130982714Y-84703000D01*
X131018429Y-84667286D01*
X131054143Y-84595857D01*
X131054143Y-84417286D01*
X131018429Y-84345857D01*
X130982714Y-84310143D01*
X130911286Y-84274429D01*
X130768429Y-84274429D01*
X130697000Y-84310143D01*
X130661286Y-84345857D01*
X130625571Y-84417286D01*
X94065286Y-104705429D02*
X93315286Y-104705429D01*
X93315286Y-104419714D01*
X93351000Y-104348286D01*
X93386714Y-104312571D01*
X93458143Y-104276857D01*
X93565286Y-104276857D01*
X93636714Y-104312571D01*
X93672429Y-104348286D01*
X93708143Y-104419714D01*
X93708143Y-104705429D01*
X94065286Y-103526857D02*
X93708143Y-103776857D01*
X94065286Y-103955429D02*
X93315286Y-103955429D01*
X93315286Y-103669714D01*
X93351000Y-103598286D01*
X93386714Y-103562571D01*
X93458143Y-103526857D01*
X93565286Y-103526857D01*
X93636714Y-103562571D01*
X93672429Y-103598286D01*
X93708143Y-103669714D01*
X93708143Y-103955429D01*
X93351000Y-102812571D02*
X93315286Y-102884000D01*
X93315286Y-102991143D01*
X93351000Y-103098286D01*
X93422429Y-103169714D01*
X93493857Y-103205429D01*
X93636714Y-103241143D01*
X93743857Y-103241143D01*
X93886714Y-103205429D01*
X93958143Y-103169714D01*
X94029571Y-103098286D01*
X94065286Y-102991143D01*
X94065286Y-102919714D01*
X94029571Y-102812571D01*
X93993857Y-102776857D01*
X93743857Y-102776857D01*
X93743857Y-102919714D01*
D14*
X112046000Y-84964000D02*
X112046000Y-88264000D01*
X112046000Y-88264000D02*
X116046000Y-88264000D01*
X106995000Y-95843000D02*
X106995000Y-96943000D01*
X105095000Y-95843000D02*
X105095000Y-96943000D01*
X106945000Y-94443000D02*
X105145000Y-94443000D01*
D11*
X144208000Y-86218000D02*
X144208000Y-89218000D01*
X144208000Y-89218000D02*
X146208000Y-89218000D01*
X146208000Y-89218000D02*
X146208000Y-86218000D01*
X146208000Y-86218000D02*
X144208000Y-86218000D01*
X134208000Y-91218000D02*
X139208000Y-91218000D01*
X139208000Y-91218000D02*
X139208000Y-86218000D01*
X139208000Y-86218000D02*
X134208000Y-86218000D01*
X134208000Y-86218000D02*
X134208000Y-91218000D01*
X132208000Y-85218000D02*
X148208000Y-85218000D01*
X148208000Y-101218000D02*
X132208000Y-101218000D01*
X81947000Y-90432500D02*
X85947000Y-90432500D01*
X81947000Y-99432500D02*
X81947000Y-90432500D01*
X85947000Y-99432500D02*
X85947000Y-90432500D01*
X81947000Y-99432500D02*
X85947000Y-99432500D01*
X126492000Y-94488000D02*
G75*
G03X126492000Y-94488000I-635000J0D01*
G01*
X127127000Y-95758000D02*
X127127000Y-90678000D01*
X127127000Y-90678000D02*
X120777000Y-90678000D01*
X120777000Y-90678000D02*
X120777000Y-95758000D01*
X120777000Y-95758000D02*
X127127000Y-95758000D01*
X157956000Y-101202000D02*
X153956000Y-101202000D01*
X153956000Y-101202000D02*
X153956000Y-83202000D01*
X153956000Y-83202000D02*
X157956000Y-83202000D01*
X157956000Y-83202000D02*
X157956000Y-101202000D01*
D14*
X98263000Y-94900000D02*
X98263000Y-95600000D01*
X97063000Y-95600000D02*
X97063000Y-94900000D01*
D11*
X92937000Y-88519000D02*
G75*
G03X92937000Y-88519000I-100000J0D01*
G01*
X93837000Y-88519000D02*
G75*
G03X93837000Y-88519000I-1000000J0D01*
G01*
X91537000Y-89519000D02*
X91537000Y-87519000D01*
X93837000Y-89819000D02*
X91837000Y-89819000D01*
X94137000Y-87519000D02*
X94137000Y-89519000D01*
X91837000Y-87219000D02*
X93837000Y-87219000D01*
X91537000Y-89519000D02*
G75*
G03X91837000Y-89819000I300000J0D01*
G01*
X93837000Y-89819000D02*
G75*
G03X94137000Y-89519000I0J300000D01*
G01*
X94137000Y-87519000D02*
G75*
G03X93837000Y-87219000I-300000J0D01*
G01*
X91837000Y-87219000D02*
G75*
G03X91537000Y-87519000I0J-300000D01*
G01*
X117171000Y-90093000D02*
X117171000Y-90693000D01*
X110921000Y-96343000D02*
X110921000Y-95743000D01*
X117171000Y-96343000D02*
X117171000Y-95743000D01*
X110921000Y-90093000D02*
X111521000Y-90093000D01*
X110921000Y-96343000D02*
X111521000Y-96343000D01*
X117171000Y-96343000D02*
X116571000Y-96343000D01*
X117171000Y-90093000D02*
X116571000Y-90093000D01*
X110492000Y-100154000D02*
X109492000Y-100154000D01*
X109492000Y-98804000D02*
X110492000Y-98804000D01*
X97258000Y-101796000D02*
X97658000Y-101796000D01*
X97658000Y-101796000D02*
X97658000Y-105796000D01*
X97658000Y-105796000D02*
X97258000Y-105796000D01*
X94858000Y-105796000D02*
X94458000Y-105796000D01*
X94458000Y-105796000D02*
X94458000Y-101796000D01*
X94458000Y-101796000D02*
X94858000Y-101796000D01*
X91860500Y-101794500D02*
X92260500Y-101794500D01*
X92260500Y-101794500D02*
X92260500Y-105794500D01*
X92260500Y-105794500D02*
X91860500Y-105794500D01*
X89460500Y-105794500D02*
X89060500Y-105794500D01*
X89060500Y-105794500D02*
X89060500Y-101794500D01*
X89060500Y-101794500D02*
X89460500Y-101794500D01*
D14*
X125380000Y-100507000D02*
X129630000Y-100507000D01*
X125380000Y-102607000D02*
X129630000Y-102607000D01*
X125380000Y-100507000D02*
X125380000Y-102607000D01*
X121080000Y-100507000D02*
X116830000Y-100507000D01*
X121080000Y-98407000D02*
X116830000Y-98407000D01*
X121080000Y-100507000D02*
X121080000Y-98407000D01*
X108842000Y-100529000D02*
X113092000Y-100529000D01*
X108842000Y-102629000D02*
X113092000Y-102629000D01*
X108842000Y-100529000D02*
X108842000Y-102629000D01*
X104542000Y-100529000D02*
X100292000Y-100529000D01*
X104542000Y-98429000D02*
X100292000Y-98429000D01*
X104542000Y-100529000D02*
X104542000Y-98429000D01*
D11*
X127030000Y-100132000D02*
X126030000Y-100132000D01*
X126030000Y-98782000D02*
X127030000Y-98782000D01*
X120430000Y-102232000D02*
X119430000Y-102232000D01*
X119430000Y-100882000D02*
X120430000Y-100882000D01*
D14*
X105792000Y-102189000D02*
X107592000Y-102189000D01*
X107592000Y-98969000D02*
X105142000Y-98969000D01*
X122330000Y-102167000D02*
X124130000Y-102167000D01*
X124130000Y-98947000D02*
X121680000Y-98947000D01*
X91760500Y-99844500D02*
X91760500Y-99144500D01*
X92960500Y-99144500D02*
X92960500Y-99844500D01*
X97158000Y-99846000D02*
X97158000Y-99146000D01*
X98358000Y-99146000D02*
X98358000Y-99846000D01*
D11*
X88185500Y-99994500D02*
X88185500Y-98994500D01*
X89535500Y-98994500D02*
X89535500Y-99994500D01*
X89985500Y-99994500D02*
X89985500Y-98994500D01*
X91335500Y-98994500D02*
X91335500Y-99994500D01*
X93583000Y-99996000D02*
X93583000Y-98996000D01*
X94933000Y-98996000D02*
X94933000Y-99996000D01*
X95383000Y-99996000D02*
X95383000Y-98996000D01*
X96733000Y-98996000D02*
X96733000Y-99996000D01*
D14*
X110398000Y-86964000D02*
X110398000Y-86264000D01*
X111598000Y-86264000D02*
X111598000Y-86964000D01*
X117694000Y-86264000D02*
X117694000Y-86964000D01*
X116494000Y-86964000D02*
X116494000Y-86264000D01*
X109312000Y-86264000D02*
X109312000Y-86964000D01*
X108112000Y-86964000D02*
X108112000Y-86264000D01*
X105502000Y-86264000D02*
X105502000Y-86964000D01*
X104302000Y-86964000D02*
X104302000Y-86264000D01*
D11*
X106132000Y-87114000D02*
X106132000Y-86114000D01*
X107482000Y-86114000D02*
X107482000Y-87114000D01*
D14*
X102397000Y-86964000D02*
X102397000Y-86264000D01*
X103597000Y-86264000D02*
X103597000Y-86964000D01*
X100619000Y-86964000D02*
X100619000Y-86264000D01*
X101819000Y-86264000D02*
X101819000Y-86964000D01*
X98841000Y-86952000D02*
X98841000Y-86252000D01*
X100041000Y-86252000D02*
X100041000Y-86952000D01*
X100041000Y-90328000D02*
X100041000Y-91028000D01*
X98841000Y-91028000D02*
X98841000Y-90328000D01*
X102458000Y-92040000D02*
X101758000Y-92040000D01*
X101758000Y-90840000D02*
X102458000Y-90840000D01*
D11*
X104227000Y-91178000D02*
X104227000Y-90178000D01*
X105577000Y-90178000D02*
X105577000Y-91178000D01*
D14*
X92929000Y-94900000D02*
X92929000Y-95600000D01*
X91729000Y-95600000D02*
X91729000Y-94900000D01*
X94707000Y-94900000D02*
X94707000Y-95600000D01*
X93507000Y-95600000D02*
X93507000Y-94900000D01*
X96485000Y-94900000D02*
X96485000Y-95600000D01*
X95285000Y-95600000D02*
X95285000Y-94900000D01*
X100041000Y-94900000D02*
X100041000Y-95600000D01*
X98841000Y-95600000D02*
X98841000Y-94900000D01*
X101819000Y-94900000D02*
X101819000Y-95600000D01*
X100619000Y-95600000D02*
X100619000Y-94900000D01*
X104486000Y-96043000D02*
X104486000Y-96743000D01*
X103286000Y-96743000D02*
X103286000Y-96043000D01*
X108804000Y-96043000D02*
X108804000Y-96743000D01*
X107604000Y-96743000D02*
X107604000Y-96043000D01*
X113061000Y-98841000D02*
X113761000Y-98841000D01*
X113761000Y-100041000D02*
X113061000Y-100041000D01*
X121912000Y-85314000D02*
X120912000Y-85314000D01*
X120912000Y-85314000D02*
X120912000Y-87414000D01*
X121912000Y-85314000D02*
X121912000Y-87414000D01*
D11*
X122515000Y-87114000D02*
X122515000Y-86114000D01*
X123865000Y-86114000D02*
X123865000Y-87114000D01*
D14*
X119980000Y-86264000D02*
X119980000Y-86964000D01*
X118780000Y-86964000D02*
X118780000Y-86264000D01*
X124302000Y-97501000D02*
X123602000Y-97501000D01*
X123602000Y-96301000D02*
X124302000Y-96301000D01*
X151476000Y-91090000D02*
X151476000Y-91790000D01*
X150276000Y-91790000D02*
X150276000Y-91090000D01*
D11*
X148309000Y-104394000D02*
G75*
G03X148309000Y-104394000I-100000J0D01*
G01*
X149209000Y-104394000D02*
G75*
G03X149209000Y-104394000I-1000000J0D01*
G01*
X149509000Y-103394000D02*
X149509000Y-105394000D01*
X147209000Y-103094000D02*
X149209000Y-103094000D01*
X146909000Y-105394000D02*
X146909000Y-103394000D01*
X149209000Y-105694000D02*
X147209000Y-105694000D01*
X149509000Y-103394000D02*
G75*
G03X149209000Y-103094000I-300000J0D01*
G01*
X147209000Y-103094000D02*
G75*
G03X146909000Y-103394000I0J-300000D01*
G01*
X146909000Y-105394000D02*
G75*
G03X147209000Y-105694000I300000J0D01*
G01*
X149209000Y-105694000D02*
G75*
G03X149509000Y-105394000I0J300000D01*
G01*
X112642858Y-88982143D02*
X112642858Y-89339286D01*
X112392858Y-88589286D02*
X112642858Y-88982143D01*
X112892858Y-88589286D01*
X113535715Y-89339286D02*
X113107143Y-89339286D01*
X113321429Y-89339286D02*
X113321429Y-88589286D01*
X113250000Y-88696429D01*
X113178572Y-88767857D01*
X113107143Y-88803571D01*
X105687858Y-93835143D02*
X105687858Y-94192286D01*
X105437858Y-93442286D02*
X105687858Y-93835143D01*
X105937858Y-93442286D01*
X106152143Y-93513714D02*
X106187857Y-93478000D01*
X106259286Y-93442286D01*
X106437857Y-93442286D01*
X106509286Y-93478000D01*
X106545000Y-93513714D01*
X106580715Y-93585143D01*
X106580715Y-93656571D01*
X106545000Y-93763714D01*
X106116429Y-94192286D01*
X106580715Y-94192286D01*
X139446095Y-92670381D02*
X139446095Y-93479905D01*
X139493714Y-93575143D01*
X139541333Y-93622762D01*
X139636571Y-93670381D01*
X139827048Y-93670381D01*
X139922286Y-93622762D01*
X139969905Y-93575143D01*
X140017524Y-93479905D01*
X140017524Y-92670381D01*
X140969905Y-92670381D02*
X140493714Y-92670381D01*
X140446095Y-93146571D01*
X140493714Y-93098952D01*
X140588952Y-93051333D01*
X140827048Y-93051333D01*
X140922286Y-93098952D01*
X140969905Y-93146571D01*
X141017524Y-93241810D01*
X141017524Y-93479905D01*
X140969905Y-93575143D01*
X140922286Y-93622762D01*
X140827048Y-93670381D01*
X140588952Y-93670381D01*
X140493714Y-93622762D01*
X140446095Y-93575143D01*
X83072000Y-89850500D02*
X83429143Y-89850500D01*
X83000572Y-90064786D02*
X83250572Y-89314786D01*
X83500572Y-90064786D01*
X83750571Y-89671929D02*
X84000571Y-89671929D01*
X84107714Y-90064786D02*
X83750571Y-90064786D01*
X83750571Y-89314786D01*
X84107714Y-89314786D01*
X84822000Y-90064786D02*
X84393428Y-90064786D01*
X84607714Y-90064786D02*
X84607714Y-89314786D01*
X84536285Y-89421929D01*
X84464857Y-89493357D01*
X84393428Y-89529071D01*
X125793571Y-96109286D02*
X125793571Y-96716429D01*
X125829286Y-96787857D01*
X125865000Y-96823571D01*
X125936429Y-96859286D01*
X126079286Y-96859286D01*
X126150714Y-96823571D01*
X126186429Y-96787857D01*
X126222143Y-96716429D01*
X126222143Y-96109286D01*
X126900714Y-96359286D02*
X126900714Y-96859286D01*
X126722143Y-96073571D02*
X126543571Y-96609286D01*
X127007857Y-96609286D01*
X155081000Y-82421000D02*
X155438143Y-82421000D01*
X155009572Y-82635286D02*
X155259572Y-81885286D01*
X155509572Y-82635286D01*
X155759571Y-82242429D02*
X156009571Y-82242429D01*
X156116714Y-82635286D02*
X155759571Y-82635286D01*
X155759571Y-81885286D01*
X156116714Y-81885286D01*
X156402428Y-81956714D02*
X156438142Y-81921000D01*
X156509571Y-81885286D01*
X156688142Y-81885286D01*
X156759571Y-81921000D01*
X156795285Y-81956714D01*
X156831000Y-82028143D01*
X156831000Y-82099571D01*
X156795285Y-82206714D01*
X156366714Y-82635286D01*
X156831000Y-82635286D01*
X96672857Y-93485857D02*
X96637143Y-93521571D01*
X96530000Y-93557286D01*
X96458571Y-93557286D01*
X96351428Y-93521571D01*
X96280000Y-93450143D01*
X96244285Y-93378714D01*
X96208571Y-93235857D01*
X96208571Y-93128714D01*
X96244285Y-92985857D01*
X96280000Y-92914429D01*
X96351428Y-92843000D01*
X96458571Y-92807286D01*
X96530000Y-92807286D01*
X96637143Y-92843000D01*
X96672857Y-92878714D01*
X97387143Y-93557286D02*
X96958571Y-93557286D01*
X97172857Y-93557286D02*
X97172857Y-92807286D01*
X97101428Y-92914429D01*
X97030000Y-92985857D01*
X96958571Y-93021571D01*
X97744286Y-93557286D02*
X97887143Y-93557286D01*
X97958571Y-93521571D01*
X97994286Y-93485857D01*
X98065714Y-93378714D01*
X98101429Y-93235857D01*
X98101429Y-92950143D01*
X98065714Y-92878714D01*
X98030000Y-92843000D01*
X97958571Y-92807286D01*
X97815714Y-92807286D01*
X97744286Y-92843000D01*
X97708571Y-92878714D01*
X97672857Y-92950143D01*
X97672857Y-93128714D01*
X97708571Y-93200143D01*
X97744286Y-93235857D01*
X97815714Y-93271571D01*
X97958571Y-93271571D01*
X98030000Y-93235857D01*
X98065714Y-93200143D01*
X98101429Y-93128714D01*
X87576571Y-89505286D02*
X87576571Y-90112429D01*
X87612286Y-90183857D01*
X87648000Y-90219571D01*
X87719429Y-90255286D01*
X87862286Y-90255286D01*
X87933714Y-90219571D01*
X87969429Y-90183857D01*
X88005143Y-90112429D01*
X88005143Y-89505286D01*
X88612285Y-89862429D02*
X88362285Y-89862429D01*
X88362285Y-90255286D02*
X88362285Y-89505286D01*
X88719428Y-89505286D01*
X89362285Y-90255286D02*
X89005142Y-90255286D01*
X89005142Y-89505286D01*
X90005143Y-90255286D02*
X89576571Y-90255286D01*
X89790857Y-90255286D02*
X89790857Y-89505286D01*
X89719428Y-89612429D01*
X89648000Y-89683857D01*
X89576571Y-89719571D01*
X109029571Y-89632286D02*
X109029571Y-90239429D01*
X109065286Y-90310857D01*
X109101000Y-90346571D01*
X109172429Y-90382286D01*
X109315286Y-90382286D01*
X109386714Y-90346571D01*
X109422429Y-90310857D01*
X109458143Y-90239429D01*
X109458143Y-89632286D01*
X109743857Y-89632286D02*
X110208143Y-89632286D01*
X109958143Y-89918000D01*
X110065285Y-89918000D01*
X110136714Y-89953714D01*
X110172428Y-89989429D01*
X110208143Y-90060857D01*
X110208143Y-90239429D01*
X110172428Y-90310857D01*
X110136714Y-90346571D01*
X110065285Y-90382286D01*
X109851000Y-90382286D01*
X109779571Y-90346571D01*
X109743857Y-90310857D01*
X110619000Y-98510286D02*
X110261857Y-98510286D01*
X110261857Y-97760286D01*
X111261858Y-98510286D02*
X110833286Y-98510286D01*
X111047572Y-98510286D02*
X111047572Y-97760286D01*
X110976143Y-97867429D01*
X110904715Y-97938857D01*
X110833286Y-97974571D01*
X99589786Y-83103572D02*
X98839786Y-83103572D01*
X98839786Y-82817857D01*
X98875500Y-82746429D01*
X98911214Y-82710714D01*
X98982643Y-82675000D01*
X99089786Y-82675000D01*
X99161214Y-82710714D01*
X99196929Y-82746429D01*
X99232643Y-82817857D01*
X99232643Y-83103572D01*
X98911214Y-82389286D02*
X98875500Y-82353572D01*
X98839786Y-82282143D01*
X98839786Y-82103572D01*
X98875500Y-82032143D01*
X98911214Y-81996429D01*
X98982643Y-81960714D01*
X99054071Y-81960714D01*
X99161214Y-81996429D01*
X99589786Y-82425000D01*
X99589786Y-81960714D01*
X99589786Y-105963572D02*
X98839786Y-105963572D01*
X98839786Y-105677857D01*
X98875500Y-105606429D01*
X98911214Y-105570714D01*
X98982643Y-105535000D01*
X99089786Y-105535000D01*
X99161214Y-105570714D01*
X99196929Y-105606429D01*
X99232643Y-105677857D01*
X99232643Y-105963572D01*
X99589786Y-104820714D02*
X99589786Y-105249286D01*
X99589786Y-105035000D02*
X98839786Y-105035000D01*
X98946929Y-105106429D01*
X99018357Y-105177857D01*
X99054071Y-105249286D01*
X128526000Y-100089857D02*
X128490286Y-100125571D01*
X128383143Y-100161286D01*
X128311714Y-100161286D01*
X128204571Y-100125571D01*
X128133143Y-100054143D01*
X128097428Y-99982714D01*
X128061714Y-99839857D01*
X128061714Y-99732714D01*
X128097428Y-99589857D01*
X128133143Y-99518429D01*
X128204571Y-99447000D01*
X128311714Y-99411286D01*
X128383143Y-99411286D01*
X128490286Y-99447000D01*
X128526000Y-99482714D01*
X129168857Y-99661286D02*
X129168857Y-100161286D01*
X128990286Y-99375571D02*
X128811714Y-99911286D01*
X129276000Y-99911286D01*
X117858000Y-98057857D02*
X117822286Y-98093571D01*
X117715143Y-98129286D01*
X117643714Y-98129286D01*
X117536571Y-98093571D01*
X117465143Y-98022143D01*
X117429428Y-97950714D01*
X117393714Y-97807857D01*
X117393714Y-97700714D01*
X117429428Y-97557857D01*
X117465143Y-97486429D01*
X117536571Y-97415000D01*
X117643714Y-97379286D01*
X117715143Y-97379286D01*
X117822286Y-97415000D01*
X117858000Y-97450714D01*
X118108000Y-97379286D02*
X118572286Y-97379286D01*
X118322286Y-97665000D01*
X118429428Y-97665000D01*
X118500857Y-97700714D01*
X118536571Y-97736429D01*
X118572286Y-97807857D01*
X118572286Y-97986429D01*
X118536571Y-98057857D01*
X118500857Y-98093571D01*
X118429428Y-98129286D01*
X118215143Y-98129286D01*
X118143714Y-98093571D01*
X118108000Y-98057857D01*
X114975000Y-102567857D02*
X114939286Y-102603571D01*
X114832143Y-102639286D01*
X114760714Y-102639286D01*
X114653571Y-102603571D01*
X114582143Y-102532143D01*
X114546428Y-102460714D01*
X114510714Y-102317857D01*
X114510714Y-102210714D01*
X114546428Y-102067857D01*
X114582143Y-101996429D01*
X114653571Y-101925000D01*
X114760714Y-101889286D01*
X114832143Y-101889286D01*
X114939286Y-101925000D01*
X114975000Y-101960714D01*
X115260714Y-101960714D02*
X115296428Y-101925000D01*
X115367857Y-101889286D01*
X115546428Y-101889286D01*
X115617857Y-101925000D01*
X115653571Y-101960714D01*
X115689286Y-102032143D01*
X115689286Y-102103571D01*
X115653571Y-102210714D01*
X115225000Y-102639286D01*
X115689286Y-102639286D01*
X99697000Y-101613857D02*
X99661286Y-101649571D01*
X99554143Y-101685286D01*
X99482714Y-101685286D01*
X99375571Y-101649571D01*
X99304143Y-101578143D01*
X99268428Y-101506714D01*
X99232714Y-101363857D01*
X99232714Y-101256714D01*
X99268428Y-101113857D01*
X99304143Y-101042429D01*
X99375571Y-100971000D01*
X99482714Y-100935286D01*
X99554143Y-100935286D01*
X99661286Y-100971000D01*
X99697000Y-101006714D01*
X100411286Y-101685286D02*
X99982714Y-101685286D01*
X100197000Y-101685286D02*
X100197000Y-100935286D01*
X100125571Y-101042429D01*
X100054143Y-101113857D01*
X99982714Y-101149571D01*
X126367000Y-98510286D02*
X126009857Y-98510286D01*
X126009857Y-97760286D01*
X126581286Y-97831714D02*
X126617000Y-97796000D01*
X126688429Y-97760286D01*
X126867000Y-97760286D01*
X126938429Y-97796000D01*
X126974143Y-97831714D01*
X127009858Y-97903143D01*
X127009858Y-97974571D01*
X126974143Y-98081714D01*
X126545572Y-98510286D01*
X127009858Y-98510286D01*
X117705000Y-101596286D02*
X117455000Y-101239143D01*
X117276428Y-101596286D02*
X117276428Y-100846286D01*
X117562143Y-100846286D01*
X117633571Y-100882000D01*
X117669286Y-100917714D01*
X117705000Y-100989143D01*
X117705000Y-101096286D01*
X117669286Y-101167714D01*
X117633571Y-101203429D01*
X117562143Y-101239143D01*
X117276428Y-101239143D01*
X118419286Y-101596286D02*
X117990714Y-101596286D01*
X118205000Y-101596286D02*
X118205000Y-100846286D01*
X118133571Y-100953429D01*
X118062143Y-101024857D01*
X117990714Y-101060571D01*
X103441571Y-101570286D02*
X103441571Y-102177429D01*
X103477286Y-102248857D01*
X103513000Y-102284571D01*
X103584429Y-102320286D01*
X103727286Y-102320286D01*
X103798714Y-102284571D01*
X103834429Y-102248857D01*
X103870143Y-102177429D01*
X103870143Y-101570286D01*
X104620143Y-102320286D02*
X104191571Y-102320286D01*
X104405857Y-102320286D02*
X104405857Y-101570286D01*
X104334428Y-101677429D01*
X104263000Y-101748857D01*
X104191571Y-101784571D01*
X121458571Y-97846286D02*
X121458571Y-98453429D01*
X121494286Y-98524857D01*
X121530000Y-98560571D01*
X121601429Y-98596286D01*
X121744286Y-98596286D01*
X121815714Y-98560571D01*
X121851429Y-98524857D01*
X121887143Y-98453429D01*
X121887143Y-97846286D01*
X122208571Y-97917714D02*
X122244285Y-97882000D01*
X122315714Y-97846286D01*
X122494285Y-97846286D01*
X122565714Y-97882000D01*
X122601428Y-97917714D01*
X122637143Y-97989143D01*
X122637143Y-98060571D01*
X122601428Y-98167714D01*
X122172857Y-98596286D01*
X122637143Y-98596286D01*
X92204000Y-97803857D02*
X92168286Y-97839571D01*
X92061143Y-97875286D01*
X91989714Y-97875286D01*
X91882571Y-97839571D01*
X91811143Y-97768143D01*
X91775428Y-97696714D01*
X91739714Y-97553857D01*
X91739714Y-97446714D01*
X91775428Y-97303857D01*
X91811143Y-97232429D01*
X91882571Y-97161000D01*
X91989714Y-97125286D01*
X92061143Y-97125286D01*
X92168286Y-97161000D01*
X92204000Y-97196714D01*
X92882571Y-97125286D02*
X92525428Y-97125286D01*
X92489714Y-97482429D01*
X92525428Y-97446714D01*
X92596857Y-97411000D01*
X92775428Y-97411000D01*
X92846857Y-97446714D01*
X92882571Y-97482429D01*
X92918286Y-97553857D01*
X92918286Y-97732429D01*
X92882571Y-97803857D01*
X92846857Y-97839571D01*
X92775428Y-97875286D01*
X92596857Y-97875286D01*
X92525428Y-97839571D01*
X92489714Y-97803857D01*
X97665000Y-97803857D02*
X97629286Y-97839571D01*
X97522143Y-97875286D01*
X97450714Y-97875286D01*
X97343571Y-97839571D01*
X97272143Y-97768143D01*
X97236428Y-97696714D01*
X97200714Y-97553857D01*
X97200714Y-97446714D01*
X97236428Y-97303857D01*
X97272143Y-97232429D01*
X97343571Y-97161000D01*
X97450714Y-97125286D01*
X97522143Y-97125286D01*
X97629286Y-97161000D01*
X97665000Y-97196714D01*
X98307857Y-97125286D02*
X98165000Y-97125286D01*
X98093571Y-97161000D01*
X98057857Y-97196714D01*
X97986428Y-97303857D01*
X97950714Y-97446714D01*
X97950714Y-97732429D01*
X97986428Y-97803857D01*
X98022143Y-97839571D01*
X98093571Y-97875286D01*
X98236428Y-97875286D01*
X98307857Y-97839571D01*
X98343571Y-97803857D01*
X98379286Y-97732429D01*
X98379286Y-97553857D01*
X98343571Y-97482429D01*
X98307857Y-97446714D01*
X98236428Y-97411000D01*
X98093571Y-97411000D01*
X98022143Y-97446714D01*
X97986428Y-97482429D01*
X97950714Y-97553857D01*
X88775000Y-97875286D02*
X88525000Y-97518143D01*
X88346428Y-97875286D02*
X88346428Y-97125286D01*
X88632143Y-97125286D01*
X88703571Y-97161000D01*
X88739286Y-97196714D01*
X88775000Y-97268143D01*
X88775000Y-97375286D01*
X88739286Y-97446714D01*
X88703571Y-97482429D01*
X88632143Y-97518143D01*
X88346428Y-97518143D01*
X89060714Y-97196714D02*
X89096428Y-97161000D01*
X89167857Y-97125286D01*
X89346428Y-97125286D01*
X89417857Y-97161000D01*
X89453571Y-97196714D01*
X89489286Y-97268143D01*
X89489286Y-97339571D01*
X89453571Y-97446714D01*
X89025000Y-97875286D01*
X89489286Y-97875286D01*
X90553000Y-97875286D02*
X90303000Y-97518143D01*
X90124428Y-97875286D02*
X90124428Y-97125286D01*
X90410143Y-97125286D01*
X90481571Y-97161000D01*
X90517286Y-97196714D01*
X90553000Y-97268143D01*
X90553000Y-97375286D01*
X90517286Y-97446714D01*
X90481571Y-97482429D01*
X90410143Y-97518143D01*
X90124428Y-97518143D01*
X90803000Y-97125286D02*
X91267286Y-97125286D01*
X91017286Y-97411000D01*
X91124428Y-97411000D01*
X91195857Y-97446714D01*
X91231571Y-97482429D01*
X91267286Y-97553857D01*
X91267286Y-97732429D01*
X91231571Y-97803857D01*
X91195857Y-97839571D01*
X91124428Y-97875286D01*
X90910143Y-97875286D01*
X90838714Y-97839571D01*
X90803000Y-97803857D01*
X94109000Y-97875286D02*
X93859000Y-97518143D01*
X93680428Y-97875286D02*
X93680428Y-97125286D01*
X93966143Y-97125286D01*
X94037571Y-97161000D01*
X94073286Y-97196714D01*
X94109000Y-97268143D01*
X94109000Y-97375286D01*
X94073286Y-97446714D01*
X94037571Y-97482429D01*
X93966143Y-97518143D01*
X93680428Y-97518143D01*
X94751857Y-97375286D02*
X94751857Y-97875286D01*
X94573286Y-97089571D02*
X94394714Y-97625286D01*
X94859000Y-97625286D01*
X95887000Y-97875286D02*
X95637000Y-97518143D01*
X95458428Y-97875286D02*
X95458428Y-97125286D01*
X95744143Y-97125286D01*
X95815571Y-97161000D01*
X95851286Y-97196714D01*
X95887000Y-97268143D01*
X95887000Y-97375286D01*
X95851286Y-97446714D01*
X95815571Y-97482429D01*
X95744143Y-97518143D01*
X95458428Y-97518143D01*
X96565571Y-97125286D02*
X96208428Y-97125286D01*
X96172714Y-97482429D01*
X96208428Y-97446714D01*
X96279857Y-97411000D01*
X96458428Y-97411000D01*
X96529857Y-97446714D01*
X96565571Y-97482429D01*
X96601286Y-97553857D01*
X96601286Y-97732429D01*
X96565571Y-97803857D01*
X96529857Y-97839571D01*
X96458428Y-97875286D01*
X96279857Y-97875286D01*
X96208428Y-97839571D01*
X96172714Y-97803857D01*
X110873000Y-88913857D02*
X110837286Y-88949571D01*
X110730143Y-88985286D01*
X110658714Y-88985286D01*
X110551571Y-88949571D01*
X110480143Y-88878143D01*
X110444428Y-88806714D01*
X110408714Y-88663857D01*
X110408714Y-88556714D01*
X110444428Y-88413857D01*
X110480143Y-88342429D01*
X110551571Y-88271000D01*
X110658714Y-88235286D01*
X110730143Y-88235286D01*
X110837286Y-88271000D01*
X110873000Y-88306714D01*
X111123000Y-88235286D02*
X111623000Y-88235286D01*
X111301571Y-88985286D01*
X116969000Y-88913857D02*
X116933286Y-88949571D01*
X116826143Y-88985286D01*
X116754714Y-88985286D01*
X116647571Y-88949571D01*
X116576143Y-88878143D01*
X116540428Y-88806714D01*
X116504714Y-88663857D01*
X116504714Y-88556714D01*
X116540428Y-88413857D01*
X116576143Y-88342429D01*
X116647571Y-88271000D01*
X116754714Y-88235286D01*
X116826143Y-88235286D01*
X116933286Y-88271000D01*
X116969000Y-88306714D01*
X117397571Y-88556714D02*
X117326143Y-88521000D01*
X117290428Y-88485286D01*
X117254714Y-88413857D01*
X117254714Y-88378143D01*
X117290428Y-88306714D01*
X117326143Y-88271000D01*
X117397571Y-88235286D01*
X117540428Y-88235286D01*
X117611857Y-88271000D01*
X117647571Y-88306714D01*
X117683286Y-88378143D01*
X117683286Y-88413857D01*
X117647571Y-88485286D01*
X117611857Y-88521000D01*
X117540428Y-88556714D01*
X117397571Y-88556714D01*
X117326143Y-88592429D01*
X117290428Y-88628143D01*
X117254714Y-88699571D01*
X117254714Y-88842429D01*
X117290428Y-88913857D01*
X117326143Y-88949571D01*
X117397571Y-88985286D01*
X117540428Y-88985286D01*
X117611857Y-88949571D01*
X117647571Y-88913857D01*
X117683286Y-88842429D01*
X117683286Y-88699571D01*
X117647571Y-88628143D01*
X117611857Y-88592429D01*
X117540428Y-88556714D01*
X109349000Y-88913857D02*
X109313286Y-88949571D01*
X109206143Y-88985286D01*
X109134714Y-88985286D01*
X109027571Y-88949571D01*
X108956143Y-88878143D01*
X108920428Y-88806714D01*
X108884714Y-88663857D01*
X108884714Y-88556714D01*
X108920428Y-88413857D01*
X108956143Y-88342429D01*
X109027571Y-88271000D01*
X109134714Y-88235286D01*
X109206143Y-88235286D01*
X109313286Y-88271000D01*
X109349000Y-88306714D01*
X109706143Y-88985286D02*
X109849000Y-88985286D01*
X109920428Y-88949571D01*
X109956143Y-88913857D01*
X110027571Y-88806714D01*
X110063286Y-88663857D01*
X110063286Y-88378143D01*
X110027571Y-88306714D01*
X109991857Y-88271000D01*
X109920428Y-88235286D01*
X109777571Y-88235286D01*
X109706143Y-88271000D01*
X109670428Y-88306714D01*
X109634714Y-88378143D01*
X109634714Y-88556714D01*
X109670428Y-88628143D01*
X109706143Y-88663857D01*
X109777571Y-88699571D01*
X109920428Y-88699571D01*
X109991857Y-88663857D01*
X110027571Y-88628143D01*
X110063286Y-88556714D01*
X105308857Y-88913857D02*
X105273143Y-88949571D01*
X105166000Y-88985286D01*
X105094571Y-88985286D01*
X104987428Y-88949571D01*
X104916000Y-88878143D01*
X104880285Y-88806714D01*
X104844571Y-88663857D01*
X104844571Y-88556714D01*
X104880285Y-88413857D01*
X104916000Y-88342429D01*
X104987428Y-88271000D01*
X105094571Y-88235286D01*
X105166000Y-88235286D01*
X105273143Y-88271000D01*
X105308857Y-88306714D01*
X106023143Y-88985286D02*
X105594571Y-88985286D01*
X105808857Y-88985286D02*
X105808857Y-88235286D01*
X105737428Y-88342429D01*
X105666000Y-88413857D01*
X105594571Y-88449571D01*
X106487429Y-88235286D02*
X106558857Y-88235286D01*
X106630286Y-88271000D01*
X106666000Y-88306714D01*
X106701714Y-88378143D01*
X106737429Y-88521000D01*
X106737429Y-88699571D01*
X106701714Y-88842429D01*
X106666000Y-88913857D01*
X106630286Y-88949571D01*
X106558857Y-88985286D01*
X106487429Y-88985286D01*
X106416000Y-88949571D01*
X106380286Y-88913857D01*
X106344571Y-88842429D01*
X106308857Y-88699571D01*
X106308857Y-88521000D01*
X106344571Y-88378143D01*
X106380286Y-88306714D01*
X106416000Y-88271000D01*
X106487429Y-88235286D01*
X107571000Y-88985286D02*
X107321000Y-88628143D01*
X107142428Y-88985286D02*
X107142428Y-88235286D01*
X107428143Y-88235286D01*
X107499571Y-88271000D01*
X107535286Y-88306714D01*
X107571000Y-88378143D01*
X107571000Y-88485286D01*
X107535286Y-88556714D01*
X107499571Y-88592429D01*
X107428143Y-88628143D01*
X107142428Y-88628143D01*
X108213857Y-88235286D02*
X108071000Y-88235286D01*
X107999571Y-88271000D01*
X107963857Y-88306714D01*
X107892428Y-88413857D01*
X107856714Y-88556714D01*
X107856714Y-88842429D01*
X107892428Y-88913857D01*
X107928143Y-88949571D01*
X107999571Y-88985286D01*
X108142428Y-88985286D01*
X108213857Y-88949571D01*
X108249571Y-88913857D01*
X108285286Y-88842429D01*
X108285286Y-88663857D01*
X108249571Y-88592429D01*
X108213857Y-88556714D01*
X108142428Y-88521000D01*
X107999571Y-88521000D01*
X107928143Y-88556714D01*
X107892428Y-88592429D01*
X107856714Y-88663857D01*
X103149857Y-88913857D02*
X103114143Y-88949571D01*
X103007000Y-88985286D01*
X102935571Y-88985286D01*
X102828428Y-88949571D01*
X102757000Y-88878143D01*
X102721285Y-88806714D01*
X102685571Y-88663857D01*
X102685571Y-88556714D01*
X102721285Y-88413857D01*
X102757000Y-88342429D01*
X102828428Y-88271000D01*
X102935571Y-88235286D01*
X103007000Y-88235286D01*
X103114143Y-88271000D01*
X103149857Y-88306714D01*
X103864143Y-88985286D02*
X103435571Y-88985286D01*
X103649857Y-88985286D02*
X103649857Y-88235286D01*
X103578428Y-88342429D01*
X103507000Y-88413857D01*
X103435571Y-88449571D01*
X104578429Y-88985286D02*
X104149857Y-88985286D01*
X104364143Y-88985286D02*
X104364143Y-88235286D01*
X104292714Y-88342429D01*
X104221286Y-88413857D01*
X104149857Y-88449571D01*
X100990857Y-88913857D02*
X100955143Y-88949571D01*
X100848000Y-88985286D01*
X100776571Y-88985286D01*
X100669428Y-88949571D01*
X100598000Y-88878143D01*
X100562285Y-88806714D01*
X100526571Y-88663857D01*
X100526571Y-88556714D01*
X100562285Y-88413857D01*
X100598000Y-88342429D01*
X100669428Y-88271000D01*
X100776571Y-88235286D01*
X100848000Y-88235286D01*
X100955143Y-88271000D01*
X100990857Y-88306714D01*
X101705143Y-88985286D02*
X101276571Y-88985286D01*
X101490857Y-88985286D02*
X101490857Y-88235286D01*
X101419428Y-88342429D01*
X101348000Y-88413857D01*
X101276571Y-88449571D01*
X101990857Y-88306714D02*
X102026571Y-88271000D01*
X102098000Y-88235286D01*
X102276571Y-88235286D01*
X102348000Y-88271000D01*
X102383714Y-88306714D01*
X102419429Y-88378143D01*
X102419429Y-88449571D01*
X102383714Y-88556714D01*
X101955143Y-88985286D01*
X102419429Y-88985286D01*
X98577857Y-88913857D02*
X98542143Y-88949571D01*
X98435000Y-88985286D01*
X98363571Y-88985286D01*
X98256428Y-88949571D01*
X98185000Y-88878143D01*
X98149285Y-88806714D01*
X98113571Y-88663857D01*
X98113571Y-88556714D01*
X98149285Y-88413857D01*
X98185000Y-88342429D01*
X98256428Y-88271000D01*
X98363571Y-88235286D01*
X98435000Y-88235286D01*
X98542143Y-88271000D01*
X98577857Y-88306714D01*
X99292143Y-88985286D02*
X98863571Y-88985286D01*
X99077857Y-88985286D02*
X99077857Y-88235286D01*
X99006428Y-88342429D01*
X98935000Y-88413857D01*
X98863571Y-88449571D01*
X99542143Y-88235286D02*
X100006429Y-88235286D01*
X99756429Y-88521000D01*
X99863571Y-88521000D01*
X99935000Y-88556714D01*
X99970714Y-88592429D01*
X100006429Y-88663857D01*
X100006429Y-88842429D01*
X99970714Y-88913857D01*
X99935000Y-88949571D01*
X99863571Y-88985286D01*
X99649286Y-88985286D01*
X99577857Y-88949571D01*
X99542143Y-88913857D01*
X97053857Y-90310857D02*
X97018143Y-90346571D01*
X96911000Y-90382286D01*
X96839571Y-90382286D01*
X96732428Y-90346571D01*
X96661000Y-90275143D01*
X96625285Y-90203714D01*
X96589571Y-90060857D01*
X96589571Y-89953714D01*
X96625285Y-89810857D01*
X96661000Y-89739429D01*
X96732428Y-89668000D01*
X96839571Y-89632286D01*
X96911000Y-89632286D01*
X97018143Y-89668000D01*
X97053857Y-89703714D01*
X97768143Y-90382286D02*
X97339571Y-90382286D01*
X97553857Y-90382286D02*
X97553857Y-89632286D01*
X97482428Y-89739429D01*
X97411000Y-89810857D01*
X97339571Y-89846571D01*
X98411000Y-89882286D02*
X98411000Y-90382286D01*
X98232429Y-89596571D02*
X98053857Y-90132286D01*
X98518143Y-90132286D01*
X101625857Y-90310857D02*
X101590143Y-90346571D01*
X101483000Y-90382286D01*
X101411571Y-90382286D01*
X101304428Y-90346571D01*
X101233000Y-90275143D01*
X101197285Y-90203714D01*
X101161571Y-90060857D01*
X101161571Y-89953714D01*
X101197285Y-89810857D01*
X101233000Y-89739429D01*
X101304428Y-89668000D01*
X101411571Y-89632286D01*
X101483000Y-89632286D01*
X101590143Y-89668000D01*
X101625857Y-89703714D01*
X102340143Y-90382286D02*
X101911571Y-90382286D01*
X102125857Y-90382286D02*
X102125857Y-89632286D01*
X102054428Y-89739429D01*
X101983000Y-89810857D01*
X101911571Y-89846571D01*
X103018714Y-89632286D02*
X102661571Y-89632286D01*
X102625857Y-89989429D01*
X102661571Y-89953714D01*
X102733000Y-89918000D01*
X102911571Y-89918000D01*
X102983000Y-89953714D01*
X103018714Y-89989429D01*
X103054429Y-90060857D01*
X103054429Y-90239429D01*
X103018714Y-90310857D01*
X102983000Y-90346571D01*
X102911571Y-90382286D01*
X102733000Y-90382286D01*
X102661571Y-90346571D01*
X102625857Y-90310857D01*
X106301000Y-90382286D02*
X105943857Y-90382286D01*
X105943857Y-89632286D01*
X106479572Y-89632286D02*
X106943858Y-89632286D01*
X106693858Y-89918000D01*
X106801000Y-89918000D01*
X106872429Y-89953714D01*
X106908143Y-89989429D01*
X106943858Y-90060857D01*
X106943858Y-90239429D01*
X106908143Y-90310857D01*
X106872429Y-90346571D01*
X106801000Y-90382286D01*
X106586715Y-90382286D01*
X106515286Y-90346571D01*
X106479572Y-90310857D01*
X89941857Y-96533857D02*
X89906143Y-96569571D01*
X89799000Y-96605286D01*
X89727571Y-96605286D01*
X89620428Y-96569571D01*
X89549000Y-96498143D01*
X89513285Y-96426714D01*
X89477571Y-96283857D01*
X89477571Y-96176714D01*
X89513285Y-96033857D01*
X89549000Y-95962429D01*
X89620428Y-95891000D01*
X89727571Y-95855286D01*
X89799000Y-95855286D01*
X89906143Y-95891000D01*
X89941857Y-95926714D01*
X90656143Y-96605286D02*
X90227571Y-96605286D01*
X90441857Y-96605286D02*
X90441857Y-95855286D01*
X90370428Y-95962429D01*
X90299000Y-96033857D01*
X90227571Y-96069571D01*
X91299000Y-95855286D02*
X91156143Y-95855286D01*
X91084714Y-95891000D01*
X91049000Y-95926714D01*
X90977571Y-96033857D01*
X90941857Y-96176714D01*
X90941857Y-96462429D01*
X90977571Y-96533857D01*
X91013286Y-96569571D01*
X91084714Y-96605286D01*
X91227571Y-96605286D01*
X91299000Y-96569571D01*
X91334714Y-96533857D01*
X91370429Y-96462429D01*
X91370429Y-96283857D01*
X91334714Y-96212429D01*
X91299000Y-96176714D01*
X91227571Y-96141000D01*
X91084714Y-96141000D01*
X91013286Y-96176714D01*
X90977571Y-96212429D01*
X90941857Y-96283857D01*
X92100857Y-93485857D02*
X92065143Y-93521571D01*
X91958000Y-93557286D01*
X91886571Y-93557286D01*
X91779428Y-93521571D01*
X91708000Y-93450143D01*
X91672285Y-93378714D01*
X91636571Y-93235857D01*
X91636571Y-93128714D01*
X91672285Y-92985857D01*
X91708000Y-92914429D01*
X91779428Y-92843000D01*
X91886571Y-92807286D01*
X91958000Y-92807286D01*
X92065143Y-92843000D01*
X92100857Y-92878714D01*
X92815143Y-93557286D02*
X92386571Y-93557286D01*
X92600857Y-93557286D02*
X92600857Y-92807286D01*
X92529428Y-92914429D01*
X92458000Y-92985857D01*
X92386571Y-93021571D01*
X93065143Y-92807286D02*
X93565143Y-92807286D01*
X93243714Y-93557286D01*
X94386857Y-93485857D02*
X94351143Y-93521571D01*
X94244000Y-93557286D01*
X94172571Y-93557286D01*
X94065428Y-93521571D01*
X93994000Y-93450143D01*
X93958285Y-93378714D01*
X93922571Y-93235857D01*
X93922571Y-93128714D01*
X93958285Y-92985857D01*
X93994000Y-92914429D01*
X94065428Y-92843000D01*
X94172571Y-92807286D01*
X94244000Y-92807286D01*
X94351143Y-92843000D01*
X94386857Y-92878714D01*
X95101143Y-93557286D02*
X94672571Y-93557286D01*
X94886857Y-93557286D02*
X94886857Y-92807286D01*
X94815428Y-92914429D01*
X94744000Y-92985857D01*
X94672571Y-93021571D01*
X95529714Y-93128714D02*
X95458286Y-93093000D01*
X95422571Y-93057286D01*
X95386857Y-92985857D01*
X95386857Y-92950143D01*
X95422571Y-92878714D01*
X95458286Y-92843000D01*
X95529714Y-92807286D01*
X95672571Y-92807286D01*
X95744000Y-92843000D01*
X95779714Y-92878714D01*
X95815429Y-92950143D01*
X95815429Y-92985857D01*
X95779714Y-93057286D01*
X95744000Y-93093000D01*
X95672571Y-93128714D01*
X95529714Y-93128714D01*
X95458286Y-93164429D01*
X95422571Y-93200143D01*
X95386857Y-93271571D01*
X95386857Y-93414429D01*
X95422571Y-93485857D01*
X95458286Y-93521571D01*
X95529714Y-93557286D01*
X95672571Y-93557286D01*
X95744000Y-93521571D01*
X95779714Y-93485857D01*
X95815429Y-93414429D01*
X95815429Y-93271571D01*
X95779714Y-93200143D01*
X95744000Y-93164429D01*
X95672571Y-93128714D01*
X98958857Y-93485857D02*
X98923143Y-93521571D01*
X98816000Y-93557286D01*
X98744571Y-93557286D01*
X98637428Y-93521571D01*
X98566000Y-93450143D01*
X98530285Y-93378714D01*
X98494571Y-93235857D01*
X98494571Y-93128714D01*
X98530285Y-92985857D01*
X98566000Y-92914429D01*
X98637428Y-92843000D01*
X98744571Y-92807286D01*
X98816000Y-92807286D01*
X98923143Y-92843000D01*
X98958857Y-92878714D01*
X99244571Y-92878714D02*
X99280285Y-92843000D01*
X99351714Y-92807286D01*
X99530285Y-92807286D01*
X99601714Y-92843000D01*
X99637428Y-92878714D01*
X99673143Y-92950143D01*
X99673143Y-93021571D01*
X99637428Y-93128714D01*
X99208857Y-93557286D01*
X99673143Y-93557286D01*
X100137429Y-92807286D02*
X100208857Y-92807286D01*
X100280286Y-92843000D01*
X100316000Y-92878714D01*
X100351714Y-92950143D01*
X100387429Y-93093000D01*
X100387429Y-93271571D01*
X100351714Y-93414429D01*
X100316000Y-93485857D01*
X100280286Y-93521571D01*
X100208857Y-93557286D01*
X100137429Y-93557286D01*
X100066000Y-93521571D01*
X100030286Y-93485857D01*
X99994571Y-93414429D01*
X99958857Y-93271571D01*
X99958857Y-93093000D01*
X99994571Y-92950143D01*
X100030286Y-92878714D01*
X100066000Y-92843000D01*
X100137429Y-92807286D01*
X101244857Y-93485857D02*
X101209143Y-93521571D01*
X101102000Y-93557286D01*
X101030571Y-93557286D01*
X100923428Y-93521571D01*
X100852000Y-93450143D01*
X100816285Y-93378714D01*
X100780571Y-93235857D01*
X100780571Y-93128714D01*
X100816285Y-92985857D01*
X100852000Y-92914429D01*
X100923428Y-92843000D01*
X101030571Y-92807286D01*
X101102000Y-92807286D01*
X101209143Y-92843000D01*
X101244857Y-92878714D01*
X101530571Y-92878714D02*
X101566285Y-92843000D01*
X101637714Y-92807286D01*
X101816285Y-92807286D01*
X101887714Y-92843000D01*
X101923428Y-92878714D01*
X101959143Y-92950143D01*
X101959143Y-93021571D01*
X101923428Y-93128714D01*
X101494857Y-93557286D01*
X101959143Y-93557286D01*
X102673429Y-93557286D02*
X102244857Y-93557286D01*
X102459143Y-93557286D02*
X102459143Y-92807286D01*
X102387714Y-92914429D01*
X102316286Y-92985857D01*
X102244857Y-93021571D01*
X103403857Y-94628857D02*
X103368143Y-94664571D01*
X103261000Y-94700286D01*
X103189571Y-94700286D01*
X103082428Y-94664571D01*
X103011000Y-94593143D01*
X102975285Y-94521714D01*
X102939571Y-94378857D01*
X102939571Y-94271714D01*
X102975285Y-94128857D01*
X103011000Y-94057429D01*
X103082428Y-93986000D01*
X103189571Y-93950286D01*
X103261000Y-93950286D01*
X103368143Y-93986000D01*
X103403857Y-94021714D01*
X103689571Y-94021714D02*
X103725285Y-93986000D01*
X103796714Y-93950286D01*
X103975285Y-93950286D01*
X104046714Y-93986000D01*
X104082428Y-94021714D01*
X104118143Y-94093143D01*
X104118143Y-94164571D01*
X104082428Y-94271714D01*
X103653857Y-94700286D01*
X104118143Y-94700286D01*
X104403857Y-94021714D02*
X104439571Y-93986000D01*
X104511000Y-93950286D01*
X104689571Y-93950286D01*
X104761000Y-93986000D01*
X104796714Y-94021714D01*
X104832429Y-94093143D01*
X104832429Y-94164571D01*
X104796714Y-94271714D01*
X104368143Y-94700286D01*
X104832429Y-94700286D01*
X107721857Y-94628857D02*
X107686143Y-94664571D01*
X107579000Y-94700286D01*
X107507571Y-94700286D01*
X107400428Y-94664571D01*
X107329000Y-94593143D01*
X107293285Y-94521714D01*
X107257571Y-94378857D01*
X107257571Y-94271714D01*
X107293285Y-94128857D01*
X107329000Y-94057429D01*
X107400428Y-93986000D01*
X107507571Y-93950286D01*
X107579000Y-93950286D01*
X107686143Y-93986000D01*
X107721857Y-94021714D01*
X108007571Y-94021714D02*
X108043285Y-93986000D01*
X108114714Y-93950286D01*
X108293285Y-93950286D01*
X108364714Y-93986000D01*
X108400428Y-94021714D01*
X108436143Y-94093143D01*
X108436143Y-94164571D01*
X108400428Y-94271714D01*
X107971857Y-94700286D01*
X108436143Y-94700286D01*
X108686143Y-93950286D02*
X109150429Y-93950286D01*
X108900429Y-94236000D01*
X109007571Y-94236000D01*
X109079000Y-94271714D01*
X109114714Y-94307429D01*
X109150429Y-94378857D01*
X109150429Y-94557429D01*
X109114714Y-94628857D01*
X109079000Y-94664571D01*
X109007571Y-94700286D01*
X108793286Y-94700286D01*
X108721857Y-94664571D01*
X108686143Y-94628857D01*
X112928857Y-98438857D02*
X112893143Y-98474571D01*
X112786000Y-98510286D01*
X112714571Y-98510286D01*
X112607428Y-98474571D01*
X112536000Y-98403143D01*
X112500285Y-98331714D01*
X112464571Y-98188857D01*
X112464571Y-98081714D01*
X112500285Y-97938857D01*
X112536000Y-97867429D01*
X112607428Y-97796000D01*
X112714571Y-97760286D01*
X112786000Y-97760286D01*
X112893143Y-97796000D01*
X112928857Y-97831714D01*
X113214571Y-97831714D02*
X113250285Y-97796000D01*
X113321714Y-97760286D01*
X113500285Y-97760286D01*
X113571714Y-97796000D01*
X113607428Y-97831714D01*
X113643143Y-97903143D01*
X113643143Y-97974571D01*
X113607428Y-98081714D01*
X113178857Y-98510286D01*
X113643143Y-98510286D01*
X114286000Y-98010286D02*
X114286000Y-98510286D01*
X114107429Y-97724571D02*
X113928857Y-98260286D01*
X114393143Y-98260286D01*
X120858428Y-88985286D02*
X120858428Y-88235286D01*
X121037000Y-88235286D01*
X121144143Y-88271000D01*
X121215571Y-88342429D01*
X121251286Y-88413857D01*
X121287000Y-88556714D01*
X121287000Y-88663857D01*
X121251286Y-88806714D01*
X121215571Y-88878143D01*
X121144143Y-88949571D01*
X121037000Y-88985286D01*
X120858428Y-88985286D01*
X122001286Y-88985286D02*
X121572714Y-88985286D01*
X121787000Y-88985286D02*
X121787000Y-88235286D01*
X121715571Y-88342429D01*
X121644143Y-88413857D01*
X121572714Y-88449571D01*
X123065000Y-88985286D02*
X122815000Y-88628143D01*
X122636428Y-88985286D02*
X122636428Y-88235286D01*
X122922143Y-88235286D01*
X122993571Y-88271000D01*
X123029286Y-88306714D01*
X123065000Y-88378143D01*
X123065000Y-88485286D01*
X123029286Y-88556714D01*
X122993571Y-88592429D01*
X122922143Y-88628143D01*
X122636428Y-88628143D01*
X123315000Y-88235286D02*
X123815000Y-88235286D01*
X123493571Y-88985286D01*
X118897857Y-88913857D02*
X118862143Y-88949571D01*
X118755000Y-88985286D01*
X118683571Y-88985286D01*
X118576428Y-88949571D01*
X118505000Y-88878143D01*
X118469285Y-88806714D01*
X118433571Y-88663857D01*
X118433571Y-88556714D01*
X118469285Y-88413857D01*
X118505000Y-88342429D01*
X118576428Y-88271000D01*
X118683571Y-88235286D01*
X118755000Y-88235286D01*
X118862143Y-88271000D01*
X118897857Y-88306714D01*
X119183571Y-88306714D02*
X119219285Y-88271000D01*
X119290714Y-88235286D01*
X119469285Y-88235286D01*
X119540714Y-88271000D01*
X119576428Y-88306714D01*
X119612143Y-88378143D01*
X119612143Y-88449571D01*
X119576428Y-88556714D01*
X119147857Y-88985286D01*
X119612143Y-88985286D01*
X120290714Y-88235286D02*
X119933571Y-88235286D01*
X119897857Y-88592429D01*
X119933571Y-88556714D01*
X120005000Y-88521000D01*
X120183571Y-88521000D01*
X120255000Y-88556714D01*
X120290714Y-88592429D01*
X120326429Y-88663857D01*
X120326429Y-88842429D01*
X120290714Y-88913857D01*
X120255000Y-88949571D01*
X120183571Y-88985286D01*
X120005000Y-88985286D01*
X119933571Y-88949571D01*
X119897857Y-88913857D01*
X120802857Y-97168857D02*
X120767143Y-97204571D01*
X120660000Y-97240286D01*
X120588571Y-97240286D01*
X120481428Y-97204571D01*
X120410000Y-97133143D01*
X120374285Y-97061714D01*
X120338571Y-96918857D01*
X120338571Y-96811714D01*
X120374285Y-96668857D01*
X120410000Y-96597429D01*
X120481428Y-96526000D01*
X120588571Y-96490286D01*
X120660000Y-96490286D01*
X120767143Y-96526000D01*
X120802857Y-96561714D01*
X121088571Y-96561714D02*
X121124285Y-96526000D01*
X121195714Y-96490286D01*
X121374285Y-96490286D01*
X121445714Y-96526000D01*
X121481428Y-96561714D01*
X121517143Y-96633143D01*
X121517143Y-96704571D01*
X121481428Y-96811714D01*
X121052857Y-97240286D01*
X121517143Y-97240286D01*
X122160000Y-96490286D02*
X122017143Y-96490286D01*
X121945714Y-96526000D01*
X121910000Y-96561714D01*
X121838571Y-96668857D01*
X121802857Y-96811714D01*
X121802857Y-97097429D01*
X121838571Y-97168857D01*
X121874286Y-97204571D01*
X121945714Y-97240286D01*
X122088571Y-97240286D01*
X122160000Y-97204571D01*
X122195714Y-97168857D01*
X122231429Y-97097429D01*
X122231429Y-96918857D01*
X122195714Y-96847429D01*
X122160000Y-96811714D01*
X122088571Y-96776000D01*
X121945714Y-96776000D01*
X121874286Y-96811714D01*
X121838571Y-96847429D01*
X121802857Y-96918857D01*
X150393857Y-93866857D02*
X150358143Y-93902571D01*
X150251000Y-93938286D01*
X150179571Y-93938286D01*
X150072428Y-93902571D01*
X150001000Y-93831143D01*
X149965285Y-93759714D01*
X149929571Y-93616857D01*
X149929571Y-93509714D01*
X149965285Y-93366857D01*
X150001000Y-93295429D01*
X150072428Y-93224000D01*
X150179571Y-93188286D01*
X150251000Y-93188286D01*
X150358143Y-93224000D01*
X150393857Y-93259714D01*
X150679571Y-93259714D02*
X150715285Y-93224000D01*
X150786714Y-93188286D01*
X150965285Y-93188286D01*
X151036714Y-93224000D01*
X151072428Y-93259714D01*
X151108143Y-93331143D01*
X151108143Y-93402571D01*
X151072428Y-93509714D01*
X150643857Y-93938286D01*
X151108143Y-93938286D01*
X151358143Y-93188286D02*
X151858143Y-93188286D01*
X151536714Y-93938286D01*
X149679571Y-101570286D02*
X149679571Y-102177429D01*
X149715286Y-102248857D01*
X149751000Y-102284571D01*
X149822429Y-102320286D01*
X149965286Y-102320286D01*
X150036714Y-102284571D01*
X150072429Y-102248857D01*
X150108143Y-102177429D01*
X150108143Y-101570286D01*
X150715285Y-101927429D02*
X150465285Y-101927429D01*
X150465285Y-102320286D02*
X150465285Y-101570286D01*
X150822428Y-101570286D01*
X151465285Y-102320286D02*
X151108142Y-102320286D01*
X151108142Y-101570286D01*
X151679571Y-101641714D02*
X151715285Y-101606000D01*
X151786714Y-101570286D01*
X151965285Y-101570286D01*
X152036714Y-101606000D01*
X152072428Y-101641714D01*
X152108143Y-101713143D01*
X152108143Y-101784571D01*
X152072428Y-101891714D01*
X151643857Y-102320286D01*
X152108143Y-102320286D01*
M02*
