G04 #@! TF.FileFunction,Soldermask,Bot*
%FSLAX46Y46*%
G04 Gerber Fmt 4.6, Leading zero omitted, Abs format (unit mm)*
G04 Created by KiCad (PCBNEW 4.0.7) date 11/01/17 14:25:33*
%MOMM*%
%LPD*%
G01*
G04 APERTURE LIST*
%ADD10C,0.100000*%
%ADD11R,2.100000X2.100000*%
%ADD12O,2.100000X2.100000*%
%ADD13C,1.300000*%
%ADD14C,2.940000*%
%ADD15C,3.950000*%
%ADD16C,2.790000*%
%ADD17C,6.800000*%
%ADD18C,1.924000*%
G04 APERTURE END LIST*
D10*
D11*
X177800000Y-124460000D03*
D12*
X177800000Y-121920000D03*
X177800000Y-119380000D03*
X177800000Y-116840000D03*
X177800000Y-114300000D03*
X177800000Y-111760000D03*
X177800000Y-109220000D03*
X177800000Y-106680000D03*
X177800000Y-104140000D03*
X177800000Y-101600000D03*
X177800000Y-99060000D03*
X177800000Y-96520000D03*
X177800000Y-93980000D03*
X177800000Y-91440000D03*
X177800000Y-88900000D03*
X177800000Y-86360000D03*
D11*
X154940000Y-86360000D03*
D12*
X154940000Y-88900000D03*
X154940000Y-91440000D03*
X154940000Y-93980000D03*
X154940000Y-96520000D03*
X154940000Y-99060000D03*
X154940000Y-101600000D03*
X154940000Y-104140000D03*
X154940000Y-106680000D03*
X154940000Y-109220000D03*
X154940000Y-111760000D03*
X154940000Y-114300000D03*
X154940000Y-116840000D03*
X154940000Y-119380000D03*
X154940000Y-121920000D03*
X154940000Y-124460000D03*
D11*
X147320000Y-86360000D03*
D12*
X147320000Y-88900000D03*
X147320000Y-91440000D03*
X147320000Y-93980000D03*
X147320000Y-96520000D03*
X147320000Y-99060000D03*
X147320000Y-101600000D03*
X147320000Y-104140000D03*
X147320000Y-106680000D03*
X147320000Y-109220000D03*
X147320000Y-111760000D03*
X147320000Y-114300000D03*
X147320000Y-116840000D03*
X147320000Y-119380000D03*
X147320000Y-121920000D03*
X147320000Y-124460000D03*
D11*
X185420000Y-124460000D03*
D12*
X185420000Y-121920000D03*
X185420000Y-119380000D03*
X185420000Y-116840000D03*
X185420000Y-114300000D03*
X185420000Y-111760000D03*
X185420000Y-109220000D03*
X185420000Y-106680000D03*
X185420000Y-104140000D03*
X185420000Y-101600000D03*
X185420000Y-99060000D03*
X185420000Y-96520000D03*
X185420000Y-93980000D03*
X185420000Y-91440000D03*
X185420000Y-88900000D03*
X185420000Y-86360000D03*
D11*
X144780000Y-86360000D03*
D12*
X144780000Y-88900000D03*
X144780000Y-91440000D03*
X144780000Y-93980000D03*
X144780000Y-96520000D03*
X144780000Y-99060000D03*
X144780000Y-101600000D03*
X144780000Y-104140000D03*
X144780000Y-106680000D03*
X144780000Y-109220000D03*
X144780000Y-111760000D03*
X144780000Y-114300000D03*
X144780000Y-116840000D03*
X144780000Y-119380000D03*
X144780000Y-121920000D03*
X144780000Y-124460000D03*
D11*
X187960000Y-124460000D03*
D12*
X187960000Y-121920000D03*
X187960000Y-119380000D03*
X187960000Y-116840000D03*
X187960000Y-114300000D03*
X187960000Y-111760000D03*
X187960000Y-109220000D03*
X187960000Y-106680000D03*
X187960000Y-104140000D03*
X187960000Y-101600000D03*
X187960000Y-99060000D03*
X187960000Y-96520000D03*
X187960000Y-93980000D03*
X187960000Y-91440000D03*
X187960000Y-88900000D03*
X187960000Y-86360000D03*
D11*
X142240000Y-86360000D03*
D12*
X142240000Y-88900000D03*
X142240000Y-91440000D03*
X142240000Y-93980000D03*
X142240000Y-96520000D03*
X142240000Y-99060000D03*
X142240000Y-101600000D03*
X142240000Y-104140000D03*
X142240000Y-106680000D03*
X142240000Y-109220000D03*
X142240000Y-111760000D03*
X142240000Y-114300000D03*
X142240000Y-116840000D03*
X142240000Y-119380000D03*
X142240000Y-121920000D03*
X142240000Y-124460000D03*
D11*
X190500000Y-124460000D03*
D12*
X190500000Y-121920000D03*
X190500000Y-119380000D03*
X190500000Y-116840000D03*
X190500000Y-114300000D03*
X190500000Y-111760000D03*
X190500000Y-109220000D03*
X190500000Y-106680000D03*
X190500000Y-104140000D03*
X190500000Y-101600000D03*
X190500000Y-99060000D03*
X190500000Y-96520000D03*
X190500000Y-93980000D03*
X190500000Y-91440000D03*
X190500000Y-88900000D03*
X190500000Y-86360000D03*
D13*
X168570000Y-71320000D03*
X164170000Y-71320000D03*
D14*
X128270000Y-141520000D03*
X128270000Y-69300000D03*
D15*
X136270000Y-133010000D03*
X120270000Y-77810000D03*
D16*
X136270000Y-69300000D03*
D17*
X113030000Y-71120000D03*
X196850000Y-71120000D03*
X113030000Y-139700000D03*
X196850000Y-139700000D03*
D11*
X144780000Y-140970000D03*
D12*
X147320000Y-140970000D03*
D11*
X185420000Y-129540000D03*
D12*
X185420000Y-132080000D03*
X185420000Y-134620000D03*
X185420000Y-137160000D03*
D11*
X187960000Y-129540000D03*
D12*
X187960000Y-132080000D03*
X187960000Y-134620000D03*
X187960000Y-137160000D03*
D11*
X190500000Y-129540000D03*
D12*
X190500000Y-132080000D03*
X190500000Y-134620000D03*
X190500000Y-137160000D03*
D18*
X111760000Y-90805000D03*
X114300000Y-92075000D03*
X111760000Y-93345000D03*
X114300000Y-94615000D03*
X113563400Y-89408000D03*
D11*
X185420000Y-73660000D03*
D12*
X185420000Y-76200000D03*
X185420000Y-78740000D03*
X185420000Y-81280000D03*
D11*
X187960000Y-73660000D03*
D12*
X187960000Y-76200000D03*
X187960000Y-78740000D03*
X187960000Y-81280000D03*
D18*
X111633000Y-116205000D03*
X114173000Y-117475000D03*
X111633000Y-118745000D03*
X114173000Y-120015000D03*
X113436400Y-114808000D03*
D11*
X193040000Y-111760000D03*
D12*
X193040000Y-114300000D03*
X193040000Y-116840000D03*
X193040000Y-119380000D03*
D11*
X195580000Y-111760000D03*
D12*
X195580000Y-114300000D03*
X195580000Y-116840000D03*
X195580000Y-119380000D03*
M02*
