M48
;DRILL file {KiCad 4.0.5} date 02/16/17 10:36:05
;FORMAT={-:-/ absolute / metric / decimal}
FMAT,2
METRIC,TZ
T1C0.200
T2C0.400
T3C1.000
T4C0.800
T5C3.200
%
G90
G05
M71
T1
X87.5Y-82.
X87.5Y-83.
X87.5Y-84.
X87.5Y-85.
X87.5Y-86.
X87.5Y-87.
X87.5Y-88.
X87.5Y-89.
X87.5Y-90.
X87.5Y-93.
X87.5Y-94.
X87.5Y-95.
X87.5Y-96.
X87.5Y-97.
X87.5Y-98.
X87.5Y-99.
X87.5Y-100.
X87.5Y-101.
X87.5Y-102.
X87.5Y-103.
X87.5Y-104.
X87.5Y-105.
X87.5Y-106.
X88.5Y-87.
X88.5Y-88.
X88.5Y-89.
X88.5Y-90.
X88.5Y-93.
X88.5Y-94.
X88.5Y-95.
X88.5Y-96.
X88.5Y-97.
X88.86Y-99.5
X89.5Y-87.
X89.5Y-88.
X89.5Y-89.
X89.5Y-90.
X89.5Y-93.
X89.5Y-94.
X89.5Y-95.
X89.5Y-96.
X89.5Y-97.
X91.313Y-102.87
X92.329Y-95.25
X94.107Y-95.25
X94.26Y-99.5
X95.885Y-95.25
X96.1Y-99.5
X97.663Y-95.25
X98.171Y-102.235
X99.441Y-86.614
X101.6Y-88.9
X103.886Y-96.393
X108.204Y-96.393
X109.855Y-94.869
X109.855Y-95.504
X110.49Y-97.282
X110.744Y-97.917
X111.633Y-98.806
X112.268Y-88.9
X112.268Y-98.298
X112.377Y-91.549
X112.377Y-92.662
X112.377Y-93.774
X112.377Y-94.887
X113.03Y-98.298
X113.49Y-91.549
X113.49Y-92.662
X113.49Y-93.774
X113.49Y-94.887
X113.792Y-88.9
X114.554Y-88.646
X114.554Y-98.298
X114.602Y-91.549
X114.602Y-92.662
X114.602Y-93.774
X114.602Y-94.887
X115.189Y-88.646
X115.316Y-98.044
X115.715Y-91.549
X115.715Y-92.662
X115.715Y-93.774
X115.715Y-94.887
X115.824Y-88.646
X116.205Y-98.044
X116.459Y-88.646
X116.967Y-97.155
X117.094Y-88.646
X117.729Y-96.393
X117.856Y-90.297
X117.983Y-91.059
X118.491Y-91.44
X118.491Y-95.631
X119.253Y-93.726
X119.38Y-86.614
X121.412Y-86.614
X121.666Y-94.361
X123.698Y-93.218
X126.111Y-87.249
X129.422Y-88.585
X130.683Y-89.281
X136.525Y-99.06
X137.541Y-99.06
X138.557Y-99.06
X139.573Y-99.06
X140.589Y-99.06
X141.732Y-99.06
X142.748Y-99.06
X143.764Y-99.06
X144.Y-102.
X144.Y-103.
X144.Y-104.
X144.Y-105.
X144.Y-106.
X144.78Y-99.06
X145.Y-102.
X145.Y-103.
X145.Y-104.
X145.Y-105.
X145.Y-106.
X146.Y-102.
X147.Y-102.
X149.5Y-102.
X150.5Y-102.
X151.5Y-82.
X151.5Y-83.
X151.5Y-84.
X151.5Y-85.
X151.5Y-86.
X151.5Y-87.
X151.5Y-88.
X151.5Y-89.
X151.5Y-94.
X151.5Y-95.
X151.5Y-96.
X151.5Y-97.
X151.5Y-98.
X151.5Y-99.
X151.5Y-102.
X151.5Y-103.
X151.5Y-104.
X151.5Y-105.
X151.5Y-106.
X152.5Y-82.
X152.5Y-83.
X152.5Y-84.
X152.5Y-85.
X152.5Y-86.
X152.5Y-87.
X152.5Y-88.
X152.5Y-89.
X152.5Y-90.
X152.5Y-91.
X152.5Y-92.
X152.5Y-93.
X152.5Y-94.
X152.5Y-95.
X152.5Y-96.
X152.5Y-97.
X152.5Y-98.
X152.5Y-99.
X152.5Y-102.
X152.5Y-103.
X152.5Y-104.
X152.5Y-105.
X152.5Y-106.
T2
X102.235Y-101.092
X118.999Y-97.536
T3
X101.092Y-82.55
X101.092Y-105.41
X103.632Y-82.55
X103.632Y-105.41
X106.172Y-82.55
X106.172Y-105.41
X108.712Y-82.55
X108.712Y-105.41
X111.252Y-82.55
X111.252Y-105.41
X113.792Y-82.55
X113.792Y-105.41
X116.332Y-82.55
X116.332Y-105.41
X118.872Y-82.55
X118.872Y-105.41
X121.412Y-82.55
X121.412Y-105.41
X123.952Y-82.55
X123.952Y-105.41
X126.492Y-82.55
X126.492Y-105.41
X129.032Y-82.55
X129.032Y-105.41
X131.572Y-82.55
X131.572Y-105.41
X134.112Y-82.55
X134.112Y-105.41
X136.652Y-82.55
X136.652Y-105.41
X139.192Y-82.55
X139.192Y-105.41
T4
X89.76Y-103.794
X91.56Y-103.794
X95.158Y-103.796
X96.958Y-103.796
T5
X84.Y-84.
X84.Y-104.
X156.Y-104.
T0
M30
