G04 #@! TF.FileFunction,Copper,L1,Top,Signal*
%FSLAX46Y46*%
G04 Gerber Fmt 4.6, Leading zero omitted, Abs format (unit mm)*
G04 Created by KiCad (PCBNEW 4.0.5) date 02/16/17 10:34:01*
%MOMM*%
%LPD*%
G01*
G04 APERTURE LIST*
%ADD10C,0.100000*%
%ADD11R,1.400000X1.200000*%
%ADD12R,1.800000X1.000000*%
%ADD13C,0.400000*%
%ADD14R,2.000000X1.000000*%
%ADD15R,2.540000X1.000000*%
%ADD16R,1.000000X0.480000*%
%ADD17R,3.300000X1.000000*%
%ADD18R,0.750000X0.800000*%
%ADD19R,1.050000X2.200000*%
%ADD20R,1.000000X1.050000*%
%ADD21R,0.800000X0.200000*%
%ADD22R,0.200000X0.800000*%
%ADD23R,1.112500X1.112500*%
%ADD24R,0.500000X0.900000*%
%ADD25R,1.700000X1.700000*%
%ADD26O,1.700000X1.700000*%
%ADD27R,1.950000X1.500000*%
%ADD28R,1.060000X0.650000*%
%ADD29R,0.900000X0.500000*%
%ADD30R,0.800000X0.750000*%
%ADD31R,0.800000X0.800000*%
%ADD32C,0.800000*%
%ADD33C,0.200000*%
%ADD34C,0.500000*%
%ADD35C,0.300000*%
%ADD36C,1.000000*%
%ADD37C,0.254000*%
G04 APERTURE END LIST*
D10*
D11*
X112946000Y-87464000D03*
X115146000Y-87464000D03*
X115146000Y-85764000D03*
X112946000Y-85764000D03*
D12*
X106045000Y-95143000D03*
X106045000Y-97643000D03*
D13*
X87500000Y-85000000D03*
X87500000Y-86000000D03*
X87500000Y-99000000D03*
X87500000Y-100000000D03*
X151500000Y-98000000D03*
X152500000Y-99000000D03*
X152500000Y-98000000D03*
X152500000Y-97000000D03*
X149500000Y-102000000D03*
X151500000Y-102000000D03*
X151500000Y-104000000D03*
X150500000Y-102000000D03*
X87500000Y-98000000D03*
X89500000Y-97000000D03*
X88500000Y-87000000D03*
X87500000Y-87000000D03*
X88500000Y-88000000D03*
X89500000Y-88000000D03*
X88500000Y-96000000D03*
X89500000Y-96000000D03*
X144000000Y-103000000D03*
X145000000Y-106000000D03*
X144000000Y-106000000D03*
X147000000Y-102000000D03*
X152500000Y-102000000D03*
X146000000Y-102000000D03*
X145000000Y-104000000D03*
X151500000Y-105000000D03*
X88500000Y-97000000D03*
X87500000Y-97000000D03*
X87500000Y-88000000D03*
X89500000Y-87000000D03*
X152500000Y-105000000D03*
X145000000Y-103000000D03*
X145000000Y-105000000D03*
X151500000Y-106000000D03*
X144000000Y-105000000D03*
X144000000Y-104000000D03*
X152500000Y-103000000D03*
X152500000Y-104000000D03*
X144000000Y-102000000D03*
X152500000Y-106000000D03*
X151500000Y-97000000D03*
X151500000Y-96000000D03*
X145000000Y-102000000D03*
X151500000Y-103000000D03*
X151500000Y-99000000D03*
X88500000Y-90000000D03*
X89500000Y-90000000D03*
X88500000Y-94000000D03*
X89500000Y-94000000D03*
X87500000Y-103000000D03*
X87500000Y-104000000D03*
X87500000Y-102000000D03*
X87500000Y-101000000D03*
X87500000Y-94000000D03*
X89500000Y-93000000D03*
X88500000Y-93000000D03*
X87500000Y-93000000D03*
X89500000Y-89000000D03*
X87500000Y-90000000D03*
X87500000Y-95000000D03*
X88500000Y-95000000D03*
X87500000Y-105000000D03*
X87500000Y-106000000D03*
X87500000Y-96000000D03*
X89500000Y-95000000D03*
X88500000Y-89000000D03*
X87500000Y-89000000D03*
X152500000Y-89000000D03*
X151500000Y-89000000D03*
X152500000Y-86000000D03*
X151500000Y-86000000D03*
X151500000Y-82000000D03*
X152500000Y-82000000D03*
X152500000Y-84000000D03*
X151500000Y-85000000D03*
X152500000Y-85000000D03*
X151500000Y-87000000D03*
X152500000Y-83000000D03*
X151500000Y-83000000D03*
X151500000Y-88000000D03*
X152500000Y-88000000D03*
X152500000Y-90000000D03*
X152500000Y-87000000D03*
X151500000Y-84000000D03*
X152500000Y-93000000D03*
X151500000Y-94000000D03*
X152500000Y-94000000D03*
X152500000Y-92000000D03*
X152500000Y-91000000D03*
X152500000Y-95000000D03*
X151500000Y-95000000D03*
X87500000Y-84000000D03*
X152500000Y-96000000D03*
X87500000Y-83000000D03*
D14*
X132208000Y-86218000D03*
X132208000Y-88218000D03*
X132208000Y-90218000D03*
X132208000Y-92218000D03*
X132208000Y-94218000D03*
X132208000Y-96218000D03*
X132208000Y-98218000D03*
X132208000Y-100218000D03*
X148208000Y-100218000D03*
X148208000Y-98218000D03*
X148208000Y-96218000D03*
X148208000Y-94218000D03*
X148208000Y-92218000D03*
X148208000Y-90218000D03*
X148208000Y-88218000D03*
X148208000Y-86218000D03*
D15*
X83947000Y-91432500D03*
X83947000Y-98432500D03*
D16*
X127762000Y-95123000D03*
X127762000Y-93853000D03*
X127762000Y-92583000D03*
X127762000Y-91313000D03*
X120142000Y-91313000D03*
X120142000Y-92583000D03*
X120142000Y-93853000D03*
X120142000Y-95123000D03*
D17*
X155956000Y-100202000D03*
X155956000Y-84202000D03*
D18*
X97663000Y-94500000D03*
X97663000Y-96000000D03*
D19*
X91362000Y-88519000D03*
X94312000Y-88519000D03*
D20*
X92837000Y-90044000D03*
D21*
X111046000Y-91018000D03*
X111046000Y-91418000D03*
X111046000Y-91818000D03*
X111046000Y-92218000D03*
X111046000Y-92618000D03*
X111046000Y-93018000D03*
X111046000Y-93418000D03*
X111046000Y-93818000D03*
X111046000Y-94218000D03*
X111046000Y-94618000D03*
X111046000Y-95018000D03*
X111046000Y-95418000D03*
D22*
X111846000Y-96218000D03*
X112246000Y-96218000D03*
X112646000Y-96218000D03*
X113046000Y-96218000D03*
X113446000Y-96218000D03*
X113846000Y-96218000D03*
X114246000Y-96218000D03*
X114646000Y-96218000D03*
X115046000Y-96218000D03*
X115446000Y-96218000D03*
X115846000Y-96218000D03*
X116246000Y-96218000D03*
D21*
X117046000Y-95418000D03*
X117046000Y-95018000D03*
X117046000Y-94618000D03*
X117046000Y-94218000D03*
X117046000Y-93818000D03*
X117046000Y-93418000D03*
X117046000Y-93018000D03*
X117046000Y-92618000D03*
X117046000Y-92218000D03*
X117046000Y-91818000D03*
X117046000Y-91418000D03*
X117046000Y-91018000D03*
D22*
X116246000Y-90218000D03*
X115846000Y-90218000D03*
X115446000Y-90218000D03*
X115046000Y-90218000D03*
X114646000Y-90218000D03*
X114246000Y-90218000D03*
X113846000Y-90218000D03*
X113446000Y-90218000D03*
X113046000Y-90218000D03*
X112646000Y-90218000D03*
X112246000Y-90218000D03*
X111846000Y-90218000D03*
D23*
X115714750Y-94886750D03*
X115714750Y-93774250D03*
X115714750Y-92661750D03*
X115714750Y-91549250D03*
X114602250Y-94886750D03*
X114602250Y-93774250D03*
X114602250Y-92661750D03*
X114602250Y-91549250D03*
X113489750Y-94886750D03*
X113489750Y-93774250D03*
X113489750Y-92661750D03*
X113489750Y-91549250D03*
X112377250Y-94886750D03*
X112377250Y-93774250D03*
X112377250Y-92661750D03*
X112377250Y-91549250D03*
D24*
X109242000Y-99479000D03*
X110742000Y-99479000D03*
D14*
X96058000Y-101796000D03*
X96058000Y-105796000D03*
X90660500Y-101794500D03*
X90660500Y-105794500D03*
D25*
X101092000Y-82550000D03*
D26*
X103632000Y-82550000D03*
X106172000Y-82550000D03*
X108712000Y-82550000D03*
X111252000Y-82550000D03*
X113792000Y-82550000D03*
X116332000Y-82550000D03*
X118872000Y-82550000D03*
X121412000Y-82550000D03*
X123952000Y-82550000D03*
X126492000Y-82550000D03*
X129032000Y-82550000D03*
X131572000Y-82550000D03*
X134112000Y-82550000D03*
X136652000Y-82550000D03*
X139192000Y-82550000D03*
D25*
X101092000Y-105410000D03*
D26*
X103632000Y-105410000D03*
X106172000Y-105410000D03*
X108712000Y-105410000D03*
X111252000Y-105410000D03*
X113792000Y-105410000D03*
X116332000Y-105410000D03*
X118872000Y-105410000D03*
X121412000Y-105410000D03*
X123952000Y-105410000D03*
X126492000Y-105410000D03*
X129032000Y-105410000D03*
X131572000Y-105410000D03*
X134112000Y-105410000D03*
X136652000Y-105410000D03*
X139192000Y-105410000D03*
D27*
X126655000Y-101557000D03*
X129405000Y-101557000D03*
X119805000Y-99457000D03*
X117055000Y-99457000D03*
X110117000Y-101579000D03*
X112867000Y-101579000D03*
X103267000Y-99479000D03*
X100517000Y-99479000D03*
D24*
X125780000Y-99457000D03*
X127280000Y-99457000D03*
X119180000Y-101557000D03*
X120680000Y-101557000D03*
D28*
X105592000Y-99629000D03*
X105592000Y-100579000D03*
X105592000Y-101529000D03*
X107792000Y-101529000D03*
X107792000Y-99629000D03*
X122130000Y-99607000D03*
X122130000Y-100557000D03*
X122130000Y-101507000D03*
X124330000Y-101507000D03*
X124330000Y-99607000D03*
D18*
X92360500Y-100244500D03*
X92360500Y-98744500D03*
X97758000Y-100246000D03*
X97758000Y-98746000D03*
D29*
X88860500Y-98744500D03*
X88860500Y-100244500D03*
X90660500Y-98744500D03*
X90660500Y-100244500D03*
X94258000Y-98746000D03*
X94258000Y-100246000D03*
X96058000Y-98746000D03*
X96058000Y-100246000D03*
D18*
X110998000Y-87364000D03*
X110998000Y-85864000D03*
X117094000Y-85864000D03*
X117094000Y-87364000D03*
X108712000Y-85864000D03*
X108712000Y-87364000D03*
X104902000Y-85864000D03*
X104902000Y-87364000D03*
D29*
X106807000Y-85864000D03*
X106807000Y-87364000D03*
D18*
X102997000Y-87364000D03*
X102997000Y-85864000D03*
X101219000Y-87364000D03*
X101219000Y-85864000D03*
X99441000Y-87352000D03*
X99441000Y-85852000D03*
X99441000Y-89928000D03*
X99441000Y-91428000D03*
D30*
X102858000Y-91440000D03*
X101358000Y-91440000D03*
D29*
X104902000Y-89928000D03*
X104902000Y-91428000D03*
D18*
X92329000Y-94500000D03*
X92329000Y-96000000D03*
X94107000Y-94500000D03*
X94107000Y-96000000D03*
X95885000Y-94500000D03*
X95885000Y-96000000D03*
X99441000Y-94500000D03*
X99441000Y-96000000D03*
X101219000Y-94500000D03*
X101219000Y-96000000D03*
X103886000Y-95643000D03*
X103886000Y-97143000D03*
X108204000Y-95643000D03*
X108204000Y-97143000D03*
D30*
X112661000Y-99441000D03*
X114161000Y-99441000D03*
D31*
X121412000Y-87414000D03*
X121412000Y-85814000D03*
D29*
X123190000Y-85864000D03*
X123190000Y-87364000D03*
D18*
X119380000Y-85864000D03*
X119380000Y-87364000D03*
D30*
X124702000Y-96901000D03*
X123202000Y-96901000D03*
D18*
X150876000Y-90690000D03*
X150876000Y-92190000D03*
D19*
X149684000Y-104394000D03*
X146734000Y-104394000D03*
D20*
X148209000Y-102869000D03*
D13*
X87500000Y-82000000D03*
X115714750Y-94886750D03*
X114602250Y-94886750D03*
X113489750Y-94886750D03*
X112377250Y-94886750D03*
X115714750Y-93774250D03*
X114602250Y-93774250D03*
X113489750Y-93774250D03*
X112377250Y-93774250D03*
X115714750Y-92661750D03*
X114602250Y-92661750D03*
X113489750Y-92661750D03*
X112377250Y-92661750D03*
X115714750Y-91549250D03*
X114602250Y-91549250D03*
X113489750Y-91549250D03*
X112377250Y-91549250D03*
X111633000Y-98806000D03*
X119380000Y-86614000D03*
X97663000Y-95250000D03*
X95885000Y-95250000D03*
X94107000Y-95250000D03*
X92329000Y-95250000D03*
X99441000Y-86614000D03*
X101600000Y-88900000D03*
X112268000Y-88900000D03*
X113792000Y-88900000D03*
X94260000Y-99500000D03*
X88860000Y-99500000D03*
X91313000Y-102870000D03*
X98171000Y-102235000D03*
X116967000Y-97155000D03*
X96100000Y-99500000D03*
D32*
X118999000Y-97536000D03*
X102235000Y-101092000D03*
D13*
X115824000Y-88646000D03*
X115189000Y-88646000D03*
X109855000Y-94869000D03*
X109855000Y-95504000D03*
X103886000Y-96393000D03*
X108204000Y-96393000D03*
X110490000Y-97282000D03*
X144780000Y-99060000D03*
X110744000Y-97917000D03*
X143764000Y-99060000D03*
X112268000Y-98298000D03*
X142748000Y-99060000D03*
X113030000Y-98298000D03*
X141732000Y-99060000D03*
X114554000Y-98298000D03*
X140589000Y-99060000D03*
X115316000Y-98044000D03*
X139573000Y-99060000D03*
X116205000Y-98044000D03*
X119253000Y-93726000D03*
X123698000Y-93218000D03*
X121412000Y-86614000D03*
X116459000Y-88646000D03*
X114554000Y-88646000D03*
X129421705Y-88585405D03*
X117094000Y-88646000D03*
X117856000Y-90297000D03*
X117983000Y-91059000D03*
X118491000Y-91440000D03*
X136525000Y-99060000D03*
X121666000Y-94361000D03*
X126111000Y-87249000D03*
X137541000Y-99060000D03*
X118491000Y-95631000D03*
X117729000Y-96393000D03*
X130683000Y-89281000D03*
X138557000Y-99060000D03*
D33*
X112377250Y-91549250D02*
X113489750Y-91549250D01*
X115714750Y-91549250D02*
X114602250Y-91549250D01*
D34*
X107792000Y-99629000D02*
X109092000Y-99629000D01*
X109092000Y-99629000D02*
X109242000Y-99479000D01*
X124330000Y-99607000D02*
X125630000Y-99607000D01*
X125630000Y-99607000D02*
X125780000Y-99457000D01*
D33*
X113046000Y-96218000D02*
X113046000Y-96818000D01*
X113046000Y-96818000D02*
X111633000Y-98231000D01*
X111633000Y-98231000D02*
X111633000Y-98806000D01*
D35*
X120680000Y-101557000D02*
X120680000Y-104678000D01*
X120680000Y-104678000D02*
X121412000Y-105410000D01*
D34*
X122130000Y-101507000D02*
X120730000Y-101507000D01*
X120730000Y-101507000D02*
X120680000Y-101557000D01*
D35*
X133508000Y-95418000D02*
X132708000Y-96218000D01*
X133508000Y-94918000D02*
X133508000Y-95418000D01*
X136208000Y-92218000D02*
X133508000Y-94918000D01*
X148208000Y-92218000D02*
X136208000Y-92218000D01*
X132708000Y-96218000D02*
X132208000Y-96218000D01*
X150876000Y-92190000D02*
X148236000Y-92190000D01*
X148236000Y-92190000D02*
X148208000Y-92218000D01*
X148224000Y-92202000D02*
X148208000Y-92218000D01*
X132208000Y-96218000D02*
X130519000Y-96218000D01*
X130519000Y-96218000D02*
X127280000Y-99457000D01*
D34*
X124330000Y-101507000D02*
X124330000Y-105032000D01*
X124330000Y-105032000D02*
X123952000Y-105410000D01*
X127280000Y-99457000D02*
X127280000Y-100932000D01*
X127280000Y-100932000D02*
X126655000Y-101557000D01*
X126655000Y-101557000D02*
X124380000Y-101557000D01*
X124380000Y-101557000D02*
X124330000Y-101507000D01*
D33*
X114246000Y-96218000D02*
X114246000Y-97881000D01*
X114246000Y-97881000D02*
X112686000Y-99441000D01*
X112686000Y-99441000D02*
X112661000Y-99441000D01*
X119380000Y-87364000D02*
X119380000Y-86614000D01*
X116246000Y-90218000D02*
X117046000Y-90218000D01*
X117046000Y-90218000D02*
X118745000Y-88519000D01*
X118745000Y-88519000D02*
X119253000Y-88519000D01*
X119253000Y-88519000D02*
X119380000Y-88392000D01*
X119380000Y-88392000D02*
X119380000Y-87364000D01*
D35*
X112661000Y-99441000D02*
X110780000Y-99441000D01*
X110780000Y-99441000D02*
X110742000Y-99479000D01*
D33*
X97663000Y-94500000D02*
X97663000Y-95250000D01*
X95885000Y-94500000D02*
X95885000Y-95250000D01*
X94107000Y-94500000D02*
X94107000Y-95250000D01*
X92329000Y-94500000D02*
X92329000Y-95250000D01*
X94107000Y-94500000D02*
X92329000Y-94500000D01*
X95885000Y-94500000D02*
X94107000Y-94500000D01*
X97663000Y-94500000D02*
X95885000Y-94500000D01*
X110236000Y-92218000D02*
X99945000Y-92218000D01*
X99945000Y-92218000D02*
X97663000Y-94500000D01*
X111046000Y-92218000D02*
X110236000Y-92218000D01*
X111046000Y-91818000D02*
X110446000Y-91818000D01*
X110446000Y-91818000D02*
X110236000Y-92028000D01*
X110236000Y-92028000D02*
X110236000Y-92218000D01*
X99441000Y-86614000D02*
X103378000Y-86614000D01*
X99441000Y-87352000D02*
X99441000Y-86614000D01*
X111046000Y-90853000D02*
X111046000Y-91018000D01*
X110871000Y-90678000D02*
X111046000Y-90853000D01*
X110109000Y-90678000D02*
X110871000Y-90678000D01*
X108331000Y-88900000D02*
X110109000Y-90678000D01*
X104521000Y-88900000D02*
X108331000Y-88900000D01*
X104013000Y-88392000D02*
X104521000Y-88900000D01*
X104013000Y-87249000D02*
X104013000Y-88392000D01*
X103378000Y-86614000D02*
X104013000Y-87249000D01*
X112646000Y-89618000D02*
X112602991Y-89574991D01*
X112646000Y-90218000D02*
X112646000Y-89618000D01*
X112602991Y-89574991D02*
X112602991Y-89234991D01*
X112602991Y-89234991D02*
X112467999Y-89099999D01*
X112467999Y-89099999D02*
X112268000Y-88900000D01*
X113846000Y-90218000D02*
X113846000Y-88954000D01*
X113846000Y-88954000D02*
X113792000Y-88900000D01*
D35*
X101219000Y-88064000D02*
X101219000Y-87364000D01*
X101219000Y-88519000D02*
X101600000Y-88900000D01*
X101219000Y-88064000D02*
X101219000Y-88519000D01*
X101219000Y-87364000D02*
X102997000Y-87364000D01*
D36*
X110117000Y-101579000D02*
X110117000Y-102617000D01*
X114122000Y-103200000D02*
X116332000Y-105410000D01*
X110700000Y-103200000D02*
X114122000Y-103200000D01*
X110117000Y-102617000D02*
X110700000Y-103200000D01*
D33*
X94258000Y-98746000D02*
X94258000Y-99498000D01*
X94258000Y-99498000D02*
X94260000Y-99500000D01*
X88860500Y-98744500D02*
X88860500Y-99499500D01*
X88860500Y-99499500D02*
X88860000Y-99500000D01*
D34*
X110742000Y-99479000D02*
X110742000Y-100954000D01*
X110742000Y-100954000D02*
X110117000Y-101579000D01*
X107792000Y-101529000D02*
X110067000Y-101529000D01*
X110067000Y-101529000D02*
X110117000Y-101579000D01*
D35*
X91313000Y-102870000D02*
X90660500Y-102217500D01*
X90660500Y-102217500D02*
X90660500Y-101794500D01*
X90660500Y-100244500D02*
X90660500Y-101794500D01*
X90660500Y-100244500D02*
X88860500Y-100244500D01*
X92360500Y-100244500D02*
X90660500Y-100244500D01*
X97732000Y-101796000D02*
X96058000Y-101796000D01*
X98171000Y-102235000D02*
X97732000Y-101796000D01*
X96058000Y-100246000D02*
X96058000Y-101796000D01*
X96058000Y-100246000D02*
X94258000Y-100246000D01*
X97758000Y-100246000D02*
X96058000Y-100246000D01*
D33*
X111046000Y-94218000D02*
X102886000Y-94218000D01*
X90660500Y-98061500D02*
X90660500Y-98744500D01*
X91313000Y-97409000D02*
X90660500Y-98061500D01*
X101727000Y-97409000D02*
X91313000Y-97409000D01*
X102489000Y-96647000D02*
X101727000Y-97409000D01*
X102489000Y-94615000D02*
X102489000Y-96647000D01*
X102886000Y-94218000D02*
X102489000Y-94615000D01*
X116183000Y-97155000D02*
X116967000Y-97155000D01*
X115846000Y-96218000D02*
X115846000Y-96818000D01*
X115846000Y-96818000D02*
X116183000Y-97155000D01*
X96058000Y-99458000D02*
X96100000Y-99500000D01*
X96058000Y-99458000D02*
X96058000Y-98746000D01*
D34*
X119805000Y-98342000D02*
X118999000Y-97536000D01*
X119805000Y-99457000D02*
X119805000Y-98342000D01*
X102295000Y-101032000D02*
X102235000Y-101092000D01*
X102295000Y-101032000D02*
X103632000Y-101032000D01*
X122130000Y-99607000D02*
X119955000Y-99607000D01*
X119955000Y-99607000D02*
X119805000Y-99457000D01*
X105592000Y-101529000D02*
X104129000Y-101529000D01*
X104129000Y-101529000D02*
X103632000Y-101032000D01*
X103632000Y-101032000D02*
X103632000Y-101032000D01*
X103632000Y-105410000D02*
X103632000Y-101032000D01*
X103632000Y-101032000D02*
X103632000Y-99844000D01*
X103632000Y-99844000D02*
X103267000Y-99479000D01*
X103632000Y-99844000D02*
X103267000Y-99479000D01*
X105592000Y-99629000D02*
X103417000Y-99629000D01*
X103417000Y-99629000D02*
X103267000Y-99479000D01*
D33*
X115046000Y-89424000D02*
X115824000Y-88646000D01*
X115046000Y-89424000D02*
X115046000Y-90218000D01*
X114646000Y-90218000D02*
X114646000Y-89189000D01*
X114646000Y-89189000D02*
X115189000Y-88646000D01*
X113046000Y-90218000D02*
X113046000Y-89170000D01*
X113046000Y-89170000D02*
X112946000Y-89070000D01*
X112946000Y-89070000D02*
X112946000Y-87464000D01*
X112946000Y-87464000D02*
X111098000Y-87464000D01*
X111098000Y-87464000D02*
X110998000Y-87364000D01*
X113446000Y-90218000D02*
X113446000Y-89145721D01*
X113446000Y-89145721D02*
X113284000Y-88983721D01*
X113284000Y-88983721D02*
X113284000Y-88646000D01*
X113284000Y-88646000D02*
X113538000Y-88392000D01*
X113538000Y-88392000D02*
X113919000Y-88392000D01*
X114046000Y-85964000D02*
X114246000Y-85764000D01*
X113919000Y-88392000D02*
X114046000Y-88265000D01*
X114046000Y-88265000D02*
X114046000Y-85964000D01*
X114246000Y-85764000D02*
X115146000Y-85764000D01*
X115046000Y-85764000D02*
X115146000Y-85764000D01*
X115146000Y-85764000D02*
X116994000Y-85764000D01*
X116994000Y-85764000D02*
X117094000Y-85864000D01*
X108712000Y-85864000D02*
X109287000Y-85864000D01*
X109287000Y-85864000D02*
X109982000Y-86559000D01*
X109982000Y-86559000D02*
X109982000Y-88900000D01*
X109982000Y-88900000D02*
X110490000Y-89408000D01*
X112246000Y-89618000D02*
X112246000Y-90218000D01*
X110490000Y-89408000D02*
X112036000Y-89408000D01*
X112036000Y-89408000D02*
X112246000Y-89618000D01*
X108712000Y-85864000D02*
X106807000Y-85864000D01*
X111846000Y-90218000D02*
X110411000Y-90218000D01*
X108712000Y-88519000D02*
X108712000Y-87364000D01*
X110411000Y-90218000D02*
X108712000Y-88519000D01*
X106807000Y-87364000D02*
X104902000Y-87364000D01*
X108712000Y-87364000D02*
X106807000Y-87364000D01*
D36*
X92837000Y-90044000D02*
X92837000Y-91428000D01*
X99441000Y-91428000D02*
X92837000Y-91428000D01*
X92837000Y-91428000D02*
X92329000Y-91428000D01*
X92329000Y-91428000D02*
X83951500Y-91428000D01*
X83951500Y-91428000D02*
X83947000Y-91432500D01*
X101358000Y-91440000D02*
X99453000Y-91440000D01*
X99453000Y-91440000D02*
X99441000Y-91428000D01*
X104902000Y-91428000D02*
X102870000Y-91428000D01*
X102870000Y-91428000D02*
X102858000Y-91440000D01*
X109728000Y-91418000D02*
X104912000Y-91418000D01*
X104912000Y-91418000D02*
X104902000Y-91428000D01*
D33*
X111046000Y-91418000D02*
X109728000Y-91418000D01*
X109728000Y-91418000D02*
X109623000Y-91418000D01*
X109623000Y-91418000D02*
X109601000Y-91440000D01*
X111046000Y-92618000D02*
X100549000Y-92618000D01*
X99441000Y-93726000D02*
X99441000Y-94500000D01*
X100549000Y-92618000D02*
X99441000Y-93726000D01*
X111046000Y-93018000D02*
X101038000Y-93018000D01*
X100330000Y-95111000D02*
X99441000Y-96000000D01*
X100330000Y-93726000D02*
X100330000Y-95111000D01*
X101038000Y-93018000D02*
X100330000Y-93726000D01*
X111046000Y-93418000D02*
X102301000Y-93418000D01*
X102301000Y-93418000D02*
X101219000Y-94500000D01*
X111046000Y-93818000D02*
X102524000Y-93818000D01*
X102108000Y-95111000D02*
X101219000Y-96000000D01*
X102108000Y-94234000D02*
X102108000Y-95111000D01*
X102524000Y-93818000D02*
X102108000Y-94234000D01*
X111046000Y-94618000D02*
X110106000Y-94618000D01*
X110106000Y-94618000D02*
X109855000Y-94869000D01*
X111046000Y-95018000D02*
X110341000Y-95018000D01*
X110341000Y-95018000D02*
X109855000Y-95504000D01*
X103886000Y-95643000D02*
X103886000Y-96393000D01*
X111046000Y-95837000D02*
X110871000Y-96012000D01*
X110871000Y-96012000D02*
X109474000Y-96012000D01*
X109474000Y-96012000D02*
X109220000Y-95758000D01*
X109220000Y-95758000D02*
X109220000Y-94742000D01*
X109220000Y-94742000D02*
X109093000Y-94615000D01*
X109093000Y-94615000D02*
X107442000Y-94615000D01*
X107442000Y-94615000D02*
X107315000Y-94742000D01*
X107315000Y-94742000D02*
X107315000Y-95885000D01*
X107315000Y-95885000D02*
X106807000Y-96393000D01*
X106807000Y-96393000D02*
X103886000Y-96393000D01*
X111046000Y-95837000D02*
X111046000Y-95418000D01*
X111046000Y-95418000D02*
X110830000Y-95418000D01*
X106045000Y-95143000D02*
X104386000Y-95143000D01*
X104386000Y-95143000D02*
X103886000Y-95643000D01*
X106045000Y-97643000D02*
X106954000Y-97643000D01*
X107315000Y-96532000D02*
X108204000Y-95643000D01*
X107315000Y-97282000D02*
X107315000Y-96532000D01*
X106954000Y-97643000D02*
X107315000Y-97282000D01*
X108204000Y-96393000D02*
X111671000Y-96393000D01*
X108204000Y-95643000D02*
X108204000Y-96393000D01*
X111671000Y-96393000D02*
X111846000Y-96218000D01*
X110772842Y-97282000D02*
X110490000Y-97282000D01*
X112246000Y-96769444D02*
X111733444Y-97282000D01*
X112246000Y-96218000D02*
X112246000Y-96769444D01*
X111733444Y-97282000D02*
X110772842Y-97282000D01*
X112646000Y-96793722D02*
X111522722Y-97917000D01*
X112646000Y-96218000D02*
X112646000Y-96793722D01*
X111026842Y-97917000D02*
X110744000Y-97917000D01*
X111522722Y-97917000D02*
X111026842Y-97917000D01*
X113446000Y-96218000D02*
X113446000Y-97120000D01*
X113446000Y-97120000D02*
X112268000Y-98298000D01*
X113846000Y-96218000D02*
X113846000Y-97482000D01*
X113846000Y-97482000D02*
X113030000Y-98298000D01*
X114646000Y-96218000D02*
X114646000Y-98206000D01*
X114646000Y-98206000D02*
X114554000Y-98298000D01*
X115046000Y-96218000D02*
X115046000Y-97774000D01*
X115046000Y-97774000D02*
X115316000Y-98044000D01*
X115443000Y-96821000D02*
X115443000Y-97282000D01*
X115443000Y-97282000D02*
X116205000Y-98044000D01*
X115446000Y-96218000D02*
X115446000Y-96818000D01*
X115446000Y-96818000D02*
X115443000Y-96821000D01*
X121412000Y-85814000D02*
X123140000Y-85814000D01*
X123140000Y-85814000D02*
X123190000Y-85864000D01*
X117046000Y-95018000D02*
X120037000Y-95018000D01*
X120037000Y-95018000D02*
X120142000Y-95123000D01*
D35*
X120142000Y-95123000D02*
X122047000Y-95123000D01*
X123202000Y-96278000D02*
X123202000Y-96901000D01*
X122047000Y-95123000D02*
X123202000Y-96278000D01*
D33*
X117046000Y-94218000D02*
X119777000Y-94218000D01*
X119777000Y-94218000D02*
X120142000Y-93853000D01*
X127762000Y-92583000D02*
X124333000Y-92583000D01*
X119161000Y-93818000D02*
X119253000Y-93726000D01*
X119161000Y-93818000D02*
X117046000Y-93818000D01*
X124333000Y-92583000D02*
X123698000Y-93218000D01*
X117046000Y-93418000D02*
X118926000Y-93418000D01*
X123825000Y-95123000D02*
X127762000Y-95123000D01*
X121920000Y-93218000D02*
X123825000Y-95123000D01*
X119126000Y-93218000D02*
X121920000Y-93218000D01*
X118926000Y-93418000D02*
X119126000Y-93218000D01*
X117046000Y-93018000D02*
X118691000Y-93018000D01*
X119126000Y-92583000D02*
X120142000Y-92583000D01*
X118691000Y-93018000D02*
X119126000Y-92583000D01*
X117046000Y-92618000D02*
X118583000Y-92618000D01*
X123063000Y-93853000D02*
X127762000Y-93853000D01*
X121158000Y-91948000D02*
X123063000Y-93853000D01*
X119253000Y-91948000D02*
X121158000Y-91948000D01*
X118583000Y-92618000D02*
X119253000Y-91948000D01*
X117046000Y-92218000D02*
X118475000Y-92218000D01*
X119380000Y-91313000D02*
X120142000Y-91313000D01*
X118475000Y-92218000D02*
X119380000Y-91313000D01*
X121412000Y-86614000D02*
X121412000Y-87414000D01*
X115446000Y-90218000D02*
X115446000Y-89659000D01*
X115446000Y-89659000D02*
X116459000Y-88646000D01*
X114246000Y-90218000D02*
X114246000Y-88954000D01*
X114246000Y-88954000D02*
X114554000Y-88646000D01*
D36*
X148208000Y-100218000D02*
X155940000Y-100218000D01*
X155940000Y-100218000D02*
X155956000Y-100202000D01*
X148208000Y-100218000D02*
X148208000Y-102868000D01*
X148208000Y-102868000D02*
X148209000Y-102869000D01*
X156082000Y-100203000D02*
X156083000Y-100202000D01*
D33*
X129789110Y-88218000D02*
X129621704Y-88385406D01*
X132208000Y-88218000D02*
X129789110Y-88218000D01*
X129621704Y-88385406D02*
X129421705Y-88585405D01*
X115846000Y-90218000D02*
X115846000Y-89767000D01*
X116205000Y-89535000D02*
X117094000Y-88646000D01*
X116078000Y-89535000D02*
X116205000Y-89535000D01*
X115846000Y-89767000D02*
X116078000Y-89535000D01*
X129159000Y-89662000D02*
X129715000Y-90218000D01*
X129715000Y-90218000D02*
X132208000Y-90218000D01*
X118491000Y-89662000D02*
X129159000Y-89662000D01*
X117856000Y-90297000D02*
X118491000Y-89662000D01*
X117213000Y-90551000D02*
X117602000Y-90551000D01*
X117602000Y-90551000D02*
X117856000Y-90297000D01*
X117046000Y-91018000D02*
X117046000Y-90718000D01*
X117046000Y-90718000D02*
X117213000Y-90551000D01*
X117983000Y-91059000D02*
X118872000Y-90170000D01*
X118872000Y-90170000D02*
X128524000Y-90170000D01*
X128524000Y-90170000D02*
X130572000Y-92218000D01*
X130572000Y-92218000D02*
X132208000Y-92218000D01*
X117046000Y-91418000D02*
X117624000Y-91418000D01*
X117624000Y-91418000D02*
X117983000Y-91059000D01*
X128524000Y-91948000D02*
X130794000Y-94218000D01*
X130794000Y-94218000D02*
X132208000Y-94218000D01*
X125730000Y-91948000D02*
X128524000Y-91948000D01*
X124333000Y-90551000D02*
X125730000Y-91948000D01*
X119253000Y-90551000D02*
X124333000Y-90551000D01*
X118999000Y-90805000D02*
X119253000Y-90551000D01*
X118999000Y-90932000D02*
X118999000Y-90805000D01*
X118491000Y-91440000D02*
X118999000Y-90932000D01*
X117046000Y-91818000D02*
X118113000Y-91818000D01*
X118113000Y-91818000D02*
X118491000Y-91440000D01*
X138176000Y-83947000D02*
X120269000Y-83947000D01*
X120269000Y-83947000D02*
X118872000Y-82550000D01*
X140447000Y-86218000D02*
X138176000Y-83947000D01*
X148208000Y-86218000D02*
X140447000Y-86218000D01*
X117046000Y-94618000D02*
X121409000Y-94618000D01*
X121409000Y-94618000D02*
X121666000Y-94361000D01*
X148208000Y-88218000D02*
X147008000Y-88218000D01*
X146039000Y-87249000D02*
X126111000Y-87249000D01*
X147008000Y-88218000D02*
X146039000Y-87249000D01*
X117046000Y-95418000D02*
X118278000Y-95418000D01*
X118278000Y-95418000D02*
X118491000Y-95631000D01*
X116246000Y-96218000D02*
X117554000Y-96218000D01*
X117554000Y-96218000D02*
X117729000Y-96393000D01*
X148208000Y-90218000D02*
X147008000Y-90218000D01*
X147008000Y-90218000D02*
X146071000Y-89281000D01*
X146071000Y-89281000D02*
X130683000Y-89281000D01*
X116246000Y-96218000D02*
X116246000Y-96518000D01*
X148160000Y-90170000D02*
X148208000Y-90218000D01*
D37*
G36*
X99607000Y-81573691D02*
X99607000Y-82264250D01*
X99765750Y-82423000D01*
X100965000Y-82423000D01*
X100965000Y-82403000D01*
X101219000Y-82403000D01*
X101219000Y-82423000D01*
X101239000Y-82423000D01*
X101239000Y-82677000D01*
X101219000Y-82677000D01*
X101219000Y-83876250D01*
X101377750Y-84035000D01*
X102068310Y-84035000D01*
X102301699Y-83938327D01*
X102480327Y-83759698D01*
X102577000Y-83526309D01*
X102577000Y-83168364D01*
X102761552Y-83444565D01*
X103160917Y-83711413D01*
X103632000Y-83805117D01*
X104103083Y-83711413D01*
X104502448Y-83444565D01*
X104769296Y-83045200D01*
X104863000Y-82574117D01*
X104863000Y-82525883D01*
X104769296Y-82054800D01*
X104502448Y-81655435D01*
X104203973Y-81456000D01*
X105600027Y-81456000D01*
X105301552Y-81655435D01*
X105034704Y-82054800D01*
X104941000Y-82525883D01*
X104941000Y-82574117D01*
X105034704Y-83045200D01*
X105301552Y-83444565D01*
X105700917Y-83711413D01*
X106172000Y-83805117D01*
X106643083Y-83711413D01*
X107042448Y-83444565D01*
X107309296Y-83045200D01*
X107403000Y-82574117D01*
X107403000Y-82525883D01*
X107309296Y-82054800D01*
X107042448Y-81655435D01*
X106743973Y-81456000D01*
X108140027Y-81456000D01*
X107841552Y-81655435D01*
X107574704Y-82054800D01*
X107481000Y-82525883D01*
X107481000Y-82574117D01*
X107574704Y-83045200D01*
X107841552Y-83444565D01*
X108240917Y-83711413D01*
X108712000Y-83805117D01*
X109183083Y-83711413D01*
X109582448Y-83444565D01*
X109849296Y-83045200D01*
X109943000Y-82574117D01*
X109943000Y-82525883D01*
X109849296Y-82054800D01*
X109582448Y-81655435D01*
X109283973Y-81456000D01*
X110680027Y-81456000D01*
X110381552Y-81655435D01*
X110114704Y-82054800D01*
X110021000Y-82525883D01*
X110021000Y-82574117D01*
X110114704Y-83045200D01*
X110381552Y-83444565D01*
X110780917Y-83711413D01*
X111252000Y-83805117D01*
X111723083Y-83711413D01*
X112122448Y-83444565D01*
X112389296Y-83045200D01*
X112483000Y-82574117D01*
X112483000Y-82525883D01*
X112389296Y-82054800D01*
X112122448Y-81655435D01*
X111823973Y-81456000D01*
X113220027Y-81456000D01*
X112921552Y-81655435D01*
X112654704Y-82054800D01*
X112561000Y-82525883D01*
X112561000Y-82574117D01*
X112654704Y-83045200D01*
X112921552Y-83444565D01*
X113320917Y-83711413D01*
X113792000Y-83805117D01*
X114263083Y-83711413D01*
X114662448Y-83444565D01*
X114929296Y-83045200D01*
X115023000Y-82574117D01*
X115023000Y-82525883D01*
X114929296Y-82054800D01*
X114662448Y-81655435D01*
X114363973Y-81456000D01*
X115760027Y-81456000D01*
X115461552Y-81655435D01*
X115194704Y-82054800D01*
X115101000Y-82525883D01*
X115101000Y-82574117D01*
X115194704Y-83045200D01*
X115461552Y-83444565D01*
X115860917Y-83711413D01*
X116332000Y-83805117D01*
X116803083Y-83711413D01*
X117202448Y-83444565D01*
X117469296Y-83045200D01*
X117563000Y-82574117D01*
X117563000Y-82525883D01*
X117469296Y-82054800D01*
X117202448Y-81655435D01*
X116903973Y-81456000D01*
X118300027Y-81456000D01*
X118001552Y-81655435D01*
X117734704Y-82054800D01*
X117641000Y-82525883D01*
X117641000Y-82574117D01*
X117734704Y-83045200D01*
X118001552Y-83444565D01*
X118400917Y-83711413D01*
X118872000Y-83805117D01*
X119343083Y-83711413D01*
X119349134Y-83707370D01*
X119928881Y-84287118D01*
X120084929Y-84391386D01*
X120269000Y-84428000D01*
X137976764Y-84428000D01*
X140106882Y-86558118D01*
X140262929Y-86662386D01*
X140447000Y-86699000D01*
X146819536Y-86699000D01*
X146819536Y-86718000D01*
X146846103Y-86859190D01*
X146929546Y-86988865D01*
X147056866Y-87075859D01*
X147208000Y-87106464D01*
X149208000Y-87106464D01*
X149349190Y-87079897D01*
X149478865Y-86996454D01*
X149565859Y-86869134D01*
X149596464Y-86718000D01*
X149596464Y-85718000D01*
X149569897Y-85576810D01*
X149486454Y-85447135D01*
X149359134Y-85360141D01*
X149208000Y-85329536D01*
X147208000Y-85329536D01*
X147066810Y-85356103D01*
X146937135Y-85439546D01*
X146850141Y-85566866D01*
X146819536Y-85718000D01*
X146819536Y-85737000D01*
X140646236Y-85737000D01*
X138516118Y-83606882D01*
X138360071Y-83502614D01*
X138176000Y-83466000D01*
X137490368Y-83466000D01*
X137522448Y-83444565D01*
X137789296Y-83045200D01*
X137883000Y-82574117D01*
X137883000Y-82525883D01*
X137789296Y-82054800D01*
X137522448Y-81655435D01*
X137223973Y-81456000D01*
X138620027Y-81456000D01*
X138321552Y-81655435D01*
X138054704Y-82054800D01*
X137961000Y-82525883D01*
X137961000Y-82574117D01*
X138054704Y-83045200D01*
X138321552Y-83444565D01*
X138720917Y-83711413D01*
X139192000Y-83805117D01*
X139663083Y-83711413D01*
X140062448Y-83444565D01*
X140329296Y-83045200D01*
X140423000Y-82574117D01*
X140423000Y-82525883D01*
X140329296Y-82054800D01*
X140062448Y-81655435D01*
X139763973Y-81456000D01*
X152873000Y-81456000D01*
X152873000Y-99337000D01*
X149372936Y-99337000D01*
X149567698Y-99256327D01*
X149746327Y-99077699D01*
X149843000Y-98844310D01*
X149843000Y-98503750D01*
X149684250Y-98345000D01*
X148335000Y-98345000D01*
X148335000Y-98365000D01*
X148081000Y-98365000D01*
X148081000Y-98345000D01*
X146731750Y-98345000D01*
X146573000Y-98503750D01*
X146573000Y-98844310D01*
X146669673Y-99077699D01*
X146848302Y-99256327D01*
X147081691Y-99353000D01*
X147083301Y-99353000D01*
X147066810Y-99356103D01*
X146937135Y-99439546D01*
X146850141Y-99566866D01*
X146819536Y-99718000D01*
X146819536Y-100718000D01*
X146846103Y-100859190D01*
X146929546Y-100988865D01*
X147056866Y-101075859D01*
X147208000Y-101106464D01*
X147327000Y-101106464D01*
X147327000Y-102312079D01*
X147320536Y-102344000D01*
X147320536Y-102659000D01*
X147019750Y-102659000D01*
X146861000Y-102817750D01*
X146861000Y-104267000D01*
X146881000Y-104267000D01*
X146881000Y-104521000D01*
X146861000Y-104521000D01*
X146861000Y-105970250D01*
X147019750Y-106129000D01*
X147385309Y-106129000D01*
X147618698Y-106032327D01*
X147797327Y-105853699D01*
X147823298Y-105791000D01*
X148594702Y-105791000D01*
X148620673Y-105853699D01*
X148799302Y-106032327D01*
X149032691Y-106129000D01*
X149398250Y-106129000D01*
X149557000Y-105970250D01*
X149557000Y-104521000D01*
X149811000Y-104521000D01*
X149811000Y-105970250D01*
X149969750Y-106129000D01*
X150335309Y-106129000D01*
X150568698Y-106032327D01*
X150747327Y-105853699D01*
X150844000Y-105620310D01*
X150844000Y-104679750D01*
X150685250Y-104521000D01*
X149811000Y-104521000D01*
X149557000Y-104521000D01*
X149537000Y-104521000D01*
X149537000Y-104267000D01*
X149557000Y-104267000D01*
X149557000Y-102817750D01*
X149811000Y-102817750D01*
X149811000Y-104267000D01*
X150685250Y-104267000D01*
X150844000Y-104108250D01*
X150844000Y-103167690D01*
X150747327Y-102934301D01*
X150568698Y-102755673D01*
X150335309Y-102659000D01*
X149969750Y-102659000D01*
X149811000Y-102817750D01*
X149557000Y-102817750D01*
X149398250Y-102659000D01*
X149097464Y-102659000D01*
X149097464Y-102344000D01*
X149089000Y-102299018D01*
X149089000Y-101106464D01*
X149208000Y-101106464D01*
X149247667Y-101099000D01*
X152873000Y-101099000D01*
X152873000Y-106544000D01*
X139704109Y-106544000D01*
X140062448Y-106304565D01*
X140329296Y-105905200D01*
X140423000Y-105434117D01*
X140423000Y-105385883D01*
X140329296Y-104914800D01*
X140172241Y-104679750D01*
X145574000Y-104679750D01*
X145574000Y-105620310D01*
X145670673Y-105853699D01*
X145849302Y-106032327D01*
X146082691Y-106129000D01*
X146448250Y-106129000D01*
X146607000Y-105970250D01*
X146607000Y-104521000D01*
X145732750Y-104521000D01*
X145574000Y-104679750D01*
X140172241Y-104679750D01*
X140062448Y-104515435D01*
X139663083Y-104248587D01*
X139192000Y-104154883D01*
X138720917Y-104248587D01*
X138321552Y-104515435D01*
X138054704Y-104914800D01*
X137961000Y-105385883D01*
X137961000Y-105434117D01*
X138054704Y-105905200D01*
X138321552Y-106304565D01*
X138679891Y-106544000D01*
X137164109Y-106544000D01*
X137522448Y-106304565D01*
X137789296Y-105905200D01*
X137883000Y-105434117D01*
X137883000Y-105385883D01*
X137789296Y-104914800D01*
X137522448Y-104515435D01*
X137123083Y-104248587D01*
X136652000Y-104154883D01*
X136180917Y-104248587D01*
X135781552Y-104515435D01*
X135514704Y-104914800D01*
X135421000Y-105385883D01*
X135421000Y-105434117D01*
X135514704Y-105905200D01*
X135781552Y-106304565D01*
X136139891Y-106544000D01*
X134624109Y-106544000D01*
X134982448Y-106304565D01*
X135249296Y-105905200D01*
X135343000Y-105434117D01*
X135343000Y-105385883D01*
X135249296Y-104914800D01*
X134982448Y-104515435D01*
X134583083Y-104248587D01*
X134112000Y-104154883D01*
X133640917Y-104248587D01*
X133241552Y-104515435D01*
X132974704Y-104914800D01*
X132881000Y-105385883D01*
X132881000Y-105434117D01*
X132974704Y-105905200D01*
X133241552Y-106304565D01*
X133599891Y-106544000D01*
X132084109Y-106544000D01*
X132442448Y-106304565D01*
X132709296Y-105905200D01*
X132803000Y-105434117D01*
X132803000Y-105385883D01*
X132709296Y-104914800D01*
X132442448Y-104515435D01*
X132043083Y-104248587D01*
X131572000Y-104154883D01*
X131100917Y-104248587D01*
X130701552Y-104515435D01*
X130434704Y-104914800D01*
X130341000Y-105385883D01*
X130341000Y-105434117D01*
X130434704Y-105905200D01*
X130701552Y-106304565D01*
X131059891Y-106544000D01*
X129544109Y-106544000D01*
X129902448Y-106304565D01*
X130169296Y-105905200D01*
X130263000Y-105434117D01*
X130263000Y-105385883D01*
X130169296Y-104914800D01*
X129902448Y-104515435D01*
X129503083Y-104248587D01*
X129032000Y-104154883D01*
X128560917Y-104248587D01*
X128161552Y-104515435D01*
X127894704Y-104914800D01*
X127886917Y-104953947D01*
X127687183Y-104528642D01*
X127258924Y-104138355D01*
X126848890Y-103968524D01*
X126619000Y-104089845D01*
X126619000Y-105283000D01*
X126639000Y-105283000D01*
X126639000Y-105537000D01*
X126619000Y-105537000D01*
X126619000Y-105557000D01*
X126365000Y-105557000D01*
X126365000Y-105537000D01*
X126345000Y-105537000D01*
X126345000Y-105283000D01*
X126365000Y-105283000D01*
X126365000Y-104089845D01*
X126135110Y-103968524D01*
X125725076Y-104138355D01*
X125296817Y-104528642D01*
X125097083Y-104953947D01*
X125089296Y-104914800D01*
X124961000Y-104722792D01*
X124961000Y-103167690D01*
X145574000Y-103167690D01*
X145574000Y-104108250D01*
X145732750Y-104267000D01*
X146607000Y-104267000D01*
X146607000Y-102817750D01*
X146448250Y-102659000D01*
X146082691Y-102659000D01*
X145849302Y-102755673D01*
X145670673Y-102934301D01*
X145574000Y-103167690D01*
X124961000Y-103167690D01*
X124961000Y-102201459D01*
X125001190Y-102193897D01*
X125010354Y-102188000D01*
X125291536Y-102188000D01*
X125291536Y-102307000D01*
X125318103Y-102448190D01*
X125401546Y-102577865D01*
X125528866Y-102664859D01*
X125680000Y-102695464D01*
X127630000Y-102695464D01*
X127771190Y-102668897D01*
X127867037Y-102607222D01*
X127891673Y-102666699D01*
X128070302Y-102845327D01*
X128303691Y-102942000D01*
X129119250Y-102942000D01*
X129278000Y-102783250D01*
X129278000Y-101684000D01*
X129532000Y-101684000D01*
X129532000Y-102783250D01*
X129690750Y-102942000D01*
X130506309Y-102942000D01*
X130739698Y-102845327D01*
X130918327Y-102666699D01*
X131015000Y-102433310D01*
X131015000Y-101842750D01*
X130856250Y-101684000D01*
X129532000Y-101684000D01*
X129278000Y-101684000D01*
X129258000Y-101684000D01*
X129258000Y-101430000D01*
X129278000Y-101430000D01*
X129278000Y-100330750D01*
X129532000Y-100330750D01*
X129532000Y-101430000D01*
X130856250Y-101430000D01*
X130976727Y-101309523D01*
X131081691Y-101353000D01*
X131922250Y-101353000D01*
X132081000Y-101194250D01*
X132081000Y-100345000D01*
X132335000Y-100345000D01*
X132335000Y-101194250D01*
X132493750Y-101353000D01*
X133334309Y-101353000D01*
X133567698Y-101256327D01*
X133746327Y-101077699D01*
X133843000Y-100844310D01*
X133843000Y-100503750D01*
X133684250Y-100345000D01*
X132335000Y-100345000D01*
X132081000Y-100345000D01*
X132061000Y-100345000D01*
X132061000Y-100091000D01*
X132081000Y-100091000D01*
X132081000Y-100071000D01*
X132335000Y-100071000D01*
X132335000Y-100091000D01*
X133684250Y-100091000D01*
X133843000Y-99932250D01*
X133843000Y-99591690D01*
X133746327Y-99358301D01*
X133567698Y-99179673D01*
X133556564Y-99175061D01*
X135943900Y-99175061D01*
X136032165Y-99388680D01*
X136195460Y-99552260D01*
X136408925Y-99640898D01*
X136640061Y-99641100D01*
X136853680Y-99552835D01*
X137017260Y-99389540D01*
X137032929Y-99351805D01*
X137048165Y-99388680D01*
X137211460Y-99552260D01*
X137424925Y-99640898D01*
X137656061Y-99641100D01*
X137869680Y-99552835D01*
X138033260Y-99389540D01*
X138048929Y-99351805D01*
X138064165Y-99388680D01*
X138227460Y-99552260D01*
X138440925Y-99640898D01*
X138672061Y-99641100D01*
X138885680Y-99552835D01*
X139049260Y-99389540D01*
X139064929Y-99351805D01*
X139080165Y-99388680D01*
X139243460Y-99552260D01*
X139456925Y-99640898D01*
X139688061Y-99641100D01*
X139901680Y-99552835D01*
X140065260Y-99389540D01*
X140080929Y-99351805D01*
X140096165Y-99388680D01*
X140259460Y-99552260D01*
X140472925Y-99640898D01*
X140704061Y-99641100D01*
X140917680Y-99552835D01*
X141081260Y-99389540D01*
X141160586Y-99198502D01*
X141239165Y-99388680D01*
X141402460Y-99552260D01*
X141615925Y-99640898D01*
X141847061Y-99641100D01*
X142060680Y-99552835D01*
X142224260Y-99389540D01*
X142239929Y-99351805D01*
X142255165Y-99388680D01*
X142418460Y-99552260D01*
X142631925Y-99640898D01*
X142863061Y-99641100D01*
X143076680Y-99552835D01*
X143240260Y-99389540D01*
X143255929Y-99351805D01*
X143271165Y-99388680D01*
X143434460Y-99552260D01*
X143647925Y-99640898D01*
X143879061Y-99641100D01*
X144092680Y-99552835D01*
X144256260Y-99389540D01*
X144271929Y-99351805D01*
X144287165Y-99388680D01*
X144450460Y-99552260D01*
X144663925Y-99640898D01*
X144895061Y-99641100D01*
X145108680Y-99552835D01*
X145272260Y-99389540D01*
X145360898Y-99176075D01*
X145361100Y-98944939D01*
X145272835Y-98731320D01*
X145109540Y-98567740D01*
X144896075Y-98479102D01*
X144664939Y-98478900D01*
X144451320Y-98567165D01*
X144287740Y-98730460D01*
X144272071Y-98768195D01*
X144256835Y-98731320D01*
X144093540Y-98567740D01*
X143880075Y-98479102D01*
X143648939Y-98478900D01*
X143435320Y-98567165D01*
X143271740Y-98730460D01*
X143256071Y-98768195D01*
X143240835Y-98731320D01*
X143077540Y-98567740D01*
X142864075Y-98479102D01*
X142632939Y-98478900D01*
X142419320Y-98567165D01*
X142255740Y-98730460D01*
X142240071Y-98768195D01*
X142224835Y-98731320D01*
X142061540Y-98567740D01*
X141848075Y-98479102D01*
X141616939Y-98478900D01*
X141403320Y-98567165D01*
X141239740Y-98730460D01*
X141160414Y-98921498D01*
X141081835Y-98731320D01*
X140918540Y-98567740D01*
X140705075Y-98479102D01*
X140473939Y-98478900D01*
X140260320Y-98567165D01*
X140096740Y-98730460D01*
X140081071Y-98768195D01*
X140065835Y-98731320D01*
X139902540Y-98567740D01*
X139689075Y-98479102D01*
X139457939Y-98478900D01*
X139244320Y-98567165D01*
X139080740Y-98730460D01*
X139065071Y-98768195D01*
X139049835Y-98731320D01*
X138886540Y-98567740D01*
X138673075Y-98479102D01*
X138441939Y-98478900D01*
X138228320Y-98567165D01*
X138064740Y-98730460D01*
X138049071Y-98768195D01*
X138033835Y-98731320D01*
X137870540Y-98567740D01*
X137657075Y-98479102D01*
X137425939Y-98478900D01*
X137212320Y-98567165D01*
X137048740Y-98730460D01*
X137033071Y-98768195D01*
X137017835Y-98731320D01*
X136854540Y-98567740D01*
X136641075Y-98479102D01*
X136409939Y-98478900D01*
X136196320Y-98567165D01*
X136032740Y-98730460D01*
X135944102Y-98943925D01*
X135943900Y-99175061D01*
X133556564Y-99175061D01*
X133334309Y-99083000D01*
X133332699Y-99083000D01*
X133349190Y-99079897D01*
X133478865Y-98996454D01*
X133565859Y-98869134D01*
X133596464Y-98718000D01*
X133596464Y-97718000D01*
X133572697Y-97591690D01*
X146573000Y-97591690D01*
X146573000Y-97932250D01*
X146731750Y-98091000D01*
X148081000Y-98091000D01*
X148081000Y-98071000D01*
X148335000Y-98071000D01*
X148335000Y-98091000D01*
X149684250Y-98091000D01*
X149843000Y-97932250D01*
X149843000Y-97591690D01*
X149746327Y-97358301D01*
X149567698Y-97179673D01*
X149334309Y-97083000D01*
X149332699Y-97083000D01*
X149349190Y-97079897D01*
X149478865Y-96996454D01*
X149565859Y-96869134D01*
X149596464Y-96718000D01*
X149596464Y-95718000D01*
X149569897Y-95576810D01*
X149486454Y-95447135D01*
X149359134Y-95360141D01*
X149208000Y-95329536D01*
X147208000Y-95329536D01*
X147066810Y-95356103D01*
X146937135Y-95439546D01*
X146850141Y-95566866D01*
X146819536Y-95718000D01*
X146819536Y-96718000D01*
X146846103Y-96859190D01*
X146929546Y-96988865D01*
X147056866Y-97075859D01*
X147092130Y-97083000D01*
X147081691Y-97083000D01*
X146848302Y-97179673D01*
X146669673Y-97358301D01*
X146573000Y-97591690D01*
X133572697Y-97591690D01*
X133569897Y-97576810D01*
X133486454Y-97447135D01*
X133359134Y-97360141D01*
X133208000Y-97329536D01*
X131208000Y-97329536D01*
X131066810Y-97356103D01*
X130937135Y-97439546D01*
X130850141Y-97566866D01*
X130819536Y-97718000D01*
X130819536Y-98718000D01*
X130846103Y-98859190D01*
X130929546Y-98988865D01*
X131056866Y-99075859D01*
X131092130Y-99083000D01*
X131081691Y-99083000D01*
X130848302Y-99179673D01*
X130669673Y-99358301D01*
X130573000Y-99591690D01*
X130573000Y-99932250D01*
X130731748Y-100090998D01*
X130573000Y-100090998D01*
X130573000Y-100199624D01*
X130506309Y-100172000D01*
X129690750Y-100172000D01*
X129532000Y-100330750D01*
X129278000Y-100330750D01*
X129119250Y-100172000D01*
X128303691Y-100172000D01*
X128070302Y-100268673D01*
X127911000Y-100427974D01*
X127911000Y-99943859D01*
X127918464Y-99907000D01*
X127918464Y-99569484D01*
X130738948Y-96749000D01*
X130825369Y-96749000D01*
X130846103Y-96859190D01*
X130929546Y-96988865D01*
X131056866Y-97075859D01*
X131208000Y-97106464D01*
X133208000Y-97106464D01*
X133349190Y-97079897D01*
X133478865Y-96996454D01*
X133565859Y-96869134D01*
X133596464Y-96718000D01*
X133596464Y-96080484D01*
X133883474Y-95793474D01*
X133998580Y-95621205D01*
X134039001Y-95418000D01*
X134039000Y-95417995D01*
X134039000Y-95137948D01*
X135458947Y-93718000D01*
X146819536Y-93718000D01*
X146819536Y-94718000D01*
X146846103Y-94859190D01*
X146929546Y-94988865D01*
X147056866Y-95075859D01*
X147208000Y-95106464D01*
X149208000Y-95106464D01*
X149349190Y-95079897D01*
X149478865Y-94996454D01*
X149565859Y-94869134D01*
X149596464Y-94718000D01*
X149596464Y-93718000D01*
X149569897Y-93576810D01*
X149486454Y-93447135D01*
X149359134Y-93360141D01*
X149208000Y-93329536D01*
X147208000Y-93329536D01*
X147066810Y-93356103D01*
X146937135Y-93439546D01*
X146850141Y-93566866D01*
X146819536Y-93718000D01*
X135458947Y-93718000D01*
X136427947Y-92749000D01*
X146825369Y-92749000D01*
X146846103Y-92859190D01*
X146929546Y-92988865D01*
X147056866Y-93075859D01*
X147208000Y-93106464D01*
X149208000Y-93106464D01*
X149349190Y-93079897D01*
X149478865Y-92996454D01*
X149565859Y-92869134D01*
X149595856Y-92721000D01*
X150137186Y-92721000D01*
X150139103Y-92731190D01*
X150222546Y-92860865D01*
X150349866Y-92947859D01*
X150501000Y-92978464D01*
X151251000Y-92978464D01*
X151392190Y-92951897D01*
X151521865Y-92868454D01*
X151608859Y-92741134D01*
X151639464Y-92590000D01*
X151639464Y-91790000D01*
X151612897Y-91648810D01*
X151602028Y-91631919D01*
X151610699Y-91628327D01*
X151789327Y-91449698D01*
X151886000Y-91216309D01*
X151886000Y-90975750D01*
X151727250Y-90817000D01*
X151003000Y-90817000D01*
X151003000Y-90837000D01*
X150749000Y-90837000D01*
X150749000Y-90817000D01*
X150024750Y-90817000D01*
X149866000Y-90975750D01*
X149866000Y-91216309D01*
X149962673Y-91449698D01*
X150141301Y-91628327D01*
X150148348Y-91631246D01*
X150143141Y-91638866D01*
X150139064Y-91659000D01*
X149585362Y-91659000D01*
X149569897Y-91576810D01*
X149486454Y-91447135D01*
X149359134Y-91360141D01*
X149208000Y-91329536D01*
X147208000Y-91329536D01*
X147066810Y-91356103D01*
X146937135Y-91439546D01*
X146850141Y-91566866D01*
X146825814Y-91687000D01*
X136208005Y-91687000D01*
X136208000Y-91686999D01*
X136016961Y-91725000D01*
X136004795Y-91727420D01*
X135832526Y-91842526D01*
X135832524Y-91842529D01*
X133596464Y-94078588D01*
X133596464Y-93718000D01*
X133569897Y-93576810D01*
X133486454Y-93447135D01*
X133359134Y-93360141D01*
X133208000Y-93329536D01*
X131208000Y-93329536D01*
X131066810Y-93356103D01*
X130937135Y-93439546D01*
X130850141Y-93566866D01*
X130845588Y-93589351D01*
X128897000Y-91640764D01*
X128897000Y-91591750D01*
X128738250Y-91433000D01*
X127889000Y-91433000D01*
X127889000Y-91460000D01*
X127635000Y-91460000D01*
X127635000Y-91433000D01*
X126785750Y-91433000D01*
X126751750Y-91467000D01*
X125929237Y-91467000D01*
X125113236Y-90651000D01*
X126785974Y-90651000D01*
X126723673Y-90713301D01*
X126627000Y-90946690D01*
X126627000Y-91034250D01*
X126785750Y-91193000D01*
X127635000Y-91193000D01*
X127635000Y-91166000D01*
X127889000Y-91166000D01*
X127889000Y-91193000D01*
X128738250Y-91193000D01*
X128802507Y-91128743D01*
X130231881Y-92558118D01*
X130289255Y-92596454D01*
X130387929Y-92662386D01*
X130572000Y-92699000D01*
X130819536Y-92699000D01*
X130819536Y-92718000D01*
X130846103Y-92859190D01*
X130929546Y-92988865D01*
X131056866Y-93075859D01*
X131208000Y-93106464D01*
X133208000Y-93106464D01*
X133349190Y-93079897D01*
X133478865Y-92996454D01*
X133565859Y-92869134D01*
X133596464Y-92718000D01*
X133596464Y-91718000D01*
X133569897Y-91576810D01*
X133486454Y-91447135D01*
X133359134Y-91360141D01*
X133208000Y-91329536D01*
X131208000Y-91329536D01*
X131066810Y-91356103D01*
X130937135Y-91439546D01*
X130850141Y-91566866D01*
X130819536Y-91718000D01*
X130819536Y-91737000D01*
X130771237Y-91737000D01*
X129733236Y-90699000D01*
X130819536Y-90699000D01*
X130819536Y-90718000D01*
X130846103Y-90859190D01*
X130929546Y-90988865D01*
X131056866Y-91075859D01*
X131208000Y-91106464D01*
X133208000Y-91106464D01*
X133349190Y-91079897D01*
X133478865Y-90996454D01*
X133565859Y-90869134D01*
X133596464Y-90718000D01*
X133596464Y-89762000D01*
X145871764Y-89762000D01*
X146667882Y-90558118D01*
X146819536Y-90659451D01*
X146819536Y-90718000D01*
X146846103Y-90859190D01*
X146929546Y-90988865D01*
X147056866Y-91075859D01*
X147208000Y-91106464D01*
X149208000Y-91106464D01*
X149349190Y-91079897D01*
X149478865Y-90996454D01*
X149565859Y-90869134D01*
X149596464Y-90718000D01*
X149596464Y-90163691D01*
X149866000Y-90163691D01*
X149866000Y-90404250D01*
X150024750Y-90563000D01*
X150749000Y-90563000D01*
X150749000Y-89813750D01*
X151003000Y-89813750D01*
X151003000Y-90563000D01*
X151727250Y-90563000D01*
X151886000Y-90404250D01*
X151886000Y-90163691D01*
X151789327Y-89930302D01*
X151610699Y-89751673D01*
X151377310Y-89655000D01*
X151161750Y-89655000D01*
X151003000Y-89813750D01*
X150749000Y-89813750D01*
X150590250Y-89655000D01*
X150374690Y-89655000D01*
X150141301Y-89751673D01*
X149962673Y-89930302D01*
X149866000Y-90163691D01*
X149596464Y-90163691D01*
X149596464Y-89718000D01*
X149569897Y-89576810D01*
X149486454Y-89447135D01*
X149359134Y-89360141D01*
X149208000Y-89329536D01*
X147208000Y-89329536D01*
X147066810Y-89356103D01*
X146937135Y-89439546D01*
X146926032Y-89455796D01*
X146411118Y-88940882D01*
X146255071Y-88836614D01*
X146253925Y-88836386D01*
X146071000Y-88800000D01*
X133579859Y-88800000D01*
X133596464Y-88718000D01*
X133596464Y-87730000D01*
X145839764Y-87730000D01*
X146667882Y-88558118D01*
X146819536Y-88659451D01*
X146819536Y-88718000D01*
X146846103Y-88859190D01*
X146929546Y-88988865D01*
X147056866Y-89075859D01*
X147208000Y-89106464D01*
X149208000Y-89106464D01*
X149349190Y-89079897D01*
X149478865Y-88996454D01*
X149565859Y-88869134D01*
X149596464Y-88718000D01*
X149596464Y-87718000D01*
X149569897Y-87576810D01*
X149486454Y-87447135D01*
X149359134Y-87360141D01*
X149208000Y-87329536D01*
X147208000Y-87329536D01*
X147066810Y-87356103D01*
X146937135Y-87439546D01*
X146926032Y-87455796D01*
X146379118Y-86908882D01*
X146223071Y-86804614D01*
X146211573Y-86802327D01*
X146039000Y-86768000D01*
X133843000Y-86768000D01*
X133843000Y-86503750D01*
X133684250Y-86345000D01*
X132335000Y-86345000D01*
X132335000Y-86365000D01*
X132081000Y-86365000D01*
X132081000Y-86345000D01*
X130731750Y-86345000D01*
X130573000Y-86503750D01*
X130573000Y-86768000D01*
X126451780Y-86768000D01*
X126440540Y-86756740D01*
X126227075Y-86668102D01*
X125995939Y-86667900D01*
X125782320Y-86756165D01*
X125618740Y-86919460D01*
X125530102Y-87132925D01*
X125529900Y-87364061D01*
X125618165Y-87577680D01*
X125781460Y-87741260D01*
X125994925Y-87829898D01*
X126226061Y-87830100D01*
X126439680Y-87741835D01*
X126451536Y-87730000D01*
X130819536Y-87730000D01*
X130819536Y-87737000D01*
X129789110Y-87737000D01*
X129605039Y-87773614D01*
X129498203Y-87845000D01*
X129448992Y-87877882D01*
X129322555Y-88004319D01*
X129306644Y-88004305D01*
X129093025Y-88092570D01*
X128929445Y-88255865D01*
X128840807Y-88469330D01*
X128840605Y-88700466D01*
X128928870Y-88914085D01*
X129092165Y-89077665D01*
X129305630Y-89166303D01*
X129536766Y-89166505D01*
X129750385Y-89078240D01*
X129913965Y-88914945D01*
X130002603Y-88701480D01*
X130002605Y-88699000D01*
X130819536Y-88699000D01*
X130819536Y-88708598D01*
X130799075Y-88700102D01*
X130567939Y-88699900D01*
X130354320Y-88788165D01*
X130190740Y-88951460D01*
X130102102Y-89164925D01*
X130101900Y-89396061D01*
X130190165Y-89609680D01*
X130317263Y-89737000D01*
X129914237Y-89737000D01*
X129499118Y-89321882D01*
X129343071Y-89217614D01*
X129327989Y-89214614D01*
X129159000Y-89181000D01*
X118763236Y-89181000D01*
X118944236Y-89000000D01*
X119253000Y-89000000D01*
X119437071Y-88963386D01*
X119593118Y-88859118D01*
X119720118Y-88732118D01*
X119824386Y-88576071D01*
X119845618Y-88469330D01*
X119861000Y-88392000D01*
X119861000Y-88132519D01*
X119896190Y-88125897D01*
X120025865Y-88042454D01*
X120112859Y-87915134D01*
X120143464Y-87764000D01*
X120143464Y-86964000D01*
X120116897Y-86822810D01*
X120106028Y-86805919D01*
X120114699Y-86802327D01*
X120293327Y-86623698D01*
X120390000Y-86390309D01*
X120390000Y-86149750D01*
X120231250Y-85991000D01*
X119507000Y-85991000D01*
X119507000Y-86011000D01*
X119253000Y-86011000D01*
X119253000Y-85991000D01*
X118528750Y-85991000D01*
X118370000Y-86149750D01*
X118370000Y-86390309D01*
X118466673Y-86623698D01*
X118645301Y-86802327D01*
X118652348Y-86805246D01*
X118647141Y-86812866D01*
X118616536Y-86964000D01*
X118616536Y-87764000D01*
X118643103Y-87905190D01*
X118726546Y-88034865D01*
X118734261Y-88040136D01*
X118560929Y-88074614D01*
X118425658Y-88165000D01*
X118404882Y-88178882D01*
X116846764Y-89737000D01*
X116719223Y-89737000D01*
X116713524Y-89706712D01*
X117193150Y-89227086D01*
X117209061Y-89227100D01*
X117422680Y-89138835D01*
X117586260Y-88975540D01*
X117674898Y-88762075D01*
X117675100Y-88530939D01*
X117616891Y-88390061D01*
X117828699Y-88302327D01*
X118007327Y-88123698D01*
X118104000Y-87890309D01*
X118104000Y-87649750D01*
X117945250Y-87491000D01*
X117221000Y-87491000D01*
X117221000Y-87511000D01*
X116967000Y-87511000D01*
X116967000Y-87491000D01*
X116242750Y-87491000D01*
X116142750Y-87591000D01*
X115273000Y-87591000D01*
X115273000Y-87611000D01*
X115019000Y-87611000D01*
X115019000Y-87591000D01*
X114999000Y-87591000D01*
X114999000Y-87337000D01*
X115019000Y-87337000D01*
X115019000Y-87317000D01*
X115273000Y-87317000D01*
X115273000Y-87337000D01*
X116322250Y-87337000D01*
X116422250Y-87237000D01*
X116967000Y-87237000D01*
X116967000Y-87217000D01*
X117221000Y-87217000D01*
X117221000Y-87237000D01*
X117945250Y-87237000D01*
X118104000Y-87078250D01*
X118104000Y-86837691D01*
X118007327Y-86604302D01*
X117828699Y-86425673D01*
X117821652Y-86422754D01*
X117826859Y-86415134D01*
X117857464Y-86264000D01*
X117857464Y-85464000D01*
X117833698Y-85337691D01*
X118370000Y-85337691D01*
X118370000Y-85578250D01*
X118528750Y-85737000D01*
X119253000Y-85737000D01*
X119253000Y-84987750D01*
X119507000Y-84987750D01*
X119507000Y-85737000D01*
X120231250Y-85737000D01*
X120390000Y-85578250D01*
X120390000Y-85414000D01*
X120623536Y-85414000D01*
X120623536Y-86214000D01*
X120650103Y-86355190D01*
X120733546Y-86484865D01*
X120831055Y-86551490D01*
X120830945Y-86677755D01*
X120741135Y-86735546D01*
X120654141Y-86862866D01*
X120623536Y-87014000D01*
X120623536Y-87814000D01*
X120650103Y-87955190D01*
X120733546Y-88084865D01*
X120860866Y-88171859D01*
X121012000Y-88202464D01*
X121812000Y-88202464D01*
X121953190Y-88175897D01*
X122082865Y-88092454D01*
X122169859Y-87965134D01*
X122179141Y-87919300D01*
X122201673Y-87973698D01*
X122380301Y-88152327D01*
X122613690Y-88249000D01*
X122904250Y-88249000D01*
X123063000Y-88090250D01*
X123063000Y-87489000D01*
X123317000Y-87489000D01*
X123317000Y-88090250D01*
X123475750Y-88249000D01*
X123766310Y-88249000D01*
X123999699Y-88152327D01*
X124178327Y-87973698D01*
X124275000Y-87740309D01*
X124275000Y-87647750D01*
X124116250Y-87489000D01*
X123317000Y-87489000D01*
X123063000Y-87489000D01*
X123043000Y-87489000D01*
X123043000Y-87239000D01*
X123063000Y-87239000D01*
X123063000Y-87217000D01*
X123317000Y-87217000D01*
X123317000Y-87239000D01*
X124116250Y-87239000D01*
X124275000Y-87080250D01*
X124275000Y-86987691D01*
X124178327Y-86754302D01*
X123999699Y-86575673D01*
X123766310Y-86479000D01*
X123764699Y-86479000D01*
X123781190Y-86475897D01*
X123910865Y-86392454D01*
X123997859Y-86265134D01*
X124028464Y-86114000D01*
X124028464Y-85614000D01*
X124024267Y-85591690D01*
X130573000Y-85591690D01*
X130573000Y-85932250D01*
X130731750Y-86091000D01*
X132081000Y-86091000D01*
X132081000Y-85241750D01*
X132335000Y-85241750D01*
X132335000Y-86091000D01*
X133684250Y-86091000D01*
X133843000Y-85932250D01*
X133843000Y-85591690D01*
X133746327Y-85358301D01*
X133567698Y-85179673D01*
X133334309Y-85083000D01*
X132493750Y-85083000D01*
X132335000Y-85241750D01*
X132081000Y-85241750D01*
X131922250Y-85083000D01*
X131081691Y-85083000D01*
X130848302Y-85179673D01*
X130669673Y-85358301D01*
X130573000Y-85591690D01*
X124024267Y-85591690D01*
X124001897Y-85472810D01*
X123918454Y-85343135D01*
X123791134Y-85256141D01*
X123640000Y-85225536D01*
X122740000Y-85225536D01*
X122598810Y-85252103D01*
X122473092Y-85333000D01*
X122185223Y-85333000D01*
X122173897Y-85272810D01*
X122090454Y-85143135D01*
X121963134Y-85056141D01*
X121812000Y-85025536D01*
X121012000Y-85025536D01*
X120870810Y-85052103D01*
X120741135Y-85135546D01*
X120654141Y-85262866D01*
X120623536Y-85414000D01*
X120390000Y-85414000D01*
X120390000Y-85337691D01*
X120293327Y-85104302D01*
X120114699Y-84925673D01*
X119881310Y-84829000D01*
X119665750Y-84829000D01*
X119507000Y-84987750D01*
X119253000Y-84987750D01*
X119094250Y-84829000D01*
X118878690Y-84829000D01*
X118645301Y-84925673D01*
X118466673Y-85104302D01*
X118370000Y-85337691D01*
X117833698Y-85337691D01*
X117830897Y-85322810D01*
X117747454Y-85193135D01*
X117620134Y-85106141D01*
X117469000Y-85075536D01*
X116719000Y-85075536D01*
X116577810Y-85102103D01*
X116448135Y-85185546D01*
X116381548Y-85283000D01*
X116234464Y-85283000D01*
X116234464Y-85164000D01*
X116207897Y-85022810D01*
X116124454Y-84893135D01*
X115997134Y-84806141D01*
X115846000Y-84775536D01*
X114446000Y-84775536D01*
X114304810Y-84802103D01*
X114208963Y-84863778D01*
X114184327Y-84804301D01*
X114005698Y-84625673D01*
X113772309Y-84529000D01*
X113231750Y-84529000D01*
X113073000Y-84687750D01*
X113073000Y-85637000D01*
X113093000Y-85637000D01*
X113093000Y-85891000D01*
X113073000Y-85891000D01*
X113073000Y-85911000D01*
X112819000Y-85911000D01*
X112819000Y-85891000D01*
X111769750Y-85891000D01*
X111669750Y-85991000D01*
X111125000Y-85991000D01*
X111125000Y-86011000D01*
X110871000Y-86011000D01*
X110871000Y-85991000D01*
X110146750Y-85991000D01*
X110120493Y-86017257D01*
X109627118Y-85523882D01*
X109471071Y-85419614D01*
X109466958Y-85418796D01*
X109451698Y-85337691D01*
X109988000Y-85337691D01*
X109988000Y-85578250D01*
X110146750Y-85737000D01*
X110871000Y-85737000D01*
X110871000Y-84987750D01*
X111125000Y-84987750D01*
X111125000Y-85737000D01*
X111849250Y-85737000D01*
X111949250Y-85637000D01*
X112819000Y-85637000D01*
X112819000Y-84687750D01*
X112660250Y-84529000D01*
X112119691Y-84529000D01*
X111886302Y-84625673D01*
X111707673Y-84804301D01*
X111668426Y-84899050D01*
X111499310Y-84829000D01*
X111283750Y-84829000D01*
X111125000Y-84987750D01*
X110871000Y-84987750D01*
X110712250Y-84829000D01*
X110496690Y-84829000D01*
X110263301Y-84925673D01*
X110084673Y-85104302D01*
X109988000Y-85337691D01*
X109451698Y-85337691D01*
X109448897Y-85322810D01*
X109365454Y-85193135D01*
X109238134Y-85106141D01*
X109087000Y-85075536D01*
X108337000Y-85075536D01*
X108195810Y-85102103D01*
X108066135Y-85185546D01*
X107979141Y-85312866D01*
X107964939Y-85383000D01*
X107561106Y-85383000D01*
X107535454Y-85343135D01*
X107408134Y-85256141D01*
X107257000Y-85225536D01*
X106357000Y-85225536D01*
X106215810Y-85252103D01*
X106086135Y-85335546D01*
X105999141Y-85462866D01*
X105968536Y-85614000D01*
X105968536Y-86114000D01*
X105995103Y-86255190D01*
X106078546Y-86384865D01*
X106205866Y-86471859D01*
X106357000Y-86502464D01*
X107257000Y-86502464D01*
X107398190Y-86475897D01*
X107527865Y-86392454D01*
X107560289Y-86345000D01*
X107963777Y-86345000D01*
X107975103Y-86405190D01*
X108058546Y-86534865D01*
X108175798Y-86614980D01*
X108066135Y-86685546D01*
X107979141Y-86812866D01*
X107964939Y-86883000D01*
X107561106Y-86883000D01*
X107535454Y-86843135D01*
X107408134Y-86756141D01*
X107257000Y-86725536D01*
X106357000Y-86725536D01*
X106215810Y-86752103D01*
X106086135Y-86835546D01*
X106053711Y-86883000D01*
X105650223Y-86883000D01*
X105638897Y-86822810D01*
X105628028Y-86805919D01*
X105636699Y-86802327D01*
X105815327Y-86623698D01*
X105912000Y-86390309D01*
X105912000Y-86149750D01*
X105753250Y-85991000D01*
X105029000Y-85991000D01*
X105029000Y-86011000D01*
X104775000Y-86011000D01*
X104775000Y-85991000D01*
X104050750Y-85991000D01*
X103949500Y-86092250D01*
X103848250Y-85991000D01*
X103124000Y-85991000D01*
X103124000Y-86011000D01*
X102870000Y-86011000D01*
X102870000Y-85991000D01*
X102145750Y-85991000D01*
X102108000Y-86028750D01*
X102070250Y-85991000D01*
X101346000Y-85991000D01*
X101346000Y-86011000D01*
X101092000Y-86011000D01*
X101092000Y-85991000D01*
X100367750Y-85991000D01*
X100336000Y-86022750D01*
X100292250Y-85979000D01*
X99568000Y-85979000D01*
X99568000Y-85999000D01*
X99314000Y-85999000D01*
X99314000Y-85979000D01*
X98589750Y-85979000D01*
X98431000Y-86137750D01*
X98431000Y-86378309D01*
X98527673Y-86611698D01*
X98706301Y-86790327D01*
X98713348Y-86793246D01*
X98708141Y-86800866D01*
X98677536Y-86952000D01*
X98677536Y-87752000D01*
X98704103Y-87893190D01*
X98787546Y-88022865D01*
X98914866Y-88109859D01*
X99066000Y-88140464D01*
X99816000Y-88140464D01*
X99957190Y-88113897D01*
X100086865Y-88030454D01*
X100173859Y-87903134D01*
X100204464Y-87752000D01*
X100204464Y-87095000D01*
X100455536Y-87095000D01*
X100455536Y-87764000D01*
X100482103Y-87905190D01*
X100565546Y-88034865D01*
X100688000Y-88118534D01*
X100688000Y-88519000D01*
X100728420Y-88722205D01*
X100843526Y-88894474D01*
X101057477Y-89108424D01*
X101107165Y-89228680D01*
X101270460Y-89392260D01*
X101483925Y-89480898D01*
X101715061Y-89481100D01*
X101928680Y-89392835D01*
X102092260Y-89229540D01*
X102180898Y-89016075D01*
X102181100Y-88784939D01*
X102092835Y-88571320D01*
X101929540Y-88407740D01*
X101808376Y-88357429D01*
X101750000Y-88299052D01*
X101750000Y-88116367D01*
X101864865Y-88042454D01*
X101951859Y-87915134D01*
X101955936Y-87895000D01*
X102258186Y-87895000D01*
X102260103Y-87905190D01*
X102343546Y-88034865D01*
X102470866Y-88121859D01*
X102622000Y-88152464D01*
X103372000Y-88152464D01*
X103513190Y-88125897D01*
X103532000Y-88113793D01*
X103532000Y-88392000D01*
X103547382Y-88469330D01*
X103568614Y-88576071D01*
X103672882Y-88732118D01*
X104086369Y-89145605D01*
X103913673Y-89318302D01*
X103817000Y-89551691D01*
X103817000Y-89644250D01*
X103975750Y-89803000D01*
X104775000Y-89803000D01*
X104775000Y-89781000D01*
X105029000Y-89781000D01*
X105029000Y-89803000D01*
X105828250Y-89803000D01*
X105987000Y-89644250D01*
X105987000Y-89551691D01*
X105916297Y-89381000D01*
X108131764Y-89381000D01*
X109287763Y-90537000D01*
X105890616Y-90537000D01*
X105987000Y-90304309D01*
X105987000Y-90211750D01*
X105828250Y-90053000D01*
X105029000Y-90053000D01*
X105029000Y-90075000D01*
X104775000Y-90075000D01*
X104775000Y-90053000D01*
X103975750Y-90053000D01*
X103817000Y-90211750D01*
X103817000Y-90304309D01*
X103913673Y-90537698D01*
X103922975Y-90547000D01*
X102870000Y-90547000D01*
X102532856Y-90614062D01*
X102432049Y-90681419D01*
X102316810Y-90703103D01*
X102187135Y-90786546D01*
X102107020Y-90903798D01*
X102036454Y-90794135D01*
X101909134Y-90707141D01*
X101776199Y-90680221D01*
X101695144Y-90626062D01*
X101358000Y-90559000D01*
X100407636Y-90559000D01*
X100451000Y-90454309D01*
X100451000Y-90213750D01*
X100292250Y-90055000D01*
X99568000Y-90055000D01*
X99568000Y-90075000D01*
X99314000Y-90075000D01*
X99314000Y-90055000D01*
X98589750Y-90055000D01*
X98431000Y-90213750D01*
X98431000Y-90454309D01*
X98469394Y-90547000D01*
X93725464Y-90547000D01*
X93725464Y-90254000D01*
X94026250Y-90254000D01*
X94185000Y-90095250D01*
X94185000Y-88646000D01*
X94439000Y-88646000D01*
X94439000Y-90095250D01*
X94597750Y-90254000D01*
X94963309Y-90254000D01*
X95196698Y-90157327D01*
X95375327Y-89978699D01*
X95472000Y-89745310D01*
X95472000Y-89401691D01*
X98431000Y-89401691D01*
X98431000Y-89642250D01*
X98589750Y-89801000D01*
X99314000Y-89801000D01*
X99314000Y-89051750D01*
X99568000Y-89051750D01*
X99568000Y-89801000D01*
X100292250Y-89801000D01*
X100451000Y-89642250D01*
X100451000Y-89401691D01*
X100354327Y-89168302D01*
X100175699Y-88989673D01*
X99942310Y-88893000D01*
X99726750Y-88893000D01*
X99568000Y-89051750D01*
X99314000Y-89051750D01*
X99155250Y-88893000D01*
X98939690Y-88893000D01*
X98706301Y-88989673D01*
X98527673Y-89168302D01*
X98431000Y-89401691D01*
X95472000Y-89401691D01*
X95472000Y-88804750D01*
X95313250Y-88646000D01*
X94439000Y-88646000D01*
X94185000Y-88646000D01*
X94165000Y-88646000D01*
X94165000Y-88392000D01*
X94185000Y-88392000D01*
X94185000Y-86942750D01*
X94439000Y-86942750D01*
X94439000Y-88392000D01*
X95313250Y-88392000D01*
X95472000Y-88233250D01*
X95472000Y-87292690D01*
X95375327Y-87059301D01*
X95196698Y-86880673D01*
X94963309Y-86784000D01*
X94597750Y-86784000D01*
X94439000Y-86942750D01*
X94185000Y-86942750D01*
X94026250Y-86784000D01*
X93660691Y-86784000D01*
X93427302Y-86880673D01*
X93248673Y-87059301D01*
X93170097Y-87249000D01*
X92503903Y-87249000D01*
X92425327Y-87059301D01*
X92246698Y-86880673D01*
X92013309Y-86784000D01*
X91647750Y-86784000D01*
X91489000Y-86942750D01*
X91489000Y-88392000D01*
X91509000Y-88392000D01*
X91509000Y-88646000D01*
X91489000Y-88646000D01*
X91489000Y-90095250D01*
X91647750Y-90254000D01*
X91948536Y-90254000D01*
X91948536Y-90547000D01*
X87127000Y-90547000D01*
X87127000Y-88804750D01*
X90202000Y-88804750D01*
X90202000Y-89745310D01*
X90298673Y-89978699D01*
X90477302Y-90157327D01*
X90710691Y-90254000D01*
X91076250Y-90254000D01*
X91235000Y-90095250D01*
X91235000Y-88646000D01*
X90360750Y-88646000D01*
X90202000Y-88804750D01*
X87127000Y-88804750D01*
X87127000Y-87292690D01*
X90202000Y-87292690D01*
X90202000Y-88233250D01*
X90360750Y-88392000D01*
X91235000Y-88392000D01*
X91235000Y-86942750D01*
X91076250Y-86784000D01*
X90710691Y-86784000D01*
X90477302Y-86880673D01*
X90298673Y-87059301D01*
X90202000Y-87292690D01*
X87127000Y-87292690D01*
X87127000Y-85325691D01*
X98431000Y-85325691D01*
X98431000Y-85566250D01*
X98589750Y-85725000D01*
X99314000Y-85725000D01*
X99314000Y-84975750D01*
X99568000Y-84975750D01*
X99568000Y-85725000D01*
X100292250Y-85725000D01*
X100324000Y-85693250D01*
X100367750Y-85737000D01*
X101092000Y-85737000D01*
X101092000Y-84987750D01*
X101346000Y-84987750D01*
X101346000Y-85737000D01*
X102070250Y-85737000D01*
X102108000Y-85699250D01*
X102145750Y-85737000D01*
X102870000Y-85737000D01*
X102870000Y-84987750D01*
X103124000Y-84987750D01*
X103124000Y-85737000D01*
X103848250Y-85737000D01*
X103949500Y-85635750D01*
X104050750Y-85737000D01*
X104775000Y-85737000D01*
X104775000Y-84987750D01*
X105029000Y-84987750D01*
X105029000Y-85737000D01*
X105753250Y-85737000D01*
X105912000Y-85578250D01*
X105912000Y-85337691D01*
X105815327Y-85104302D01*
X105636699Y-84925673D01*
X105403310Y-84829000D01*
X105187750Y-84829000D01*
X105029000Y-84987750D01*
X104775000Y-84987750D01*
X104616250Y-84829000D01*
X104400690Y-84829000D01*
X104167301Y-84925673D01*
X103988673Y-85104302D01*
X103949500Y-85198874D01*
X103910327Y-85104302D01*
X103731699Y-84925673D01*
X103498310Y-84829000D01*
X103282750Y-84829000D01*
X103124000Y-84987750D01*
X102870000Y-84987750D01*
X102711250Y-84829000D01*
X102495690Y-84829000D01*
X102262301Y-84925673D01*
X102108000Y-85079975D01*
X101953699Y-84925673D01*
X101720310Y-84829000D01*
X101504750Y-84829000D01*
X101346000Y-84987750D01*
X101092000Y-84987750D01*
X100933250Y-84829000D01*
X100717690Y-84829000D01*
X100484301Y-84925673D01*
X100336000Y-85073975D01*
X100175699Y-84913673D01*
X99942310Y-84817000D01*
X99726750Y-84817000D01*
X99568000Y-84975750D01*
X99314000Y-84975750D01*
X99155250Y-84817000D01*
X98939690Y-84817000D01*
X98706301Y-84913673D01*
X98527673Y-85092302D01*
X98431000Y-85325691D01*
X87127000Y-85325691D01*
X87127000Y-82835750D01*
X99607000Y-82835750D01*
X99607000Y-83526309D01*
X99703673Y-83759698D01*
X99882301Y-83938327D01*
X100115690Y-84035000D01*
X100806250Y-84035000D01*
X100965000Y-83876250D01*
X100965000Y-82677000D01*
X99765750Y-82677000D01*
X99607000Y-82835750D01*
X87127000Y-82835750D01*
X87127000Y-81456000D01*
X99655749Y-81456000D01*
X99607000Y-81573691D01*
X99607000Y-81573691D01*
G37*
X99607000Y-81573691D02*
X99607000Y-82264250D01*
X99765750Y-82423000D01*
X100965000Y-82423000D01*
X100965000Y-82403000D01*
X101219000Y-82403000D01*
X101219000Y-82423000D01*
X101239000Y-82423000D01*
X101239000Y-82677000D01*
X101219000Y-82677000D01*
X101219000Y-83876250D01*
X101377750Y-84035000D01*
X102068310Y-84035000D01*
X102301699Y-83938327D01*
X102480327Y-83759698D01*
X102577000Y-83526309D01*
X102577000Y-83168364D01*
X102761552Y-83444565D01*
X103160917Y-83711413D01*
X103632000Y-83805117D01*
X104103083Y-83711413D01*
X104502448Y-83444565D01*
X104769296Y-83045200D01*
X104863000Y-82574117D01*
X104863000Y-82525883D01*
X104769296Y-82054800D01*
X104502448Y-81655435D01*
X104203973Y-81456000D01*
X105600027Y-81456000D01*
X105301552Y-81655435D01*
X105034704Y-82054800D01*
X104941000Y-82525883D01*
X104941000Y-82574117D01*
X105034704Y-83045200D01*
X105301552Y-83444565D01*
X105700917Y-83711413D01*
X106172000Y-83805117D01*
X106643083Y-83711413D01*
X107042448Y-83444565D01*
X107309296Y-83045200D01*
X107403000Y-82574117D01*
X107403000Y-82525883D01*
X107309296Y-82054800D01*
X107042448Y-81655435D01*
X106743973Y-81456000D01*
X108140027Y-81456000D01*
X107841552Y-81655435D01*
X107574704Y-82054800D01*
X107481000Y-82525883D01*
X107481000Y-82574117D01*
X107574704Y-83045200D01*
X107841552Y-83444565D01*
X108240917Y-83711413D01*
X108712000Y-83805117D01*
X109183083Y-83711413D01*
X109582448Y-83444565D01*
X109849296Y-83045200D01*
X109943000Y-82574117D01*
X109943000Y-82525883D01*
X109849296Y-82054800D01*
X109582448Y-81655435D01*
X109283973Y-81456000D01*
X110680027Y-81456000D01*
X110381552Y-81655435D01*
X110114704Y-82054800D01*
X110021000Y-82525883D01*
X110021000Y-82574117D01*
X110114704Y-83045200D01*
X110381552Y-83444565D01*
X110780917Y-83711413D01*
X111252000Y-83805117D01*
X111723083Y-83711413D01*
X112122448Y-83444565D01*
X112389296Y-83045200D01*
X112483000Y-82574117D01*
X112483000Y-82525883D01*
X112389296Y-82054800D01*
X112122448Y-81655435D01*
X111823973Y-81456000D01*
X113220027Y-81456000D01*
X112921552Y-81655435D01*
X112654704Y-82054800D01*
X112561000Y-82525883D01*
X112561000Y-82574117D01*
X112654704Y-83045200D01*
X112921552Y-83444565D01*
X113320917Y-83711413D01*
X113792000Y-83805117D01*
X114263083Y-83711413D01*
X114662448Y-83444565D01*
X114929296Y-83045200D01*
X115023000Y-82574117D01*
X115023000Y-82525883D01*
X114929296Y-82054800D01*
X114662448Y-81655435D01*
X114363973Y-81456000D01*
X115760027Y-81456000D01*
X115461552Y-81655435D01*
X115194704Y-82054800D01*
X115101000Y-82525883D01*
X115101000Y-82574117D01*
X115194704Y-83045200D01*
X115461552Y-83444565D01*
X115860917Y-83711413D01*
X116332000Y-83805117D01*
X116803083Y-83711413D01*
X117202448Y-83444565D01*
X117469296Y-83045200D01*
X117563000Y-82574117D01*
X117563000Y-82525883D01*
X117469296Y-82054800D01*
X117202448Y-81655435D01*
X116903973Y-81456000D01*
X118300027Y-81456000D01*
X118001552Y-81655435D01*
X117734704Y-82054800D01*
X117641000Y-82525883D01*
X117641000Y-82574117D01*
X117734704Y-83045200D01*
X118001552Y-83444565D01*
X118400917Y-83711413D01*
X118872000Y-83805117D01*
X119343083Y-83711413D01*
X119349134Y-83707370D01*
X119928881Y-84287118D01*
X120084929Y-84391386D01*
X120269000Y-84428000D01*
X137976764Y-84428000D01*
X140106882Y-86558118D01*
X140262929Y-86662386D01*
X140447000Y-86699000D01*
X146819536Y-86699000D01*
X146819536Y-86718000D01*
X146846103Y-86859190D01*
X146929546Y-86988865D01*
X147056866Y-87075859D01*
X147208000Y-87106464D01*
X149208000Y-87106464D01*
X149349190Y-87079897D01*
X149478865Y-86996454D01*
X149565859Y-86869134D01*
X149596464Y-86718000D01*
X149596464Y-85718000D01*
X149569897Y-85576810D01*
X149486454Y-85447135D01*
X149359134Y-85360141D01*
X149208000Y-85329536D01*
X147208000Y-85329536D01*
X147066810Y-85356103D01*
X146937135Y-85439546D01*
X146850141Y-85566866D01*
X146819536Y-85718000D01*
X146819536Y-85737000D01*
X140646236Y-85737000D01*
X138516118Y-83606882D01*
X138360071Y-83502614D01*
X138176000Y-83466000D01*
X137490368Y-83466000D01*
X137522448Y-83444565D01*
X137789296Y-83045200D01*
X137883000Y-82574117D01*
X137883000Y-82525883D01*
X137789296Y-82054800D01*
X137522448Y-81655435D01*
X137223973Y-81456000D01*
X138620027Y-81456000D01*
X138321552Y-81655435D01*
X138054704Y-82054800D01*
X137961000Y-82525883D01*
X137961000Y-82574117D01*
X138054704Y-83045200D01*
X138321552Y-83444565D01*
X138720917Y-83711413D01*
X139192000Y-83805117D01*
X139663083Y-83711413D01*
X140062448Y-83444565D01*
X140329296Y-83045200D01*
X140423000Y-82574117D01*
X140423000Y-82525883D01*
X140329296Y-82054800D01*
X140062448Y-81655435D01*
X139763973Y-81456000D01*
X152873000Y-81456000D01*
X152873000Y-99337000D01*
X149372936Y-99337000D01*
X149567698Y-99256327D01*
X149746327Y-99077699D01*
X149843000Y-98844310D01*
X149843000Y-98503750D01*
X149684250Y-98345000D01*
X148335000Y-98345000D01*
X148335000Y-98365000D01*
X148081000Y-98365000D01*
X148081000Y-98345000D01*
X146731750Y-98345000D01*
X146573000Y-98503750D01*
X146573000Y-98844310D01*
X146669673Y-99077699D01*
X146848302Y-99256327D01*
X147081691Y-99353000D01*
X147083301Y-99353000D01*
X147066810Y-99356103D01*
X146937135Y-99439546D01*
X146850141Y-99566866D01*
X146819536Y-99718000D01*
X146819536Y-100718000D01*
X146846103Y-100859190D01*
X146929546Y-100988865D01*
X147056866Y-101075859D01*
X147208000Y-101106464D01*
X147327000Y-101106464D01*
X147327000Y-102312079D01*
X147320536Y-102344000D01*
X147320536Y-102659000D01*
X147019750Y-102659000D01*
X146861000Y-102817750D01*
X146861000Y-104267000D01*
X146881000Y-104267000D01*
X146881000Y-104521000D01*
X146861000Y-104521000D01*
X146861000Y-105970250D01*
X147019750Y-106129000D01*
X147385309Y-106129000D01*
X147618698Y-106032327D01*
X147797327Y-105853699D01*
X147823298Y-105791000D01*
X148594702Y-105791000D01*
X148620673Y-105853699D01*
X148799302Y-106032327D01*
X149032691Y-106129000D01*
X149398250Y-106129000D01*
X149557000Y-105970250D01*
X149557000Y-104521000D01*
X149811000Y-104521000D01*
X149811000Y-105970250D01*
X149969750Y-106129000D01*
X150335309Y-106129000D01*
X150568698Y-106032327D01*
X150747327Y-105853699D01*
X150844000Y-105620310D01*
X150844000Y-104679750D01*
X150685250Y-104521000D01*
X149811000Y-104521000D01*
X149557000Y-104521000D01*
X149537000Y-104521000D01*
X149537000Y-104267000D01*
X149557000Y-104267000D01*
X149557000Y-102817750D01*
X149811000Y-102817750D01*
X149811000Y-104267000D01*
X150685250Y-104267000D01*
X150844000Y-104108250D01*
X150844000Y-103167690D01*
X150747327Y-102934301D01*
X150568698Y-102755673D01*
X150335309Y-102659000D01*
X149969750Y-102659000D01*
X149811000Y-102817750D01*
X149557000Y-102817750D01*
X149398250Y-102659000D01*
X149097464Y-102659000D01*
X149097464Y-102344000D01*
X149089000Y-102299018D01*
X149089000Y-101106464D01*
X149208000Y-101106464D01*
X149247667Y-101099000D01*
X152873000Y-101099000D01*
X152873000Y-106544000D01*
X139704109Y-106544000D01*
X140062448Y-106304565D01*
X140329296Y-105905200D01*
X140423000Y-105434117D01*
X140423000Y-105385883D01*
X140329296Y-104914800D01*
X140172241Y-104679750D01*
X145574000Y-104679750D01*
X145574000Y-105620310D01*
X145670673Y-105853699D01*
X145849302Y-106032327D01*
X146082691Y-106129000D01*
X146448250Y-106129000D01*
X146607000Y-105970250D01*
X146607000Y-104521000D01*
X145732750Y-104521000D01*
X145574000Y-104679750D01*
X140172241Y-104679750D01*
X140062448Y-104515435D01*
X139663083Y-104248587D01*
X139192000Y-104154883D01*
X138720917Y-104248587D01*
X138321552Y-104515435D01*
X138054704Y-104914800D01*
X137961000Y-105385883D01*
X137961000Y-105434117D01*
X138054704Y-105905200D01*
X138321552Y-106304565D01*
X138679891Y-106544000D01*
X137164109Y-106544000D01*
X137522448Y-106304565D01*
X137789296Y-105905200D01*
X137883000Y-105434117D01*
X137883000Y-105385883D01*
X137789296Y-104914800D01*
X137522448Y-104515435D01*
X137123083Y-104248587D01*
X136652000Y-104154883D01*
X136180917Y-104248587D01*
X135781552Y-104515435D01*
X135514704Y-104914800D01*
X135421000Y-105385883D01*
X135421000Y-105434117D01*
X135514704Y-105905200D01*
X135781552Y-106304565D01*
X136139891Y-106544000D01*
X134624109Y-106544000D01*
X134982448Y-106304565D01*
X135249296Y-105905200D01*
X135343000Y-105434117D01*
X135343000Y-105385883D01*
X135249296Y-104914800D01*
X134982448Y-104515435D01*
X134583083Y-104248587D01*
X134112000Y-104154883D01*
X133640917Y-104248587D01*
X133241552Y-104515435D01*
X132974704Y-104914800D01*
X132881000Y-105385883D01*
X132881000Y-105434117D01*
X132974704Y-105905200D01*
X133241552Y-106304565D01*
X133599891Y-106544000D01*
X132084109Y-106544000D01*
X132442448Y-106304565D01*
X132709296Y-105905200D01*
X132803000Y-105434117D01*
X132803000Y-105385883D01*
X132709296Y-104914800D01*
X132442448Y-104515435D01*
X132043083Y-104248587D01*
X131572000Y-104154883D01*
X131100917Y-104248587D01*
X130701552Y-104515435D01*
X130434704Y-104914800D01*
X130341000Y-105385883D01*
X130341000Y-105434117D01*
X130434704Y-105905200D01*
X130701552Y-106304565D01*
X131059891Y-106544000D01*
X129544109Y-106544000D01*
X129902448Y-106304565D01*
X130169296Y-105905200D01*
X130263000Y-105434117D01*
X130263000Y-105385883D01*
X130169296Y-104914800D01*
X129902448Y-104515435D01*
X129503083Y-104248587D01*
X129032000Y-104154883D01*
X128560917Y-104248587D01*
X128161552Y-104515435D01*
X127894704Y-104914800D01*
X127886917Y-104953947D01*
X127687183Y-104528642D01*
X127258924Y-104138355D01*
X126848890Y-103968524D01*
X126619000Y-104089845D01*
X126619000Y-105283000D01*
X126639000Y-105283000D01*
X126639000Y-105537000D01*
X126619000Y-105537000D01*
X126619000Y-105557000D01*
X126365000Y-105557000D01*
X126365000Y-105537000D01*
X126345000Y-105537000D01*
X126345000Y-105283000D01*
X126365000Y-105283000D01*
X126365000Y-104089845D01*
X126135110Y-103968524D01*
X125725076Y-104138355D01*
X125296817Y-104528642D01*
X125097083Y-104953947D01*
X125089296Y-104914800D01*
X124961000Y-104722792D01*
X124961000Y-103167690D01*
X145574000Y-103167690D01*
X145574000Y-104108250D01*
X145732750Y-104267000D01*
X146607000Y-104267000D01*
X146607000Y-102817750D01*
X146448250Y-102659000D01*
X146082691Y-102659000D01*
X145849302Y-102755673D01*
X145670673Y-102934301D01*
X145574000Y-103167690D01*
X124961000Y-103167690D01*
X124961000Y-102201459D01*
X125001190Y-102193897D01*
X125010354Y-102188000D01*
X125291536Y-102188000D01*
X125291536Y-102307000D01*
X125318103Y-102448190D01*
X125401546Y-102577865D01*
X125528866Y-102664859D01*
X125680000Y-102695464D01*
X127630000Y-102695464D01*
X127771190Y-102668897D01*
X127867037Y-102607222D01*
X127891673Y-102666699D01*
X128070302Y-102845327D01*
X128303691Y-102942000D01*
X129119250Y-102942000D01*
X129278000Y-102783250D01*
X129278000Y-101684000D01*
X129532000Y-101684000D01*
X129532000Y-102783250D01*
X129690750Y-102942000D01*
X130506309Y-102942000D01*
X130739698Y-102845327D01*
X130918327Y-102666699D01*
X131015000Y-102433310D01*
X131015000Y-101842750D01*
X130856250Y-101684000D01*
X129532000Y-101684000D01*
X129278000Y-101684000D01*
X129258000Y-101684000D01*
X129258000Y-101430000D01*
X129278000Y-101430000D01*
X129278000Y-100330750D01*
X129532000Y-100330750D01*
X129532000Y-101430000D01*
X130856250Y-101430000D01*
X130976727Y-101309523D01*
X131081691Y-101353000D01*
X131922250Y-101353000D01*
X132081000Y-101194250D01*
X132081000Y-100345000D01*
X132335000Y-100345000D01*
X132335000Y-101194250D01*
X132493750Y-101353000D01*
X133334309Y-101353000D01*
X133567698Y-101256327D01*
X133746327Y-101077699D01*
X133843000Y-100844310D01*
X133843000Y-100503750D01*
X133684250Y-100345000D01*
X132335000Y-100345000D01*
X132081000Y-100345000D01*
X132061000Y-100345000D01*
X132061000Y-100091000D01*
X132081000Y-100091000D01*
X132081000Y-100071000D01*
X132335000Y-100071000D01*
X132335000Y-100091000D01*
X133684250Y-100091000D01*
X133843000Y-99932250D01*
X133843000Y-99591690D01*
X133746327Y-99358301D01*
X133567698Y-99179673D01*
X133556564Y-99175061D01*
X135943900Y-99175061D01*
X136032165Y-99388680D01*
X136195460Y-99552260D01*
X136408925Y-99640898D01*
X136640061Y-99641100D01*
X136853680Y-99552835D01*
X137017260Y-99389540D01*
X137032929Y-99351805D01*
X137048165Y-99388680D01*
X137211460Y-99552260D01*
X137424925Y-99640898D01*
X137656061Y-99641100D01*
X137869680Y-99552835D01*
X138033260Y-99389540D01*
X138048929Y-99351805D01*
X138064165Y-99388680D01*
X138227460Y-99552260D01*
X138440925Y-99640898D01*
X138672061Y-99641100D01*
X138885680Y-99552835D01*
X139049260Y-99389540D01*
X139064929Y-99351805D01*
X139080165Y-99388680D01*
X139243460Y-99552260D01*
X139456925Y-99640898D01*
X139688061Y-99641100D01*
X139901680Y-99552835D01*
X140065260Y-99389540D01*
X140080929Y-99351805D01*
X140096165Y-99388680D01*
X140259460Y-99552260D01*
X140472925Y-99640898D01*
X140704061Y-99641100D01*
X140917680Y-99552835D01*
X141081260Y-99389540D01*
X141160586Y-99198502D01*
X141239165Y-99388680D01*
X141402460Y-99552260D01*
X141615925Y-99640898D01*
X141847061Y-99641100D01*
X142060680Y-99552835D01*
X142224260Y-99389540D01*
X142239929Y-99351805D01*
X142255165Y-99388680D01*
X142418460Y-99552260D01*
X142631925Y-99640898D01*
X142863061Y-99641100D01*
X143076680Y-99552835D01*
X143240260Y-99389540D01*
X143255929Y-99351805D01*
X143271165Y-99388680D01*
X143434460Y-99552260D01*
X143647925Y-99640898D01*
X143879061Y-99641100D01*
X144092680Y-99552835D01*
X144256260Y-99389540D01*
X144271929Y-99351805D01*
X144287165Y-99388680D01*
X144450460Y-99552260D01*
X144663925Y-99640898D01*
X144895061Y-99641100D01*
X145108680Y-99552835D01*
X145272260Y-99389540D01*
X145360898Y-99176075D01*
X145361100Y-98944939D01*
X145272835Y-98731320D01*
X145109540Y-98567740D01*
X144896075Y-98479102D01*
X144664939Y-98478900D01*
X144451320Y-98567165D01*
X144287740Y-98730460D01*
X144272071Y-98768195D01*
X144256835Y-98731320D01*
X144093540Y-98567740D01*
X143880075Y-98479102D01*
X143648939Y-98478900D01*
X143435320Y-98567165D01*
X143271740Y-98730460D01*
X143256071Y-98768195D01*
X143240835Y-98731320D01*
X143077540Y-98567740D01*
X142864075Y-98479102D01*
X142632939Y-98478900D01*
X142419320Y-98567165D01*
X142255740Y-98730460D01*
X142240071Y-98768195D01*
X142224835Y-98731320D01*
X142061540Y-98567740D01*
X141848075Y-98479102D01*
X141616939Y-98478900D01*
X141403320Y-98567165D01*
X141239740Y-98730460D01*
X141160414Y-98921498D01*
X141081835Y-98731320D01*
X140918540Y-98567740D01*
X140705075Y-98479102D01*
X140473939Y-98478900D01*
X140260320Y-98567165D01*
X140096740Y-98730460D01*
X140081071Y-98768195D01*
X140065835Y-98731320D01*
X139902540Y-98567740D01*
X139689075Y-98479102D01*
X139457939Y-98478900D01*
X139244320Y-98567165D01*
X139080740Y-98730460D01*
X139065071Y-98768195D01*
X139049835Y-98731320D01*
X138886540Y-98567740D01*
X138673075Y-98479102D01*
X138441939Y-98478900D01*
X138228320Y-98567165D01*
X138064740Y-98730460D01*
X138049071Y-98768195D01*
X138033835Y-98731320D01*
X137870540Y-98567740D01*
X137657075Y-98479102D01*
X137425939Y-98478900D01*
X137212320Y-98567165D01*
X137048740Y-98730460D01*
X137033071Y-98768195D01*
X137017835Y-98731320D01*
X136854540Y-98567740D01*
X136641075Y-98479102D01*
X136409939Y-98478900D01*
X136196320Y-98567165D01*
X136032740Y-98730460D01*
X135944102Y-98943925D01*
X135943900Y-99175061D01*
X133556564Y-99175061D01*
X133334309Y-99083000D01*
X133332699Y-99083000D01*
X133349190Y-99079897D01*
X133478865Y-98996454D01*
X133565859Y-98869134D01*
X133596464Y-98718000D01*
X133596464Y-97718000D01*
X133572697Y-97591690D01*
X146573000Y-97591690D01*
X146573000Y-97932250D01*
X146731750Y-98091000D01*
X148081000Y-98091000D01*
X148081000Y-98071000D01*
X148335000Y-98071000D01*
X148335000Y-98091000D01*
X149684250Y-98091000D01*
X149843000Y-97932250D01*
X149843000Y-97591690D01*
X149746327Y-97358301D01*
X149567698Y-97179673D01*
X149334309Y-97083000D01*
X149332699Y-97083000D01*
X149349190Y-97079897D01*
X149478865Y-96996454D01*
X149565859Y-96869134D01*
X149596464Y-96718000D01*
X149596464Y-95718000D01*
X149569897Y-95576810D01*
X149486454Y-95447135D01*
X149359134Y-95360141D01*
X149208000Y-95329536D01*
X147208000Y-95329536D01*
X147066810Y-95356103D01*
X146937135Y-95439546D01*
X146850141Y-95566866D01*
X146819536Y-95718000D01*
X146819536Y-96718000D01*
X146846103Y-96859190D01*
X146929546Y-96988865D01*
X147056866Y-97075859D01*
X147092130Y-97083000D01*
X147081691Y-97083000D01*
X146848302Y-97179673D01*
X146669673Y-97358301D01*
X146573000Y-97591690D01*
X133572697Y-97591690D01*
X133569897Y-97576810D01*
X133486454Y-97447135D01*
X133359134Y-97360141D01*
X133208000Y-97329536D01*
X131208000Y-97329536D01*
X131066810Y-97356103D01*
X130937135Y-97439546D01*
X130850141Y-97566866D01*
X130819536Y-97718000D01*
X130819536Y-98718000D01*
X130846103Y-98859190D01*
X130929546Y-98988865D01*
X131056866Y-99075859D01*
X131092130Y-99083000D01*
X131081691Y-99083000D01*
X130848302Y-99179673D01*
X130669673Y-99358301D01*
X130573000Y-99591690D01*
X130573000Y-99932250D01*
X130731748Y-100090998D01*
X130573000Y-100090998D01*
X130573000Y-100199624D01*
X130506309Y-100172000D01*
X129690750Y-100172000D01*
X129532000Y-100330750D01*
X129278000Y-100330750D01*
X129119250Y-100172000D01*
X128303691Y-100172000D01*
X128070302Y-100268673D01*
X127911000Y-100427974D01*
X127911000Y-99943859D01*
X127918464Y-99907000D01*
X127918464Y-99569484D01*
X130738948Y-96749000D01*
X130825369Y-96749000D01*
X130846103Y-96859190D01*
X130929546Y-96988865D01*
X131056866Y-97075859D01*
X131208000Y-97106464D01*
X133208000Y-97106464D01*
X133349190Y-97079897D01*
X133478865Y-96996454D01*
X133565859Y-96869134D01*
X133596464Y-96718000D01*
X133596464Y-96080484D01*
X133883474Y-95793474D01*
X133998580Y-95621205D01*
X134039001Y-95418000D01*
X134039000Y-95417995D01*
X134039000Y-95137948D01*
X135458947Y-93718000D01*
X146819536Y-93718000D01*
X146819536Y-94718000D01*
X146846103Y-94859190D01*
X146929546Y-94988865D01*
X147056866Y-95075859D01*
X147208000Y-95106464D01*
X149208000Y-95106464D01*
X149349190Y-95079897D01*
X149478865Y-94996454D01*
X149565859Y-94869134D01*
X149596464Y-94718000D01*
X149596464Y-93718000D01*
X149569897Y-93576810D01*
X149486454Y-93447135D01*
X149359134Y-93360141D01*
X149208000Y-93329536D01*
X147208000Y-93329536D01*
X147066810Y-93356103D01*
X146937135Y-93439546D01*
X146850141Y-93566866D01*
X146819536Y-93718000D01*
X135458947Y-93718000D01*
X136427947Y-92749000D01*
X146825369Y-92749000D01*
X146846103Y-92859190D01*
X146929546Y-92988865D01*
X147056866Y-93075859D01*
X147208000Y-93106464D01*
X149208000Y-93106464D01*
X149349190Y-93079897D01*
X149478865Y-92996454D01*
X149565859Y-92869134D01*
X149595856Y-92721000D01*
X150137186Y-92721000D01*
X150139103Y-92731190D01*
X150222546Y-92860865D01*
X150349866Y-92947859D01*
X150501000Y-92978464D01*
X151251000Y-92978464D01*
X151392190Y-92951897D01*
X151521865Y-92868454D01*
X151608859Y-92741134D01*
X151639464Y-92590000D01*
X151639464Y-91790000D01*
X151612897Y-91648810D01*
X151602028Y-91631919D01*
X151610699Y-91628327D01*
X151789327Y-91449698D01*
X151886000Y-91216309D01*
X151886000Y-90975750D01*
X151727250Y-90817000D01*
X151003000Y-90817000D01*
X151003000Y-90837000D01*
X150749000Y-90837000D01*
X150749000Y-90817000D01*
X150024750Y-90817000D01*
X149866000Y-90975750D01*
X149866000Y-91216309D01*
X149962673Y-91449698D01*
X150141301Y-91628327D01*
X150148348Y-91631246D01*
X150143141Y-91638866D01*
X150139064Y-91659000D01*
X149585362Y-91659000D01*
X149569897Y-91576810D01*
X149486454Y-91447135D01*
X149359134Y-91360141D01*
X149208000Y-91329536D01*
X147208000Y-91329536D01*
X147066810Y-91356103D01*
X146937135Y-91439546D01*
X146850141Y-91566866D01*
X146825814Y-91687000D01*
X136208005Y-91687000D01*
X136208000Y-91686999D01*
X136016961Y-91725000D01*
X136004795Y-91727420D01*
X135832526Y-91842526D01*
X135832524Y-91842529D01*
X133596464Y-94078588D01*
X133596464Y-93718000D01*
X133569897Y-93576810D01*
X133486454Y-93447135D01*
X133359134Y-93360141D01*
X133208000Y-93329536D01*
X131208000Y-93329536D01*
X131066810Y-93356103D01*
X130937135Y-93439546D01*
X130850141Y-93566866D01*
X130845588Y-93589351D01*
X128897000Y-91640764D01*
X128897000Y-91591750D01*
X128738250Y-91433000D01*
X127889000Y-91433000D01*
X127889000Y-91460000D01*
X127635000Y-91460000D01*
X127635000Y-91433000D01*
X126785750Y-91433000D01*
X126751750Y-91467000D01*
X125929237Y-91467000D01*
X125113236Y-90651000D01*
X126785974Y-90651000D01*
X126723673Y-90713301D01*
X126627000Y-90946690D01*
X126627000Y-91034250D01*
X126785750Y-91193000D01*
X127635000Y-91193000D01*
X127635000Y-91166000D01*
X127889000Y-91166000D01*
X127889000Y-91193000D01*
X128738250Y-91193000D01*
X128802507Y-91128743D01*
X130231881Y-92558118D01*
X130289255Y-92596454D01*
X130387929Y-92662386D01*
X130572000Y-92699000D01*
X130819536Y-92699000D01*
X130819536Y-92718000D01*
X130846103Y-92859190D01*
X130929546Y-92988865D01*
X131056866Y-93075859D01*
X131208000Y-93106464D01*
X133208000Y-93106464D01*
X133349190Y-93079897D01*
X133478865Y-92996454D01*
X133565859Y-92869134D01*
X133596464Y-92718000D01*
X133596464Y-91718000D01*
X133569897Y-91576810D01*
X133486454Y-91447135D01*
X133359134Y-91360141D01*
X133208000Y-91329536D01*
X131208000Y-91329536D01*
X131066810Y-91356103D01*
X130937135Y-91439546D01*
X130850141Y-91566866D01*
X130819536Y-91718000D01*
X130819536Y-91737000D01*
X130771237Y-91737000D01*
X129733236Y-90699000D01*
X130819536Y-90699000D01*
X130819536Y-90718000D01*
X130846103Y-90859190D01*
X130929546Y-90988865D01*
X131056866Y-91075859D01*
X131208000Y-91106464D01*
X133208000Y-91106464D01*
X133349190Y-91079897D01*
X133478865Y-90996454D01*
X133565859Y-90869134D01*
X133596464Y-90718000D01*
X133596464Y-89762000D01*
X145871764Y-89762000D01*
X146667882Y-90558118D01*
X146819536Y-90659451D01*
X146819536Y-90718000D01*
X146846103Y-90859190D01*
X146929546Y-90988865D01*
X147056866Y-91075859D01*
X147208000Y-91106464D01*
X149208000Y-91106464D01*
X149349190Y-91079897D01*
X149478865Y-90996454D01*
X149565859Y-90869134D01*
X149596464Y-90718000D01*
X149596464Y-90163691D01*
X149866000Y-90163691D01*
X149866000Y-90404250D01*
X150024750Y-90563000D01*
X150749000Y-90563000D01*
X150749000Y-89813750D01*
X151003000Y-89813750D01*
X151003000Y-90563000D01*
X151727250Y-90563000D01*
X151886000Y-90404250D01*
X151886000Y-90163691D01*
X151789327Y-89930302D01*
X151610699Y-89751673D01*
X151377310Y-89655000D01*
X151161750Y-89655000D01*
X151003000Y-89813750D01*
X150749000Y-89813750D01*
X150590250Y-89655000D01*
X150374690Y-89655000D01*
X150141301Y-89751673D01*
X149962673Y-89930302D01*
X149866000Y-90163691D01*
X149596464Y-90163691D01*
X149596464Y-89718000D01*
X149569897Y-89576810D01*
X149486454Y-89447135D01*
X149359134Y-89360141D01*
X149208000Y-89329536D01*
X147208000Y-89329536D01*
X147066810Y-89356103D01*
X146937135Y-89439546D01*
X146926032Y-89455796D01*
X146411118Y-88940882D01*
X146255071Y-88836614D01*
X146253925Y-88836386D01*
X146071000Y-88800000D01*
X133579859Y-88800000D01*
X133596464Y-88718000D01*
X133596464Y-87730000D01*
X145839764Y-87730000D01*
X146667882Y-88558118D01*
X146819536Y-88659451D01*
X146819536Y-88718000D01*
X146846103Y-88859190D01*
X146929546Y-88988865D01*
X147056866Y-89075859D01*
X147208000Y-89106464D01*
X149208000Y-89106464D01*
X149349190Y-89079897D01*
X149478865Y-88996454D01*
X149565859Y-88869134D01*
X149596464Y-88718000D01*
X149596464Y-87718000D01*
X149569897Y-87576810D01*
X149486454Y-87447135D01*
X149359134Y-87360141D01*
X149208000Y-87329536D01*
X147208000Y-87329536D01*
X147066810Y-87356103D01*
X146937135Y-87439546D01*
X146926032Y-87455796D01*
X146379118Y-86908882D01*
X146223071Y-86804614D01*
X146211573Y-86802327D01*
X146039000Y-86768000D01*
X133843000Y-86768000D01*
X133843000Y-86503750D01*
X133684250Y-86345000D01*
X132335000Y-86345000D01*
X132335000Y-86365000D01*
X132081000Y-86365000D01*
X132081000Y-86345000D01*
X130731750Y-86345000D01*
X130573000Y-86503750D01*
X130573000Y-86768000D01*
X126451780Y-86768000D01*
X126440540Y-86756740D01*
X126227075Y-86668102D01*
X125995939Y-86667900D01*
X125782320Y-86756165D01*
X125618740Y-86919460D01*
X125530102Y-87132925D01*
X125529900Y-87364061D01*
X125618165Y-87577680D01*
X125781460Y-87741260D01*
X125994925Y-87829898D01*
X126226061Y-87830100D01*
X126439680Y-87741835D01*
X126451536Y-87730000D01*
X130819536Y-87730000D01*
X130819536Y-87737000D01*
X129789110Y-87737000D01*
X129605039Y-87773614D01*
X129498203Y-87845000D01*
X129448992Y-87877882D01*
X129322555Y-88004319D01*
X129306644Y-88004305D01*
X129093025Y-88092570D01*
X128929445Y-88255865D01*
X128840807Y-88469330D01*
X128840605Y-88700466D01*
X128928870Y-88914085D01*
X129092165Y-89077665D01*
X129305630Y-89166303D01*
X129536766Y-89166505D01*
X129750385Y-89078240D01*
X129913965Y-88914945D01*
X130002603Y-88701480D01*
X130002605Y-88699000D01*
X130819536Y-88699000D01*
X130819536Y-88708598D01*
X130799075Y-88700102D01*
X130567939Y-88699900D01*
X130354320Y-88788165D01*
X130190740Y-88951460D01*
X130102102Y-89164925D01*
X130101900Y-89396061D01*
X130190165Y-89609680D01*
X130317263Y-89737000D01*
X129914237Y-89737000D01*
X129499118Y-89321882D01*
X129343071Y-89217614D01*
X129327989Y-89214614D01*
X129159000Y-89181000D01*
X118763236Y-89181000D01*
X118944236Y-89000000D01*
X119253000Y-89000000D01*
X119437071Y-88963386D01*
X119593118Y-88859118D01*
X119720118Y-88732118D01*
X119824386Y-88576071D01*
X119845618Y-88469330D01*
X119861000Y-88392000D01*
X119861000Y-88132519D01*
X119896190Y-88125897D01*
X120025865Y-88042454D01*
X120112859Y-87915134D01*
X120143464Y-87764000D01*
X120143464Y-86964000D01*
X120116897Y-86822810D01*
X120106028Y-86805919D01*
X120114699Y-86802327D01*
X120293327Y-86623698D01*
X120390000Y-86390309D01*
X120390000Y-86149750D01*
X120231250Y-85991000D01*
X119507000Y-85991000D01*
X119507000Y-86011000D01*
X119253000Y-86011000D01*
X119253000Y-85991000D01*
X118528750Y-85991000D01*
X118370000Y-86149750D01*
X118370000Y-86390309D01*
X118466673Y-86623698D01*
X118645301Y-86802327D01*
X118652348Y-86805246D01*
X118647141Y-86812866D01*
X118616536Y-86964000D01*
X118616536Y-87764000D01*
X118643103Y-87905190D01*
X118726546Y-88034865D01*
X118734261Y-88040136D01*
X118560929Y-88074614D01*
X118425658Y-88165000D01*
X118404882Y-88178882D01*
X116846764Y-89737000D01*
X116719223Y-89737000D01*
X116713524Y-89706712D01*
X117193150Y-89227086D01*
X117209061Y-89227100D01*
X117422680Y-89138835D01*
X117586260Y-88975540D01*
X117674898Y-88762075D01*
X117675100Y-88530939D01*
X117616891Y-88390061D01*
X117828699Y-88302327D01*
X118007327Y-88123698D01*
X118104000Y-87890309D01*
X118104000Y-87649750D01*
X117945250Y-87491000D01*
X117221000Y-87491000D01*
X117221000Y-87511000D01*
X116967000Y-87511000D01*
X116967000Y-87491000D01*
X116242750Y-87491000D01*
X116142750Y-87591000D01*
X115273000Y-87591000D01*
X115273000Y-87611000D01*
X115019000Y-87611000D01*
X115019000Y-87591000D01*
X114999000Y-87591000D01*
X114999000Y-87337000D01*
X115019000Y-87337000D01*
X115019000Y-87317000D01*
X115273000Y-87317000D01*
X115273000Y-87337000D01*
X116322250Y-87337000D01*
X116422250Y-87237000D01*
X116967000Y-87237000D01*
X116967000Y-87217000D01*
X117221000Y-87217000D01*
X117221000Y-87237000D01*
X117945250Y-87237000D01*
X118104000Y-87078250D01*
X118104000Y-86837691D01*
X118007327Y-86604302D01*
X117828699Y-86425673D01*
X117821652Y-86422754D01*
X117826859Y-86415134D01*
X117857464Y-86264000D01*
X117857464Y-85464000D01*
X117833698Y-85337691D01*
X118370000Y-85337691D01*
X118370000Y-85578250D01*
X118528750Y-85737000D01*
X119253000Y-85737000D01*
X119253000Y-84987750D01*
X119507000Y-84987750D01*
X119507000Y-85737000D01*
X120231250Y-85737000D01*
X120390000Y-85578250D01*
X120390000Y-85414000D01*
X120623536Y-85414000D01*
X120623536Y-86214000D01*
X120650103Y-86355190D01*
X120733546Y-86484865D01*
X120831055Y-86551490D01*
X120830945Y-86677755D01*
X120741135Y-86735546D01*
X120654141Y-86862866D01*
X120623536Y-87014000D01*
X120623536Y-87814000D01*
X120650103Y-87955190D01*
X120733546Y-88084865D01*
X120860866Y-88171859D01*
X121012000Y-88202464D01*
X121812000Y-88202464D01*
X121953190Y-88175897D01*
X122082865Y-88092454D01*
X122169859Y-87965134D01*
X122179141Y-87919300D01*
X122201673Y-87973698D01*
X122380301Y-88152327D01*
X122613690Y-88249000D01*
X122904250Y-88249000D01*
X123063000Y-88090250D01*
X123063000Y-87489000D01*
X123317000Y-87489000D01*
X123317000Y-88090250D01*
X123475750Y-88249000D01*
X123766310Y-88249000D01*
X123999699Y-88152327D01*
X124178327Y-87973698D01*
X124275000Y-87740309D01*
X124275000Y-87647750D01*
X124116250Y-87489000D01*
X123317000Y-87489000D01*
X123063000Y-87489000D01*
X123043000Y-87489000D01*
X123043000Y-87239000D01*
X123063000Y-87239000D01*
X123063000Y-87217000D01*
X123317000Y-87217000D01*
X123317000Y-87239000D01*
X124116250Y-87239000D01*
X124275000Y-87080250D01*
X124275000Y-86987691D01*
X124178327Y-86754302D01*
X123999699Y-86575673D01*
X123766310Y-86479000D01*
X123764699Y-86479000D01*
X123781190Y-86475897D01*
X123910865Y-86392454D01*
X123997859Y-86265134D01*
X124028464Y-86114000D01*
X124028464Y-85614000D01*
X124024267Y-85591690D01*
X130573000Y-85591690D01*
X130573000Y-85932250D01*
X130731750Y-86091000D01*
X132081000Y-86091000D01*
X132081000Y-85241750D01*
X132335000Y-85241750D01*
X132335000Y-86091000D01*
X133684250Y-86091000D01*
X133843000Y-85932250D01*
X133843000Y-85591690D01*
X133746327Y-85358301D01*
X133567698Y-85179673D01*
X133334309Y-85083000D01*
X132493750Y-85083000D01*
X132335000Y-85241750D01*
X132081000Y-85241750D01*
X131922250Y-85083000D01*
X131081691Y-85083000D01*
X130848302Y-85179673D01*
X130669673Y-85358301D01*
X130573000Y-85591690D01*
X124024267Y-85591690D01*
X124001897Y-85472810D01*
X123918454Y-85343135D01*
X123791134Y-85256141D01*
X123640000Y-85225536D01*
X122740000Y-85225536D01*
X122598810Y-85252103D01*
X122473092Y-85333000D01*
X122185223Y-85333000D01*
X122173897Y-85272810D01*
X122090454Y-85143135D01*
X121963134Y-85056141D01*
X121812000Y-85025536D01*
X121012000Y-85025536D01*
X120870810Y-85052103D01*
X120741135Y-85135546D01*
X120654141Y-85262866D01*
X120623536Y-85414000D01*
X120390000Y-85414000D01*
X120390000Y-85337691D01*
X120293327Y-85104302D01*
X120114699Y-84925673D01*
X119881310Y-84829000D01*
X119665750Y-84829000D01*
X119507000Y-84987750D01*
X119253000Y-84987750D01*
X119094250Y-84829000D01*
X118878690Y-84829000D01*
X118645301Y-84925673D01*
X118466673Y-85104302D01*
X118370000Y-85337691D01*
X117833698Y-85337691D01*
X117830897Y-85322810D01*
X117747454Y-85193135D01*
X117620134Y-85106141D01*
X117469000Y-85075536D01*
X116719000Y-85075536D01*
X116577810Y-85102103D01*
X116448135Y-85185546D01*
X116381548Y-85283000D01*
X116234464Y-85283000D01*
X116234464Y-85164000D01*
X116207897Y-85022810D01*
X116124454Y-84893135D01*
X115997134Y-84806141D01*
X115846000Y-84775536D01*
X114446000Y-84775536D01*
X114304810Y-84802103D01*
X114208963Y-84863778D01*
X114184327Y-84804301D01*
X114005698Y-84625673D01*
X113772309Y-84529000D01*
X113231750Y-84529000D01*
X113073000Y-84687750D01*
X113073000Y-85637000D01*
X113093000Y-85637000D01*
X113093000Y-85891000D01*
X113073000Y-85891000D01*
X113073000Y-85911000D01*
X112819000Y-85911000D01*
X112819000Y-85891000D01*
X111769750Y-85891000D01*
X111669750Y-85991000D01*
X111125000Y-85991000D01*
X111125000Y-86011000D01*
X110871000Y-86011000D01*
X110871000Y-85991000D01*
X110146750Y-85991000D01*
X110120493Y-86017257D01*
X109627118Y-85523882D01*
X109471071Y-85419614D01*
X109466958Y-85418796D01*
X109451698Y-85337691D01*
X109988000Y-85337691D01*
X109988000Y-85578250D01*
X110146750Y-85737000D01*
X110871000Y-85737000D01*
X110871000Y-84987750D01*
X111125000Y-84987750D01*
X111125000Y-85737000D01*
X111849250Y-85737000D01*
X111949250Y-85637000D01*
X112819000Y-85637000D01*
X112819000Y-84687750D01*
X112660250Y-84529000D01*
X112119691Y-84529000D01*
X111886302Y-84625673D01*
X111707673Y-84804301D01*
X111668426Y-84899050D01*
X111499310Y-84829000D01*
X111283750Y-84829000D01*
X111125000Y-84987750D01*
X110871000Y-84987750D01*
X110712250Y-84829000D01*
X110496690Y-84829000D01*
X110263301Y-84925673D01*
X110084673Y-85104302D01*
X109988000Y-85337691D01*
X109451698Y-85337691D01*
X109448897Y-85322810D01*
X109365454Y-85193135D01*
X109238134Y-85106141D01*
X109087000Y-85075536D01*
X108337000Y-85075536D01*
X108195810Y-85102103D01*
X108066135Y-85185546D01*
X107979141Y-85312866D01*
X107964939Y-85383000D01*
X107561106Y-85383000D01*
X107535454Y-85343135D01*
X107408134Y-85256141D01*
X107257000Y-85225536D01*
X106357000Y-85225536D01*
X106215810Y-85252103D01*
X106086135Y-85335546D01*
X105999141Y-85462866D01*
X105968536Y-85614000D01*
X105968536Y-86114000D01*
X105995103Y-86255190D01*
X106078546Y-86384865D01*
X106205866Y-86471859D01*
X106357000Y-86502464D01*
X107257000Y-86502464D01*
X107398190Y-86475897D01*
X107527865Y-86392454D01*
X107560289Y-86345000D01*
X107963777Y-86345000D01*
X107975103Y-86405190D01*
X108058546Y-86534865D01*
X108175798Y-86614980D01*
X108066135Y-86685546D01*
X107979141Y-86812866D01*
X107964939Y-86883000D01*
X107561106Y-86883000D01*
X107535454Y-86843135D01*
X107408134Y-86756141D01*
X107257000Y-86725536D01*
X106357000Y-86725536D01*
X106215810Y-86752103D01*
X106086135Y-86835546D01*
X106053711Y-86883000D01*
X105650223Y-86883000D01*
X105638897Y-86822810D01*
X105628028Y-86805919D01*
X105636699Y-86802327D01*
X105815327Y-86623698D01*
X105912000Y-86390309D01*
X105912000Y-86149750D01*
X105753250Y-85991000D01*
X105029000Y-85991000D01*
X105029000Y-86011000D01*
X104775000Y-86011000D01*
X104775000Y-85991000D01*
X104050750Y-85991000D01*
X103949500Y-86092250D01*
X103848250Y-85991000D01*
X103124000Y-85991000D01*
X103124000Y-86011000D01*
X102870000Y-86011000D01*
X102870000Y-85991000D01*
X102145750Y-85991000D01*
X102108000Y-86028750D01*
X102070250Y-85991000D01*
X101346000Y-85991000D01*
X101346000Y-86011000D01*
X101092000Y-86011000D01*
X101092000Y-85991000D01*
X100367750Y-85991000D01*
X100336000Y-86022750D01*
X100292250Y-85979000D01*
X99568000Y-85979000D01*
X99568000Y-85999000D01*
X99314000Y-85999000D01*
X99314000Y-85979000D01*
X98589750Y-85979000D01*
X98431000Y-86137750D01*
X98431000Y-86378309D01*
X98527673Y-86611698D01*
X98706301Y-86790327D01*
X98713348Y-86793246D01*
X98708141Y-86800866D01*
X98677536Y-86952000D01*
X98677536Y-87752000D01*
X98704103Y-87893190D01*
X98787546Y-88022865D01*
X98914866Y-88109859D01*
X99066000Y-88140464D01*
X99816000Y-88140464D01*
X99957190Y-88113897D01*
X100086865Y-88030454D01*
X100173859Y-87903134D01*
X100204464Y-87752000D01*
X100204464Y-87095000D01*
X100455536Y-87095000D01*
X100455536Y-87764000D01*
X100482103Y-87905190D01*
X100565546Y-88034865D01*
X100688000Y-88118534D01*
X100688000Y-88519000D01*
X100728420Y-88722205D01*
X100843526Y-88894474D01*
X101057477Y-89108424D01*
X101107165Y-89228680D01*
X101270460Y-89392260D01*
X101483925Y-89480898D01*
X101715061Y-89481100D01*
X101928680Y-89392835D01*
X102092260Y-89229540D01*
X102180898Y-89016075D01*
X102181100Y-88784939D01*
X102092835Y-88571320D01*
X101929540Y-88407740D01*
X101808376Y-88357429D01*
X101750000Y-88299052D01*
X101750000Y-88116367D01*
X101864865Y-88042454D01*
X101951859Y-87915134D01*
X101955936Y-87895000D01*
X102258186Y-87895000D01*
X102260103Y-87905190D01*
X102343546Y-88034865D01*
X102470866Y-88121859D01*
X102622000Y-88152464D01*
X103372000Y-88152464D01*
X103513190Y-88125897D01*
X103532000Y-88113793D01*
X103532000Y-88392000D01*
X103547382Y-88469330D01*
X103568614Y-88576071D01*
X103672882Y-88732118D01*
X104086369Y-89145605D01*
X103913673Y-89318302D01*
X103817000Y-89551691D01*
X103817000Y-89644250D01*
X103975750Y-89803000D01*
X104775000Y-89803000D01*
X104775000Y-89781000D01*
X105029000Y-89781000D01*
X105029000Y-89803000D01*
X105828250Y-89803000D01*
X105987000Y-89644250D01*
X105987000Y-89551691D01*
X105916297Y-89381000D01*
X108131764Y-89381000D01*
X109287763Y-90537000D01*
X105890616Y-90537000D01*
X105987000Y-90304309D01*
X105987000Y-90211750D01*
X105828250Y-90053000D01*
X105029000Y-90053000D01*
X105029000Y-90075000D01*
X104775000Y-90075000D01*
X104775000Y-90053000D01*
X103975750Y-90053000D01*
X103817000Y-90211750D01*
X103817000Y-90304309D01*
X103913673Y-90537698D01*
X103922975Y-90547000D01*
X102870000Y-90547000D01*
X102532856Y-90614062D01*
X102432049Y-90681419D01*
X102316810Y-90703103D01*
X102187135Y-90786546D01*
X102107020Y-90903798D01*
X102036454Y-90794135D01*
X101909134Y-90707141D01*
X101776199Y-90680221D01*
X101695144Y-90626062D01*
X101358000Y-90559000D01*
X100407636Y-90559000D01*
X100451000Y-90454309D01*
X100451000Y-90213750D01*
X100292250Y-90055000D01*
X99568000Y-90055000D01*
X99568000Y-90075000D01*
X99314000Y-90075000D01*
X99314000Y-90055000D01*
X98589750Y-90055000D01*
X98431000Y-90213750D01*
X98431000Y-90454309D01*
X98469394Y-90547000D01*
X93725464Y-90547000D01*
X93725464Y-90254000D01*
X94026250Y-90254000D01*
X94185000Y-90095250D01*
X94185000Y-88646000D01*
X94439000Y-88646000D01*
X94439000Y-90095250D01*
X94597750Y-90254000D01*
X94963309Y-90254000D01*
X95196698Y-90157327D01*
X95375327Y-89978699D01*
X95472000Y-89745310D01*
X95472000Y-89401691D01*
X98431000Y-89401691D01*
X98431000Y-89642250D01*
X98589750Y-89801000D01*
X99314000Y-89801000D01*
X99314000Y-89051750D01*
X99568000Y-89051750D01*
X99568000Y-89801000D01*
X100292250Y-89801000D01*
X100451000Y-89642250D01*
X100451000Y-89401691D01*
X100354327Y-89168302D01*
X100175699Y-88989673D01*
X99942310Y-88893000D01*
X99726750Y-88893000D01*
X99568000Y-89051750D01*
X99314000Y-89051750D01*
X99155250Y-88893000D01*
X98939690Y-88893000D01*
X98706301Y-88989673D01*
X98527673Y-89168302D01*
X98431000Y-89401691D01*
X95472000Y-89401691D01*
X95472000Y-88804750D01*
X95313250Y-88646000D01*
X94439000Y-88646000D01*
X94185000Y-88646000D01*
X94165000Y-88646000D01*
X94165000Y-88392000D01*
X94185000Y-88392000D01*
X94185000Y-86942750D01*
X94439000Y-86942750D01*
X94439000Y-88392000D01*
X95313250Y-88392000D01*
X95472000Y-88233250D01*
X95472000Y-87292690D01*
X95375327Y-87059301D01*
X95196698Y-86880673D01*
X94963309Y-86784000D01*
X94597750Y-86784000D01*
X94439000Y-86942750D01*
X94185000Y-86942750D01*
X94026250Y-86784000D01*
X93660691Y-86784000D01*
X93427302Y-86880673D01*
X93248673Y-87059301D01*
X93170097Y-87249000D01*
X92503903Y-87249000D01*
X92425327Y-87059301D01*
X92246698Y-86880673D01*
X92013309Y-86784000D01*
X91647750Y-86784000D01*
X91489000Y-86942750D01*
X91489000Y-88392000D01*
X91509000Y-88392000D01*
X91509000Y-88646000D01*
X91489000Y-88646000D01*
X91489000Y-90095250D01*
X91647750Y-90254000D01*
X91948536Y-90254000D01*
X91948536Y-90547000D01*
X87127000Y-90547000D01*
X87127000Y-88804750D01*
X90202000Y-88804750D01*
X90202000Y-89745310D01*
X90298673Y-89978699D01*
X90477302Y-90157327D01*
X90710691Y-90254000D01*
X91076250Y-90254000D01*
X91235000Y-90095250D01*
X91235000Y-88646000D01*
X90360750Y-88646000D01*
X90202000Y-88804750D01*
X87127000Y-88804750D01*
X87127000Y-87292690D01*
X90202000Y-87292690D01*
X90202000Y-88233250D01*
X90360750Y-88392000D01*
X91235000Y-88392000D01*
X91235000Y-86942750D01*
X91076250Y-86784000D01*
X90710691Y-86784000D01*
X90477302Y-86880673D01*
X90298673Y-87059301D01*
X90202000Y-87292690D01*
X87127000Y-87292690D01*
X87127000Y-85325691D01*
X98431000Y-85325691D01*
X98431000Y-85566250D01*
X98589750Y-85725000D01*
X99314000Y-85725000D01*
X99314000Y-84975750D01*
X99568000Y-84975750D01*
X99568000Y-85725000D01*
X100292250Y-85725000D01*
X100324000Y-85693250D01*
X100367750Y-85737000D01*
X101092000Y-85737000D01*
X101092000Y-84987750D01*
X101346000Y-84987750D01*
X101346000Y-85737000D01*
X102070250Y-85737000D01*
X102108000Y-85699250D01*
X102145750Y-85737000D01*
X102870000Y-85737000D01*
X102870000Y-84987750D01*
X103124000Y-84987750D01*
X103124000Y-85737000D01*
X103848250Y-85737000D01*
X103949500Y-85635750D01*
X104050750Y-85737000D01*
X104775000Y-85737000D01*
X104775000Y-84987750D01*
X105029000Y-84987750D01*
X105029000Y-85737000D01*
X105753250Y-85737000D01*
X105912000Y-85578250D01*
X105912000Y-85337691D01*
X105815327Y-85104302D01*
X105636699Y-84925673D01*
X105403310Y-84829000D01*
X105187750Y-84829000D01*
X105029000Y-84987750D01*
X104775000Y-84987750D01*
X104616250Y-84829000D01*
X104400690Y-84829000D01*
X104167301Y-84925673D01*
X103988673Y-85104302D01*
X103949500Y-85198874D01*
X103910327Y-85104302D01*
X103731699Y-84925673D01*
X103498310Y-84829000D01*
X103282750Y-84829000D01*
X103124000Y-84987750D01*
X102870000Y-84987750D01*
X102711250Y-84829000D01*
X102495690Y-84829000D01*
X102262301Y-84925673D01*
X102108000Y-85079975D01*
X101953699Y-84925673D01*
X101720310Y-84829000D01*
X101504750Y-84829000D01*
X101346000Y-84987750D01*
X101092000Y-84987750D01*
X100933250Y-84829000D01*
X100717690Y-84829000D01*
X100484301Y-84925673D01*
X100336000Y-85073975D01*
X100175699Y-84913673D01*
X99942310Y-84817000D01*
X99726750Y-84817000D01*
X99568000Y-84975750D01*
X99314000Y-84975750D01*
X99155250Y-84817000D01*
X98939690Y-84817000D01*
X98706301Y-84913673D01*
X98527673Y-85092302D01*
X98431000Y-85325691D01*
X87127000Y-85325691D01*
X87127000Y-82835750D01*
X99607000Y-82835750D01*
X99607000Y-83526309D01*
X99703673Y-83759698D01*
X99882301Y-83938327D01*
X100115690Y-84035000D01*
X100806250Y-84035000D01*
X100965000Y-83876250D01*
X100965000Y-82677000D01*
X99765750Y-82677000D01*
X99607000Y-82835750D01*
X87127000Y-82835750D01*
X87127000Y-81456000D01*
X99655749Y-81456000D01*
X99607000Y-81573691D01*
G36*
X130453882Y-94558119D02*
X130539011Y-94615000D01*
X130609929Y-94662386D01*
X130794000Y-94699000D01*
X130819536Y-94699000D01*
X130819536Y-94718000D01*
X130846103Y-94859190D01*
X130929546Y-94988865D01*
X131056866Y-95075859D01*
X131208000Y-95106464D01*
X132977000Y-95106464D01*
X132977000Y-95198052D01*
X132845516Y-95329536D01*
X131208000Y-95329536D01*
X131066810Y-95356103D01*
X130937135Y-95439546D01*
X130850141Y-95566866D01*
X130825814Y-95687000D01*
X130519005Y-95687000D01*
X130519000Y-95686999D01*
X130315795Y-95727420D01*
X130143526Y-95842526D01*
X127367516Y-98618536D01*
X127030000Y-98618536D01*
X126888810Y-98645103D01*
X126759135Y-98728546D01*
X126672141Y-98855866D01*
X126641536Y-99007000D01*
X126641536Y-99907000D01*
X126649000Y-99946667D01*
X126649000Y-100418536D01*
X125680000Y-100418536D01*
X125538810Y-100445103D01*
X125409135Y-100528546D01*
X125322141Y-100655866D01*
X125291536Y-100807000D01*
X125291536Y-100926000D01*
X125148019Y-100926000D01*
X125138454Y-100911135D01*
X125011134Y-100824141D01*
X124860000Y-100793536D01*
X123800000Y-100793536D01*
X123658810Y-100820103D01*
X123529135Y-100903546D01*
X123442141Y-101030866D01*
X123411536Y-101182000D01*
X123411536Y-101832000D01*
X123438103Y-101973190D01*
X123521546Y-102102865D01*
X123648866Y-102189859D01*
X123699000Y-102200011D01*
X123699000Y-104205208D01*
X123480917Y-104248587D01*
X123081552Y-104515435D01*
X122814704Y-104914800D01*
X122721000Y-105385883D01*
X122721000Y-105434117D01*
X122814704Y-105905200D01*
X123081552Y-106304565D01*
X123439891Y-106544000D01*
X121924109Y-106544000D01*
X122282448Y-106304565D01*
X122549296Y-105905200D01*
X122643000Y-105434117D01*
X122643000Y-105385883D01*
X122549296Y-104914800D01*
X122282448Y-104515435D01*
X121883083Y-104248587D01*
X121412000Y-104154883D01*
X121211000Y-104194864D01*
X121211000Y-102270621D01*
X121287859Y-102158134D01*
X121291936Y-102138000D01*
X121372968Y-102138000D01*
X121448866Y-102189859D01*
X121600000Y-102220464D01*
X122660000Y-102220464D01*
X122801190Y-102193897D01*
X122930865Y-102110454D01*
X123017859Y-101983134D01*
X123048464Y-101832000D01*
X123048464Y-101391561D01*
X123198327Y-101241699D01*
X123295000Y-101008310D01*
X123295000Y-100842750D01*
X123136250Y-100684000D01*
X122257000Y-100684000D01*
X122257000Y-100704000D01*
X122003000Y-100704000D01*
X122003000Y-100684000D01*
X121123750Y-100684000D01*
X121062402Y-100745348D01*
X120930000Y-100718536D01*
X120430000Y-100718536D01*
X120288810Y-100745103D01*
X120159135Y-100828546D01*
X120072141Y-100955866D01*
X120065000Y-100991130D01*
X120065000Y-100980690D01*
X119968327Y-100747301D01*
X119816489Y-100595464D01*
X120780000Y-100595464D01*
X120921190Y-100568897D01*
X121050865Y-100485454D01*
X121102960Y-100409210D01*
X121123750Y-100430000D01*
X122003000Y-100430000D01*
X122003000Y-100410000D01*
X122257000Y-100410000D01*
X122257000Y-100430000D01*
X123136250Y-100430000D01*
X123295000Y-100271250D01*
X123295000Y-100105690D01*
X123198327Y-99872301D01*
X123048464Y-99722439D01*
X123048464Y-99282000D01*
X123411536Y-99282000D01*
X123411536Y-99932000D01*
X123438103Y-100073190D01*
X123521546Y-100202865D01*
X123648866Y-100289859D01*
X123800000Y-100320464D01*
X124860000Y-100320464D01*
X125001190Y-100293897D01*
X125088057Y-100238000D01*
X125339557Y-100238000D01*
X125378866Y-100264859D01*
X125530000Y-100295464D01*
X126030000Y-100295464D01*
X126171190Y-100268897D01*
X126300865Y-100185454D01*
X126387859Y-100058134D01*
X126418464Y-99907000D01*
X126418464Y-99007000D01*
X126391897Y-98865810D01*
X126308454Y-98736135D01*
X126181134Y-98649141D01*
X126030000Y-98618536D01*
X125530000Y-98618536D01*
X125388810Y-98645103D01*
X125259135Y-98728546D01*
X125172141Y-98855866D01*
X125147814Y-98976000D01*
X125087032Y-98976000D01*
X125011134Y-98924141D01*
X124860000Y-98893536D01*
X123800000Y-98893536D01*
X123658810Y-98920103D01*
X123529135Y-99003546D01*
X123442141Y-99130866D01*
X123411536Y-99282000D01*
X123048464Y-99282000D01*
X123021897Y-99140810D01*
X122938454Y-99011135D01*
X122811134Y-98924141D01*
X122660000Y-98893536D01*
X121600000Y-98893536D01*
X121458810Y-98920103D01*
X121371943Y-98976000D01*
X121168464Y-98976000D01*
X121168464Y-98707000D01*
X121141897Y-98565810D01*
X121058454Y-98436135D01*
X120931134Y-98349141D01*
X120780000Y-98318536D01*
X120431333Y-98318536D01*
X120392637Y-98123999D01*
X120387968Y-98100526D01*
X120251184Y-97895816D01*
X119780098Y-97424730D01*
X119780136Y-97381331D01*
X119661486Y-97094177D01*
X119441979Y-96874286D01*
X119155032Y-96755136D01*
X118844331Y-96754864D01*
X118557177Y-96873514D01*
X118337286Y-97093021D01*
X118218136Y-97379968D01*
X118217864Y-97690669D01*
X118336514Y-97977823D01*
X118556021Y-98197714D01*
X118842968Y-98316864D01*
X118887535Y-98316903D01*
X118889168Y-98318536D01*
X118830000Y-98318536D01*
X118688810Y-98345103D01*
X118592963Y-98406778D01*
X118568327Y-98347301D01*
X118389698Y-98168673D01*
X118156309Y-98072000D01*
X117340750Y-98072000D01*
X117182000Y-98230750D01*
X117182000Y-99330000D01*
X117202000Y-99330000D01*
X117202000Y-99584000D01*
X117182000Y-99584000D01*
X117182000Y-100683250D01*
X117340750Y-100842000D01*
X118156309Y-100842000D01*
X118389698Y-100745327D01*
X118568327Y-100566699D01*
X118593305Y-100506398D01*
X118641367Y-100539237D01*
X118570302Y-100568673D01*
X118391673Y-100747301D01*
X118295000Y-100980690D01*
X118295000Y-101271250D01*
X118453750Y-101430000D01*
X119055000Y-101430000D01*
X119055000Y-101410000D01*
X119305000Y-101410000D01*
X119305000Y-101430000D01*
X119327000Y-101430000D01*
X119327000Y-101684000D01*
X119305000Y-101684000D01*
X119305000Y-102483250D01*
X119463750Y-102642000D01*
X119556309Y-102642000D01*
X119789698Y-102545327D01*
X119968327Y-102366699D01*
X120065000Y-102133310D01*
X120065000Y-102131699D01*
X120068103Y-102148190D01*
X120149000Y-102273908D01*
X120149000Y-104678000D01*
X120157578Y-104721125D01*
X120067183Y-104528642D01*
X119638924Y-104138355D01*
X119228890Y-103968524D01*
X118999000Y-104089845D01*
X118999000Y-105283000D01*
X119019000Y-105283000D01*
X119019000Y-105537000D01*
X118999000Y-105537000D01*
X118999000Y-105557000D01*
X118745000Y-105557000D01*
X118745000Y-105537000D01*
X118725000Y-105537000D01*
X118725000Y-105283000D01*
X118745000Y-105283000D01*
X118745000Y-104089845D01*
X118515110Y-103968524D01*
X118105076Y-104138355D01*
X117676817Y-104528642D01*
X117477083Y-104953947D01*
X117469296Y-104914800D01*
X117202448Y-104515435D01*
X116803083Y-104248587D01*
X116332000Y-104154883D01*
X116324331Y-104156409D01*
X114744961Y-102577039D01*
X114477000Y-102397993D01*
X114477000Y-101864750D01*
X114455000Y-101842750D01*
X118295000Y-101842750D01*
X118295000Y-102133310D01*
X118391673Y-102366699D01*
X118570302Y-102545327D01*
X118803691Y-102642000D01*
X118896250Y-102642000D01*
X119055000Y-102483250D01*
X119055000Y-101684000D01*
X118453750Y-101684000D01*
X118295000Y-101842750D01*
X114455000Y-101842750D01*
X114318250Y-101706000D01*
X112994000Y-101706000D01*
X112994000Y-101726000D01*
X112740000Y-101726000D01*
X112740000Y-101706000D01*
X112720000Y-101706000D01*
X112720000Y-101452000D01*
X112740000Y-101452000D01*
X112740000Y-101432000D01*
X112994000Y-101432000D01*
X112994000Y-101452000D01*
X114318250Y-101452000D01*
X114477000Y-101293250D01*
X114477000Y-100702690D01*
X114380327Y-100469301D01*
X114288002Y-100376977D01*
X114288002Y-100292252D01*
X114446750Y-100451000D01*
X114687309Y-100451000D01*
X114920698Y-100354327D01*
X115099327Y-100175699D01*
X115196000Y-99942310D01*
X115196000Y-99742750D01*
X115445000Y-99742750D01*
X115445000Y-100333310D01*
X115541673Y-100566699D01*
X115720302Y-100745327D01*
X115953691Y-100842000D01*
X116769250Y-100842000D01*
X116928000Y-100683250D01*
X116928000Y-99584000D01*
X115603750Y-99584000D01*
X115445000Y-99742750D01*
X115196000Y-99742750D01*
X115196000Y-99726750D01*
X115037250Y-99568000D01*
X114288000Y-99568000D01*
X114288000Y-99588000D01*
X114034000Y-99588000D01*
X114034000Y-99568000D01*
X114014000Y-99568000D01*
X114014000Y-99314000D01*
X114034000Y-99314000D01*
X114034000Y-99294000D01*
X114288000Y-99294000D01*
X114288000Y-99314000D01*
X115037250Y-99314000D01*
X115196000Y-99155250D01*
X115196000Y-98939690D01*
X115099327Y-98706301D01*
X115033402Y-98640376D01*
X115046260Y-98627540D01*
X115069794Y-98570863D01*
X115199925Y-98624898D01*
X115431061Y-98625100D01*
X115445000Y-98619341D01*
X115445000Y-99171250D01*
X115603750Y-99330000D01*
X116928000Y-99330000D01*
X116928000Y-98230750D01*
X116785960Y-98088710D01*
X116786100Y-97928939D01*
X116697835Y-97715320D01*
X116618653Y-97636000D01*
X116626220Y-97636000D01*
X116637460Y-97647260D01*
X116850925Y-97735898D01*
X117082061Y-97736100D01*
X117295680Y-97647835D01*
X117459260Y-97484540D01*
X117547898Y-97271075D01*
X117548100Y-97039939D01*
X117501736Y-96927728D01*
X117612925Y-96973898D01*
X117844061Y-96974100D01*
X118057680Y-96885835D01*
X118221260Y-96722540D01*
X118309898Y-96509075D01*
X118310100Y-96277939D01*
X118263736Y-96165728D01*
X118374925Y-96211898D01*
X118606061Y-96212100D01*
X118819680Y-96123835D01*
X118983260Y-95960540D01*
X119071898Y-95747075D01*
X119072100Y-95515939D01*
X119065101Y-95499000D01*
X119279126Y-95499000D01*
X119280103Y-95504190D01*
X119363546Y-95633865D01*
X119490866Y-95720859D01*
X119642000Y-95751464D01*
X120642000Y-95751464D01*
X120783190Y-95724897D01*
X120893368Y-95654000D01*
X121827052Y-95654000D01*
X122486266Y-96313214D01*
X122444141Y-96374866D01*
X122413536Y-96526000D01*
X122413536Y-97276000D01*
X122440103Y-97417190D01*
X122523546Y-97546865D01*
X122650866Y-97633859D01*
X122802000Y-97664464D01*
X123602000Y-97664464D01*
X123743190Y-97637897D01*
X123760081Y-97627028D01*
X123763673Y-97635699D01*
X123942302Y-97814327D01*
X124175691Y-97911000D01*
X124416250Y-97911000D01*
X124575000Y-97752250D01*
X124575000Y-97028000D01*
X124829000Y-97028000D01*
X124829000Y-97752250D01*
X124987750Y-97911000D01*
X125228309Y-97911000D01*
X125461698Y-97814327D01*
X125640327Y-97635699D01*
X125737000Y-97402310D01*
X125737000Y-97186750D01*
X125578250Y-97028000D01*
X124829000Y-97028000D01*
X124575000Y-97028000D01*
X124555000Y-97028000D01*
X124555000Y-96774000D01*
X124575000Y-96774000D01*
X124575000Y-96049750D01*
X124829000Y-96049750D01*
X124829000Y-96774000D01*
X125578250Y-96774000D01*
X125737000Y-96615250D01*
X125737000Y-96399690D01*
X125640327Y-96166301D01*
X125461698Y-95987673D01*
X125228309Y-95891000D01*
X124987750Y-95891000D01*
X124829000Y-96049750D01*
X124575000Y-96049750D01*
X124416250Y-95891000D01*
X124175691Y-95891000D01*
X123942302Y-95987673D01*
X123763673Y-96166301D01*
X123760754Y-96173348D01*
X123753134Y-96168141D01*
X123709386Y-96159282D01*
X123692580Y-96074795D01*
X123676681Y-96051000D01*
X123577474Y-95902526D01*
X123577471Y-95902524D01*
X122422474Y-94747526D01*
X122250205Y-94632420D01*
X122187567Y-94619961D01*
X122246898Y-94477075D01*
X122247100Y-94245939D01*
X122232593Y-94210829D01*
X123484882Y-95463118D01*
X123640929Y-95567386D01*
X123825000Y-95604000D01*
X126964329Y-95604000D01*
X126983546Y-95633865D01*
X127110866Y-95720859D01*
X127262000Y-95751464D01*
X128262000Y-95751464D01*
X128403190Y-95724897D01*
X128532865Y-95641454D01*
X128619859Y-95514134D01*
X128650464Y-95363000D01*
X128650464Y-94883000D01*
X128623897Y-94741810D01*
X128540454Y-94612135D01*
X128413134Y-94525141D01*
X128262000Y-94494536D01*
X127262000Y-94494536D01*
X127120810Y-94521103D01*
X126991135Y-94604546D01*
X126965544Y-94642000D01*
X124024236Y-94642000D01*
X123716236Y-94334000D01*
X126964329Y-94334000D01*
X126983546Y-94363865D01*
X127110866Y-94450859D01*
X127262000Y-94481464D01*
X128262000Y-94481464D01*
X128403190Y-94454897D01*
X128532865Y-94371454D01*
X128619859Y-94244134D01*
X128650464Y-94093000D01*
X128650464Y-93613000D01*
X128623897Y-93471810D01*
X128540454Y-93342135D01*
X128413134Y-93255141D01*
X128262000Y-93224536D01*
X127262000Y-93224536D01*
X127120810Y-93251103D01*
X126991135Y-93334546D01*
X126965544Y-93372000D01*
X124263150Y-93372000D01*
X124278898Y-93334075D01*
X124278913Y-93317324D01*
X124532237Y-93064000D01*
X126964329Y-93064000D01*
X126983546Y-93093865D01*
X127110866Y-93180859D01*
X127262000Y-93211464D01*
X128262000Y-93211464D01*
X128403190Y-93184897D01*
X128532865Y-93101454D01*
X128619859Y-92974134D01*
X128650464Y-92823000D01*
X128650464Y-92754700D01*
X130453882Y-94558119D01*
X130453882Y-94558119D01*
G37*
X130453882Y-94558119D02*
X130539011Y-94615000D01*
X130609929Y-94662386D01*
X130794000Y-94699000D01*
X130819536Y-94699000D01*
X130819536Y-94718000D01*
X130846103Y-94859190D01*
X130929546Y-94988865D01*
X131056866Y-95075859D01*
X131208000Y-95106464D01*
X132977000Y-95106464D01*
X132977000Y-95198052D01*
X132845516Y-95329536D01*
X131208000Y-95329536D01*
X131066810Y-95356103D01*
X130937135Y-95439546D01*
X130850141Y-95566866D01*
X130825814Y-95687000D01*
X130519005Y-95687000D01*
X130519000Y-95686999D01*
X130315795Y-95727420D01*
X130143526Y-95842526D01*
X127367516Y-98618536D01*
X127030000Y-98618536D01*
X126888810Y-98645103D01*
X126759135Y-98728546D01*
X126672141Y-98855866D01*
X126641536Y-99007000D01*
X126641536Y-99907000D01*
X126649000Y-99946667D01*
X126649000Y-100418536D01*
X125680000Y-100418536D01*
X125538810Y-100445103D01*
X125409135Y-100528546D01*
X125322141Y-100655866D01*
X125291536Y-100807000D01*
X125291536Y-100926000D01*
X125148019Y-100926000D01*
X125138454Y-100911135D01*
X125011134Y-100824141D01*
X124860000Y-100793536D01*
X123800000Y-100793536D01*
X123658810Y-100820103D01*
X123529135Y-100903546D01*
X123442141Y-101030866D01*
X123411536Y-101182000D01*
X123411536Y-101832000D01*
X123438103Y-101973190D01*
X123521546Y-102102865D01*
X123648866Y-102189859D01*
X123699000Y-102200011D01*
X123699000Y-104205208D01*
X123480917Y-104248587D01*
X123081552Y-104515435D01*
X122814704Y-104914800D01*
X122721000Y-105385883D01*
X122721000Y-105434117D01*
X122814704Y-105905200D01*
X123081552Y-106304565D01*
X123439891Y-106544000D01*
X121924109Y-106544000D01*
X122282448Y-106304565D01*
X122549296Y-105905200D01*
X122643000Y-105434117D01*
X122643000Y-105385883D01*
X122549296Y-104914800D01*
X122282448Y-104515435D01*
X121883083Y-104248587D01*
X121412000Y-104154883D01*
X121211000Y-104194864D01*
X121211000Y-102270621D01*
X121287859Y-102158134D01*
X121291936Y-102138000D01*
X121372968Y-102138000D01*
X121448866Y-102189859D01*
X121600000Y-102220464D01*
X122660000Y-102220464D01*
X122801190Y-102193897D01*
X122930865Y-102110454D01*
X123017859Y-101983134D01*
X123048464Y-101832000D01*
X123048464Y-101391561D01*
X123198327Y-101241699D01*
X123295000Y-101008310D01*
X123295000Y-100842750D01*
X123136250Y-100684000D01*
X122257000Y-100684000D01*
X122257000Y-100704000D01*
X122003000Y-100704000D01*
X122003000Y-100684000D01*
X121123750Y-100684000D01*
X121062402Y-100745348D01*
X120930000Y-100718536D01*
X120430000Y-100718536D01*
X120288810Y-100745103D01*
X120159135Y-100828546D01*
X120072141Y-100955866D01*
X120065000Y-100991130D01*
X120065000Y-100980690D01*
X119968327Y-100747301D01*
X119816489Y-100595464D01*
X120780000Y-100595464D01*
X120921190Y-100568897D01*
X121050865Y-100485454D01*
X121102960Y-100409210D01*
X121123750Y-100430000D01*
X122003000Y-100430000D01*
X122003000Y-100410000D01*
X122257000Y-100410000D01*
X122257000Y-100430000D01*
X123136250Y-100430000D01*
X123295000Y-100271250D01*
X123295000Y-100105690D01*
X123198327Y-99872301D01*
X123048464Y-99722439D01*
X123048464Y-99282000D01*
X123411536Y-99282000D01*
X123411536Y-99932000D01*
X123438103Y-100073190D01*
X123521546Y-100202865D01*
X123648866Y-100289859D01*
X123800000Y-100320464D01*
X124860000Y-100320464D01*
X125001190Y-100293897D01*
X125088057Y-100238000D01*
X125339557Y-100238000D01*
X125378866Y-100264859D01*
X125530000Y-100295464D01*
X126030000Y-100295464D01*
X126171190Y-100268897D01*
X126300865Y-100185454D01*
X126387859Y-100058134D01*
X126418464Y-99907000D01*
X126418464Y-99007000D01*
X126391897Y-98865810D01*
X126308454Y-98736135D01*
X126181134Y-98649141D01*
X126030000Y-98618536D01*
X125530000Y-98618536D01*
X125388810Y-98645103D01*
X125259135Y-98728546D01*
X125172141Y-98855866D01*
X125147814Y-98976000D01*
X125087032Y-98976000D01*
X125011134Y-98924141D01*
X124860000Y-98893536D01*
X123800000Y-98893536D01*
X123658810Y-98920103D01*
X123529135Y-99003546D01*
X123442141Y-99130866D01*
X123411536Y-99282000D01*
X123048464Y-99282000D01*
X123021897Y-99140810D01*
X122938454Y-99011135D01*
X122811134Y-98924141D01*
X122660000Y-98893536D01*
X121600000Y-98893536D01*
X121458810Y-98920103D01*
X121371943Y-98976000D01*
X121168464Y-98976000D01*
X121168464Y-98707000D01*
X121141897Y-98565810D01*
X121058454Y-98436135D01*
X120931134Y-98349141D01*
X120780000Y-98318536D01*
X120431333Y-98318536D01*
X120392637Y-98123999D01*
X120387968Y-98100526D01*
X120251184Y-97895816D01*
X119780098Y-97424730D01*
X119780136Y-97381331D01*
X119661486Y-97094177D01*
X119441979Y-96874286D01*
X119155032Y-96755136D01*
X118844331Y-96754864D01*
X118557177Y-96873514D01*
X118337286Y-97093021D01*
X118218136Y-97379968D01*
X118217864Y-97690669D01*
X118336514Y-97977823D01*
X118556021Y-98197714D01*
X118842968Y-98316864D01*
X118887535Y-98316903D01*
X118889168Y-98318536D01*
X118830000Y-98318536D01*
X118688810Y-98345103D01*
X118592963Y-98406778D01*
X118568327Y-98347301D01*
X118389698Y-98168673D01*
X118156309Y-98072000D01*
X117340750Y-98072000D01*
X117182000Y-98230750D01*
X117182000Y-99330000D01*
X117202000Y-99330000D01*
X117202000Y-99584000D01*
X117182000Y-99584000D01*
X117182000Y-100683250D01*
X117340750Y-100842000D01*
X118156309Y-100842000D01*
X118389698Y-100745327D01*
X118568327Y-100566699D01*
X118593305Y-100506398D01*
X118641367Y-100539237D01*
X118570302Y-100568673D01*
X118391673Y-100747301D01*
X118295000Y-100980690D01*
X118295000Y-101271250D01*
X118453750Y-101430000D01*
X119055000Y-101430000D01*
X119055000Y-101410000D01*
X119305000Y-101410000D01*
X119305000Y-101430000D01*
X119327000Y-101430000D01*
X119327000Y-101684000D01*
X119305000Y-101684000D01*
X119305000Y-102483250D01*
X119463750Y-102642000D01*
X119556309Y-102642000D01*
X119789698Y-102545327D01*
X119968327Y-102366699D01*
X120065000Y-102133310D01*
X120065000Y-102131699D01*
X120068103Y-102148190D01*
X120149000Y-102273908D01*
X120149000Y-104678000D01*
X120157578Y-104721125D01*
X120067183Y-104528642D01*
X119638924Y-104138355D01*
X119228890Y-103968524D01*
X118999000Y-104089845D01*
X118999000Y-105283000D01*
X119019000Y-105283000D01*
X119019000Y-105537000D01*
X118999000Y-105537000D01*
X118999000Y-105557000D01*
X118745000Y-105557000D01*
X118745000Y-105537000D01*
X118725000Y-105537000D01*
X118725000Y-105283000D01*
X118745000Y-105283000D01*
X118745000Y-104089845D01*
X118515110Y-103968524D01*
X118105076Y-104138355D01*
X117676817Y-104528642D01*
X117477083Y-104953947D01*
X117469296Y-104914800D01*
X117202448Y-104515435D01*
X116803083Y-104248587D01*
X116332000Y-104154883D01*
X116324331Y-104156409D01*
X114744961Y-102577039D01*
X114477000Y-102397993D01*
X114477000Y-101864750D01*
X114455000Y-101842750D01*
X118295000Y-101842750D01*
X118295000Y-102133310D01*
X118391673Y-102366699D01*
X118570302Y-102545327D01*
X118803691Y-102642000D01*
X118896250Y-102642000D01*
X119055000Y-102483250D01*
X119055000Y-101684000D01*
X118453750Y-101684000D01*
X118295000Y-101842750D01*
X114455000Y-101842750D01*
X114318250Y-101706000D01*
X112994000Y-101706000D01*
X112994000Y-101726000D01*
X112740000Y-101726000D01*
X112740000Y-101706000D01*
X112720000Y-101706000D01*
X112720000Y-101452000D01*
X112740000Y-101452000D01*
X112740000Y-101432000D01*
X112994000Y-101432000D01*
X112994000Y-101452000D01*
X114318250Y-101452000D01*
X114477000Y-101293250D01*
X114477000Y-100702690D01*
X114380327Y-100469301D01*
X114288002Y-100376977D01*
X114288002Y-100292252D01*
X114446750Y-100451000D01*
X114687309Y-100451000D01*
X114920698Y-100354327D01*
X115099327Y-100175699D01*
X115196000Y-99942310D01*
X115196000Y-99742750D01*
X115445000Y-99742750D01*
X115445000Y-100333310D01*
X115541673Y-100566699D01*
X115720302Y-100745327D01*
X115953691Y-100842000D01*
X116769250Y-100842000D01*
X116928000Y-100683250D01*
X116928000Y-99584000D01*
X115603750Y-99584000D01*
X115445000Y-99742750D01*
X115196000Y-99742750D01*
X115196000Y-99726750D01*
X115037250Y-99568000D01*
X114288000Y-99568000D01*
X114288000Y-99588000D01*
X114034000Y-99588000D01*
X114034000Y-99568000D01*
X114014000Y-99568000D01*
X114014000Y-99314000D01*
X114034000Y-99314000D01*
X114034000Y-99294000D01*
X114288000Y-99294000D01*
X114288000Y-99314000D01*
X115037250Y-99314000D01*
X115196000Y-99155250D01*
X115196000Y-98939690D01*
X115099327Y-98706301D01*
X115033402Y-98640376D01*
X115046260Y-98627540D01*
X115069794Y-98570863D01*
X115199925Y-98624898D01*
X115431061Y-98625100D01*
X115445000Y-98619341D01*
X115445000Y-99171250D01*
X115603750Y-99330000D01*
X116928000Y-99330000D01*
X116928000Y-98230750D01*
X116785960Y-98088710D01*
X116786100Y-97928939D01*
X116697835Y-97715320D01*
X116618653Y-97636000D01*
X116626220Y-97636000D01*
X116637460Y-97647260D01*
X116850925Y-97735898D01*
X117082061Y-97736100D01*
X117295680Y-97647835D01*
X117459260Y-97484540D01*
X117547898Y-97271075D01*
X117548100Y-97039939D01*
X117501736Y-96927728D01*
X117612925Y-96973898D01*
X117844061Y-96974100D01*
X118057680Y-96885835D01*
X118221260Y-96722540D01*
X118309898Y-96509075D01*
X118310100Y-96277939D01*
X118263736Y-96165728D01*
X118374925Y-96211898D01*
X118606061Y-96212100D01*
X118819680Y-96123835D01*
X118983260Y-95960540D01*
X119071898Y-95747075D01*
X119072100Y-95515939D01*
X119065101Y-95499000D01*
X119279126Y-95499000D01*
X119280103Y-95504190D01*
X119363546Y-95633865D01*
X119490866Y-95720859D01*
X119642000Y-95751464D01*
X120642000Y-95751464D01*
X120783190Y-95724897D01*
X120893368Y-95654000D01*
X121827052Y-95654000D01*
X122486266Y-96313214D01*
X122444141Y-96374866D01*
X122413536Y-96526000D01*
X122413536Y-97276000D01*
X122440103Y-97417190D01*
X122523546Y-97546865D01*
X122650866Y-97633859D01*
X122802000Y-97664464D01*
X123602000Y-97664464D01*
X123743190Y-97637897D01*
X123760081Y-97627028D01*
X123763673Y-97635699D01*
X123942302Y-97814327D01*
X124175691Y-97911000D01*
X124416250Y-97911000D01*
X124575000Y-97752250D01*
X124575000Y-97028000D01*
X124829000Y-97028000D01*
X124829000Y-97752250D01*
X124987750Y-97911000D01*
X125228309Y-97911000D01*
X125461698Y-97814327D01*
X125640327Y-97635699D01*
X125737000Y-97402310D01*
X125737000Y-97186750D01*
X125578250Y-97028000D01*
X124829000Y-97028000D01*
X124575000Y-97028000D01*
X124555000Y-97028000D01*
X124555000Y-96774000D01*
X124575000Y-96774000D01*
X124575000Y-96049750D01*
X124829000Y-96049750D01*
X124829000Y-96774000D01*
X125578250Y-96774000D01*
X125737000Y-96615250D01*
X125737000Y-96399690D01*
X125640327Y-96166301D01*
X125461698Y-95987673D01*
X125228309Y-95891000D01*
X124987750Y-95891000D01*
X124829000Y-96049750D01*
X124575000Y-96049750D01*
X124416250Y-95891000D01*
X124175691Y-95891000D01*
X123942302Y-95987673D01*
X123763673Y-96166301D01*
X123760754Y-96173348D01*
X123753134Y-96168141D01*
X123709386Y-96159282D01*
X123692580Y-96074795D01*
X123676681Y-96051000D01*
X123577474Y-95902526D01*
X123577471Y-95902524D01*
X122422474Y-94747526D01*
X122250205Y-94632420D01*
X122187567Y-94619961D01*
X122246898Y-94477075D01*
X122247100Y-94245939D01*
X122232593Y-94210829D01*
X123484882Y-95463118D01*
X123640929Y-95567386D01*
X123825000Y-95604000D01*
X126964329Y-95604000D01*
X126983546Y-95633865D01*
X127110866Y-95720859D01*
X127262000Y-95751464D01*
X128262000Y-95751464D01*
X128403190Y-95724897D01*
X128532865Y-95641454D01*
X128619859Y-95514134D01*
X128650464Y-95363000D01*
X128650464Y-94883000D01*
X128623897Y-94741810D01*
X128540454Y-94612135D01*
X128413134Y-94525141D01*
X128262000Y-94494536D01*
X127262000Y-94494536D01*
X127120810Y-94521103D01*
X126991135Y-94604546D01*
X126965544Y-94642000D01*
X124024236Y-94642000D01*
X123716236Y-94334000D01*
X126964329Y-94334000D01*
X126983546Y-94363865D01*
X127110866Y-94450859D01*
X127262000Y-94481464D01*
X128262000Y-94481464D01*
X128403190Y-94454897D01*
X128532865Y-94371454D01*
X128619859Y-94244134D01*
X128650464Y-94093000D01*
X128650464Y-93613000D01*
X128623897Y-93471810D01*
X128540454Y-93342135D01*
X128413134Y-93255141D01*
X128262000Y-93224536D01*
X127262000Y-93224536D01*
X127120810Y-93251103D01*
X126991135Y-93334546D01*
X126965544Y-93372000D01*
X124263150Y-93372000D01*
X124278898Y-93334075D01*
X124278913Y-93317324D01*
X124532237Y-93064000D01*
X126964329Y-93064000D01*
X126983546Y-93093865D01*
X127110866Y-93180859D01*
X127262000Y-93211464D01*
X128262000Y-93211464D01*
X128403190Y-93184897D01*
X128532865Y-93101454D01*
X128619859Y-92974134D01*
X128650464Y-92823000D01*
X128650464Y-92754700D01*
X130453882Y-94558119D01*
G36*
X97771228Y-93711536D02*
X97288000Y-93711536D01*
X97146810Y-93738103D01*
X97017135Y-93821546D01*
X96930141Y-93948866D01*
X96915939Y-94019000D01*
X96633223Y-94019000D01*
X96621897Y-93958810D01*
X96538454Y-93829135D01*
X96411134Y-93742141D01*
X96260000Y-93711536D01*
X95510000Y-93711536D01*
X95368810Y-93738103D01*
X95239135Y-93821546D01*
X95152141Y-93948866D01*
X95137939Y-94019000D01*
X94855223Y-94019000D01*
X94843897Y-93958810D01*
X94760454Y-93829135D01*
X94633134Y-93742141D01*
X94482000Y-93711536D01*
X93732000Y-93711536D01*
X93590810Y-93738103D01*
X93461135Y-93821546D01*
X93374141Y-93948866D01*
X93359939Y-94019000D01*
X93077223Y-94019000D01*
X93065897Y-93958810D01*
X92982454Y-93829135D01*
X92855134Y-93742141D01*
X92704000Y-93711536D01*
X91954000Y-93711536D01*
X91812810Y-93738103D01*
X91683135Y-93821546D01*
X91596141Y-93948866D01*
X91565536Y-94100000D01*
X91565536Y-94900000D01*
X91592103Y-95041190D01*
X91602972Y-95058081D01*
X91594301Y-95061673D01*
X91415673Y-95240302D01*
X91319000Y-95473691D01*
X91319000Y-95714250D01*
X91477750Y-95873000D01*
X92202000Y-95873000D01*
X92202000Y-95853000D01*
X92456000Y-95853000D01*
X92456000Y-95873000D01*
X93180250Y-95873000D01*
X93218000Y-95835250D01*
X93255750Y-95873000D01*
X93980000Y-95873000D01*
X93980000Y-95853000D01*
X94234000Y-95853000D01*
X94234000Y-95873000D01*
X94958250Y-95873000D01*
X94996000Y-95835250D01*
X95033750Y-95873000D01*
X95758000Y-95873000D01*
X95758000Y-95853000D01*
X96012000Y-95853000D01*
X96012000Y-95873000D01*
X96736250Y-95873000D01*
X96774000Y-95835250D01*
X96811750Y-95873000D01*
X97536000Y-95873000D01*
X97536000Y-95853000D01*
X97790000Y-95853000D01*
X97790000Y-95873000D01*
X98514250Y-95873000D01*
X98673000Y-95714250D01*
X98673000Y-95473691D01*
X98576327Y-95240302D01*
X98397699Y-95061673D01*
X98390652Y-95058754D01*
X98395859Y-95051134D01*
X98426464Y-94900000D01*
X98426464Y-94416772D01*
X98677536Y-94165700D01*
X98677536Y-94900000D01*
X98704103Y-95041190D01*
X98787546Y-95170865D01*
X98904798Y-95250980D01*
X98795135Y-95321546D01*
X98708141Y-95448866D01*
X98677536Y-95600000D01*
X98677536Y-96400000D01*
X98704103Y-96541190D01*
X98787546Y-96670865D01*
X98914866Y-96757859D01*
X99066000Y-96788464D01*
X99816000Y-96788464D01*
X99957190Y-96761897D01*
X100086865Y-96678454D01*
X100173859Y-96551134D01*
X100204464Y-96400000D01*
X100204464Y-95916772D01*
X100455536Y-95665700D01*
X100455536Y-96400000D01*
X100482103Y-96541190D01*
X100565546Y-96670865D01*
X100692866Y-96757859D01*
X100844000Y-96788464D01*
X101594000Y-96788464D01*
X101684289Y-96771475D01*
X101527764Y-96928000D01*
X98408026Y-96928000D01*
X98576327Y-96759698D01*
X98673000Y-96526309D01*
X98673000Y-96285750D01*
X98514250Y-96127000D01*
X97790000Y-96127000D01*
X97790000Y-96147000D01*
X97536000Y-96147000D01*
X97536000Y-96127000D01*
X96811750Y-96127000D01*
X96774000Y-96164750D01*
X96736250Y-96127000D01*
X96012000Y-96127000D01*
X96012000Y-96147000D01*
X95758000Y-96147000D01*
X95758000Y-96127000D01*
X95033750Y-96127000D01*
X94996000Y-96164750D01*
X94958250Y-96127000D01*
X94234000Y-96127000D01*
X94234000Y-96147000D01*
X93980000Y-96147000D01*
X93980000Y-96127000D01*
X93255750Y-96127000D01*
X93218000Y-96164750D01*
X93180250Y-96127000D01*
X92456000Y-96127000D01*
X92456000Y-96147000D01*
X92202000Y-96147000D01*
X92202000Y-96127000D01*
X91477750Y-96127000D01*
X91319000Y-96285750D01*
X91319000Y-96526309D01*
X91415673Y-96759698D01*
X91583974Y-96928000D01*
X91313000Y-96928000D01*
X91140130Y-96962386D01*
X91128929Y-96964614D01*
X90972881Y-97068882D01*
X90320382Y-97721382D01*
X90216114Y-97877429D01*
X90179500Y-98061500D01*
X90179500Y-98111869D01*
X90069310Y-98132603D01*
X89939635Y-98216046D01*
X89852641Y-98343366D01*
X89822036Y-98494500D01*
X89822036Y-98994500D01*
X89848603Y-99135690D01*
X89932046Y-99265365D01*
X90059366Y-99352359D01*
X90210500Y-99382964D01*
X91110500Y-99382964D01*
X91251690Y-99356397D01*
X91357697Y-99288184D01*
X91447173Y-99504198D01*
X91625801Y-99682827D01*
X91632848Y-99685746D01*
X91627641Y-99693366D01*
X91623564Y-99713500D01*
X91374121Y-99713500D01*
X91261634Y-99636641D01*
X91110500Y-99606036D01*
X90210500Y-99606036D01*
X90069310Y-99632603D01*
X89943592Y-99713500D01*
X89574121Y-99713500D01*
X89461634Y-99636641D01*
X89434629Y-99631172D01*
X89440898Y-99616075D01*
X89441100Y-99384939D01*
X89430921Y-99360305D01*
X89451690Y-99356397D01*
X89581365Y-99272954D01*
X89668359Y-99145634D01*
X89698964Y-98994500D01*
X89698964Y-98494500D01*
X89672397Y-98353310D01*
X89588954Y-98223635D01*
X89461634Y-98136641D01*
X89310500Y-98106036D01*
X88410500Y-98106036D01*
X88269310Y-98132603D01*
X88139635Y-98216046D01*
X88052641Y-98343366D01*
X88022036Y-98494500D01*
X88022036Y-98994500D01*
X88048603Y-99135690D01*
X88132046Y-99265365D01*
X88259366Y-99352359D01*
X88289662Y-99358494D01*
X88279102Y-99383925D01*
X88278900Y-99615061D01*
X88284933Y-99629663D01*
X88269310Y-99632603D01*
X88139635Y-99716046D01*
X88052641Y-99843366D01*
X88022036Y-99994500D01*
X88022036Y-100494500D01*
X88048603Y-100635690D01*
X88132046Y-100765365D01*
X88259366Y-100852359D01*
X88410500Y-100882964D01*
X89310500Y-100882964D01*
X89451690Y-100856397D01*
X89577408Y-100775500D01*
X89946879Y-100775500D01*
X90059366Y-100852359D01*
X90129500Y-100866561D01*
X90129500Y-100906036D01*
X89660500Y-100906036D01*
X89519310Y-100932603D01*
X89389635Y-101016046D01*
X89302641Y-101143366D01*
X89272036Y-101294500D01*
X89272036Y-102294500D01*
X89298603Y-102435690D01*
X89382046Y-102565365D01*
X89509366Y-102652359D01*
X89660500Y-102682964D01*
X90375016Y-102682964D01*
X90770476Y-103078424D01*
X90820165Y-103198680D01*
X90935827Y-103314544D01*
X90898786Y-103351521D01*
X90779636Y-103638468D01*
X90779364Y-103949169D01*
X90898014Y-104236323D01*
X91117521Y-104456214D01*
X91404468Y-104575364D01*
X91715169Y-104575636D01*
X92002323Y-104456986D01*
X92222214Y-104237479D01*
X92341307Y-103950669D01*
X94376864Y-103950669D01*
X94495514Y-104237823D01*
X94715021Y-104457714D01*
X95001968Y-104576864D01*
X95312669Y-104577136D01*
X95599823Y-104458486D01*
X95819714Y-104238979D01*
X95938864Y-103952032D01*
X95938865Y-103950669D01*
X96176864Y-103950669D01*
X96295514Y-104237823D01*
X96515021Y-104457714D01*
X96801968Y-104576864D01*
X97112669Y-104577136D01*
X97399823Y-104458486D01*
X97424661Y-104433691D01*
X99607000Y-104433691D01*
X99607000Y-105124250D01*
X99765750Y-105283000D01*
X100965000Y-105283000D01*
X100965000Y-104083750D01*
X100806250Y-103925000D01*
X100115690Y-103925000D01*
X99882301Y-104021673D01*
X99703673Y-104200302D01*
X99607000Y-104433691D01*
X97424661Y-104433691D01*
X97619714Y-104238979D01*
X97738864Y-103952032D01*
X97739136Y-103641331D01*
X97620486Y-103354177D01*
X97400979Y-103134286D01*
X97114032Y-103015136D01*
X96803331Y-103014864D01*
X96516177Y-103133514D01*
X96296286Y-103353021D01*
X96177136Y-103639968D01*
X96176864Y-103950669D01*
X95938865Y-103950669D01*
X95939136Y-103641331D01*
X95820486Y-103354177D01*
X95600979Y-103134286D01*
X95314032Y-103015136D01*
X95003331Y-103014864D01*
X94716177Y-103133514D01*
X94496286Y-103353021D01*
X94377136Y-103639968D01*
X94376864Y-103950669D01*
X92341307Y-103950669D01*
X92341364Y-103950532D01*
X92341636Y-103639831D01*
X92222986Y-103352677D01*
X92003479Y-103132786D01*
X91858053Y-103072400D01*
X91893898Y-102986075D01*
X91894100Y-102754939D01*
X91842526Y-102630120D01*
X91931365Y-102572954D01*
X92018359Y-102445634D01*
X92048964Y-102294500D01*
X92048964Y-101294500D01*
X92022397Y-101153310D01*
X91938954Y-101023635D01*
X91938753Y-101023498D01*
X91985500Y-101032964D01*
X92735500Y-101032964D01*
X92876690Y-101006397D01*
X93006365Y-100922954D01*
X93093359Y-100795634D01*
X93123964Y-100644500D01*
X93123964Y-99844500D01*
X93097397Y-99703310D01*
X93086528Y-99686419D01*
X93095199Y-99682827D01*
X93273827Y-99504198D01*
X93370500Y-99270809D01*
X93370500Y-99030250D01*
X93211750Y-98871500D01*
X92487500Y-98871500D01*
X92487500Y-98891500D01*
X92233500Y-98891500D01*
X92233500Y-98871500D01*
X92213500Y-98871500D01*
X92213500Y-98617500D01*
X92233500Y-98617500D01*
X92233500Y-98597500D01*
X92487500Y-98597500D01*
X92487500Y-98617500D01*
X93211750Y-98617500D01*
X93370500Y-98458750D01*
X93370500Y-98218191D01*
X93273827Y-97984802D01*
X93179026Y-97890000D01*
X96940974Y-97890000D01*
X96844673Y-97986302D01*
X96754725Y-98203455D01*
X96659134Y-98138141D01*
X96508000Y-98107536D01*
X95608000Y-98107536D01*
X95466810Y-98134103D01*
X95337135Y-98217546D01*
X95250141Y-98344866D01*
X95219536Y-98496000D01*
X95219536Y-98996000D01*
X95246103Y-99137190D01*
X95329546Y-99266865D01*
X95456866Y-99353859D01*
X95525791Y-99367816D01*
X95519102Y-99383925D01*
X95518900Y-99615061D01*
X95522443Y-99623635D01*
X95466810Y-99634103D01*
X95341092Y-99715000D01*
X94971621Y-99715000D01*
X94859134Y-99638141D01*
X94833861Y-99633023D01*
X94840898Y-99616075D01*
X94841100Y-99384939D01*
X94831316Y-99361260D01*
X94849190Y-99357897D01*
X94978865Y-99274454D01*
X95065859Y-99147134D01*
X95096464Y-98996000D01*
X95096464Y-98496000D01*
X95069897Y-98354810D01*
X94986454Y-98225135D01*
X94859134Y-98138141D01*
X94708000Y-98107536D01*
X93808000Y-98107536D01*
X93666810Y-98134103D01*
X93537135Y-98217546D01*
X93450141Y-98344866D01*
X93419536Y-98496000D01*
X93419536Y-98996000D01*
X93446103Y-99137190D01*
X93529546Y-99266865D01*
X93656866Y-99353859D01*
X93688893Y-99360345D01*
X93679102Y-99383925D01*
X93678900Y-99615061D01*
X93685328Y-99630619D01*
X93666810Y-99634103D01*
X93537135Y-99717546D01*
X93450141Y-99844866D01*
X93419536Y-99996000D01*
X93419536Y-100496000D01*
X93446103Y-100637190D01*
X93529546Y-100766865D01*
X93656866Y-100853859D01*
X93808000Y-100884464D01*
X94708000Y-100884464D01*
X94849190Y-100857897D01*
X94974908Y-100777000D01*
X95344379Y-100777000D01*
X95456866Y-100853859D01*
X95527000Y-100868061D01*
X95527000Y-100907536D01*
X95058000Y-100907536D01*
X94916810Y-100934103D01*
X94787135Y-101017546D01*
X94700141Y-101144866D01*
X94669536Y-101296000D01*
X94669536Y-102296000D01*
X94696103Y-102437190D01*
X94779546Y-102566865D01*
X94906866Y-102653859D01*
X95058000Y-102684464D01*
X97058000Y-102684464D01*
X97199190Y-102657897D01*
X97328865Y-102574454D01*
X97415859Y-102447134D01*
X97440186Y-102327000D01*
X97512052Y-102327000D01*
X97628477Y-102443425D01*
X97678165Y-102563680D01*
X97841460Y-102727260D01*
X98054925Y-102815898D01*
X98286061Y-102816100D01*
X98499680Y-102727835D01*
X98663260Y-102564540D01*
X98751898Y-102351075D01*
X98752100Y-102119939D01*
X98663835Y-101906320D01*
X98500540Y-101742740D01*
X98379377Y-101692429D01*
X98107474Y-101420526D01*
X97935205Y-101305420D01*
X97732000Y-101265000D01*
X97440631Y-101265000D01*
X97419897Y-101154810D01*
X97336454Y-101025135D01*
X97336253Y-101024998D01*
X97383000Y-101034464D01*
X98133000Y-101034464D01*
X98274190Y-101007897D01*
X98403865Y-100924454D01*
X98490859Y-100797134D01*
X98521464Y-100646000D01*
X98521464Y-99846000D01*
X98506176Y-99764750D01*
X98907000Y-99764750D01*
X98907000Y-100355310D01*
X99003673Y-100588699D01*
X99182302Y-100767327D01*
X99415691Y-100864000D01*
X100231250Y-100864000D01*
X100390000Y-100705250D01*
X100390000Y-99606000D01*
X99065750Y-99606000D01*
X98907000Y-99764750D01*
X98506176Y-99764750D01*
X98494897Y-99704810D01*
X98484028Y-99687919D01*
X98492699Y-99684327D01*
X98671327Y-99505698D01*
X98768000Y-99272309D01*
X98768000Y-99031750D01*
X98609250Y-98873000D01*
X97885000Y-98873000D01*
X97885000Y-98893000D01*
X97631000Y-98893000D01*
X97631000Y-98873000D01*
X97611000Y-98873000D01*
X97611000Y-98619000D01*
X97631000Y-98619000D01*
X97631000Y-98599000D01*
X97885000Y-98599000D01*
X97885000Y-98619000D01*
X98609250Y-98619000D01*
X98625560Y-98602690D01*
X98907000Y-98602690D01*
X98907000Y-99193250D01*
X99065750Y-99352000D01*
X100390000Y-99352000D01*
X100390000Y-98252750D01*
X100231250Y-98094000D01*
X99415691Y-98094000D01*
X99182302Y-98190673D01*
X99003673Y-98369301D01*
X98907000Y-98602690D01*
X98625560Y-98602690D01*
X98768000Y-98460250D01*
X98768000Y-98219691D01*
X98671327Y-97986302D01*
X98575026Y-97890000D01*
X101727000Y-97890000D01*
X101911071Y-97853386D01*
X102067118Y-97749118D01*
X102387486Y-97428750D01*
X102876000Y-97428750D01*
X102876000Y-97669309D01*
X102972673Y-97902698D01*
X103151301Y-98081327D01*
X103384690Y-98178000D01*
X103600250Y-98178000D01*
X103759000Y-98019250D01*
X103759000Y-97270000D01*
X103034750Y-97270000D01*
X102876000Y-97428750D01*
X102387486Y-97428750D01*
X102829119Y-96987118D01*
X102899914Y-96881164D01*
X103034750Y-97016000D01*
X103759000Y-97016000D01*
X103759000Y-96996000D01*
X104013000Y-96996000D01*
X104013000Y-97016000D01*
X104033000Y-97016000D01*
X104033000Y-97270000D01*
X104013000Y-97270000D01*
X104013000Y-98019250D01*
X104171750Y-98178000D01*
X104387310Y-98178000D01*
X104620699Y-98081327D01*
X104756536Y-97945489D01*
X104756536Y-98143000D01*
X104783103Y-98284190D01*
X104866546Y-98413865D01*
X104993866Y-98500859D01*
X105145000Y-98531464D01*
X106945000Y-98531464D01*
X107086190Y-98504897D01*
X107215865Y-98421454D01*
X107302859Y-98294134D01*
X107333464Y-98143000D01*
X107333464Y-97945489D01*
X107469301Y-98081327D01*
X107702690Y-98178000D01*
X107918250Y-98178000D01*
X108077000Y-98019250D01*
X108077000Y-97270000D01*
X108331000Y-97270000D01*
X108331000Y-98019250D01*
X108489750Y-98178000D01*
X108705310Y-98178000D01*
X108938699Y-98081327D01*
X109117327Y-97902698D01*
X109214000Y-97669309D01*
X109214000Y-97428750D01*
X109055250Y-97270000D01*
X108331000Y-97270000D01*
X108077000Y-97270000D01*
X108057000Y-97270000D01*
X108057000Y-97016000D01*
X108077000Y-97016000D01*
X108077000Y-96996000D01*
X108331000Y-96996000D01*
X108331000Y-97016000D01*
X109055250Y-97016000D01*
X109197250Y-96874000D01*
X110076337Y-96874000D01*
X109997740Y-96952460D01*
X109909102Y-97165925D01*
X109908900Y-97397061D01*
X109997165Y-97610680D01*
X110160460Y-97774260D01*
X110172157Y-97779117D01*
X110163102Y-97800925D01*
X110162900Y-98032061D01*
X110251165Y-98245680D01*
X110414460Y-98409260D01*
X110627925Y-98497898D01*
X110859061Y-98498100D01*
X111072680Y-98409835D01*
X111084536Y-98398000D01*
X111152000Y-98398000D01*
X111152000Y-98465220D01*
X111140740Y-98476460D01*
X111066358Y-98655594D01*
X110992000Y-98640536D01*
X110492000Y-98640536D01*
X110350810Y-98667103D01*
X110221135Y-98750546D01*
X110134141Y-98877866D01*
X110103536Y-99029000D01*
X110103536Y-99929000D01*
X110111000Y-99968667D01*
X110111000Y-100440536D01*
X109142000Y-100440536D01*
X109000810Y-100467103D01*
X108871135Y-100550546D01*
X108784141Y-100677866D01*
X108753536Y-100829000D01*
X108753536Y-100898000D01*
X108549032Y-100898000D01*
X108473134Y-100846141D01*
X108322000Y-100815536D01*
X107262000Y-100815536D01*
X107120810Y-100842103D01*
X106991135Y-100925546D01*
X106904141Y-101052866D01*
X106873536Y-101204000D01*
X106873536Y-101854000D01*
X106900103Y-101995190D01*
X106983546Y-102124865D01*
X107110866Y-102211859D01*
X107262000Y-102242464D01*
X108322000Y-102242464D01*
X108463190Y-102215897D01*
X108550057Y-102160000D01*
X108753536Y-102160000D01*
X108753536Y-102329000D01*
X108780103Y-102470190D01*
X108863546Y-102599865D01*
X108990866Y-102686859D01*
X109142000Y-102717464D01*
X109255983Y-102717464D01*
X109303062Y-102954144D01*
X109494039Y-103239961D01*
X110077039Y-103822961D01*
X110362856Y-104013938D01*
X110700000Y-104081000D01*
X113757078Y-104081000D01*
X113840635Y-104164557D01*
X113792000Y-104154883D01*
X113320917Y-104248587D01*
X112921552Y-104515435D01*
X112654704Y-104914800D01*
X112561000Y-105385883D01*
X112561000Y-105434117D01*
X112654704Y-105905200D01*
X112921552Y-106304565D01*
X113279891Y-106544000D01*
X111764109Y-106544000D01*
X112122448Y-106304565D01*
X112389296Y-105905200D01*
X112483000Y-105434117D01*
X112483000Y-105385883D01*
X112389296Y-104914800D01*
X112122448Y-104515435D01*
X111723083Y-104248587D01*
X111252000Y-104154883D01*
X110780917Y-104248587D01*
X110381552Y-104515435D01*
X110114704Y-104914800D01*
X110021000Y-105385883D01*
X110021000Y-105434117D01*
X110114704Y-105905200D01*
X110381552Y-106304565D01*
X110739891Y-106544000D01*
X109224109Y-106544000D01*
X109582448Y-106304565D01*
X109849296Y-105905200D01*
X109943000Y-105434117D01*
X109943000Y-105385883D01*
X109849296Y-104914800D01*
X109582448Y-104515435D01*
X109183083Y-104248587D01*
X108712000Y-104154883D01*
X108240917Y-104248587D01*
X107841552Y-104515435D01*
X107574704Y-104914800D01*
X107481000Y-105385883D01*
X107481000Y-105434117D01*
X107574704Y-105905200D01*
X107841552Y-106304565D01*
X108199891Y-106544000D01*
X106684109Y-106544000D01*
X107042448Y-106304565D01*
X107309296Y-105905200D01*
X107403000Y-105434117D01*
X107403000Y-105385883D01*
X107309296Y-104914800D01*
X107042448Y-104515435D01*
X106643083Y-104248587D01*
X106172000Y-104154883D01*
X105700917Y-104248587D01*
X105301552Y-104515435D01*
X105034704Y-104914800D01*
X104941000Y-105385883D01*
X104941000Y-105434117D01*
X105034704Y-105905200D01*
X105301552Y-106304565D01*
X105659891Y-106544000D01*
X104144109Y-106544000D01*
X104502448Y-106304565D01*
X104769296Y-105905200D01*
X104863000Y-105434117D01*
X104863000Y-105385883D01*
X104769296Y-104914800D01*
X104502448Y-104515435D01*
X104263000Y-104355440D01*
X104263000Y-102160000D01*
X104834968Y-102160000D01*
X104910866Y-102211859D01*
X105062000Y-102242464D01*
X106122000Y-102242464D01*
X106263190Y-102215897D01*
X106392865Y-102132454D01*
X106479859Y-102005134D01*
X106510464Y-101854000D01*
X106510464Y-101413561D01*
X106660327Y-101263699D01*
X106757000Y-101030310D01*
X106757000Y-100864750D01*
X106598250Y-100706000D01*
X105719000Y-100706000D01*
X105719000Y-100726000D01*
X105465000Y-100726000D01*
X105465000Y-100706000D01*
X104585750Y-100706000D01*
X104427000Y-100864750D01*
X104427000Y-100898000D01*
X104390368Y-100898000D01*
X104263000Y-100770632D01*
X104263000Y-100613513D01*
X104383190Y-100590897D01*
X104512865Y-100507454D01*
X104564960Y-100431210D01*
X104585750Y-100452000D01*
X105465000Y-100452000D01*
X105465000Y-100432000D01*
X105719000Y-100432000D01*
X105719000Y-100452000D01*
X106598250Y-100452000D01*
X106757000Y-100293250D01*
X106757000Y-100127690D01*
X106660327Y-99894301D01*
X106510464Y-99744439D01*
X106510464Y-99304000D01*
X106873536Y-99304000D01*
X106873536Y-99954000D01*
X106900103Y-100095190D01*
X106983546Y-100224865D01*
X107110866Y-100311859D01*
X107262000Y-100342464D01*
X108322000Y-100342464D01*
X108463190Y-100315897D01*
X108550057Y-100260000D01*
X108801557Y-100260000D01*
X108840866Y-100286859D01*
X108992000Y-100317464D01*
X109492000Y-100317464D01*
X109633190Y-100290897D01*
X109762865Y-100207454D01*
X109849859Y-100080134D01*
X109880464Y-99929000D01*
X109880464Y-99029000D01*
X109853897Y-98887810D01*
X109770454Y-98758135D01*
X109643134Y-98671141D01*
X109492000Y-98640536D01*
X108992000Y-98640536D01*
X108850810Y-98667103D01*
X108721135Y-98750546D01*
X108634141Y-98877866D01*
X108609814Y-98998000D01*
X108549032Y-98998000D01*
X108473134Y-98946141D01*
X108322000Y-98915536D01*
X107262000Y-98915536D01*
X107120810Y-98942103D01*
X106991135Y-99025546D01*
X106904141Y-99152866D01*
X106873536Y-99304000D01*
X106510464Y-99304000D01*
X106483897Y-99162810D01*
X106400454Y-99033135D01*
X106273134Y-98946141D01*
X106122000Y-98915536D01*
X105062000Y-98915536D01*
X104920810Y-98942103D01*
X104833943Y-98998000D01*
X104630464Y-98998000D01*
X104630464Y-98729000D01*
X104603897Y-98587810D01*
X104520454Y-98458135D01*
X104393134Y-98371141D01*
X104242000Y-98340536D01*
X102292000Y-98340536D01*
X102150810Y-98367103D01*
X102054963Y-98428778D01*
X102030327Y-98369301D01*
X101851698Y-98190673D01*
X101618309Y-98094000D01*
X100802750Y-98094000D01*
X100644000Y-98252750D01*
X100644000Y-99352000D01*
X100664000Y-99352000D01*
X100664000Y-99606000D01*
X100644000Y-99606000D01*
X100644000Y-100705250D01*
X100802750Y-100864000D01*
X101484020Y-100864000D01*
X101454136Y-100935968D01*
X101453864Y-101246669D01*
X101572514Y-101533823D01*
X101792021Y-101753714D01*
X102078968Y-101872864D01*
X102389669Y-101873136D01*
X102676823Y-101754486D01*
X102768469Y-101663000D01*
X103001000Y-101663000D01*
X103001000Y-104355440D01*
X102761552Y-104515435D01*
X102577000Y-104791636D01*
X102577000Y-104433691D01*
X102480327Y-104200302D01*
X102301699Y-104021673D01*
X102068310Y-103925000D01*
X101377750Y-103925000D01*
X101219000Y-104083750D01*
X101219000Y-105283000D01*
X101239000Y-105283000D01*
X101239000Y-105537000D01*
X101219000Y-105537000D01*
X101219000Y-105557000D01*
X100965000Y-105557000D01*
X100965000Y-105537000D01*
X99765750Y-105537000D01*
X99607000Y-105695750D01*
X99607000Y-106386309D01*
X99672318Y-106544000D01*
X97642594Y-106544000D01*
X97693000Y-106422309D01*
X97693000Y-106081750D01*
X97534250Y-105923000D01*
X96185000Y-105923000D01*
X96185000Y-105943000D01*
X95931000Y-105943000D01*
X95931000Y-105923000D01*
X94581750Y-105923000D01*
X94423000Y-106081750D01*
X94423000Y-106422309D01*
X94473406Y-106544000D01*
X92244473Y-106544000D01*
X92295500Y-106420809D01*
X92295500Y-106080250D01*
X92136750Y-105921500D01*
X90787500Y-105921500D01*
X90787500Y-105941500D01*
X90533500Y-105941500D01*
X90533500Y-105921500D01*
X89184250Y-105921500D01*
X89025500Y-106080250D01*
X89025500Y-106420809D01*
X89076527Y-106544000D01*
X87127000Y-106544000D01*
X87127000Y-105168191D01*
X89025500Y-105168191D01*
X89025500Y-105508750D01*
X89184250Y-105667500D01*
X90533500Y-105667500D01*
X90533500Y-104818250D01*
X90787500Y-104818250D01*
X90787500Y-105667500D01*
X92136750Y-105667500D01*
X92295500Y-105508750D01*
X92295500Y-105169691D01*
X94423000Y-105169691D01*
X94423000Y-105510250D01*
X94581750Y-105669000D01*
X95931000Y-105669000D01*
X95931000Y-104819750D01*
X96185000Y-104819750D01*
X96185000Y-105669000D01*
X97534250Y-105669000D01*
X97693000Y-105510250D01*
X97693000Y-105169691D01*
X97596327Y-104936302D01*
X97417699Y-104757673D01*
X97184310Y-104661000D01*
X96343750Y-104661000D01*
X96185000Y-104819750D01*
X95931000Y-104819750D01*
X95772250Y-104661000D01*
X94931690Y-104661000D01*
X94698301Y-104757673D01*
X94519673Y-104936302D01*
X94423000Y-105169691D01*
X92295500Y-105169691D01*
X92295500Y-105168191D01*
X92198827Y-104934802D01*
X92020199Y-104756173D01*
X91786810Y-104659500D01*
X90946250Y-104659500D01*
X90787500Y-104818250D01*
X90533500Y-104818250D01*
X90374750Y-104659500D01*
X89534190Y-104659500D01*
X89300801Y-104756173D01*
X89122173Y-104934802D01*
X89025500Y-105168191D01*
X87127000Y-105168191D01*
X87127000Y-103949169D01*
X88979364Y-103949169D01*
X89098014Y-104236323D01*
X89317521Y-104456214D01*
X89604468Y-104575364D01*
X89915169Y-104575636D01*
X90202323Y-104456986D01*
X90422214Y-104237479D01*
X90541364Y-103950532D01*
X90541636Y-103639831D01*
X90422986Y-103352677D01*
X90203479Y-103132786D01*
X89916532Y-103013636D01*
X89605831Y-103013364D01*
X89318677Y-103132014D01*
X89098786Y-103351521D01*
X88979636Y-103638468D01*
X88979364Y-103949169D01*
X87127000Y-103949169D01*
X87127000Y-92309000D01*
X99173763Y-92309000D01*
X97771228Y-93711536D01*
X97771228Y-93711536D01*
G37*
X97771228Y-93711536D02*
X97288000Y-93711536D01*
X97146810Y-93738103D01*
X97017135Y-93821546D01*
X96930141Y-93948866D01*
X96915939Y-94019000D01*
X96633223Y-94019000D01*
X96621897Y-93958810D01*
X96538454Y-93829135D01*
X96411134Y-93742141D01*
X96260000Y-93711536D01*
X95510000Y-93711536D01*
X95368810Y-93738103D01*
X95239135Y-93821546D01*
X95152141Y-93948866D01*
X95137939Y-94019000D01*
X94855223Y-94019000D01*
X94843897Y-93958810D01*
X94760454Y-93829135D01*
X94633134Y-93742141D01*
X94482000Y-93711536D01*
X93732000Y-93711536D01*
X93590810Y-93738103D01*
X93461135Y-93821546D01*
X93374141Y-93948866D01*
X93359939Y-94019000D01*
X93077223Y-94019000D01*
X93065897Y-93958810D01*
X92982454Y-93829135D01*
X92855134Y-93742141D01*
X92704000Y-93711536D01*
X91954000Y-93711536D01*
X91812810Y-93738103D01*
X91683135Y-93821546D01*
X91596141Y-93948866D01*
X91565536Y-94100000D01*
X91565536Y-94900000D01*
X91592103Y-95041190D01*
X91602972Y-95058081D01*
X91594301Y-95061673D01*
X91415673Y-95240302D01*
X91319000Y-95473691D01*
X91319000Y-95714250D01*
X91477750Y-95873000D01*
X92202000Y-95873000D01*
X92202000Y-95853000D01*
X92456000Y-95853000D01*
X92456000Y-95873000D01*
X93180250Y-95873000D01*
X93218000Y-95835250D01*
X93255750Y-95873000D01*
X93980000Y-95873000D01*
X93980000Y-95853000D01*
X94234000Y-95853000D01*
X94234000Y-95873000D01*
X94958250Y-95873000D01*
X94996000Y-95835250D01*
X95033750Y-95873000D01*
X95758000Y-95873000D01*
X95758000Y-95853000D01*
X96012000Y-95853000D01*
X96012000Y-95873000D01*
X96736250Y-95873000D01*
X96774000Y-95835250D01*
X96811750Y-95873000D01*
X97536000Y-95873000D01*
X97536000Y-95853000D01*
X97790000Y-95853000D01*
X97790000Y-95873000D01*
X98514250Y-95873000D01*
X98673000Y-95714250D01*
X98673000Y-95473691D01*
X98576327Y-95240302D01*
X98397699Y-95061673D01*
X98390652Y-95058754D01*
X98395859Y-95051134D01*
X98426464Y-94900000D01*
X98426464Y-94416772D01*
X98677536Y-94165700D01*
X98677536Y-94900000D01*
X98704103Y-95041190D01*
X98787546Y-95170865D01*
X98904798Y-95250980D01*
X98795135Y-95321546D01*
X98708141Y-95448866D01*
X98677536Y-95600000D01*
X98677536Y-96400000D01*
X98704103Y-96541190D01*
X98787546Y-96670865D01*
X98914866Y-96757859D01*
X99066000Y-96788464D01*
X99816000Y-96788464D01*
X99957190Y-96761897D01*
X100086865Y-96678454D01*
X100173859Y-96551134D01*
X100204464Y-96400000D01*
X100204464Y-95916772D01*
X100455536Y-95665700D01*
X100455536Y-96400000D01*
X100482103Y-96541190D01*
X100565546Y-96670865D01*
X100692866Y-96757859D01*
X100844000Y-96788464D01*
X101594000Y-96788464D01*
X101684289Y-96771475D01*
X101527764Y-96928000D01*
X98408026Y-96928000D01*
X98576327Y-96759698D01*
X98673000Y-96526309D01*
X98673000Y-96285750D01*
X98514250Y-96127000D01*
X97790000Y-96127000D01*
X97790000Y-96147000D01*
X97536000Y-96147000D01*
X97536000Y-96127000D01*
X96811750Y-96127000D01*
X96774000Y-96164750D01*
X96736250Y-96127000D01*
X96012000Y-96127000D01*
X96012000Y-96147000D01*
X95758000Y-96147000D01*
X95758000Y-96127000D01*
X95033750Y-96127000D01*
X94996000Y-96164750D01*
X94958250Y-96127000D01*
X94234000Y-96127000D01*
X94234000Y-96147000D01*
X93980000Y-96147000D01*
X93980000Y-96127000D01*
X93255750Y-96127000D01*
X93218000Y-96164750D01*
X93180250Y-96127000D01*
X92456000Y-96127000D01*
X92456000Y-96147000D01*
X92202000Y-96147000D01*
X92202000Y-96127000D01*
X91477750Y-96127000D01*
X91319000Y-96285750D01*
X91319000Y-96526309D01*
X91415673Y-96759698D01*
X91583974Y-96928000D01*
X91313000Y-96928000D01*
X91140130Y-96962386D01*
X91128929Y-96964614D01*
X90972881Y-97068882D01*
X90320382Y-97721382D01*
X90216114Y-97877429D01*
X90179500Y-98061500D01*
X90179500Y-98111869D01*
X90069310Y-98132603D01*
X89939635Y-98216046D01*
X89852641Y-98343366D01*
X89822036Y-98494500D01*
X89822036Y-98994500D01*
X89848603Y-99135690D01*
X89932046Y-99265365D01*
X90059366Y-99352359D01*
X90210500Y-99382964D01*
X91110500Y-99382964D01*
X91251690Y-99356397D01*
X91357697Y-99288184D01*
X91447173Y-99504198D01*
X91625801Y-99682827D01*
X91632848Y-99685746D01*
X91627641Y-99693366D01*
X91623564Y-99713500D01*
X91374121Y-99713500D01*
X91261634Y-99636641D01*
X91110500Y-99606036D01*
X90210500Y-99606036D01*
X90069310Y-99632603D01*
X89943592Y-99713500D01*
X89574121Y-99713500D01*
X89461634Y-99636641D01*
X89434629Y-99631172D01*
X89440898Y-99616075D01*
X89441100Y-99384939D01*
X89430921Y-99360305D01*
X89451690Y-99356397D01*
X89581365Y-99272954D01*
X89668359Y-99145634D01*
X89698964Y-98994500D01*
X89698964Y-98494500D01*
X89672397Y-98353310D01*
X89588954Y-98223635D01*
X89461634Y-98136641D01*
X89310500Y-98106036D01*
X88410500Y-98106036D01*
X88269310Y-98132603D01*
X88139635Y-98216046D01*
X88052641Y-98343366D01*
X88022036Y-98494500D01*
X88022036Y-98994500D01*
X88048603Y-99135690D01*
X88132046Y-99265365D01*
X88259366Y-99352359D01*
X88289662Y-99358494D01*
X88279102Y-99383925D01*
X88278900Y-99615061D01*
X88284933Y-99629663D01*
X88269310Y-99632603D01*
X88139635Y-99716046D01*
X88052641Y-99843366D01*
X88022036Y-99994500D01*
X88022036Y-100494500D01*
X88048603Y-100635690D01*
X88132046Y-100765365D01*
X88259366Y-100852359D01*
X88410500Y-100882964D01*
X89310500Y-100882964D01*
X89451690Y-100856397D01*
X89577408Y-100775500D01*
X89946879Y-100775500D01*
X90059366Y-100852359D01*
X90129500Y-100866561D01*
X90129500Y-100906036D01*
X89660500Y-100906036D01*
X89519310Y-100932603D01*
X89389635Y-101016046D01*
X89302641Y-101143366D01*
X89272036Y-101294500D01*
X89272036Y-102294500D01*
X89298603Y-102435690D01*
X89382046Y-102565365D01*
X89509366Y-102652359D01*
X89660500Y-102682964D01*
X90375016Y-102682964D01*
X90770476Y-103078424D01*
X90820165Y-103198680D01*
X90935827Y-103314544D01*
X90898786Y-103351521D01*
X90779636Y-103638468D01*
X90779364Y-103949169D01*
X90898014Y-104236323D01*
X91117521Y-104456214D01*
X91404468Y-104575364D01*
X91715169Y-104575636D01*
X92002323Y-104456986D01*
X92222214Y-104237479D01*
X92341307Y-103950669D01*
X94376864Y-103950669D01*
X94495514Y-104237823D01*
X94715021Y-104457714D01*
X95001968Y-104576864D01*
X95312669Y-104577136D01*
X95599823Y-104458486D01*
X95819714Y-104238979D01*
X95938864Y-103952032D01*
X95938865Y-103950669D01*
X96176864Y-103950669D01*
X96295514Y-104237823D01*
X96515021Y-104457714D01*
X96801968Y-104576864D01*
X97112669Y-104577136D01*
X97399823Y-104458486D01*
X97424661Y-104433691D01*
X99607000Y-104433691D01*
X99607000Y-105124250D01*
X99765750Y-105283000D01*
X100965000Y-105283000D01*
X100965000Y-104083750D01*
X100806250Y-103925000D01*
X100115690Y-103925000D01*
X99882301Y-104021673D01*
X99703673Y-104200302D01*
X99607000Y-104433691D01*
X97424661Y-104433691D01*
X97619714Y-104238979D01*
X97738864Y-103952032D01*
X97739136Y-103641331D01*
X97620486Y-103354177D01*
X97400979Y-103134286D01*
X97114032Y-103015136D01*
X96803331Y-103014864D01*
X96516177Y-103133514D01*
X96296286Y-103353021D01*
X96177136Y-103639968D01*
X96176864Y-103950669D01*
X95938865Y-103950669D01*
X95939136Y-103641331D01*
X95820486Y-103354177D01*
X95600979Y-103134286D01*
X95314032Y-103015136D01*
X95003331Y-103014864D01*
X94716177Y-103133514D01*
X94496286Y-103353021D01*
X94377136Y-103639968D01*
X94376864Y-103950669D01*
X92341307Y-103950669D01*
X92341364Y-103950532D01*
X92341636Y-103639831D01*
X92222986Y-103352677D01*
X92003479Y-103132786D01*
X91858053Y-103072400D01*
X91893898Y-102986075D01*
X91894100Y-102754939D01*
X91842526Y-102630120D01*
X91931365Y-102572954D01*
X92018359Y-102445634D01*
X92048964Y-102294500D01*
X92048964Y-101294500D01*
X92022397Y-101153310D01*
X91938954Y-101023635D01*
X91938753Y-101023498D01*
X91985500Y-101032964D01*
X92735500Y-101032964D01*
X92876690Y-101006397D01*
X93006365Y-100922954D01*
X93093359Y-100795634D01*
X93123964Y-100644500D01*
X93123964Y-99844500D01*
X93097397Y-99703310D01*
X93086528Y-99686419D01*
X93095199Y-99682827D01*
X93273827Y-99504198D01*
X93370500Y-99270809D01*
X93370500Y-99030250D01*
X93211750Y-98871500D01*
X92487500Y-98871500D01*
X92487500Y-98891500D01*
X92233500Y-98891500D01*
X92233500Y-98871500D01*
X92213500Y-98871500D01*
X92213500Y-98617500D01*
X92233500Y-98617500D01*
X92233500Y-98597500D01*
X92487500Y-98597500D01*
X92487500Y-98617500D01*
X93211750Y-98617500D01*
X93370500Y-98458750D01*
X93370500Y-98218191D01*
X93273827Y-97984802D01*
X93179026Y-97890000D01*
X96940974Y-97890000D01*
X96844673Y-97986302D01*
X96754725Y-98203455D01*
X96659134Y-98138141D01*
X96508000Y-98107536D01*
X95608000Y-98107536D01*
X95466810Y-98134103D01*
X95337135Y-98217546D01*
X95250141Y-98344866D01*
X95219536Y-98496000D01*
X95219536Y-98996000D01*
X95246103Y-99137190D01*
X95329546Y-99266865D01*
X95456866Y-99353859D01*
X95525791Y-99367816D01*
X95519102Y-99383925D01*
X95518900Y-99615061D01*
X95522443Y-99623635D01*
X95466810Y-99634103D01*
X95341092Y-99715000D01*
X94971621Y-99715000D01*
X94859134Y-99638141D01*
X94833861Y-99633023D01*
X94840898Y-99616075D01*
X94841100Y-99384939D01*
X94831316Y-99361260D01*
X94849190Y-99357897D01*
X94978865Y-99274454D01*
X95065859Y-99147134D01*
X95096464Y-98996000D01*
X95096464Y-98496000D01*
X95069897Y-98354810D01*
X94986454Y-98225135D01*
X94859134Y-98138141D01*
X94708000Y-98107536D01*
X93808000Y-98107536D01*
X93666810Y-98134103D01*
X93537135Y-98217546D01*
X93450141Y-98344866D01*
X93419536Y-98496000D01*
X93419536Y-98996000D01*
X93446103Y-99137190D01*
X93529546Y-99266865D01*
X93656866Y-99353859D01*
X93688893Y-99360345D01*
X93679102Y-99383925D01*
X93678900Y-99615061D01*
X93685328Y-99630619D01*
X93666810Y-99634103D01*
X93537135Y-99717546D01*
X93450141Y-99844866D01*
X93419536Y-99996000D01*
X93419536Y-100496000D01*
X93446103Y-100637190D01*
X93529546Y-100766865D01*
X93656866Y-100853859D01*
X93808000Y-100884464D01*
X94708000Y-100884464D01*
X94849190Y-100857897D01*
X94974908Y-100777000D01*
X95344379Y-100777000D01*
X95456866Y-100853859D01*
X95527000Y-100868061D01*
X95527000Y-100907536D01*
X95058000Y-100907536D01*
X94916810Y-100934103D01*
X94787135Y-101017546D01*
X94700141Y-101144866D01*
X94669536Y-101296000D01*
X94669536Y-102296000D01*
X94696103Y-102437190D01*
X94779546Y-102566865D01*
X94906866Y-102653859D01*
X95058000Y-102684464D01*
X97058000Y-102684464D01*
X97199190Y-102657897D01*
X97328865Y-102574454D01*
X97415859Y-102447134D01*
X97440186Y-102327000D01*
X97512052Y-102327000D01*
X97628477Y-102443425D01*
X97678165Y-102563680D01*
X97841460Y-102727260D01*
X98054925Y-102815898D01*
X98286061Y-102816100D01*
X98499680Y-102727835D01*
X98663260Y-102564540D01*
X98751898Y-102351075D01*
X98752100Y-102119939D01*
X98663835Y-101906320D01*
X98500540Y-101742740D01*
X98379377Y-101692429D01*
X98107474Y-101420526D01*
X97935205Y-101305420D01*
X97732000Y-101265000D01*
X97440631Y-101265000D01*
X97419897Y-101154810D01*
X97336454Y-101025135D01*
X97336253Y-101024998D01*
X97383000Y-101034464D01*
X98133000Y-101034464D01*
X98274190Y-101007897D01*
X98403865Y-100924454D01*
X98490859Y-100797134D01*
X98521464Y-100646000D01*
X98521464Y-99846000D01*
X98506176Y-99764750D01*
X98907000Y-99764750D01*
X98907000Y-100355310D01*
X99003673Y-100588699D01*
X99182302Y-100767327D01*
X99415691Y-100864000D01*
X100231250Y-100864000D01*
X100390000Y-100705250D01*
X100390000Y-99606000D01*
X99065750Y-99606000D01*
X98907000Y-99764750D01*
X98506176Y-99764750D01*
X98494897Y-99704810D01*
X98484028Y-99687919D01*
X98492699Y-99684327D01*
X98671327Y-99505698D01*
X98768000Y-99272309D01*
X98768000Y-99031750D01*
X98609250Y-98873000D01*
X97885000Y-98873000D01*
X97885000Y-98893000D01*
X97631000Y-98893000D01*
X97631000Y-98873000D01*
X97611000Y-98873000D01*
X97611000Y-98619000D01*
X97631000Y-98619000D01*
X97631000Y-98599000D01*
X97885000Y-98599000D01*
X97885000Y-98619000D01*
X98609250Y-98619000D01*
X98625560Y-98602690D01*
X98907000Y-98602690D01*
X98907000Y-99193250D01*
X99065750Y-99352000D01*
X100390000Y-99352000D01*
X100390000Y-98252750D01*
X100231250Y-98094000D01*
X99415691Y-98094000D01*
X99182302Y-98190673D01*
X99003673Y-98369301D01*
X98907000Y-98602690D01*
X98625560Y-98602690D01*
X98768000Y-98460250D01*
X98768000Y-98219691D01*
X98671327Y-97986302D01*
X98575026Y-97890000D01*
X101727000Y-97890000D01*
X101911071Y-97853386D01*
X102067118Y-97749118D01*
X102387486Y-97428750D01*
X102876000Y-97428750D01*
X102876000Y-97669309D01*
X102972673Y-97902698D01*
X103151301Y-98081327D01*
X103384690Y-98178000D01*
X103600250Y-98178000D01*
X103759000Y-98019250D01*
X103759000Y-97270000D01*
X103034750Y-97270000D01*
X102876000Y-97428750D01*
X102387486Y-97428750D01*
X102829119Y-96987118D01*
X102899914Y-96881164D01*
X103034750Y-97016000D01*
X103759000Y-97016000D01*
X103759000Y-96996000D01*
X104013000Y-96996000D01*
X104013000Y-97016000D01*
X104033000Y-97016000D01*
X104033000Y-97270000D01*
X104013000Y-97270000D01*
X104013000Y-98019250D01*
X104171750Y-98178000D01*
X104387310Y-98178000D01*
X104620699Y-98081327D01*
X104756536Y-97945489D01*
X104756536Y-98143000D01*
X104783103Y-98284190D01*
X104866546Y-98413865D01*
X104993866Y-98500859D01*
X105145000Y-98531464D01*
X106945000Y-98531464D01*
X107086190Y-98504897D01*
X107215865Y-98421454D01*
X107302859Y-98294134D01*
X107333464Y-98143000D01*
X107333464Y-97945489D01*
X107469301Y-98081327D01*
X107702690Y-98178000D01*
X107918250Y-98178000D01*
X108077000Y-98019250D01*
X108077000Y-97270000D01*
X108331000Y-97270000D01*
X108331000Y-98019250D01*
X108489750Y-98178000D01*
X108705310Y-98178000D01*
X108938699Y-98081327D01*
X109117327Y-97902698D01*
X109214000Y-97669309D01*
X109214000Y-97428750D01*
X109055250Y-97270000D01*
X108331000Y-97270000D01*
X108077000Y-97270000D01*
X108057000Y-97270000D01*
X108057000Y-97016000D01*
X108077000Y-97016000D01*
X108077000Y-96996000D01*
X108331000Y-96996000D01*
X108331000Y-97016000D01*
X109055250Y-97016000D01*
X109197250Y-96874000D01*
X110076337Y-96874000D01*
X109997740Y-96952460D01*
X109909102Y-97165925D01*
X109908900Y-97397061D01*
X109997165Y-97610680D01*
X110160460Y-97774260D01*
X110172157Y-97779117D01*
X110163102Y-97800925D01*
X110162900Y-98032061D01*
X110251165Y-98245680D01*
X110414460Y-98409260D01*
X110627925Y-98497898D01*
X110859061Y-98498100D01*
X111072680Y-98409835D01*
X111084536Y-98398000D01*
X111152000Y-98398000D01*
X111152000Y-98465220D01*
X111140740Y-98476460D01*
X111066358Y-98655594D01*
X110992000Y-98640536D01*
X110492000Y-98640536D01*
X110350810Y-98667103D01*
X110221135Y-98750546D01*
X110134141Y-98877866D01*
X110103536Y-99029000D01*
X110103536Y-99929000D01*
X110111000Y-99968667D01*
X110111000Y-100440536D01*
X109142000Y-100440536D01*
X109000810Y-100467103D01*
X108871135Y-100550546D01*
X108784141Y-100677866D01*
X108753536Y-100829000D01*
X108753536Y-100898000D01*
X108549032Y-100898000D01*
X108473134Y-100846141D01*
X108322000Y-100815536D01*
X107262000Y-100815536D01*
X107120810Y-100842103D01*
X106991135Y-100925546D01*
X106904141Y-101052866D01*
X106873536Y-101204000D01*
X106873536Y-101854000D01*
X106900103Y-101995190D01*
X106983546Y-102124865D01*
X107110866Y-102211859D01*
X107262000Y-102242464D01*
X108322000Y-102242464D01*
X108463190Y-102215897D01*
X108550057Y-102160000D01*
X108753536Y-102160000D01*
X108753536Y-102329000D01*
X108780103Y-102470190D01*
X108863546Y-102599865D01*
X108990866Y-102686859D01*
X109142000Y-102717464D01*
X109255983Y-102717464D01*
X109303062Y-102954144D01*
X109494039Y-103239961D01*
X110077039Y-103822961D01*
X110362856Y-104013938D01*
X110700000Y-104081000D01*
X113757078Y-104081000D01*
X113840635Y-104164557D01*
X113792000Y-104154883D01*
X113320917Y-104248587D01*
X112921552Y-104515435D01*
X112654704Y-104914800D01*
X112561000Y-105385883D01*
X112561000Y-105434117D01*
X112654704Y-105905200D01*
X112921552Y-106304565D01*
X113279891Y-106544000D01*
X111764109Y-106544000D01*
X112122448Y-106304565D01*
X112389296Y-105905200D01*
X112483000Y-105434117D01*
X112483000Y-105385883D01*
X112389296Y-104914800D01*
X112122448Y-104515435D01*
X111723083Y-104248587D01*
X111252000Y-104154883D01*
X110780917Y-104248587D01*
X110381552Y-104515435D01*
X110114704Y-104914800D01*
X110021000Y-105385883D01*
X110021000Y-105434117D01*
X110114704Y-105905200D01*
X110381552Y-106304565D01*
X110739891Y-106544000D01*
X109224109Y-106544000D01*
X109582448Y-106304565D01*
X109849296Y-105905200D01*
X109943000Y-105434117D01*
X109943000Y-105385883D01*
X109849296Y-104914800D01*
X109582448Y-104515435D01*
X109183083Y-104248587D01*
X108712000Y-104154883D01*
X108240917Y-104248587D01*
X107841552Y-104515435D01*
X107574704Y-104914800D01*
X107481000Y-105385883D01*
X107481000Y-105434117D01*
X107574704Y-105905200D01*
X107841552Y-106304565D01*
X108199891Y-106544000D01*
X106684109Y-106544000D01*
X107042448Y-106304565D01*
X107309296Y-105905200D01*
X107403000Y-105434117D01*
X107403000Y-105385883D01*
X107309296Y-104914800D01*
X107042448Y-104515435D01*
X106643083Y-104248587D01*
X106172000Y-104154883D01*
X105700917Y-104248587D01*
X105301552Y-104515435D01*
X105034704Y-104914800D01*
X104941000Y-105385883D01*
X104941000Y-105434117D01*
X105034704Y-105905200D01*
X105301552Y-106304565D01*
X105659891Y-106544000D01*
X104144109Y-106544000D01*
X104502448Y-106304565D01*
X104769296Y-105905200D01*
X104863000Y-105434117D01*
X104863000Y-105385883D01*
X104769296Y-104914800D01*
X104502448Y-104515435D01*
X104263000Y-104355440D01*
X104263000Y-102160000D01*
X104834968Y-102160000D01*
X104910866Y-102211859D01*
X105062000Y-102242464D01*
X106122000Y-102242464D01*
X106263190Y-102215897D01*
X106392865Y-102132454D01*
X106479859Y-102005134D01*
X106510464Y-101854000D01*
X106510464Y-101413561D01*
X106660327Y-101263699D01*
X106757000Y-101030310D01*
X106757000Y-100864750D01*
X106598250Y-100706000D01*
X105719000Y-100706000D01*
X105719000Y-100726000D01*
X105465000Y-100726000D01*
X105465000Y-100706000D01*
X104585750Y-100706000D01*
X104427000Y-100864750D01*
X104427000Y-100898000D01*
X104390368Y-100898000D01*
X104263000Y-100770632D01*
X104263000Y-100613513D01*
X104383190Y-100590897D01*
X104512865Y-100507454D01*
X104564960Y-100431210D01*
X104585750Y-100452000D01*
X105465000Y-100452000D01*
X105465000Y-100432000D01*
X105719000Y-100432000D01*
X105719000Y-100452000D01*
X106598250Y-100452000D01*
X106757000Y-100293250D01*
X106757000Y-100127690D01*
X106660327Y-99894301D01*
X106510464Y-99744439D01*
X106510464Y-99304000D01*
X106873536Y-99304000D01*
X106873536Y-99954000D01*
X106900103Y-100095190D01*
X106983546Y-100224865D01*
X107110866Y-100311859D01*
X107262000Y-100342464D01*
X108322000Y-100342464D01*
X108463190Y-100315897D01*
X108550057Y-100260000D01*
X108801557Y-100260000D01*
X108840866Y-100286859D01*
X108992000Y-100317464D01*
X109492000Y-100317464D01*
X109633190Y-100290897D01*
X109762865Y-100207454D01*
X109849859Y-100080134D01*
X109880464Y-99929000D01*
X109880464Y-99029000D01*
X109853897Y-98887810D01*
X109770454Y-98758135D01*
X109643134Y-98671141D01*
X109492000Y-98640536D01*
X108992000Y-98640536D01*
X108850810Y-98667103D01*
X108721135Y-98750546D01*
X108634141Y-98877866D01*
X108609814Y-98998000D01*
X108549032Y-98998000D01*
X108473134Y-98946141D01*
X108322000Y-98915536D01*
X107262000Y-98915536D01*
X107120810Y-98942103D01*
X106991135Y-99025546D01*
X106904141Y-99152866D01*
X106873536Y-99304000D01*
X106510464Y-99304000D01*
X106483897Y-99162810D01*
X106400454Y-99033135D01*
X106273134Y-98946141D01*
X106122000Y-98915536D01*
X105062000Y-98915536D01*
X104920810Y-98942103D01*
X104833943Y-98998000D01*
X104630464Y-98998000D01*
X104630464Y-98729000D01*
X104603897Y-98587810D01*
X104520454Y-98458135D01*
X104393134Y-98371141D01*
X104242000Y-98340536D01*
X102292000Y-98340536D01*
X102150810Y-98367103D01*
X102054963Y-98428778D01*
X102030327Y-98369301D01*
X101851698Y-98190673D01*
X101618309Y-98094000D01*
X100802750Y-98094000D01*
X100644000Y-98252750D01*
X100644000Y-99352000D01*
X100664000Y-99352000D01*
X100664000Y-99606000D01*
X100644000Y-99606000D01*
X100644000Y-100705250D01*
X100802750Y-100864000D01*
X101484020Y-100864000D01*
X101454136Y-100935968D01*
X101453864Y-101246669D01*
X101572514Y-101533823D01*
X101792021Y-101753714D01*
X102078968Y-101872864D01*
X102389669Y-101873136D01*
X102676823Y-101754486D01*
X102768469Y-101663000D01*
X103001000Y-101663000D01*
X103001000Y-104355440D01*
X102761552Y-104515435D01*
X102577000Y-104791636D01*
X102577000Y-104433691D01*
X102480327Y-104200302D01*
X102301699Y-104021673D01*
X102068310Y-103925000D01*
X101377750Y-103925000D01*
X101219000Y-104083750D01*
X101219000Y-105283000D01*
X101239000Y-105283000D01*
X101239000Y-105537000D01*
X101219000Y-105537000D01*
X101219000Y-105557000D01*
X100965000Y-105557000D01*
X100965000Y-105537000D01*
X99765750Y-105537000D01*
X99607000Y-105695750D01*
X99607000Y-106386309D01*
X99672318Y-106544000D01*
X97642594Y-106544000D01*
X97693000Y-106422309D01*
X97693000Y-106081750D01*
X97534250Y-105923000D01*
X96185000Y-105923000D01*
X96185000Y-105943000D01*
X95931000Y-105943000D01*
X95931000Y-105923000D01*
X94581750Y-105923000D01*
X94423000Y-106081750D01*
X94423000Y-106422309D01*
X94473406Y-106544000D01*
X92244473Y-106544000D01*
X92295500Y-106420809D01*
X92295500Y-106080250D01*
X92136750Y-105921500D01*
X90787500Y-105921500D01*
X90787500Y-105941500D01*
X90533500Y-105941500D01*
X90533500Y-105921500D01*
X89184250Y-105921500D01*
X89025500Y-106080250D01*
X89025500Y-106420809D01*
X89076527Y-106544000D01*
X87127000Y-106544000D01*
X87127000Y-105168191D01*
X89025500Y-105168191D01*
X89025500Y-105508750D01*
X89184250Y-105667500D01*
X90533500Y-105667500D01*
X90533500Y-104818250D01*
X90787500Y-104818250D01*
X90787500Y-105667500D01*
X92136750Y-105667500D01*
X92295500Y-105508750D01*
X92295500Y-105169691D01*
X94423000Y-105169691D01*
X94423000Y-105510250D01*
X94581750Y-105669000D01*
X95931000Y-105669000D01*
X95931000Y-104819750D01*
X96185000Y-104819750D01*
X96185000Y-105669000D01*
X97534250Y-105669000D01*
X97693000Y-105510250D01*
X97693000Y-105169691D01*
X97596327Y-104936302D01*
X97417699Y-104757673D01*
X97184310Y-104661000D01*
X96343750Y-104661000D01*
X96185000Y-104819750D01*
X95931000Y-104819750D01*
X95772250Y-104661000D01*
X94931690Y-104661000D01*
X94698301Y-104757673D01*
X94519673Y-104936302D01*
X94423000Y-105169691D01*
X92295500Y-105169691D01*
X92295500Y-105168191D01*
X92198827Y-104934802D01*
X92020199Y-104756173D01*
X91786810Y-104659500D01*
X90946250Y-104659500D01*
X90787500Y-104818250D01*
X90533500Y-104818250D01*
X90374750Y-104659500D01*
X89534190Y-104659500D01*
X89300801Y-104756173D01*
X89122173Y-104934802D01*
X89025500Y-105168191D01*
X87127000Y-105168191D01*
X87127000Y-103949169D01*
X88979364Y-103949169D01*
X89098014Y-104236323D01*
X89317521Y-104456214D01*
X89604468Y-104575364D01*
X89915169Y-104575636D01*
X90202323Y-104456986D01*
X90422214Y-104237479D01*
X90541364Y-103950532D01*
X90541636Y-103639831D01*
X90422986Y-103352677D01*
X90203479Y-103132786D01*
X89916532Y-103013636D01*
X89605831Y-103013364D01*
X89318677Y-103132014D01*
X89098786Y-103351521D01*
X88979636Y-103638468D01*
X88979364Y-103949169D01*
X87127000Y-103949169D01*
X87127000Y-92309000D01*
X99173763Y-92309000D01*
X97771228Y-93711536D01*
G36*
X112457250Y-91422250D02*
X113409750Y-91422250D01*
X113429750Y-91402250D01*
X113549750Y-91402250D01*
X113569750Y-91422250D01*
X114522250Y-91422250D01*
X114542250Y-91402250D01*
X114662250Y-91402250D01*
X114682250Y-91422250D01*
X115634750Y-91422250D01*
X115654750Y-91402250D01*
X115841750Y-91402250D01*
X115841750Y-91422250D01*
X115861750Y-91422250D01*
X115861750Y-91609250D01*
X115841750Y-91629250D01*
X115841750Y-92581750D01*
X115861750Y-92601750D01*
X115861750Y-92721750D01*
X115841750Y-92741750D01*
X115841750Y-93694250D01*
X115861750Y-93714250D01*
X115861750Y-93834250D01*
X115841750Y-93854250D01*
X115841750Y-94806750D01*
X115861750Y-94826750D01*
X115861750Y-95013750D01*
X115841750Y-95013750D01*
X115841750Y-95033750D01*
X115654750Y-95033750D01*
X115634750Y-95013750D01*
X114682250Y-95013750D01*
X114662250Y-95033750D01*
X114542250Y-95033750D01*
X114522250Y-95013750D01*
X113569750Y-95013750D01*
X113549750Y-95033750D01*
X113429750Y-95033750D01*
X113409750Y-95013750D01*
X112457250Y-95013750D01*
X112437250Y-95033750D01*
X112250250Y-95033750D01*
X112250250Y-95013750D01*
X112230250Y-95013750D01*
X112230250Y-94826750D01*
X112250250Y-94806750D01*
X112250250Y-93854250D01*
X112230250Y-93834250D01*
X112230250Y-93714250D01*
X112250250Y-93694250D01*
X112250250Y-92741750D01*
X112230250Y-92721750D01*
X112230250Y-92601750D01*
X112250250Y-92581750D01*
X112250250Y-91835000D01*
X112298500Y-91835000D01*
X112298500Y-92376000D01*
X112457250Y-92534750D01*
X112464724Y-92534750D01*
X112504250Y-92574275D01*
X112504250Y-92581750D01*
X112584250Y-92661750D01*
X112504250Y-92741750D01*
X112504250Y-92749225D01*
X112464724Y-92788750D01*
X112457250Y-92788750D01*
X112298500Y-92947500D01*
X112298500Y-93488500D01*
X112457250Y-93647250D01*
X112464724Y-93647250D01*
X112504250Y-93686775D01*
X112504250Y-93694250D01*
X112584250Y-93774250D01*
X112504250Y-93854250D01*
X112504250Y-93861725D01*
X112464724Y-93901250D01*
X112457250Y-93901250D01*
X112298500Y-94060000D01*
X112298500Y-94601000D01*
X112457250Y-94759750D01*
X112464724Y-94759750D01*
X112504250Y-94799275D01*
X112504250Y-94806750D01*
X112663000Y-94965500D01*
X113204000Y-94965500D01*
X113362750Y-94806750D01*
X113362750Y-94799275D01*
X113402276Y-94759750D01*
X113409750Y-94759750D01*
X113489750Y-94679750D01*
X113569750Y-94759750D01*
X113577224Y-94759750D01*
X113616750Y-94799275D01*
X113616750Y-94806750D01*
X113775500Y-94965500D01*
X114316500Y-94965500D01*
X114475250Y-94806750D01*
X114475250Y-94799275D01*
X114514776Y-94759750D01*
X114522250Y-94759750D01*
X114602250Y-94679750D01*
X114682250Y-94759750D01*
X114689724Y-94759750D01*
X114729250Y-94799275D01*
X114729250Y-94806750D01*
X114888000Y-94965500D01*
X115429000Y-94965500D01*
X115587750Y-94806750D01*
X115587750Y-94799275D01*
X115627276Y-94759750D01*
X115634750Y-94759750D01*
X115793500Y-94601000D01*
X115793500Y-94060000D01*
X115634750Y-93901250D01*
X115627276Y-93901250D01*
X115587750Y-93861725D01*
X115587750Y-93854250D01*
X115507750Y-93774250D01*
X115587750Y-93694250D01*
X115587750Y-93686775D01*
X115627276Y-93647250D01*
X115634750Y-93647250D01*
X115793500Y-93488500D01*
X115793500Y-92947500D01*
X115634750Y-92788750D01*
X115627276Y-92788750D01*
X115587750Y-92749225D01*
X115587750Y-92741750D01*
X115507750Y-92661750D01*
X115587750Y-92581750D01*
X115587750Y-92574275D01*
X115627276Y-92534750D01*
X115634750Y-92534750D01*
X115793500Y-92376000D01*
X115793500Y-91835000D01*
X115634750Y-91676250D01*
X115627276Y-91676250D01*
X115587750Y-91636725D01*
X115587750Y-91629250D01*
X115429000Y-91470500D01*
X114888000Y-91470500D01*
X114729250Y-91629250D01*
X114729250Y-91636725D01*
X114689724Y-91676250D01*
X114682250Y-91676250D01*
X114602250Y-91756250D01*
X114522250Y-91676250D01*
X114514776Y-91676250D01*
X114475250Y-91636725D01*
X114475250Y-91629250D01*
X114316500Y-91470500D01*
X113775500Y-91470500D01*
X113616750Y-91629250D01*
X113616750Y-91636725D01*
X113577224Y-91676250D01*
X113569750Y-91676250D01*
X113489750Y-91756250D01*
X113409750Y-91676250D01*
X113402276Y-91676250D01*
X113362750Y-91636725D01*
X113362750Y-91629250D01*
X113204000Y-91470500D01*
X112663000Y-91470500D01*
X112504250Y-91629250D01*
X112504250Y-91636725D01*
X112464724Y-91676250D01*
X112457250Y-91676250D01*
X112298500Y-91835000D01*
X112250250Y-91835000D01*
X112250250Y-91629250D01*
X112230250Y-91609250D01*
X112230250Y-91422250D01*
X112250250Y-91422250D01*
X112250250Y-91402250D01*
X112437250Y-91402250D01*
X112457250Y-91422250D01*
X112457250Y-91422250D01*
G37*
X112457250Y-91422250D02*
X113409750Y-91422250D01*
X113429750Y-91402250D01*
X113549750Y-91402250D01*
X113569750Y-91422250D01*
X114522250Y-91422250D01*
X114542250Y-91402250D01*
X114662250Y-91402250D01*
X114682250Y-91422250D01*
X115634750Y-91422250D01*
X115654750Y-91402250D01*
X115841750Y-91402250D01*
X115841750Y-91422250D01*
X115861750Y-91422250D01*
X115861750Y-91609250D01*
X115841750Y-91629250D01*
X115841750Y-92581750D01*
X115861750Y-92601750D01*
X115861750Y-92721750D01*
X115841750Y-92741750D01*
X115841750Y-93694250D01*
X115861750Y-93714250D01*
X115861750Y-93834250D01*
X115841750Y-93854250D01*
X115841750Y-94806750D01*
X115861750Y-94826750D01*
X115861750Y-95013750D01*
X115841750Y-95013750D01*
X115841750Y-95033750D01*
X115654750Y-95033750D01*
X115634750Y-95013750D01*
X114682250Y-95013750D01*
X114662250Y-95033750D01*
X114542250Y-95033750D01*
X114522250Y-95013750D01*
X113569750Y-95013750D01*
X113549750Y-95033750D01*
X113429750Y-95033750D01*
X113409750Y-95013750D01*
X112457250Y-95013750D01*
X112437250Y-95033750D01*
X112250250Y-95033750D01*
X112250250Y-95013750D01*
X112230250Y-95013750D01*
X112230250Y-94826750D01*
X112250250Y-94806750D01*
X112250250Y-93854250D01*
X112230250Y-93834250D01*
X112230250Y-93714250D01*
X112250250Y-93694250D01*
X112250250Y-92741750D01*
X112230250Y-92721750D01*
X112230250Y-92601750D01*
X112250250Y-92581750D01*
X112250250Y-91835000D01*
X112298500Y-91835000D01*
X112298500Y-92376000D01*
X112457250Y-92534750D01*
X112464724Y-92534750D01*
X112504250Y-92574275D01*
X112504250Y-92581750D01*
X112584250Y-92661750D01*
X112504250Y-92741750D01*
X112504250Y-92749225D01*
X112464724Y-92788750D01*
X112457250Y-92788750D01*
X112298500Y-92947500D01*
X112298500Y-93488500D01*
X112457250Y-93647250D01*
X112464724Y-93647250D01*
X112504250Y-93686775D01*
X112504250Y-93694250D01*
X112584250Y-93774250D01*
X112504250Y-93854250D01*
X112504250Y-93861725D01*
X112464724Y-93901250D01*
X112457250Y-93901250D01*
X112298500Y-94060000D01*
X112298500Y-94601000D01*
X112457250Y-94759750D01*
X112464724Y-94759750D01*
X112504250Y-94799275D01*
X112504250Y-94806750D01*
X112663000Y-94965500D01*
X113204000Y-94965500D01*
X113362750Y-94806750D01*
X113362750Y-94799275D01*
X113402276Y-94759750D01*
X113409750Y-94759750D01*
X113489750Y-94679750D01*
X113569750Y-94759750D01*
X113577224Y-94759750D01*
X113616750Y-94799275D01*
X113616750Y-94806750D01*
X113775500Y-94965500D01*
X114316500Y-94965500D01*
X114475250Y-94806750D01*
X114475250Y-94799275D01*
X114514776Y-94759750D01*
X114522250Y-94759750D01*
X114602250Y-94679750D01*
X114682250Y-94759750D01*
X114689724Y-94759750D01*
X114729250Y-94799275D01*
X114729250Y-94806750D01*
X114888000Y-94965500D01*
X115429000Y-94965500D01*
X115587750Y-94806750D01*
X115587750Y-94799275D01*
X115627276Y-94759750D01*
X115634750Y-94759750D01*
X115793500Y-94601000D01*
X115793500Y-94060000D01*
X115634750Y-93901250D01*
X115627276Y-93901250D01*
X115587750Y-93861725D01*
X115587750Y-93854250D01*
X115507750Y-93774250D01*
X115587750Y-93694250D01*
X115587750Y-93686775D01*
X115627276Y-93647250D01*
X115634750Y-93647250D01*
X115793500Y-93488500D01*
X115793500Y-92947500D01*
X115634750Y-92788750D01*
X115627276Y-92788750D01*
X115587750Y-92749225D01*
X115587750Y-92741750D01*
X115507750Y-92661750D01*
X115587750Y-92581750D01*
X115587750Y-92574275D01*
X115627276Y-92534750D01*
X115634750Y-92534750D01*
X115793500Y-92376000D01*
X115793500Y-91835000D01*
X115634750Y-91676250D01*
X115627276Y-91676250D01*
X115587750Y-91636725D01*
X115587750Y-91629250D01*
X115429000Y-91470500D01*
X114888000Y-91470500D01*
X114729250Y-91629250D01*
X114729250Y-91636725D01*
X114689724Y-91676250D01*
X114682250Y-91676250D01*
X114602250Y-91756250D01*
X114522250Y-91676250D01*
X114514776Y-91676250D01*
X114475250Y-91636725D01*
X114475250Y-91629250D01*
X114316500Y-91470500D01*
X113775500Y-91470500D01*
X113616750Y-91629250D01*
X113616750Y-91636725D01*
X113577224Y-91676250D01*
X113569750Y-91676250D01*
X113489750Y-91756250D01*
X113409750Y-91676250D01*
X113402276Y-91676250D01*
X113362750Y-91636725D01*
X113362750Y-91629250D01*
X113204000Y-91470500D01*
X112663000Y-91470500D01*
X112504250Y-91629250D01*
X112504250Y-91636725D01*
X112464724Y-91676250D01*
X112457250Y-91676250D01*
X112298500Y-91835000D01*
X112250250Y-91835000D01*
X112250250Y-91629250D01*
X112230250Y-91609250D01*
X112230250Y-91422250D01*
X112250250Y-91422250D01*
X112250250Y-91402250D01*
X112437250Y-91402250D01*
X112457250Y-91422250D01*
G36*
X113569750Y-93647250D02*
X113577224Y-93647250D01*
X113616750Y-93686775D01*
X113616750Y-93694250D01*
X113696750Y-93774250D01*
X113616750Y-93854250D01*
X113616750Y-93861725D01*
X113577224Y-93901250D01*
X113569750Y-93901250D01*
X113489750Y-93981250D01*
X113409750Y-93901250D01*
X113402276Y-93901250D01*
X113362750Y-93861725D01*
X113362750Y-93854250D01*
X113282750Y-93774250D01*
X113362750Y-93694250D01*
X113362750Y-93686775D01*
X113402276Y-93647250D01*
X113409750Y-93647250D01*
X113489750Y-93567250D01*
X113569750Y-93647250D01*
X113569750Y-93647250D01*
G37*
X113569750Y-93647250D02*
X113577224Y-93647250D01*
X113616750Y-93686775D01*
X113616750Y-93694250D01*
X113696750Y-93774250D01*
X113616750Y-93854250D01*
X113616750Y-93861725D01*
X113577224Y-93901250D01*
X113569750Y-93901250D01*
X113489750Y-93981250D01*
X113409750Y-93901250D01*
X113402276Y-93901250D01*
X113362750Y-93861725D01*
X113362750Y-93854250D01*
X113282750Y-93774250D01*
X113362750Y-93694250D01*
X113362750Y-93686775D01*
X113402276Y-93647250D01*
X113409750Y-93647250D01*
X113489750Y-93567250D01*
X113569750Y-93647250D01*
G36*
X114682250Y-93647250D02*
X114689724Y-93647250D01*
X114729250Y-93686775D01*
X114729250Y-93694250D01*
X114809250Y-93774250D01*
X114729250Y-93854250D01*
X114729250Y-93861725D01*
X114689724Y-93901250D01*
X114682250Y-93901250D01*
X114602250Y-93981250D01*
X114522250Y-93901250D01*
X114514776Y-93901250D01*
X114475250Y-93861725D01*
X114475250Y-93854250D01*
X114395250Y-93774250D01*
X114475250Y-93694250D01*
X114475250Y-93686775D01*
X114514776Y-93647250D01*
X114522250Y-93647250D01*
X114602250Y-93567250D01*
X114682250Y-93647250D01*
X114682250Y-93647250D01*
G37*
X114682250Y-93647250D02*
X114689724Y-93647250D01*
X114729250Y-93686775D01*
X114729250Y-93694250D01*
X114809250Y-93774250D01*
X114729250Y-93854250D01*
X114729250Y-93861725D01*
X114689724Y-93901250D01*
X114682250Y-93901250D01*
X114602250Y-93981250D01*
X114522250Y-93901250D01*
X114514776Y-93901250D01*
X114475250Y-93861725D01*
X114475250Y-93854250D01*
X114395250Y-93774250D01*
X114475250Y-93694250D01*
X114475250Y-93686775D01*
X114514776Y-93647250D01*
X114522250Y-93647250D01*
X114602250Y-93567250D01*
X114682250Y-93647250D01*
G36*
X113569750Y-92534750D02*
X113577224Y-92534750D01*
X113616750Y-92574275D01*
X113616750Y-92581750D01*
X113696750Y-92661750D01*
X113616750Y-92741750D01*
X113616750Y-92749225D01*
X113577224Y-92788750D01*
X113569750Y-92788750D01*
X113489750Y-92868750D01*
X113409750Y-92788750D01*
X113402276Y-92788750D01*
X113362750Y-92749225D01*
X113362750Y-92741750D01*
X113282750Y-92661750D01*
X113362750Y-92581750D01*
X113362750Y-92574275D01*
X113402276Y-92534750D01*
X113409750Y-92534750D01*
X113489750Y-92454750D01*
X113569750Y-92534750D01*
X113569750Y-92534750D01*
G37*
X113569750Y-92534750D02*
X113577224Y-92534750D01*
X113616750Y-92574275D01*
X113616750Y-92581750D01*
X113696750Y-92661750D01*
X113616750Y-92741750D01*
X113616750Y-92749225D01*
X113577224Y-92788750D01*
X113569750Y-92788750D01*
X113489750Y-92868750D01*
X113409750Y-92788750D01*
X113402276Y-92788750D01*
X113362750Y-92749225D01*
X113362750Y-92741750D01*
X113282750Y-92661750D01*
X113362750Y-92581750D01*
X113362750Y-92574275D01*
X113402276Y-92534750D01*
X113409750Y-92534750D01*
X113489750Y-92454750D01*
X113569750Y-92534750D01*
G36*
X114682250Y-92534750D02*
X114689724Y-92534750D01*
X114729250Y-92574275D01*
X114729250Y-92581750D01*
X114809250Y-92661750D01*
X114729250Y-92741750D01*
X114729250Y-92749225D01*
X114689724Y-92788750D01*
X114682250Y-92788750D01*
X114602250Y-92868750D01*
X114522250Y-92788750D01*
X114514776Y-92788750D01*
X114475250Y-92749225D01*
X114475250Y-92741750D01*
X114395250Y-92661750D01*
X114475250Y-92581750D01*
X114475250Y-92574275D01*
X114514776Y-92534750D01*
X114522250Y-92534750D01*
X114602250Y-92454750D01*
X114682250Y-92534750D01*
X114682250Y-92534750D01*
G37*
X114682250Y-92534750D02*
X114689724Y-92534750D01*
X114729250Y-92574275D01*
X114729250Y-92581750D01*
X114809250Y-92661750D01*
X114729250Y-92741750D01*
X114729250Y-92749225D01*
X114689724Y-92788750D01*
X114682250Y-92788750D01*
X114602250Y-92868750D01*
X114522250Y-92788750D01*
X114514776Y-92788750D01*
X114475250Y-92749225D01*
X114475250Y-92741750D01*
X114395250Y-92661750D01*
X114475250Y-92581750D01*
X114475250Y-92574275D01*
X114514776Y-92534750D01*
X114522250Y-92534750D01*
X114602250Y-92454750D01*
X114682250Y-92534750D01*
M02*
